mtllib pylon_medium.mtl
usemtl material
v -0.250000 0.000000 0.250000
v 0.250000 0.000000 0.250000
v -0.250000 0.000000 -0.250000
v 0.250000 0.000000 -0.250000
v -0.250000 1.000000 0.250000
v 0.250000 1.000000 0.250000
v -0.250000 1.000000 -0.250000
v 0.250000 1.000000 -0.250000
v -0.125000 1.000000 0.125000
v 0.125000 1.000000 0.125000
v -0.125000 1.000000 -0.125000
v 0.125000 1.000000 -0.125000
v -0.125000 7.000000 0.125000
v 0.125000 7.000000 0.125000
v -0.125000 7.000000 -0.125000
v 0.125000 7.000000 -0.125000
v -0.125000 7.000000 0.125000
v 0.125000 7.000000 0.125000
v -0.125000 7.000000 -0.125000
v 0.125000 7.000000 -0.125000
v -0.125000 7.062500 -0.125000
v -0.125000 7.062500 0.125000
v 0.125000 7.062500 0.125000
v 0.125000 7.062500 -0.125000
v -0.187500 7.062500 -0.187500
v -0.187500 7.062500 0.187500
v 0.187500 7.062500 0.187500
v 0.187500 7.062500 -0.187500
v -0.187500 7.187500 -0.187500
v -0.187500 7.187500 0.187500
v 0.187500 7.187500 0.187500
v 0.187500 7.187500 -0.187500
v -0.125000 7.187500 0.125000
v 0.125000 7.187500 0.125000
v -0.125000 7.187500 -0.125000
v 0.125000 7.187500 -0.125000
v -0.125000 7.250000 -0.125000
v -0.125000 7.250000 0.125000
v 0.125000 7.250000 0.125000
v 0.125000 7.250000 -0.125000
v -0.187500 7.250000 -0.187500
v -0.187500 7.250000 0.187500
v 0.187500 7.250000 0.187500
v 0.187500 7.250000 -0.187500
v -0.187500 7.375000 -0.187500
v -0.187500 7.375000 0.187500
v 0.187500 7.375000 0.187500
v 0.187500 7.375000 -0.187500
v -0.125000 7.375000 0.125000
v 0.125000 7.375000 0.125000
v -0.125000 7.375000 -0.125000
v 0.125000 7.375000 -0.125000
v -0.125000 7.437500 -0.125000
v -0.125000 7.437500 0.125000
v 0.125000 7.437500 0.125000
v 0.125000 7.437500 -0.125000
v -0.062500 7.437500 -0.062500
v -0.062500 7.437500 0.062500
v 0.062500 7.437500 0.062500
v 0.062500 7.437500 -0.062500
v -0.062500 7.562500 -0.062500
v -0.062500 7.562500 0.062500
v 0.062500 7.562500 0.062500
v 0.062500 7.562500 -0.062500
v -0.125000 7.000000 2.125000
v 0.125000 7.000000 2.125000
v -0.125000 6.750000 2.125000
v 0.125000 6.750000 2.125000
v -0.125000 7.000000 0.125000
v 0.125000 7.000000 0.125000
v -0.125000 6.750000 0.125000
v 0.125000 6.750000 0.125000
v -0.062500 5.750000 0.125000
v 0.062500 5.750000 0.125000
v -0.062500 6.000000 0.125000
v 0.062500 6.000000 0.125000
v -0.062500 6.750000 1.125000
v 0.062500 6.750000 1.125000
v -0.062500 6.750000 0.875000
v 0.062500 6.750000 0.875000
v -0.125000 7.000000 1.125000
v 0.125000 7.000000 1.125000
v -0.125000 7.000000 0.875000
v 0.125000 7.000000 0.875000
v -0.125000 7.062500 0.875000
v -0.125000 7.062500 1.125000
v 0.125000 7.062500 1.125000
v 0.125000 7.062500 0.875000
v -0.187500 7.062500 0.812500
v -0.187500 7.062500 1.187500
v 0.187500 7.062500 1.187500
v 0.187500 7.062500 0.812500
v -0.187500 7.187500 0.812500
v -0.187500 7.187500 1.187500
v 0.187500 7.187500 1.187500
v 0.187500 7.187500 0.812500
v -0.125000 7.187500 1.125000
v 0.125000 7.187500 1.125000
v -0.125000 7.187500 0.875000
v 0.125000 7.187500 0.875000
v -0.125000 7.250000 0.875000
v -0.125000 7.250000 1.125000
v 0.125000 7.250000 1.125000
v 0.125000 7.250000 0.875000
v -0.187500 7.250000 0.812500
v -0.187500 7.250000 1.187500
v 0.187500 7.250000 1.187500
v 0.187500 7.250000 0.812500
v -0.187500 7.375000 0.812500
v -0.187500 7.375000 1.187500
v 0.187500 7.375000 1.187500
v 0.187500 7.375000 0.812500
v -0.125000 7.375000 1.125000
v 0.125000 7.375000 1.125000
v -0.125000 7.375000 0.875000
v 0.125000 7.375000 0.875000
v -0.125000 7.437500 0.875000
v -0.125000 7.437500 1.125000
v 0.125000 7.437500 1.125000
v 0.125000 7.437500 0.875000
v -0.062500 7.437500 0.937500
v -0.062500 7.437500 1.062500
v 0.062500 7.437500 1.062500
v 0.062500 7.437500 0.937500
v -0.062500 7.562500 0.937500
v -0.062500 7.562500 1.062500
v 0.062500 7.562500 1.062500
v 0.062500 7.562500 0.937500
v -0.125000 7.000000 2.125000
v 0.125000 7.000000 2.125000
v -0.125000 7.000000 1.875000
v 0.125000 7.000000 1.875000
v -0.125000 7.062500 1.875000
v -0.125000 7.062500 2.125000
v 0.125000 7.062500 2.125000
v 0.125000 7.062500 1.875000
v -0.187500 7.062500 1.812500
v -0.187500 7.062500 2.187500
v 0.187500 7.062500 2.187500
v 0.187500 7.062500 1.812500
v -0.187500 7.187500 1.812500
v -0.187500 7.187500 2.187500
v 0.187500 7.187500 2.187500
v 0.187500 7.187500 1.812500
v -0.125000 7.187500 2.125000
v 0.125000 7.187500 2.125000
v -0.125000 7.187500 1.875000
v 0.125000 7.187500 1.875000
v -0.125000 7.250000 1.875000
v -0.125000 7.250000 2.125000
v 0.125000 7.250000 2.125000
v 0.125000 7.250000 1.875000
v -0.187500 7.250000 1.812500
v -0.187500 7.250000 2.187500
v 0.187500 7.250000 2.187500
v 0.187500 7.250000 1.812500
v -0.187500 7.375000 1.812500
v -0.187500 7.375000 2.187500
v 0.187500 7.375000 2.187500
v 0.187500 7.375000 1.812500
v -0.125000 7.375000 2.125000
v 0.125000 7.375000 2.125000
v -0.125000 7.375000 1.875000
v 0.125000 7.375000 1.875000
v -0.125000 7.437500 1.875000
v -0.125000 7.437500 2.125000
v 0.125000 7.437500 2.125000
v 0.125000 7.437500 1.875000
v -0.062500 7.437500 1.937500
v -0.062500 7.437500 2.062500
v 0.062500 7.437500 2.062500
v 0.062500 7.437500 1.937500
v -0.062500 7.562500 1.937500
v -0.062500 7.562500 2.062500
v 0.062500 7.562500 2.062500
v 0.062500 7.562500 1.937500
vt 0.538462 -0.000000
vt 0.384615 0.062500
vt 0.384615 -0.000000
vt 0.538462 0.062500
vt 0.384615 0.187500
vt 0.846154 0.062500
vt 0.692308 0.187500
vt 0.692308 0.062500
vt 0.538462 0.187500
vt 1.000000 0.062500
vt 0.846154 0.187500
vt 0.230769 0.000000
vt 0.153846 0.750000
vt 0.153846 0.000000
vt 0.384615 0.250000
vt 0.538462 0.250000
vt 0.480769 0.820312
vt 0.403846 0.828125
vt 0.403846 0.820312
vt 0.384615 0.000000
vt 0.307692 0.750000
vt 0.307692 0.000000
vt 0.076923 0.750000
vt 0.076923 0.000000
vt 0.230769 0.750000
vt 0.480769 0.820312
vt 0.403846 0.828125
vt 0.403846 0.820312
vt 0.480769 0.789062
vt 0.384615 0.796875
vt 0.403846 0.789062
vt 0.480769 0.781250
vt 0.403846 0.789062
vt 0.403846 0.781250
vt 0.480769 0.781250
vt 0.403846 0.789062
vt 0.403846 0.781250
vt 0.480769 0.781250
vt 0.403846 0.781250
vt 0.480769 0.781250
vt 0.403846 0.789062
vt 0.403846 0.781250
vt 0.500000 0.796875
vt 0.384615 0.812500
vt 0.384615 0.796875
vt 0.480769 0.789062
vt 0.384615 0.796875
vt 0.480769 0.789062
vt 0.480769 0.789062
vt 0.384615 0.796875
vt 0.480769 0.828125
vt 0.384615 0.835938
vt 0.403846 0.828125
vt 0.500000 0.796875
vt 0.384615 0.812500
vt 0.500000 0.796875
vt 0.384615 0.812500
vt 0.500000 0.796875
vt 0.384615 0.812500
vt 0.480769 0.820312
vt 0.403846 0.820312
vt 0.480769 0.820312
vt 0.403846 0.828125
vt 0.403846 0.820312
vt 0.500000 0.835938
vt 0.384615 0.851562
vt 0.384615 0.835938
vt 0.480769 0.828125
vt 0.384615 0.835938
vt 0.480769 0.828125
vt 0.480769 0.828125
vt 0.384615 0.835938
vt 0.500000 0.835938
vt 0.384615 0.851562
vt 0.500000 0.835938
vt 0.384615 0.851562
vt 0.500000 0.835938
vt 0.384615 0.851562
vt 0.500000 0.812500
vt 0.500000 0.812500
vt 0.500000 0.812500
vt 0.500000 0.812500
vt 0.480769 0.859375
vt 0.403846 0.867188
vt 0.403846 0.859375
vt 0.480769 0.859375
vt 0.403846 0.867188
vt 0.403846 0.859375
vt 0.480769 0.859375
vt 0.403846 0.867188
vt 0.403846 0.859375
vt 0.480769 0.859375
vt 0.403846 0.867188
vt 0.403846 0.859375
vt 0.500000 0.851562
vt 0.500000 0.851562
vt 0.500000 0.851562
vt 0.500000 0.851562
vt 0.480769 0.867188
vt 0.423077 0.875000
vt 0.461538 0.875000
vt 0.423077 0.890625
vt 0.423077 0.875000
vt 0.480769 0.867188
vt 0.423077 0.875000
vt 0.480769 0.867188
vt 0.423077 0.875000
vt 0.480769 0.867188
vt 0.423077 0.906250
vt 0.461538 0.890625
vt 0.461538 0.906250
vt 0.461538 0.875000
vt 0.423077 0.890625
vt 0.461538 0.875000
vt 0.423077 0.890625
vt 0.461538 0.875000
vt 0.423077 0.890625
vt 0.461538 0.750000
vt 0.384615 0.781250
vt 0.384615 0.750000
vt 0.615385 0.750000
vt 0.692308 0.500000
vt 0.692308 0.750000
vt 0.461538 0.500000
vt 0.538462 0.500000
vt 0.538462 0.750000
vt 0.615385 0.500000
vt 0.961538 0.875000
vt 0.923077 0.781250
vt 0.961538 0.781250
vt 0.769231 0.656250
vt 1.000000 0.531250
vt 1.000000 0.562500
vt 1.000000 0.906250
vt 0.961538 0.781250
vt 1.000000 0.781250
vt 1.000000 0.781250
vt 0.692308 0.687500
vt 0.692308 0.656250
vt 0.480769 0.820312
vt 0.403846 0.828125
vt 0.403846 0.820312
vt 0.480769 0.820312
vt 0.403846 0.828125
vt 0.403846 0.820312
vt 0.480769 0.789062
vt 0.384615 0.796875
vt 0.403846 0.789062
vt 0.480769 0.781250
vt 0.403846 0.789062
vt 0.403846 0.781250
vt 0.480769 0.781250
vt 0.403846 0.789062
vt 0.403846 0.781250
vt 0.480769 0.781250
vt 0.403846 0.781250
vt 0.480769 0.781250
vt 0.403846 0.789062
vt 0.403846 0.781250
vt 0.500000 0.796875
vt 0.384615 0.812500
vt 0.384615 0.796875
vt 0.480769 0.789062
vt 0.384615 0.796875
vt 0.480769 0.789062
vt 0.480769 0.789062
vt 0.384615 0.796875
vt 0.480769 0.828125
vt 0.384615 0.835938
vt 0.403846 0.828125
vt 0.500000 0.796875
vt 0.384615 0.812500
vt 0.500000 0.796875
vt 0.384615 0.812500
vt 0.500000 0.796875
vt 0.384615 0.812500
vt 0.480769 0.820312
vt 0.403846 0.820312
vt 0.480769 0.820312
vt 0.403846 0.828125
vt 0.403846 0.820312
vt 0.500000 0.835938
vt 0.384615 0.851562
vt 0.384615 0.835938
vt 0.480769 0.828125
vt 0.384615 0.835938
vt 0.480769 0.828125
vt 0.480769 0.828125
vt 0.384615 0.835938
vt 0.500000 0.835938
vt 0.384615 0.851562
vt 0.500000 0.835938
vt 0.384615 0.851562
vt 0.500000 0.835938
vt 0.384615 0.851562
vt 0.500000 0.812500
vt 0.500000 0.812500
vt 0.500000 0.812500
vt 0.500000 0.812500
vt 0.480769 0.859375
vt 0.403846 0.867188
vt 0.403846 0.859375
vt 0.480769 0.859375
vt 0.403846 0.867188
vt 0.403846 0.859375
vt 0.480769 0.859375
vt 0.403846 0.867188
vt 0.403846 0.859375
vt 0.480769 0.859375
vt 0.403846 0.867188
vt 0.403846 0.859375
vt 0.500000 0.851562
vt 0.500000 0.851562
vt 0.500000 0.851562
vt 0.500000 0.851562
vt 0.480769 0.867188
vt 0.423077 0.875000
vt 0.461538 0.875000
vt 0.423077 0.890625
vt 0.423077 0.875000
vt 0.480769 0.867188
vt 0.423077 0.875000
vt 0.480769 0.867188
vt 0.423077 0.875000
vt 0.480769 0.867188
vt 0.423077 0.906250
vt 0.461538 0.890625
vt 0.461538 0.906250
vt 0.461538 0.875000
vt 0.423077 0.890625
vt 0.461538 0.875000
vt 0.423077 0.890625
vt 0.461538 0.875000
vt 0.423077 0.890625
vt 0.480769 0.820312
vt 0.403846 0.828125
vt 0.403846 0.820312
vt 0.480769 0.820312
vt 0.403846 0.828125
vt 0.403846 0.820312
vt 0.480769 0.789062
vt 0.384615 0.796875
vt 0.403846 0.789062
vt 0.480769 0.781250
vt 0.403846 0.789062
vt 0.403846 0.781250
vt 0.480769 0.781250
vt 0.403846 0.789062
vt 0.403846 0.781250
vt 0.480769 0.781250
vt 0.403846 0.781250
vt 0.480769 0.781250
vt 0.403846 0.789062
vt 0.403846 0.781250
vt 0.500000 0.796875
vt 0.384615 0.812500
vt 0.384615 0.796875
vt 0.480769 0.789062
vt 0.384615 0.796875
vt 0.480769 0.789062
vt 0.480769 0.789062
vt 0.384615 0.796875
vt 0.480769 0.828125
vt 0.384615 0.835938
vt 0.403846 0.828125
vt 0.500000 0.796875
vt 0.384615 0.812500
vt 0.500000 0.796875
vt 0.384615 0.812500
vt 0.500000 0.796875
vt 0.384615 0.812500
vt 0.480769 0.820312
vt 0.403846 0.820312
vt 0.480769 0.820312
vt 0.403846 0.828125
vt 0.403846 0.820312
vt 0.500000 0.835938
vt 0.384615 0.851562
vt 0.384615 0.835938
vt 0.480769 0.828125
vt 0.384615 0.835938
vt 0.480769 0.828125
vt 0.480769 0.828125
vt 0.384615 0.835938
vt 0.500000 0.835938
vt 0.384615 0.851562
vt 0.500000 0.835938
vt 0.384615 0.851562
vt 0.500000 0.835938
vt 0.384615 0.851562
vt 0.500000 0.812500
vt 0.500000 0.812500
vt 0.500000 0.812500
vt 0.500000 0.812500
vt 0.480769 0.859375
vt 0.403846 0.867188
vt 0.403846 0.859375
vt 0.480769 0.859375
vt 0.403846 0.867188
vt 0.403846 0.859375
vt 0.480769 0.859375
vt 0.403846 0.867188
vt 0.403846 0.859375
vt 0.480769 0.859375
vt 0.403846 0.867188
vt 0.403846 0.859375
vt 0.500000 0.851562
vt 0.500000 0.851562
vt 0.500000 0.851562
vt 0.500000 0.851562
vt 0.480769 0.867188
vt 0.423077 0.875000
vt 0.461538 0.875000
vt 0.423077 0.890625
vt 0.423077 0.875000
vt 0.480769 0.867188
vt 0.423077 0.875000
vt 0.480769 0.867188
vt 0.423077 0.875000
vt 0.480769 0.867188
vt 0.423077 0.906250
vt 0.461538 0.890625
vt 0.461538 0.906250
vt 0.461538 0.875000
vt 0.423077 0.890625
vt 0.461538 0.875000
vt 0.423077 0.890625
vt 0.461538 0.875000
vt 0.423077 0.890625
vt 1.000000 0.187500
vt 0.384615 0.750000
vt 0.461538 0.890625
vt 0.461538 0.890625
vt 0.461538 0.890625
vt 0.461538 0.781250
vt 0.384615 0.500000
vt 0.923077 0.875000
vt 0.692308 0.656250
vt 0.961538 0.906250
vt 0.923077 0.781250
vt 0.461538 0.890625
vt 0.461538 0.890625
vt 0.461538 0.890625
vt 0.461538 0.890625
vt 0.461538 0.890625
vt 0.461538 0.890625
vn 0.0000 -1.0000 0.0000
vn 1.0000 0.0000 0.0000
vn -1.0000 0.0000 0.0000
vn 0.0000 0.0000 -1.0000
vn 0.0000 0.0000 1.0000
vn 0.0000 1.0000 0.0000
vn 0.0000 0.7071 -0.7071
vn 0.0000 -0.7071 0.7071
o Pylon
s off
f 3/1/1 2/2/1 1/3/1
f 4/4/2 6/5/2 2/2/2
f 1/6/3 7/7/3 3/8/3
f 3/8/4 8/9/4 4/4/4
f 2/10/5 5/11/5 1/6/5
f 11/12/4 16/13/4 12/14/4
f 5/15/6 8/9/6 7/16/6
f 36/17/2 39/18/2 34/19/2
f 10/20/5 13/21/5 9/22/5
f 12/14/2 14/23/2 10/24/2
f 9/22/3 15/25/3 11/12/3
f 33/26/3 37/27/3 35/28/3
f 21/29/1 28/30/1 24/31/1
f 20/32/2 23/33/2 18/34/2
f 17/35/3 21/36/3 19/37/3
f 19/38/4 24/31/4 20/39/4
f 18/40/5 22/41/5 17/42/5
f 28/43/2 31/44/2 27/45/2
f 23/46/1 26/47/1 22/41/1
f 24/48/1 27/45/1 23/33/1
f 22/49/1 25/50/1 21/36/1
f 37/51/1 44/52/1 40/53/1
f 26/54/3 29/55/3 25/50/3
f 25/56/4 32/57/4 28/30/4
f 27/58/5 30/59/5 26/47/5
f 35/60/4 40/53/4 36/61/4
f 34/62/5 38/63/5 33/64/5
f 44/65/2 47/66/2 43/67/2
f 39/68/1 42/69/1 38/63/1
f 40/70/1 43/67/1 39/18/1
f 38/71/1 41/72/1 37/27/1
f 42/73/3 45/74/3 41/72/3
f 41/75/4 48/76/4 44/52/4
f 43/77/5 46/78/5 42/69/5
f 34/62/6 30/59/6 31/79/6
f 36/17/6 31/44/6 32/80/6
f 35/60/6 32/57/6 29/81/6
f 33/26/6 29/55/6 30/82/6
f 52/83/2 55/84/2 50/85/2
f 49/86/3 53/87/3 51/88/3
f 51/89/4 56/90/4 52/91/4
f 50/92/5 54/93/5 49/94/5
f 50/92/6 46/78/6 47/95/6
f 52/83/6 47/66/6 48/96/6
f 51/89/6 48/76/6 45/97/6
f 49/86/6 45/74/6 46/98/6
f 54/99/6 57/100/6 53/87/6
f 60/101/2 63/102/2 59/103/2
f 53/104/6 60/105/6 56/90/6
f 55/106/6 58/107/6 54/93/6
f 56/108/6 59/103/6 55/84/6
f 62/109/6 64/110/6 61/111/6
f 58/112/3 61/113/3 57/100/3
f 57/114/4 64/115/4 60/105/4
f 59/116/5 62/117/5 58/107/5
f 65/118/5 68/119/5 66/120/5
f 68/121/2 70/122/2 66/123/2
f 66/120/6 69/124/6 65/118/6
f 65/118/3 71/125/3 67/126/3
f 67/126/1 72/127/1 68/121/1
f 79/128/7 76/129/7 75/130/7
f 80/131/2 74/132/2 76/133/2
f 78/134/8 73/135/8 74/136/8
f 77/137/3 75/138/3 73/139/3
f 100/140/2 103/141/2 98/142/2
f 97/143/3 101/144/3 99/145/3
f 85/146/1 92/147/1 88/148/1
f 84/149/2 87/150/2 82/151/2
f 81/152/3 85/153/3 83/154/3
f 83/155/4 88/148/4 84/156/4
f 82/157/5 86/158/5 81/159/5
f 92/160/2 95/161/2 91/162/2
f 87/163/1 90/164/1 86/158/1
f 88/165/1 91/162/1 87/150/1
f 86/166/1 89/167/1 85/153/1
f 101/168/1 108/169/1 104/170/1
f 90/171/3 93/172/3 89/167/3
f 89/173/4 96/174/4 92/147/4
f 91/175/5 94/176/5 90/164/5
f 99/177/4 104/170/4 100/178/4
f 98/179/5 102/180/5 97/181/5
f 108/182/2 111/183/2 107/184/2
f 103/185/1 106/186/1 102/180/1
f 104/187/1 107/184/1 103/141/1
f 102/188/1 105/189/1 101/144/1
f 106/190/3 109/191/3 105/189/3
f 105/192/4 112/193/4 108/169/4
f 107/194/5 110/195/5 106/186/5
f 98/179/6 94/176/6 95/196/6
f 100/140/6 95/161/6 96/197/6
f 99/177/6 96/174/6 93/198/6
f 97/143/6 93/172/6 94/199/6
f 116/200/2 119/201/2 114/202/2
f 113/203/3 117/204/3 115/205/3
f 115/206/4 120/207/4 116/208/4
f 114/209/5 118/210/5 113/211/5
f 114/209/6 110/195/6 111/212/6
f 116/200/6 111/183/6 112/213/6
f 115/206/6 112/193/6 109/214/6
f 113/203/6 109/191/6 110/215/6
f 118/216/6 121/217/6 117/204/6
f 124/218/2 127/219/2 123/220/2
f 117/221/6 124/222/6 120/207/6
f 119/223/6 122/224/6 118/210/6
f 120/225/6 123/220/6 119/201/6
f 126/226/6 128/227/6 125/228/6
f 122/229/3 125/230/3 121/217/3
f 121/231/4 128/232/4 124/222/4
f 123/233/5 126/234/5 122/224/5
f 148/235/2 151/236/2 146/237/2
f 145/238/3 149/239/3 147/240/3
f 133/241/1 140/242/1 136/243/1
f 132/244/2 135/245/2 130/246/2
f 129/247/3 133/248/3 131/249/3
f 131/250/4 136/243/4 132/251/4
f 130/252/5 134/253/5 129/254/5
f 140/255/2 143/256/2 139/257/2
f 135/258/1 138/259/1 134/253/1
f 136/260/1 139/257/1 135/245/1
f 134/261/1 137/262/1 133/248/1
f 149/263/1 156/264/1 152/265/1
f 138/266/3 141/267/3 137/262/3
f 137/268/4 144/269/4 140/242/4
f 139/270/5 142/271/5 138/259/5
f 147/272/4 152/265/4 148/273/4
f 146/274/5 150/275/5 145/276/5
f 156/277/2 159/278/2 155/279/2
f 151/280/1 154/281/1 150/275/1
f 152/282/1 155/279/1 151/236/1
f 150/283/1 153/284/1 149/239/1
f 154/285/3 157/286/3 153/284/3
f 153/287/4 160/288/4 156/264/4
f 155/289/5 158/290/5 154/281/5
f 146/274/6 142/271/6 143/291/6
f 148/235/6 143/256/6 144/292/6
f 147/272/6 144/269/6 141/293/6
f 145/238/6 141/267/6 142/294/6
f 164/295/2 167/296/2 162/297/2
f 161/298/3 165/299/3 163/300/3
f 163/301/4 168/302/4 164/303/4
f 162/304/5 166/305/5 161/306/5
f 162/304/6 158/290/6 159/307/6
f 164/295/6 159/278/6 160/308/6
f 163/301/6 160/288/6 157/309/6
f 161/298/6 157/286/6 158/310/6
f 166/311/6 169/312/6 165/299/6
f 172/313/2 175/314/2 171/315/2
f 165/316/6 172/317/6 168/302/6
f 167/318/6 170/319/6 166/305/6
f 168/320/6 171/315/6 167/296/6
f 174/321/6 176/322/6 173/323/6
f 170/324/3 173/325/3 169/312/3
f 169/326/4 176/327/4 172/317/4
f 171/328/5 174/329/5 170/319/5
f 3/1/1 4/4/1 2/2/1
f 4/4/2 8/9/2 6/5/2
f 1/6/3 5/11/3 7/7/3
f 3/8/4 7/7/4 8/9/4
f 2/10/5 6/330/5 5/11/5
f 11/12/4 15/25/4 16/13/4
f 5/15/6 6/5/6 8/9/6
f 36/17/2 40/70/2 39/18/2
f 10/20/5 14/331/5 13/21/5
f 12/14/2 16/13/2 14/23/2
f 9/22/3 13/21/3 15/25/3
f 33/26/3 38/71/3 37/27/3
f 21/29/1 25/56/1 28/30/1
f 20/32/2 24/48/2 23/33/2
f 17/35/3 22/49/3 21/36/3
f 19/38/4 21/29/4 24/31/4
f 18/40/5 23/46/5 22/41/5
f 28/43/2 32/80/2 31/44/2
f 23/46/1 27/58/1 26/47/1
f 24/48/1 28/43/1 27/45/1
f 22/49/1 26/54/1 25/50/1
f 37/51/1 41/75/1 44/52/1
f 26/54/3 30/82/3 29/55/3
f 25/56/4 29/81/4 32/57/4
f 27/58/5 31/79/5 30/59/5
f 35/60/4 37/51/4 40/53/4
f 34/62/5 39/68/5 38/63/5
f 44/65/2 48/96/2 47/66/2
f 39/68/1 43/77/1 42/69/1
f 40/70/1 44/65/1 43/67/1
f 38/71/1 42/73/1 41/72/1
f 42/73/3 46/98/3 45/74/3
f 41/75/4 45/97/4 48/76/4
f 43/77/5 47/95/5 46/78/5
f 34/62/6 33/64/6 30/59/6
f 36/17/6 34/19/6 31/44/6
f 35/60/6 36/61/6 32/57/6
f 33/26/6 35/28/6 29/55/6
f 52/83/2 56/108/2 55/84/2
f 49/86/3 54/99/3 53/87/3
f 51/89/4 53/104/4 56/90/4
f 50/92/5 55/106/5 54/93/5
f 50/92/6 49/94/6 46/78/6
f 52/83/6 50/85/6 47/66/6
f 51/89/6 52/91/6 48/76/6
f 49/86/6 51/88/6 45/74/6
f 54/99/6 58/112/6 57/100/6
f 60/101/2 64/110/2 63/102/2
f 53/104/6 57/114/6 60/105/6
f 55/106/6 59/116/6 58/107/6
f 56/108/6 60/101/6 59/103/6
f 62/109/6 63/102/6 64/110/6
f 58/112/3 62/332/3 61/113/3
f 57/114/4 61/333/4 64/115/4
f 59/116/5 63/334/5 62/117/5
f 65/118/5 67/335/5 68/119/5
f 68/121/2 72/127/2 70/122/2
f 66/120/6 70/336/6 69/124/6
f 65/118/3 69/124/3 71/125/3
f 67/126/1 71/125/1 72/127/1
f 79/128/7 80/337/7 76/129/7
f 80/131/2 78/338/2 74/132/2
f 78/134/8 77/339/8 73/135/8
f 77/137/3 79/340/3 75/138/3
f 100/140/2 104/187/2 103/141/2
f 97/143/3 102/188/3 101/144/3
f 85/146/1 89/173/1 92/147/1
f 84/149/2 88/165/2 87/150/2
f 81/152/3 86/166/3 85/153/3
f 83/155/4 85/146/4 88/148/4
f 82/157/5 87/163/5 86/158/5
f 92/160/2 96/197/2 95/161/2
f 87/163/1 91/175/1 90/164/1
f 88/165/1 92/160/1 91/162/1
f 86/166/1 90/171/1 89/167/1
f 101/168/1 105/192/1 108/169/1
f 90/171/3 94/199/3 93/172/3
f 89/173/4 93/198/4 96/174/4
f 91/175/5 95/196/5 94/176/5
f 99/177/4 101/168/4 104/170/4
f 98/179/5 103/185/5 102/180/5
f 108/182/2 112/213/2 111/183/2
f 103/185/1 107/194/1 106/186/1
f 104/187/1 108/182/1 107/184/1
f 102/188/1 106/190/1 105/189/1
f 106/190/3 110/215/3 109/191/3
f 105/192/4 109/214/4 112/193/4
f 107/194/5 111/212/5 110/195/5
f 98/179/6 97/181/6 94/176/6
f 100/140/6 98/142/6 95/161/6
f 99/177/6 100/178/6 96/174/6
f 97/143/6 99/145/6 93/172/6
f 116/200/2 120/225/2 119/201/2
f 113/203/3 118/216/3 117/204/3
f 115/206/4 117/221/4 120/207/4
f 114/209/5 119/223/5 118/210/5
f 114/209/6 113/211/6 110/195/6
f 116/200/6 114/202/6 111/183/6
f 115/206/6 116/208/6 112/193/6
f 113/203/6 115/205/6 109/191/6
f 118/216/6 122/229/6 121/217/6
f 124/218/2 128/227/2 127/219/2
f 117/221/6 121/231/6 124/222/6
f 119/223/6 123/233/6 122/224/6
f 120/225/6 124/218/6 123/220/6
f 126/226/6 127/219/6 128/227/6
f 122/229/3 126/341/3 125/230/3
f 121/231/4 125/342/4 128/232/4
f 123/233/5 127/343/5 126/234/5
f 148/235/2 152/282/2 151/236/2
f 145/238/3 150/283/3 149/239/3
f 133/241/1 137/268/1 140/242/1
f 132/244/2 136/260/2 135/245/2
f 129/247/3 134/261/3 133/248/3
f 131/250/4 133/241/4 136/243/4
f 130/252/5 135/258/5 134/253/5
f 140/255/2 144/292/2 143/256/2
f 135/258/1 139/270/1 138/259/1
f 136/260/1 140/255/1 139/257/1
f 134/261/1 138/266/1 137/262/1
f 149/263/1 153/287/1 156/264/1
f 138/266/3 142/294/3 141/267/3
f 137/268/4 141/293/4 144/269/4
f 139/270/5 143/291/5 142/271/5
f 147/272/4 149/263/4 152/265/4
f 146/274/5 151/280/5 150/275/5
f 156/277/2 160/308/2 159/278/2
f 151/280/1 155/289/1 154/281/1
f 152/282/1 156/277/1 155/279/1
f 150/283/1 154/285/1 153/284/1
f 154/285/3 158/310/3 157/286/3
f 153/287/4 157/309/4 160/288/4
f 155/289/5 159/307/5 158/290/5
f 146/274/6 145/276/6 142/271/6
f 148/235/6 146/237/6 143/256/6
f 147/272/6 148/273/6 144/269/6
f 145/238/6 147/240/6 141/267/6
f 164/295/2 168/320/2 167/296/2
f 161/298/3 166/311/3 165/299/3
f 163/301/4 165/316/4 168/302/4
f 162/304/5 167/318/5 166/305/5
f 162/304/6 161/306/6 158/290/6
f 164/295/6 162/297/6 159/278/6
f 163/301/6 164/303/6 160/288/6
f 161/298/6 163/300/6 157/286/6
f 166/311/6 170/324/6 169/312/6
f 172/313/2 176/322/2 175/314/2
f 165/316/6 169/326/6 172/317/6
f 167/318/6 171/328/6 170/319/6
f 168/320/6 172/313/6 171/315/6
f 174/321/6 175/314/6 176/322/6
f 170/324/3 174/344/3 173/325/3
f 169/326/4 173/345/4 176/327/4
f 171/328/5 175/346/5 174/329/5
