mtllib acidizer_fluid.mtl
usemtl material
v 1.062500 2.375000 0.375000
v 1.062500 2.375000 -0.375000
v 1.062500 4.625000 0.375000
v 1.062500 4.625000 -0.375000
v -1.062500 2.375000 -0.374999
v -1.062500 2.375000 0.375001
v -1.062500 4.625000 -0.374999
v -1.062500 4.625000 0.375001
v 0.374999 2.375000 -1.062500
v -0.375000 2.375000 -1.062500
v 0.374999 4.624999 -1.062500
v -0.375000 4.624999 -1.062500
v -0.374999 2.375000 1.062500
v 0.375001 2.375000 1.062500
v -0.374999 4.624999 1.062500
v 0.375001 4.624999 1.062500
vt 0.875000 2.000000
vt 0.125000 -1.000000
vt 0.875000 -1.000000
vt 0.875000 2.000000
vt 0.125000 -1.000000
vt 0.875000 -1.000000
vt 0.875000 2.000000
vt 0.125000 -1.000000
vt 0.875000 -1.000000
vt 0.875000 2.000000
vt 0.125000 -1.000000
vt 0.875000 -1.000000
vt 0.125000 2.000000
vt 0.125000 2.000000
vt 0.125000 2.000000
vt 0.125000 2.000000
vn 1.0000 0.0000 0.0000
vn -1.0000 0.0000 0.0000
vn 0.0000 0.0000 -1.0000
vn 0.0000 0.0000 1.0000
o Fluid
s off
f 4/1/1 1/2/1 2/3/1
f 8/4/2 5/5/2 6/6/2
f 12/7/3 9/8/3 10/9/3
f 16/10/4 13/11/4 14/12/4
f 4/1/1 3/13/1 1/2/1
f 8/4/2 7/14/2 5/5/2
f 12/7/3 11/15/3 9/8/3
f 16/10/4 15/16/4 13/11/4
