mtllib acidizer_spinner.mtl
usemtl material
v 0.000000 6.250000 -0.250000
v -0.176777 6.250000 -0.176777
v -0.250000 6.250000 0.000000
v -0.176777 6.250000 0.176777
v 0.000000 6.250000 0.250000
v 0.176777 6.250000 0.176777
v 0.250000 6.250000 0.000000
v 0.176777 6.250000 -0.176777
v 0.000000 6.625000 -0.250000
v -0.176777 6.625000 -0.176777
v -0.250000 6.625000 0.000000
v -0.176777 6.625000 0.176777
v 0.000000 6.625000 0.250000
v 0.176777 6.625000 0.176777
v 0.250000 6.625000 0.000000
v 0.176777 6.625000 -0.176777
v -0.062500 6.250000 0.562500
v 0.062500 6.250000 0.562500
v -0.062500 6.250000 -0.562500
v 0.062500 6.250000 -0.562500
v -0.062500 6.500000 -0.562500
v -0.062500 6.500000 0.562500
v 0.062500 6.500000 0.562500
v 0.062500 6.500000 -0.562500
v 0.000000 1.875000 -0.500000
v -0.353553 1.875000 -0.353553
v -0.500000 1.875000 0.000000
v -0.353553 1.875000 0.353553
v 0.000000 1.875000 0.500000
v 0.353553 1.875000 0.353553
v 0.500000 1.875000 0.000000
v 0.353553 1.875000 -0.353553
v 0.000000 5.125000 -0.500000
v -0.353553 5.125000 -0.353553
v -0.500000 5.125000 0.000000
v -0.353553 5.125000 0.353553
v 0.000000 5.125000 0.500000
v 0.353553 5.125000 0.353553
v 0.500000 5.125000 0.000000
v 0.353553 5.125000 -0.353553
v -0.062500 1.875000 0.750000
v 0.062500 1.875000 0.750000
v -0.062500 1.875000 -0.750000
v 0.062500 1.875000 -0.750000
v -0.062500 5.125000 0.750000
v 0.062500 5.125000 0.750000
v -0.062500 5.125000 -0.750000
v 0.062500 5.125000 -0.750000
vt 0.485065 0.898876
vt 0.505000 0.876477
vt 0.524935 0.898876
vt 0.480000 0.831461
vt 0.570000 0.842697
vt 0.480000 0.842697
vt 0.570000 0.808989
vt 0.480000 0.808989
vt 0.570000 0.808989
vt 0.480000 0.831461
vt 0.480000 0.808989
vt 0.580000 0.808989
vt 0.570000 0.831461
vt 0.580000 0.808989
vt 0.570000 0.831461
vt 0.610000 0.808989
vt 0.600000 0.516854
vt 0.610000 0.516854
vt 0.610000 0.808989
vt 0.600000 0.516854
vt 0.610000 0.516854
vt 0.600000 0.808989
vt 0.480000 0.516854
vt 0.600000 0.808989
vt 0.480000 0.516854
vt 0.519096 0.914715
vt 0.505000 0.921275
vt 0.490904 0.914715
vt 0.490904 0.883038
vt 0.519096 0.883038
vt 0.580000 0.831461
vt 0.580000 0.831461
vt 0.480000 0.808989
vt 0.480000 0.808989
vt 0.730000 0.887640
vt 0.715000 0.921348
vt 0.715000 0.887640
vt 0.700000 0.887640
vt 0.685000 0.921348
vt 0.685000 0.887640
vt 0.670000 0.887640
vt 0.655000 0.921348
vt 0.655000 0.887640
vt 0.760000 0.887640
vt 0.745000 0.921348
vt 0.745000 0.887640
vt 0.730000 0.921348
vt 0.700000 0.921348
vt 0.670000 0.921348
vt 0.775000 0.887640
vt 0.760000 0.921348
vt 0.640000 0.516854
vt 0.610000 0.808989
vt 0.610000 0.516854
vt 0.850000 0.516854
vt 0.820000 0.808989
vt 0.820000 0.516854
vt 0.790000 0.516854
vt 0.760000 0.808989
vt 0.760000 0.516854
vt 0.730000 0.516854
vt 0.700000 0.808989
vt 0.700000 0.516854
vt 0.670000 0.516854
vt 0.640000 0.808989
vt 0.790000 0.808989
vt 0.730000 0.808989
vt 0.670000 0.808989
vt 0.775000 0.921348
vt 0.850000 0.808989
vn 0.0000 1.0000 0.0000
vn 1.0000 0.0000 0.0000
vn -1.0000 0.0000 0.0000
vn 0.0000 0.0000 -1.0000
vn 0.0000 0.0000 1.0000
vn 0.7071 0.0000 -0.7071
vn 0.7071 0.0000 0.7071
vn -0.7071 0.0000 0.7071
vn -0.7071 0.0000 -0.7071
o Spinner
s 1
f 13/1/1 15/2/1 9/3/1
f 23/4/1 21/5/1 22/6/1
f 20/7/2 23/4/2 18/8/2
f 17/9/3 21/10/3 19/11/3
f 19/12/4 24/13/4 20/7/4
f 18/14/5 22/15/5 17/9/5
f 47/16/4 44/17/4 43/18/4
f 46/19/5 41/20/5 42/21/5
f 48/22/2 42/23/2 44/17/2
f 45/24/3 43/25/3 41/20/3
f 9/3/1 10/26/1 11/27/1
f 11/27/1 12/28/1 13/1/1
f 13/1/1 14/29/1 15/2/1
f 15/2/1 16/30/1 9/3/1
f 9/3/1 11/27/1 13/1/1
f 23/4/1 24/13/1 21/5/1
f 20/7/2 24/13/2 23/4/2
f 17/9/3 22/15/3 21/10/3
f 19/12/4 21/31/4 24/13/4
f 18/14/5 23/32/5 22/15/5
f 47/16/4 48/22/4 44/17/4
f 46/19/5 45/24/5 41/20/5
f 48/22/2 46/33/2 42/23/2
f 45/24/3 47/34/3 43/25/3
f 8/35/6 15/36/2 7/37/2
f 6/38/7 13/39/5 5/40/5
f 4/41/8 11/42/3 3/43/3
f 2/44/9 9/45/4 1/46/4
f 1/46/4 16/47/6 8/35/6
f 7/37/2 14/48/7 6/38/7
f 5/40/5 12/49/8 4/41/8
f 3/50/3 10/51/9 2/44/9
f 26/52/9 33/53/4 25/54/4
f 25/55/4 40/56/6 32/57/6
f 31/58/2 38/59/7 30/60/7
f 29/61/5 36/62/8 28/63/8
f 27/64/3 34/65/9 26/52/9
f 32/57/6 39/66/2 31/58/2
f 30/60/7 37/67/5 29/61/5
f 28/63/8 35/68/3 27/64/3
f 8/35/6 16/47/6 15/36/2
f 6/38/7 14/48/7 13/39/5
f 4/41/8 12/49/8 11/42/3
f 2/44/9 10/51/9 9/45/4
f 1/46/4 9/45/4 16/47/6
f 7/37/2 15/36/2 14/48/7
f 5/40/5 13/39/5 12/49/8
f 3/50/3 11/69/3 10/51/9
f 26/52/9 34/65/9 33/53/4
f 25/55/4 33/70/4 40/56/6
f 31/58/2 39/66/2 38/59/7
f 29/61/5 37/67/5 36/62/8
f 27/64/3 35/68/3 34/65/9
f 32/57/6 40/56/6 39/66/2
f 30/60/7 38/59/7 37/67/5
f 28/63/8 36/62/8 35/68/3
