mtllib assembly_machine_arm_upper_1.mtl
usemtl material
o ArmUpper1
v -0.031250 2.437500 0.937500
v -0.093750 2.437500 0.437500
v -0.093750 2.437500 0.937500
v -0.093750 2.312500 0.937500
v -0.031250 2.312500 0.437500
v -0.031250 2.312500 0.937500
v -0.093750 2.312500 0.437500
v -0.031250 2.437500 0.437500
v -0.125000 2.500000 0.937500
v -0.125000 2.375000 0.812500
v -0.125000 2.250000 0.937500
v 0.000000 2.463388 0.849112
v 0.000000 2.500000 0.937500
v 0.000000 2.463388 1.025888
v -0.125000 2.500000 0.437500
v -0.125000 2.375000 0.312500
v -0.125000 2.250000 0.437500
v 0.000000 2.463388 0.349112
v 0.000000 2.500000 0.437500
v 0.000000 2.463388 0.525888
v -0.125000 2.286612 1.025888
v -0.125000 2.375000 1.062500
v -0.125000 2.463388 1.025888
v -0.125000 2.463388 0.849112
v -0.125000 2.286612 0.849112
v 0.000000 2.375000 1.062500
v 0.000000 2.286612 1.025888
v 0.000000 2.250000 0.937500
v 0.000000 2.286612 0.849112
v 0.000000 2.375000 0.812500
v -0.125000 2.286612 0.525888
v -0.125000 2.375000 0.562500
v -0.125000 2.463388 0.525888
v -0.125000 2.463388 0.349112
v -0.125000 2.286612 0.349112
v 0.000000 2.375000 0.562500
v 0.000000 2.286612 0.525888
v 0.000000 2.250000 0.437500
v 0.000000 2.286612 0.349112
v 0.000000 2.375000 0.312500
vt 0.815789 0.666667
vt 0.763158 0.657407
vt 0.815789 0.657407
vt 0.815789 0.638889
vt 0.763158 0.629630
vt 0.815789 0.629630
vt 0.763158 0.638889
vt 0.815789 0.685185
vt 0.763158 0.666667
vt 0.723684 0.629566
vt 0.710572 0.611111
vt 0.723684 0.592656
vt 0.706641 0.624161
vt 0.697369 0.629566
vt 0.688096 0.624161
vt 0.723684 0.629566
vt 0.710572 0.611111
vt 0.723684 0.592656
vt 0.706641 0.624161
vt 0.697369 0.629566
vt 0.688096 0.624161
vt 0.763158 0.685185
vt 0.732956 0.598061
vt 0.736797 0.611111
vt 0.732957 0.624161
vt 0.714412 0.624161
vt 0.714412 0.598061
vt 0.684256 0.611111
vt 0.688096 0.598061
vt 0.697369 0.592656
vt 0.706641 0.598061
vt 0.710481 0.611111
vt 0.732956 0.598061
vt 0.736797 0.611111
vt 0.732957 0.624161
vt 0.714412 0.624161
vt 0.714412 0.598061
vt 0.684256 0.611111
vt 0.688096 0.598061
vt 0.697369 0.592656
vt 0.706641 0.598061
vt 0.710481 0.611111
vt 0.763158 0.574074
vt 0.776316 0.592593
vt 0.763158 0.592593
vt 0.789474 0.574074
vt 0.789474 0.592593
vt 0.684211 0.574074
vt 0.697368 0.592593
vt 0.684211 0.592593
vt 0.697368 0.574074
vt 0.710526 0.592593
vt 0.710526 0.574074
vt 0.723684 0.592593
vt 0.723684 0.574074
vt 0.736842 0.592593
vt 0.736842 0.574074
vt 0.750000 0.592593
vt 0.750000 0.574074
vt 0.763158 0.574074
vt 0.776316 0.592593
vt 0.763158 0.592593
vt 0.776316 0.574074
vt 0.789474 0.592593
vt 0.684211 0.574074
vt 0.697368 0.592593
vt 0.684211 0.592593
vt 0.710526 0.574074
vt 0.710526 0.592593
vt 0.723684 0.592593
vt 0.736842 0.574074
vt 0.736842 0.592593
vt 0.750000 0.592593
vt 0.750000 0.574074
vt 0.776316 0.574074
vt 0.789474 0.574074
vt 0.697368 0.574074
vt 0.723684 0.574074
vn 0.0000 1.0000 0.0000
vn 0.0000 -1.0000 0.0000
vn -1.0000 0.0000 0.0000
vn 1.0000 0.0000 0.0000
vn 0.0000 0.0000 1.0000
vn 0.0000 -0.7071 0.7071
vn 0.0000 -0.7071 -0.7071
vn 0.0000 0.0000 -1.0000
vn 0.0000 0.7071 -0.7071
vn 0.0000 0.7071 0.7071
s 1
f 1/1/1 2/2/1 3/3/1
f 4/4/2 5/5/2 6/6/2
f 3/3/3 7/7/3 4/4/3
f 6/8/4 8/9/4 1/1/4
f 9/10/3 10/11/3 11/12/3
f 12/13/4 13/14/4 14/15/4
f 15/16/3 16/17/3 17/18/3
f 18/19/4 19/20/4 20/21/4
f 1/1/1 8/9/1 2/2/1
f 4/4/2 7/7/2 5/5/2
f 3/3/3 2/2/3 7/7/3
f 6/8/4 5/22/4 8/9/4
f 11/12/3 21/23/3 22/24/3
f 22/24/3 23/25/3 9/10/3
f 9/10/3 24/26/3 10/11/3
f 10/11/3 25/27/3 11/12/3
f 11/12/3 22/24/3 9/10/3
f 14/15/4 26/28/4 27/29/4
f 27/29/4 28/30/4 14/15/4
f 28/30/4 29/31/4 14/15/4
f 29/31/4 30/32/4 14/15/4
f 30/32/4 12/13/4 14/15/4
f 17/18/3 31/33/3 32/34/3
f 32/34/3 33/35/3 15/16/3
f 15/16/3 34/36/3 16/17/3
f 16/17/3 35/37/3 17/18/3
f 17/18/3 32/34/3 15/16/3
f 20/21/4 36/38/4 37/39/4
f 37/39/4 38/40/4 20/21/4
f 38/40/4 39/41/4 20/21/4
f 39/41/4 40/42/4 20/21/4
f 40/42/4 18/19/4 20/21/4
f 22/43/5 27/44/6 26/45/5
f 27/44/6 11/46/2 28/47/2
f 11/48/2 29/49/7 28/50/2
f 25/51/7 30/52/8 29/49/7
f 10/53/8 12/54/9 30/52/8
f 24/55/9 13/56/1 12/54/9
f 9/57/1 14/58/10 13/56/1
f 23/59/10 26/45/5 14/58/10
f 32/60/5 37/61/6 36/62/5
f 31/63/6 38/64/2 37/61/6
f 17/65/2 39/66/7 38/67/2
f 39/66/7 16/68/8 40/69/8
f 16/68/8 18/70/9 40/69/8
f 18/70/9 15/71/1 19/72/1
f 15/71/1 20/73/10 19/72/1
f 33/74/10 36/62/5 20/73/10
f 22/43/5 21/75/6 27/44/6
f 27/44/6 21/75/6 11/46/2
f 11/48/2 25/51/7 29/49/7
f 25/51/7 10/53/8 30/52/8
f 10/53/8 24/55/9 12/54/9
f 24/55/9 9/57/1 13/56/1
f 9/57/1 23/59/10 14/58/10
f 23/59/10 22/43/5 26/45/5
f 32/60/5 31/63/6 37/61/6
f 31/63/6 17/76/2 38/64/2
f 17/65/2 35/77/7 39/66/7
f 39/66/7 35/77/7 16/68/8
f 16/68/8 34/78/9 18/70/9
f 18/70/9 34/78/9 15/71/1
f 15/71/1 33/74/10 20/73/10
f 33/74/10 32/60/5 36/62/5
