mtllib assembly_machine_head_1.mtl
usemtl material
o Head1
v 0.125000 2.750000 0.000000
v -0.125000 2.750000 0.250000
v 0.125000 2.750000 0.250000
v 0.125000 1.750000 0.000000
v -0.125000 1.750000 0.250000
v -0.125000 1.750000 0.000000
v -0.125000 2.750000 0.000000
v 0.125000 1.750000 0.250000
v -0.062500 2.500000 0.250000
v 0.062500 2.500000 0.437500
v 0.062500 2.500000 0.250000
v -0.062500 2.500000 0.437500
v 0.062500 2.250000 0.437500
v -0.062500 2.250000 0.437500
v 0.062500 2.250000 0.250000
v -0.062500 2.250000 0.250000
v -0.250000 1.875000 0.093750
v -0.250000 2.625000 0.156250
v -0.250000 2.625000 0.093750
v -0.125000 1.875000 0.156250
v -0.250000 1.875000 0.156250
v -0.125000 2.625000 0.093750
v -0.187500 2.562500 0.093750
v -0.187500 1.937500 0.156250
v -0.187500 1.937500 0.093750
v -0.125000 1.937500 0.093750
v -0.125000 2.562500 0.093750
v -0.187500 2.562500 0.156250
v -0.125000 2.625000 0.156250
v -0.125000 2.562500 0.156250
v -0.125000 1.875000 0.093750
v 0.250001 1.875000 0.156250
v 0.250001 2.625000 0.093750
v 0.250001 2.625000 0.156250
v 0.125001 1.875000 0.093750
v 0.250001 1.875000 0.093750
v 0.125001 2.625000 0.093750
v 0.125001 2.625000 0.156250
v 0.187501 2.562500 0.156250
v 0.187501 1.937500 0.093750
v 0.187501 1.937500 0.156250
v 0.125001 1.937500 0.093750
v 0.125001 2.562500 0.156250
v 0.187501 2.562500 0.093750
v 0.125001 2.562500 0.093750
v 0.125001 1.875000 0.156250
v 0.125001 1.937500 0.156250
v 0.000000 2.500000 0.437500
v 0.000000 2.375000 0.312500
v 0.000000 2.250000 0.437500
v 0.125000 2.463388 0.349112
v 0.125000 2.500000 0.437500
v 0.125000 2.463388 0.525888
v 0.130000 1.875000 0.171875
v 0.130000 2.062500 0.234375
v 0.130000 1.875000 0.234375
v -0.125000 1.937500 0.156250
v 0.000000 2.286612 0.525888
v 0.000000 2.375000 0.562500
v 0.000000 2.463388 0.525888
v 0.000000 2.463388 0.349112
v 0.000000 2.286612 0.349112
v 0.125000 2.375000 0.562500
v 0.125000 2.286612 0.525888
v 0.125000 2.250000 0.437500
v 0.125000 2.286612 0.349112
v 0.125000 2.375000 0.312500
v 0.130000 2.062500 0.171875
vt 0.750000 0.907407
vt 0.723684 0.870370
vt 0.750000 0.870370
vt 0.750000 0.685185
vt 0.723684 0.722222
vt 0.723684 0.685185
vt 0.802632 0.870370
vt 0.828947 0.722222
vt 0.828947 0.870370
vt 0.776316 0.722222
vt 0.776316 0.870370
vt 0.750000 0.722222
vt 0.802632 0.722222
vt 0.875000 0.574074
vt 0.861842 0.601852
vt 0.861842 0.574074
vt 0.875000 0.601852
vt 0.901316 0.620370
vt 0.875000 0.620370
vt 0.901316 0.601852
vt 0.914474 0.574074
vt 0.914474 0.601852
vt 0.901316 0.574074
vt 0.940789 0.574074
vt 0.940789 0.601852
vt 0.703947 0.703704
vt 0.710526 0.814815
vt 0.703947 0.814815
vt 0.710526 0.685185
vt 0.710526 0.703704
vt 0.703947 0.833333
vt 0.723684 0.805556
vt 0.717105 0.712963
vt 0.723684 0.712963
vt 0.717105 0.694444
vt 0.723684 0.685185
vt 0.723684 0.694444
vt 0.723684 0.833333
vt 0.717105 0.824074
vt 0.723684 0.824074
vt 0.697368 0.824074
vt 0.710526 0.833333
vt 0.717105 0.833333
vt 0.717105 0.805556
vt 0.697368 0.712963
vt 0.703947 0.685185
vt 0.697368 0.694444
vt 0.697368 0.685185
vt 0.703947 0.703704
vt 0.710526 0.814815
vt 0.703947 0.814815
vt 0.710526 0.685185
vt 0.710526 0.703704
vt 0.710526 0.833333
vt 0.703947 0.833333
vt 0.723684 0.805556
vt 0.717105 0.712963
vt 0.723684 0.712963
vt 0.717105 0.685185
vt 0.723684 0.694444
vt 0.717105 0.694444
vt 0.723684 0.833333
vt 0.717105 0.824074
vt 0.723684 0.824074
vt 0.697368 0.824074
vt 0.717105 0.833333
vt 0.717105 0.805556
vt 0.697368 0.712963
vt 0.703947 0.685185
vt 0.697368 0.694444
vt 0.697368 0.685185
vt 0.723684 0.629566
vt 0.710572 0.611111
vt 0.723684 0.592656
vt 0.706641 0.624161
vt 0.697369 0.629566
vt 0.688096 0.624161
vt 0.559211 1.000000
vt 0.460526 0.953704
vt 0.559211 0.953704
vt 0.723684 0.907407
vt 0.717105 0.685185
vt 0.697368 0.833333
vt 0.697368 0.805556
vt 0.723684 0.685185
vt 0.697368 0.833333
vt 0.697368 0.805556
vt 0.732956 0.598061
vt 0.736797 0.611111
vt 0.732957 0.624161
vt 0.714412 0.624161
vt 0.714412 0.598061
vt 0.684256 0.611111
vt 0.688096 0.598061
vt 0.697369 0.592656
vt 0.706641 0.598061
vt 0.710481 0.611111
vt 0.460526 1.000000
vt 0.763158 0.574074
vt 0.776316 0.592593
vt 0.763158 0.592593
vt 0.776316 0.574074
vt 0.789474 0.592593
vt 0.684211 0.574074
vt 0.697368 0.592593
vt 0.684211 0.592593
vt 0.697368 0.574074
vt 0.710526 0.592593
vt 0.710526 0.574074
vt 0.723684 0.592593
vt 0.723684 0.574074
vt 0.736842 0.592593
vt 0.736842 0.574074
vt 0.750000 0.592593
vt 0.750000 0.574074
vt 0.789474 0.574074
vn 0.0000 1.0000 0.0000
vn 0.0000 -1.0000 0.0000
vn -1.0000 0.0000 0.0000
vn 1.0000 -0.0000 0.0000
vn 0.0000 -0.0000 1.0000
vn 0.0000 0.0000 -1.0000
vn 0.0000 -0.7071 0.7071
vn 0.0000 -0.7071 -0.7071
vn 0.0000 0.7071 -0.7071
vn 0.0000 0.7071 0.7071
s 1
f 1/1/1 2/2/1 3/3/1
f 4/4/2 5/5/2 6/6/2
f 7/7/3 5/8/3 2/9/3
f 3/3/4 4/10/4 1/11/4
f 2/2/5 8/12/5 3/3/5
f 1/11/6 6/13/6 7/7/6
f 9/14/1 10/15/1 11/16/1
f 12/17/5 13/18/5 10/19/5
f 14/20/2 15/21/2 13/22/2
f 16/23/3 12/17/3 9/14/3
f 13/22/4 11/24/4 10/25/4
f 17/26/3 18/27/3 19/28/3
f 17/26/2 20/29/2 21/30/2
f 18/27/1 22/31/1 19/28/1
f 23/32/4 24/33/4 25/34/4
f 24/35/1 26/36/1 25/37/1
f 27/38/2 28/39/2 23/40/2
f 22/31/6 23/41/6 19/28/6
f 29/42/5 28/39/5 30/43/5
f 21/30/5 28/44/5 18/27/5
f 20/29/5 24/35/5 21/30/5
f 19/28/6 25/45/6 17/26/6
f 31/46/6 25/47/6 26/48/6
f 32/49/4 33/50/4 34/51/4
f 32/49/2 35/52/2 36/53/2
f 34/51/1 37/54/1 38/55/1
f 39/56/3 40/57/3 41/58/3
f 42/59/1 41/60/1 40/61/1
f 43/62/2 44/63/2 39/64/2
f 38/55/5 39/65/5 34/51/5
f 37/54/6 44/63/6 45/66/6
f 36/53/6 44/67/6 33/50/6
f 35/52/6 40/61/6 36/53/6
f 34/51/5 41/68/5 32/49/5
f 46/69/5 41/70/5 47/71/5
f 48/72/3 49/73/3 50/74/3
f 51/75/4 52/76/4 53/77/4
f 54/78/4 55/79/4 56/80/4
f 1/1/1 7/81/1 2/2/1
f 4/4/2 8/12/2 5/5/2
f 7/7/3 6/13/3 5/8/3
f 3/3/4 8/12/4 4/10/4
f 2/2/5 5/5/5 8/12/5
f 1/11/6 4/10/6 6/13/6
f 9/14/1 12/17/1 10/15/1
f 12/17/5 14/20/5 13/18/5
f 14/20/2 16/23/2 15/21/2
f 16/23/3 14/20/3 12/17/3
f 13/22/4 15/21/4 11/24/4
f 17/26/3 21/30/3 18/27/3
f 17/26/2 31/46/2 20/29/2
f 18/27/1 29/42/1 22/31/1
f 23/32/4 28/44/4 24/33/4
f 24/35/1 57/82/1 26/36/1
f 27/38/2 30/43/2 28/39/2
f 22/31/6 27/83/6 23/41/6
f 29/42/5 18/27/5 28/39/5
f 21/30/5 24/33/5 28/44/5
f 20/29/5 57/82/5 24/35/5
f 19/28/6 23/84/6 25/45/6
f 31/46/6 17/26/6 25/47/6
f 32/49/4 36/53/4 33/50/4
f 32/49/2 46/69/2 35/52/2
f 34/51/1 33/50/1 37/54/1
f 39/56/3 44/67/3 40/57/3
f 42/59/1 47/85/1 41/60/1
f 43/62/2 45/66/2 44/63/2
f 38/55/5 43/86/5 39/65/5
f 37/54/6 33/50/6 44/63/6
f 36/53/6 40/57/6 44/67/6
f 35/52/6 42/59/6 40/61/6
f 34/51/5 39/87/5 41/68/5
f 46/69/5 32/49/5 41/70/5
f 50/74/3 58/88/3 59/89/3
f 59/89/3 60/90/3 48/72/3
f 48/72/3 61/91/3 49/73/3
f 49/73/3 62/92/3 50/74/3
f 50/74/3 59/89/3 48/72/3
f 53/77/4 63/93/4 64/94/4
f 64/94/4 65/95/4 53/77/4
f 65/95/4 66/96/4 53/77/4
f 66/96/4 67/97/4 53/77/4
f 67/97/4 51/75/4 53/77/4
f 54/78/4 68/98/4 55/79/4
f 59/99/5 64/100/7 63/101/5
f 58/102/7 65/103/2 64/100/7
f 50/104/2 66/105/8 65/106/2
f 62/107/8 67/108/6 66/105/8
f 49/109/6 51/110/9 67/108/6
f 61/111/9 52/112/1 51/110/9
f 48/113/1 53/114/10 52/112/1
f 60/115/10 63/101/5 53/114/10
f 59/99/5 58/102/7 64/100/7
f 58/102/7 50/116/2 65/103/2
f 50/104/2 62/107/8 66/105/8
f 62/107/8 49/109/6 67/108/6
f 49/109/6 61/111/9 51/110/9
f 61/111/9 48/113/1 52/112/1
f 48/113/1 60/115/10 53/114/10
f 60/115/10 59/99/5 63/101/5
