mtllib assembly_machine_spike_2.mtl
usemtl material
o Spike2
v 0.062500 2.875000 -0.062500
v -0.062500 2.875000 -0.187500
v -0.062500 2.875000 -0.062500
v 0.062500 1.625000 -0.187500
v 0.062500 2.875000 -0.187500
v -0.062500 1.625000 -0.062500
v -0.062500 1.625000 -0.187500
v 0.062500 1.625000 -0.062500
v 0.000000 1.375000 -0.125000
vt 0.828947 0.888889
vt 0.842105 0.870370
vt 0.842105 0.888889
vt 0.868421 0.870370
vt 0.881579 0.685185
vt 0.881579 0.870370
vt 0.855263 0.685185
vt 0.855263 0.870370
vt 0.828947 0.870370
vt 0.842105 0.685185
vt 0.868421 0.685185
vt 0.848684 0.648148
vt 0.828947 0.685185
vt 0.835526 0.648148
vt 0.875000 0.648148
vt 0.861842 0.648148
vn 0.0000 1.0000 0.0000
vn 1.0000 0.0000 0.0000
vn -1.0000 0.0000 0.0000
vn 0.0000 0.0000 -1.0000
vn 0.0000 -0.0000 1.0000
vn -0.9701 -0.2425 0.0000
vn 0.0000 -0.2425 -0.9701
vn 0.9701 -0.2425 0.0000
vn 0.0000 -0.2425 0.9701
s off
f 1/1/1 2/2/1 3/3/1
f 1/4/2 4/5/2 5/6/2
f 2/2/3 6/7/3 3/8/3
f 5/9/4 7/10/4 2/2/4
f 3/8/5 8/11/5 1/4/5
f 6/7/6 7/10/6 9/12/6
f 7/10/7 4/13/7 9/14/7
f 4/5/8 8/11/8 9/15/8
f 8/11/9 6/7/9 9/16/9
f 1/1/1 5/9/1 2/2/1
f 1/4/2 8/11/2 4/5/2
f 2/2/3 7/10/3 6/7/3
f 5/9/4 4/13/4 7/10/4
f 3/8/5 6/7/5 8/11/5
