mtllib assembly_machine_base.mtl
usemtl material
o Base
v 1.500000 0.000000 -1.250000
v 1.500000 0.125000 1.250000
v 1.500000 -0.000000 1.250000
v 1.250000 0.250000 -1.250000
v 1.250000 0.000000 -1.500000
v 1.250000 0.000000 -1.250000
v 1.250000 0.250000 -1.500000
v 1.500000 0.000000 -1.500000
v 1.500000 0.250000 -1.500000
v 1.500000 0.000000 -1.250000
v 1.500000 0.250000 -1.250000
v -1.500000 0.250000 -1.250000
v -1.500000 0.000000 -1.500000
v -1.500000 0.000000 -1.250000
v -1.500000 0.250000 -1.500000
v -1.250000 0.000000 -1.500000
v -1.250000 0.250000 -1.500000
v -1.250000 0.000000 -1.250000
v -1.250000 0.250000 -1.250000
v 1.250000 0.250000 1.500000
v 1.250000 -0.000000 1.250000
v 1.250000 -0.000000 1.500000
v 1.250000 0.250000 1.250000
v 1.500000 -0.000000 1.250000
v 1.500000 0.250000 1.250000
v 1.500000 -0.000000 1.500000
v 1.500000 0.250000 1.500000
v -1.500000 0.250000 1.500000
v -1.500000 -0.000000 1.250000
v -1.500000 -0.000000 1.500000
v -1.500000 0.250000 1.250000
v -1.250000 -0.000000 1.250000
v -1.250000 0.250000 1.250000
v -1.250000 -0.000000 1.500000
v -1.250000 0.250000 1.500000
v 1.375000 0.000000 -1.250000
v 1.500000 0.125000 -1.250000
v 1.375000 0.125000 1.250000
v 1.375000 0.125000 -1.250000
v -1.375000 0.000000 -1.250000
v -1.375000 0.125000 1.250000
v -1.375000 -0.000000 1.250000
v -1.500000 0.000000 -1.250000
v -1.375000 0.125000 -1.250000
v -1.500000 0.125000 1.250000
v -1.500000 0.125000 -1.250000
v -1.250000 0.000000 -1.500000
v 1.250000 0.125000 -1.500000
v 1.250000 0.000000 -1.500000
v -1.250000 0.000000 -1.375000
v -1.250000 0.125000 -1.500000
v 1.250000 0.125000 -1.375000
v -1.250000 0.125000 -1.375000
v -1.250000 -0.000000 1.375000
v 1.250000 0.125000 1.375000
v 1.250000 -0.000000 1.375000
v -1.250000 -0.000000 1.500000
v -1.250000 0.125000 1.375000
v 1.250000 0.125000 1.500000
v -1.250000 0.125000 1.500000
v 1.500000 0.312500 0.187500
v 1.500000 0.687500 -0.187500
v 1.500000 0.687500 0.187500
v 1.375000 0.375000 0.125000
v 1.250000 0.375000 -0.125000
v 1.375000 0.375000 -0.125000
v 1.500000 0.312500 -0.187500
v 1.375000 0.687500 -0.187500
v 1.375000 0.312500 0.187500
v 1.375000 0.312500 -0.187500
v 1.375000 0.687500 0.187500
v 1.375000 0.625000 0.125000
v 1.375000 0.625000 -0.125000
v 1.250000 0.625000 0.125000
v 1.250000 0.625000 -0.125000
v 1.250000 0.375000 0.125000
v -0.125000 0.125000 1.500000
v 0.125000 0.125000 -1.500000
v 0.125000 0.125000 1.500000
v 0.125000 0.250000 -1.500000
v -0.125000 0.250000 1.500000
v 0.125000 0.250000 1.500000
v -0.125000 0.250000 -1.500000
v -0.125000 0.125000 -1.500000
v -1.125000 0.125000 1.500000
v -0.875000 0.125000 -1.500000
v -0.875000 0.125000 1.500000
v -0.875000 0.250000 -1.500000
v -1.125000 0.250000 1.500000
v -0.875000 0.250000 1.500000
v -1.125000 0.250000 -1.500000
v -1.125000 0.125000 -1.500000
v 0.875000 0.125000 1.500000
v 1.125000 0.125000 -1.500000
v 1.125000 0.125000 1.500000
v 1.125000 0.250000 -1.500000
v 0.875000 0.250000 1.500000
v 1.125000 0.250000 1.500000
v 0.875000 0.250000 -1.500000
v 0.875000 0.125000 -1.500000
v -1.250000 0.250000 1.250000
v 1.250000 0.250000 0.750000
v 1.250000 0.250000 1.250000
v 1.250000 0.750000 1.250000
v -1.250000 0.750000 0.750000
v -1.250000 0.750000 1.250000
v 1.250000 0.750000 0.750000
v -0.250000 0.250000 -1.250000
v 1.250000 0.750000 -1.250000
v 1.250000 0.250000 -1.250000
v -1.250000 0.250000 0.750000
v -1.250000 0.750000 -1.250000
v -0.750000 0.250000 -1.250000
v -1.250000 0.250000 -1.250000
v -0.750000 0.250000 0.250000
v -1.250000 0.750000 0.250000
v -1.250000 0.250000 0.250000
v -0.750000 0.750000 0.250000
v -0.750000 0.750000 -1.250000
v 1.250000 0.750000 0.250000
v -0.250000 0.250000 0.250000
v 1.250000 0.250000 0.250000
v -0.250000 0.750000 0.250000
v -0.250000 0.750000 -1.250000
v 0.526189 1.250000 1.270334
v 0.795495 1.250000 0.795496
v 0.430518 1.250000 1.039365
v 0.000000 1.250000 1.375000
v 0.000000 1.250000 1.125000
v -0.526190 1.250000 1.270334
v -0.430519 1.250000 1.039364
v -0.972272 1.250000 0.972272
v -0.795495 1.250000 0.795495
v -1.270334 1.250000 0.526190
v -1.039365 1.250000 0.430519
v -1.375000 1.250000 0.000000
v -1.125000 1.250000 0.000000
v -1.039365 1.250000 -0.430519
v -1.270334 1.250000 -0.526190
v -0.795495 1.250000 -0.795495
v -0.972272 1.250000 -0.972272
v -0.430519 1.250000 -1.039364
v -0.526190 1.250000 -1.270334
v 0.000000 1.250000 -1.125000
v 0.000000 1.250000 -1.375000
v 0.430518 1.250000 -1.039365
v 0.526189 1.250000 -1.270335
v 0.795495 1.250000 -0.795496
v 0.972271 1.250000 -0.972272
v 1.039364 1.250000 -0.430519
v 1.270334 1.250000 -0.526190
v 1.125000 1.250000 0.000000
v 1.375000 1.250000 0.000000
v 1.039364 1.250000 0.430519
v 1.270334 1.250000 0.526190
v 0.972271 1.250000 0.972272
v 0.526189 1.000000 1.270334
v 0.795495 1.000000 0.795496
v 0.972271 1.000000 0.972272
v 0.000000 1.000000 1.375000
v 0.430518 1.000000 1.039365
v -0.526190 1.000000 1.270334
v 0.000000 1.000000 1.125000
v -0.972272 1.000000 0.972272
v -0.430519 1.000000 1.039364
v -1.270334 1.000000 0.526190
v -0.795495 1.000000 0.795495
v -1.375000 1.000000 0.000000
v -1.039365 1.000000 0.430519
v -1.039365 1.000000 -0.430519
v -1.270334 1.000000 -0.526190
v -0.795495 1.000000 -0.795495
v -0.972272 1.000000 -0.972272
v -0.430519 1.000000 -1.039364
v -0.526190 1.000000 -1.270334
v 0.000000 1.000000 -1.125000
v 0.000000 1.000000 -1.375000
v 0.430518 1.000000 -1.039365
v 0.526189 1.000000 -1.270335
v 0.795495 1.000000 -0.795496
v 0.972271 1.000000 -0.972272
v 1.039364 1.000000 -0.430519
v 1.270334 1.000000 -0.526190
v 1.125000 1.000000 0.000000
v 1.375000 1.000000 0.000000
v 1.039364 1.000000 0.430519
v 1.270334 1.000000 0.526190
v 0.375000 1.000000 0.375000
v -0.375000 1.000000 -0.375000
v -0.375000 1.000000 0.375000
v 0.250000 0.875000 0.250000
v 0.250000 0.750000 -0.250000
v 0.250000 0.875000 -0.250000
v -0.375000 0.875000 0.375000
v 0.375000 1.000000 -0.375000
v -0.375000 0.875000 -0.375000
v 0.375000 0.875000 0.375000
v 0.375000 0.875000 -0.375000
v -1.187500 0.750000 1.187500
v -1.187500 1.000000 0.812500
v -1.187500 0.750000 0.812500
v -0.812500 0.750000 0.812500
v -0.812500 1.000000 1.187500
v -0.812500 0.750000 1.187500
v -1.187500 0.750000 -0.812500
v -1.187500 1.000000 -1.187500
v -1.187500 0.750000 -1.187500
v -0.812500 1.000000 -1.187500
v -0.812500 0.750000 -1.187500
v -0.812500 0.750000 -0.812500
v -1.187500 1.000000 -0.812500
v -0.875000 1.062500 -0.875000
v -1.125000 1.062500 -1.125000
v -1.125000 1.062500 -0.875000
v 1.125000 1.062500 -0.875000
v 0.875000 1.062500 -1.125000
v 0.875000 1.062500 -0.875000
v 1.187500 0.750000 -0.812500
v 0.812500 1.000000 -0.812500
v 0.812500 0.750000 -0.812500
v 0.812500 0.750000 -1.187500
v 1.187500 1.000000 -1.187500
v 1.187500 0.750000 -1.187500
v 0.812500 1.000000 -1.187500
v 1.187500 0.750000 0.812500
v 1.187500 1.000000 1.187500
v 1.187500 0.750000 1.187500
v 0.812500 0.750000 1.187500
v 0.812500 1.000000 0.812500
v 0.812500 0.750000 0.812500
v 1.187500 1.000000 0.812500
v 0.812500 1.000000 1.187500
v 1.125000 1.062500 1.125000
v 0.875000 1.062500 0.875000
v 0.875000 1.062500 1.125000
v 1.187500 1.000000 -0.812500
v -0.812500 1.000000 0.812500
v -1.187500 1.000000 1.187500
v -0.875000 1.062500 1.125000
v -1.125000 1.062500 0.875000
v -1.125000 1.062500 1.125000
v -0.812500 1.000000 -0.812500
v -0.250000 0.875000 0.250000
v -0.250000 0.875000 -0.250000
v -0.250000 0.750000 -0.250000
v 0.250000 0.750000 0.250000
v -0.250000 0.750000 0.250000
v -0.928078 0.812500 0.839689
v 0.928077 0.812500 -0.839689
v -0.839690 0.812500 0.928078
v -0.839690 0.937500 0.928078
v 0.839689 0.937500 -0.928078
v -0.928078 0.937500 0.839689
v 0.839689 0.812500 -0.928078
v 0.839689 0.812500 0.928078
v -0.839690 0.812500 -0.928078
v 0.928077 0.812500 0.839689
v 0.928077 0.937500 0.839689
v -0.928078 0.937500 -0.839689
v 0.839689 0.937500 0.928078
v -0.928078 0.812500 -0.839689
v 1.250000 0.562500 0.875000
v 1.375000 0.562500 0.125000
v 1.250000 0.562500 0.125000
v -1.375001 0.437500 0.125000
v -1.375001 0.562500 0.875000
v -1.375001 0.562500 0.125000
v 1.250000 0.437500 0.125000
v 1.375000 0.437500 0.875000
v 1.250000 0.437500 0.875000
v -1.250001 0.437500 0.875000
v -1.250001 0.437500 0.125000
v 1.375000 0.562500 0.875000
v 1.250000 0.500000 0.750000
v 1.250000 0.323223 0.676777
v 1.250000 0.250000 0.500000
v -1.250001 0.562500 0.125000
v -1.250001 0.562500 0.875000
v -1.250000 0.323223 0.676777
v -1.250000 0.676777 0.676777
v -1.250000 0.676777 0.323223
v -0.875000 1.062500 -1.125000
v 1.125000 1.062500 -1.125000
v 1.125000 1.062500 0.875000
v -0.875000 1.062500 0.875000
v 1.500000 0.312500 -0.812500
v 1.500000 0.687500 -1.187500
v 1.500000 0.687500 -0.812500
v 1.375000 0.375000 -0.875000
v 1.250000 0.375000 -1.125000
v 1.375000 0.375000 -1.125000
v 1.500000 0.312500 -1.187500
v 1.375000 0.687500 -1.187500
v 1.375000 0.312500 -0.812500
v 1.375000 0.312500 -1.187500
v 1.375000 0.687500 -0.812500
v 1.375000 0.625000 -0.875000
v 1.375000 0.625000 -1.125000
v 1.250000 0.625000 -0.875000
v 1.250000 0.625000 -1.125000
v 1.250000 0.375000 -0.875000
v 1.500000 0.312500 1.187500
v 1.500000 0.687500 0.812500
v 1.500000 0.687500 1.187500
v 1.375000 0.375000 1.125000
v 1.250000 0.375000 0.875000
v 1.375000 0.375000 0.875000
v 1.500000 0.312500 0.812500
v 1.375000 0.687500 0.812500
v 1.375000 0.312500 1.187500
v 1.375000 0.312500 0.812500
v 1.375000 0.687500 1.187500
v 1.375000 0.625000 1.125000
v 1.375000 0.625000 0.875000
v 1.250000 0.625000 1.125000
v 1.250000 0.625000 0.875000
v 1.250000 0.375000 1.125000
v -1.500000 0.312500 -0.187500
v -1.500000 0.687500 0.187500
v -1.500000 0.687500 -0.187500
v -1.375000 0.375000 -0.125000
v -1.250000 0.375000 0.125000
v -1.375000 0.375000 0.125000
v -1.500000 0.312500 0.187500
v -1.375000 0.687500 0.187500
v -1.375000 0.312500 -0.187500
v -1.375000 0.312500 0.187500
v -1.375000 0.687500 -0.187500
v -1.375000 0.625000 -0.125000
v -1.375000 0.625000 0.125000
v -1.250000 0.625000 -0.125000
v -1.250000 0.625000 0.125000
v -1.250000 0.375000 -0.125000
v -1.500000 0.312500 0.812500
v -1.500000 0.687500 1.187500
v -1.500000 0.687500 0.812500
v -1.375000 0.375000 0.875000
v -1.250000 0.375000 1.125000
v -1.375000 0.375000 1.125000
v -1.500000 0.312500 1.187500
v -1.375000 0.687500 1.187500
v -1.375000 0.312500 0.812500
v -1.375000 0.312500 1.187500
v -1.375000 0.687500 0.812500
v -1.375000 0.625000 0.875000
v -1.375000 0.625000 1.125000
v -1.250000 0.625000 0.875000
v -1.250000 0.625000 1.125000
v -1.250000 0.375000 0.875000
v -1.500000 0.312500 -1.187500
v -1.500000 0.687500 -0.812500
v -1.500000 0.687500 -1.187500
v -1.375000 0.375000 -1.125000
v -1.250000 0.375000 -0.875000
v -1.375000 0.375000 -0.875000
v -1.500000 0.312500 -0.812500
v -1.375000 0.687500 -0.812500
v -1.375000 0.312500 -1.187500
v -1.375000 0.312500 -0.812500
v -1.375000 0.687500 -1.187500
v -1.375000 0.625000 -1.125000
v -1.375000 0.625000 -0.875000
v -1.250000 0.625000 -1.125000
v -1.250000 0.625000 -0.875000
v -1.250000 0.375000 -1.125000
v 0.187500 0.312500 -1.500000
v -0.187500 0.687500 -1.500000
v 0.187500 0.687500 -1.500000
v 0.125000 0.375000 -1.375000
v -0.125000 0.375000 -1.250000
v -0.125000 0.375000 -1.375000
v -0.187500 0.312500 -1.500000
v -0.187500 0.687500 -1.375000
v 0.187500 0.312500 -1.375000
v -0.187500 0.312500 -1.375000
v 0.187500 0.687500 -1.375000
v 0.125000 0.625000 -1.375000
v -0.125000 0.625000 -1.375000
v 0.125000 0.625000 -1.250000
v -0.125000 0.625000 -1.250000
v 0.125000 0.375000 -1.250000
v -0.812500 0.312500 -1.500000
v -1.187500 0.687500 -1.500000
v -0.812500 0.687500 -1.500000
v -0.875000 0.375000 -1.375000
v -1.125000 0.375000 -1.250000
v -1.125000 0.375000 -1.375000
v -1.187500 0.312500 -1.500000
v -1.187500 0.687500 -1.375000
v -0.812500 0.312500 -1.375000
v -1.187500 0.312500 -1.375000
v -0.812500 0.687500 -1.375000
v -0.875000 0.625000 -1.375000
v -1.125000 0.625000 -1.375000
v -0.875000 0.625000 -1.250000
v -1.125000 0.625000 -1.250000
v -0.875000 0.375000 -1.250000
v 1.187500 0.312500 -1.500000
v 0.812500 0.687500 -1.500000
v 1.187500 0.687500 -1.500000
v 1.125000 0.375000 -1.375000
v 0.875000 0.375000 -1.250000
v 0.875000 0.375000 -1.375000
v 0.812500 0.312500 -1.500000
v 0.812500 0.687500 -1.375000
v 1.187500 0.312500 -1.375000
v 0.812500 0.312500 -1.375000
v 1.187500 0.687500 -1.375000
v 1.125000 0.625000 -1.375000
v 0.875000 0.625000 -1.375000
v 0.875000 0.625000 -1.250000
v 1.125000 0.625000 -1.250000
v 1.125000 0.375000 -1.250000
v -0.187500 0.312500 1.500000
v 0.187500 0.687500 1.500000
v -0.187500 0.687500 1.500000
v -0.125000 0.375000 1.375000
v 0.125000 0.375000 1.250000
v 0.125000 0.375000 1.375000
v 0.187500 0.312500 1.500000
v 0.187500 0.687500 1.375000
v -0.187500 0.312500 1.375000
v 0.187500 0.312500 1.375000
v -0.187500 0.687500 1.375000
v -0.125000 0.625000 1.375000
v 0.125000 0.625000 1.375000
v 0.125000 0.625000 1.250000
v -0.125000 0.625000 1.250000
v -0.125000 0.375000 1.250000
v 0.812500 0.312500 1.500000
v 1.187500 0.687500 1.500000
v 0.812500 0.687500 1.500000
v 0.875000 0.375000 1.375000
v 1.125000 0.375000 1.250000
v 1.125000 0.375000 1.375000
v 1.187500 0.312500 1.500000
v 1.187500 0.687500 1.375000
v 0.812500 0.312500 1.375000
v 1.187500 0.312500 1.375000
v 0.812500 0.687500 1.375000
v 0.875000 0.625000 1.375000
v 1.125000 0.625000 1.375000
v 0.875000 0.625000 1.250000
v 1.125000 0.625000 1.250000
v 0.875000 0.375000 1.250000
v -1.187500 0.312500 1.500000
v -0.812500 0.687500 1.500000
v -1.187500 0.687500 1.500000
v -1.125000 0.375000 1.375000
v -0.875000 0.375000 1.250000
v -0.875000 0.375000 1.375000
v -0.812500 0.312500 1.500000
v -0.812500 0.687500 1.375000
v -1.187500 0.312500 1.375000
v -0.812500 0.312500 1.375000
v -1.187500 0.687500 1.375000
v -1.125000 0.625000 1.375000
v -0.875000 0.625000 1.375000
v -0.875000 0.625000 1.250000
v -1.125000 0.625000 1.250000
v -1.125000 0.375000 1.250000
v 1.375000 -0.000000 1.250000
v -1.500000 -0.000000 1.250000
v 1.250000 0.000000 -1.375000
v 1.250000 -0.000000 1.500000
v -1.125000 1.000000 0.000000
v 0.928077 0.937500 -0.839689
v -0.839690 0.937500 -0.928078
v -1.375001 0.437500 0.875000
v 1.375000 0.437500 0.125000
v 1.250000 0.323223 0.323223
v 1.250000 0.500000 0.250000
v 1.250000 0.676777 0.323223
v 1.250000 0.750000 0.500000
v 1.250000 0.676777 0.676777
v -1.250000 0.500000 0.250000
v -1.250000 0.323223 0.323223
v -1.250000 0.250000 0.500000
v -1.250000 0.500000 0.750000
v -1.250000 0.750000 0.500000
vt 0.473684 0.851852
vt 0.210526 0.870370
vt 0.210526 0.851852
vt 0.421053 0.962963
vt 0.394737 0.925926
vt 0.421053 0.925926
vt 0.394737 0.962963
vt 0.368421 0.925926
vt 0.368421 0.962963
vt 0.342105 0.925926
vt 0.447368 0.962963
vt 0.447368 0.925926
vt 0.342105 0.888889
vt 0.368421 0.888889
vt 0.368421 1.000000
vt 0.342105 0.962963
vt 0.421053 0.962963
vt 0.394737 0.925926
vt 0.421053 0.925926
vt 0.394737 0.962963
vt 0.368421 0.925926
vt 0.368421 0.962963
vt 0.342105 0.925926
vt 0.447368 0.962963
vt 0.447368 0.925926
vt 0.342105 0.888889
vt 0.368421 0.888889
vt 0.368421 1.000000
vt 0.342105 0.962963
vt 0.421053 0.962963
vt 0.394737 0.925926
vt 0.421053 0.925926
vt 0.394737 0.962963
vt 0.368421 0.925926
vt 0.368421 0.962963
vt 0.342105 0.925926
vt 0.447368 0.962963
vt 0.447368 0.925926
vt 0.342105 0.888889
vt 0.368421 0.888889
vt 0.368421 1.000000
vt 0.342105 0.962963
vt 0.421053 0.962963
vt 0.394737 0.925926
vt 0.421053 0.925926
vt 0.394737 0.962963
vt 0.368421 0.925926
vt 0.368421 0.962963
vt 0.342105 0.925926
vt 0.447368 0.962963
vt 0.447368 0.925926
vt 0.342105 0.888889
vt 0.368421 0.888889
vt 0.368421 1.000000
vt 0.342105 0.962963
vt 0.473684 0.833333
vt 0.473684 0.870370
vt 0.210526 0.888889
vt 0.210526 0.814815
vt 0.473684 0.814815
vt 0.210526 0.833333
vt 0.473684 0.814815
vt 0.473684 0.833333
vt 0.210526 0.851852
vt 0.210526 0.888889
vt 0.473684 0.870370
vt 0.473684 0.888889
vt 0.210526 0.870370
vt 0.473684 0.851852
vt 0.210526 0.870370
vt 0.210526 0.851852
vt 0.473684 0.833333
vt 0.473684 0.870370
vt 0.210526 0.888889
vt 0.210526 0.814815
vt 0.473684 0.814815
vt 0.210526 0.833333
vt 0.473684 0.814815
vt 0.473684 0.833333
vt 0.210526 0.851852
vt 0.210526 0.888889
vt 0.473684 0.870370
vt 0.473684 0.888889
vt 0.210526 0.870370
vt 0.506579 0.638889
vt 0.546053 0.694444
vt 0.506579 0.694444
vt 0.513158 0.611111
vt 0.539474 0.592593
vt 0.539474 0.611111
vt 0.546053 0.638889
vt 0.559211 0.694444
vt 0.493421 0.638889
vt 0.546053 0.620370
vt 0.506579 0.712963
vt 0.513158 0.722222
vt 0.546053 0.712963
vt 0.539474 0.722222
vt 0.486842 0.648148
vt 0.493421 0.694444
vt 0.486842 0.685185
vt 0.506579 0.620370
vt 0.565789 0.685185
vt 0.559211 0.638889
vt 0.565789 0.648148
vt 0.513158 0.740741
vt 0.578947 0.685185
vt 0.473684 0.648148
vt 0.013158 0.888889
vt 0.328947 0.925926
vt 0.013158 0.925926
vt 0.328947 0.944444
vt 0.013158 0.981481
vt 0.013158 0.944444
vt 0.013158 1.000000
vt 0.328947 0.981481
vt 0.328947 1.000000
vt 0.342105 0.981481
vt 0.342105 0.944444
vt -0.000000 0.944444
vt -0.000000 0.981481
vt 0.013158 0.888889
vt 0.328947 0.925926
vt 0.013158 0.925926
vt 0.328947 0.944444
vt 0.013158 0.981481
vt 0.013158 0.944444
vt 0.013158 1.000000
vt 0.328947 0.981481
vt 0.328947 1.000000
vt 0.342105 0.981481
vt 0.342105 0.944444
vt -0.000000 0.944444
vt -0.000000 0.981481
vt 0.013158 0.888889
vt 0.328947 0.925926
vt 0.013158 0.925926
vt 0.328947 0.944444
vt 0.013158 0.981481
vt 0.013158 0.944444
vt 0.013158 1.000000
vt 0.328947 0.981481
vt 0.328947 1.000000
vt 0.342105 0.981481
vt 0.342105 0.944444
vt -0.000000 0.944444
vt -0.000000 0.981481
vt 0.315789 0.370370
vt 0.368421 0.740741
vt 0.315789 0.740741
vt 0.473684 0.740741
vt 0.421053 0.370370
vt 0.473684 0.370370
vt 0.368421 0.814815
vt 0.315789 0.814815
vt 0.263158 0.814815
vt 0.210526 0.592593
vt 0.263158 0.592593
vt 0.263158 0.370370
vt 0.368421 0.370370
vt 0.315789 0.296296
vt 0.684211 0.518519
vt 0.736842 0.444444
vt 0.736842 0.518519
vt 0.473684 0.444444
vt 0.526316 0.518519
vt 0.473684 0.518519
vt 0.684211 0.370370
vt 0.526316 0.296296
vt 0.684211 0.296296
vt 0.684211 0.592593
vt 0.526316 0.444444
vt 0.684211 0.444444
vt 0.526316 0.370370
vt 0.052632 0.592593
vt -0.000000 0.814815
vt -0.000000 0.592593
vt 0.210526 0.888889
vt 0.052632 0.814815
vt 0.210526 0.814815
vt 0.210526 0.518519
vt 0.052632 0.296296
vt 0.210526 0.296296
vt 0.052632 0.518519
vt 0.263158 0.074074
vt 0.312500 0.111111
vt 0.266447 0.111111
vt 0.210526 0.074074
vt 0.259868 0.111111
vt 0.213816 0.111111
vt 0.157895 0.074074
vt 0.207237 0.111111
vt 0.161184 0.111111
vt 0.105263 0.074074
vt 0.154605 0.111111
vt 0.108553 0.111111
vt 0.052632 0.074074
vt 0.101974 0.111111
vt 0.055921 0.111111
vt -0.000000 0.074074
vt 0.049342 0.111111
vt 0.003289 0.111111
vt 0.842105 0.074074
vt 0.792763 0.111111
vt 0.789474 0.074074
vt 0.740132 0.111111
vt 0.736842 0.074074
vt 0.687500 0.111111
vt 0.684211 0.074074
vt 0.634869 0.111111
vt 0.631579 0.074074
vt 0.582237 0.111111
vt 0.578947 0.074074
vt 0.529605 0.111111
vt 0.526316 0.074074
vt 0.476974 0.111111
vt 0.473684 0.074074
vt 0.424342 0.111111
vt 0.421053 0.074074
vt 0.371711 0.111111
vt 0.368421 0.074074
vt 0.315789 0.074074
vt 0.365132 0.111111
vt 0.319079 0.111111
vt 0.263158 0.037037
vt 0.312500 0.000000
vt 0.315789 0.037037
vt 0.210526 0.037037
vt 0.259868 0.000000
vt 0.157895 0.037037
vt 0.207237 0.000000
vt 0.105263 0.037037
vt 0.154605 0.000000
vt 0.052632 0.037037
vt 0.101974 0.000000
vt -0.000000 0.037037
vt 0.049342 0.000000
vt 0.799342 0.000000
vt 0.842105 0.037037
vt 0.789474 0.037037
vt 0.746711 0.000000
vt 0.736842 0.037037
vt 0.694079 0.000000
vt 0.684211 0.037037
vt 0.641447 0.000000
vt 0.631579 0.037037
vt 0.588816 0.000000
vt 0.578947 0.037037
vt 0.536184 0.000000
vt 0.526316 0.037037
vt 0.476974 0.000000
vt 0.473684 0.037037
vt 0.424342 0.000000
vt 0.421053 0.037037
vt 0.371711 0.000000
vt 0.368421 0.037037
vt 0.365132 0.000000
vt 0.578947 0.722222
vt 0.657895 0.833333
vt 0.578947 0.833333
vt 0.592105 0.685185
vt 0.644737 0.666667
vt 0.644737 0.685185
vt 0.578947 0.851852
vt 0.657895 0.722222
vt 0.671053 0.833333
vt 0.565789 0.722222
vt 0.657895 0.703704
vt 0.855263 0.444444
vt 0.815789 0.481481
vt 0.815789 0.444444
vt 0.776316 0.444444
vt 0.736842 0.481481
vt 0.736842 0.444444
vt 0.855263 0.444444
vt 0.815789 0.481481
vt 0.815789 0.444444
vt 0.776316 0.481481
vt 0.776316 0.444444
vt 0.894737 0.444444
vt 0.855263 0.481481
vt 0.743421 0.490741
vt 0.769737 0.527778
vt 0.743421 0.527778
vt 0.743421 0.490741
vt 0.769737 0.527778
vt 0.743421 0.527778
vt 0.894737 0.444444
vt 0.855263 0.481481
vt 0.855263 0.444444
vt 0.815789 0.444444
vt 0.776316 0.481481
vt 0.776316 0.444444
vt 0.815789 0.481481
vt 0.776316 0.444444
vt 0.736842 0.481481
vt 0.736842 0.444444
vt 0.855263 0.444444
vt 0.815789 0.481481
vt 0.815789 0.444444
vt 0.776316 0.481481
vt 0.894737 0.444444
vt 0.855263 0.481481
vt 0.743421 0.490741
vt 0.769737 0.527778
vt 0.743421 0.527778
vt 0.736842 0.481481
vt 0.736842 0.444444
vt 0.776316 0.481481
vt 0.894737 0.444444
vt 0.855263 0.481481
vt 0.743421 0.490741
vt 0.769737 0.527778
vt 0.743421 0.527778
vt 0.736842 0.481481
vt 0.736842 0.444444
vt 0.592105 0.870370
vt 0.657895 0.851852
vt 0.644737 0.870370
vt 0.552632 0.740741
vt 0.565789 0.833333
vt 0.552632 0.814815
vt 0.578947 0.703704
vt 0.684211 0.814815
vt 0.671053 0.722222
vt 0.684211 0.740741
vt 0.644737 0.592593
vt 0.592105 0.666667
vt 0.592105 0.592593
vt 0.592105 0.888889
vt 0.697368 0.814815
vt 0.539474 0.740741
vt 0.736842 0.370370
vt 1.000000 0.388889
vt 0.736842 0.388889
vt 0.736842 0.407407
vt 1.000000 0.425926
vt 0.736842 0.425926
vt 0.736842 0.444444
vt 1.000000 0.444444
vt 0.736842 0.370370
vt 1.000000 0.388889
vt 0.736842 0.388889
vt 0.736842 0.407407
vt 1.000000 0.425926
vt 0.736842 0.425926
vt 0.736842 0.444444
vt 1.000000 0.444444
vt 0.447368 0.351852
vt 0.526316 0.333333
vt 0.526316 0.351852
vt 0.447368 0.314815
vt 0.526316 0.333333
vt 0.447368 0.333333
vt 0.526316 0.296296
vt 0.447368 0.314815
vt 0.447368 0.296296
vt 0.526316 0.296296
vt 0.447368 0.296296
vt 0.447368 0.333333
vt 0.737094 0.333333
vt 0.744728 0.307394
vt 0.763158 0.296650
vt 0.447368 0.351852
vt 0.526316 0.351852
vt 0.834220 0.307394
vt 0.834220 0.359272
vt 0.797359 0.359272
vt 0.822368 0.490741
vt 0.848684 0.490741
vt 0.861842 0.490741
vt 0.894737 0.481481
vt 0.888158 0.490741
vt 0.769737 0.490741
vt 0.782895 0.490741
vt 0.809211 0.490741
vt 0.782895 0.490741
vt 0.809211 0.490741
vt 0.769737 0.490741
vt 0.861842 0.490741
vt 0.894737 0.481481
vt 0.888158 0.490741
vt 0.822368 0.490741
vt 0.848684 0.490741
vt 0.822368 0.490741
vt 0.848684 0.490741
vt 0.861842 0.490741
vt 0.894737 0.481481
vt 0.888158 0.490741
vt 0.769737 0.490741
vt 0.782895 0.490741
vt 0.809211 0.490741
vt 0.822368 0.490741
vt 0.848684 0.490741
vt 0.861842 0.490741
vt 0.894737 0.481481
vt 0.888158 0.490741
vt 0.769737 0.490741
vt 0.782895 0.490741
vt 0.809211 0.490741
vt 0.506579 0.638889
vt 0.546053 0.694444
vt 0.506579 0.694444
vt 0.513158 0.611111
vt 0.539474 0.592593
vt 0.539474 0.611111
vt 0.546053 0.638889
vt 0.559211 0.694444
vt 0.493421 0.638889
vt 0.546053 0.620370
vt 0.506579 0.712963
vt 0.513158 0.722222
vt 0.546053 0.712963
vt 0.539474 0.722222
vt 0.486842 0.648148
vt 0.493421 0.694444
vt 0.486842 0.685185
vt 0.506579 0.620370
vt 0.565789 0.685185
vt 0.559211 0.638889
vt 0.565789 0.648148
vt 0.513158 0.740741
vt 0.578947 0.685185
vt 0.473684 0.648148
vt 0.506579 0.638889
vt 0.546053 0.694444
vt 0.506579 0.694444
vt 0.513158 0.611111
vt 0.539474 0.592593
vt 0.539474 0.611111
vt 0.546053 0.638889
vt 0.559211 0.694444
vt 0.493421 0.638889
vt 0.546053 0.620370
vt 0.506579 0.712963
vt 0.513158 0.722222
vt 0.546053 0.712963
vt 0.539474 0.722222
vt 0.486842 0.648148
vt 0.493421 0.694444
vt 0.486842 0.685185
vt 0.506579 0.620370
vt 0.565789 0.685185
vt 0.559211 0.638889
vt 0.565789 0.648148
vt 0.513158 0.740741
vt 0.578947 0.685185
vt 0.473684 0.648148
vt 0.506579 0.638889
vt 0.546053 0.694444
vt 0.506579 0.694444
vt 0.513158 0.611111
vt 0.539474 0.592593
vt 0.539474 0.611111
vt 0.546053 0.638889
vt 0.559211 0.694444
vt 0.493421 0.638889
vt 0.546053 0.620370
vt 0.506579 0.712963
vt 0.513158 0.722222
vt 0.546053 0.712963
vt 0.539474 0.722222
vt 0.486842 0.648148
vt 0.493421 0.694444
vt 0.486842 0.685185
vt 0.506579 0.620370
vt 0.565789 0.685185
vt 0.559211 0.638889
vt 0.565789 0.648148
vt 0.513158 0.740741
vt 0.578947 0.685185
vt 0.473684 0.648148
vt 0.506579 0.638889
vt 0.546053 0.694444
vt 0.506579 0.694444
vt 0.513158 0.611111
vt 0.539474 0.592593
vt 0.539474 0.611111
vt 0.546053 0.638889
vt 0.559211 0.694444
vt 0.493421 0.638889
vt 0.546053 0.620370
vt 0.506579 0.712963
vt 0.513158 0.722222
vt 0.546053 0.712963
vt 0.539474 0.722222
vt 0.486842 0.648148
vt 0.493421 0.694444
vt 0.486842 0.685185
vt 0.506579 0.620370
vt 0.565789 0.685185
vt 0.559211 0.638889
vt 0.565789 0.648148
vt 0.513158 0.740741
vt 0.578947 0.685185
vt 0.473684 0.648148
vt 0.506579 0.638889
vt 0.546053 0.694444
vt 0.506579 0.694444
vt 0.513158 0.611111
vt 0.539474 0.592593
vt 0.539474 0.611111
vt 0.546053 0.638889
vt 0.559211 0.694444
vt 0.493421 0.638889
vt 0.546053 0.620370
vt 0.506579 0.712963
vt 0.513158 0.722222
vt 0.546053 0.712963
vt 0.539474 0.722222
vt 0.486842 0.648148
vt 0.493421 0.694444
vt 0.486842 0.685185
vt 0.506579 0.620370
vt 0.565789 0.685185
vt 0.559211 0.638889
vt 0.565789 0.648148
vt 0.513158 0.740741
vt 0.578947 0.685185
vt 0.473684 0.648148
vt 0.506579 0.638889
vt 0.546053 0.694444
vt 0.506579 0.694444
vt 0.513158 0.611111
vt 0.539474 0.592593
vt 0.539474 0.611111
vt 0.546053 0.638889
vt 0.559211 0.694444
vt 0.493421 0.638889
vt 0.546053 0.620370
vt 0.506579 0.712963
vt 0.513158 0.722222
vt 0.546053 0.712963
vt 0.539474 0.722222
vt 0.486842 0.648148
vt 0.493421 0.694444
vt 0.486842 0.685185
vt 0.506579 0.620370
vt 0.565789 0.685185
vt 0.559211 0.638889
vt 0.565789 0.648148
vt 0.513158 0.740741
vt 0.578947 0.685185
vt 0.473684 0.648148
vt 0.506579 0.638889
vt 0.546053 0.694444
vt 0.506579 0.694444
vt 0.513158 0.611111
vt 0.539474 0.592593
vt 0.539474 0.611111
vt 0.546053 0.638889
vt 0.559211 0.694444
vt 0.493421 0.638889
vt 0.546053 0.620370
vt 0.506579 0.712963
vt 0.513158 0.722222
vt 0.546053 0.712963
vt 0.539474 0.722222
vt 0.486842 0.648148
vt 0.493421 0.694444
vt 0.486842 0.685185
vt 0.506579 0.620370
vt 0.565789 0.685185
vt 0.559211 0.638889
vt 0.565789 0.648148
vt 0.513158 0.740741
vt 0.578947 0.685185
vt 0.473684 0.648148
vt 0.506579 0.638889
vt 0.546053 0.694444
vt 0.506579 0.694444
vt 0.513158 0.611111
vt 0.539474 0.592593
vt 0.539474 0.611111
vt 0.546053 0.638889
vt 0.559211 0.694444
vt 0.493421 0.638889
vt 0.546053 0.620370
vt 0.506579 0.712963
vt 0.513158 0.722222
vt 0.546053 0.712963
vt 0.539474 0.722222
vt 0.486842 0.648148
vt 0.493421 0.694444
vt 0.486842 0.685185
vt 0.506579 0.620370
vt 0.565789 0.685185
vt 0.559211 0.638889
vt 0.565789 0.648148
vt 0.539474 0.740741
vt 0.513158 0.740741
vt 0.578947 0.685185
vt 0.473684 0.648148
vt 0.506579 0.638889
vt 0.546053 0.694444
vt 0.506579 0.694444
vt 0.513158 0.611111
vt 0.539474 0.592593
vt 0.539474 0.611111
vt 0.546053 0.638889
vt 0.559211 0.694444
vt 0.493421 0.638889
vt 0.546053 0.620370
vt 0.506579 0.712963
vt 0.513158 0.722222
vt 0.546053 0.712963
vt 0.539474 0.722222
vt 0.486842 0.648148
vt 0.493421 0.694444
vt 0.486842 0.685185
vt 0.506579 0.620370
vt 0.565789 0.685185
vt 0.559211 0.638889
vt 0.565789 0.648148
vt 0.539474 0.740741
vt 0.513158 0.740741
vt 0.578947 0.685185
vt 0.473684 0.648148
vt 0.506579 0.638889
vt 0.546053 0.694444
vt 0.506579 0.694444
vt 0.513158 0.611111
vt 0.539474 0.592593
vt 0.539474 0.611111
vt 0.546053 0.638889
vt 0.559211 0.694444
vt 0.493421 0.638889
vt 0.546053 0.620370
vt 0.506579 0.712963
vt 0.513158 0.722222
vt 0.546053 0.712963
vt 0.539474 0.722222
vt 0.486842 0.648148
vt 0.493421 0.694444
vt 0.486842 0.685185
vt 0.506579 0.620370
vt 0.565789 0.685185
vt 0.559211 0.638889
vt 0.565789 0.648148
vt 0.513158 0.740741
vt 0.578947 0.685185
vt 0.473684 0.648148
vt 0.506579 0.638889
vt 0.546053 0.694444
vt 0.506579 0.694444
vt 0.513158 0.611111
vt 0.539474 0.592593
vt 0.539474 0.611111
vt 0.546053 0.638889
vt 0.559211 0.694444
vt 0.493421 0.638889
vt 0.546053 0.620370
vt 0.546053 0.712963
vt 0.506579 0.712963
vt 0.513158 0.722222
vt 0.539474 0.722222
vt 0.486842 0.648148
vt 0.493421 0.694444
vt 0.486842 0.685185
vt 0.506579 0.620370
vt 0.565789 0.685185
vt 0.559211 0.638889
vt 0.565789 0.648148
vt 0.539474 0.740741
vt 0.513158 0.740741
vt 0.578947 0.685185
vt 0.473684 0.648148
vt 0.342105 1.000000
vt 0.342105 1.000000
vt 0.342105 1.000000
vt 0.342105 1.000000
vt 0.210526 0.833333
vt 0.473684 0.888889
vt 0.210526 0.814815
vt 0.473684 0.851852
vt 0.210526 0.833333
vt 0.473684 0.888889
vt 0.210526 0.814815
vt 0.473684 0.851852
vt 0.513158 0.592593
vt 0.539474 0.740741
vt 0.578947 0.648148
vt 0.473684 0.685185
vt 0.328947 0.888889
vt 0.328947 0.888889
vt 0.328947 0.888889
vt 0.421053 0.740741
vt 0.263158 0.740741
vt 0.368421 0.296296
vt 0.526316 0.592593
vt 0.052632 0.888889
vt 0.838816 0.111111
vt 0.786184 0.111111
vt 0.733553 0.111111
vt 0.680921 0.111111
vt 0.628289 0.111111
vt 0.575658 0.111111
vt 0.523026 0.111111
vt 0.470395 0.111111
vt 0.417763 0.111111
vt 0.266447 0.000000
vt 0.213816 0.000000
vt 0.161184 0.000000
vt 0.108553 0.000000
vt 0.055921 0.000000
vt 0.003289 0.000000
vt 0.838816 0.000000
vt 0.786184 0.000000
vt 0.733553 0.000000
vt 0.680921 0.000000
vt 0.628289 0.000000
vt 0.575658 0.000000
vt 0.523026 0.000000
vt 0.470395 0.000000
vt 0.417763 0.000000
vt 0.319079 0.000000
vt 0.644737 0.888889
vt 0.697368 0.740741
vt 0.539474 0.814815
vt 1.000000 0.370370
vt 1.000000 0.407407
vt 1.000000 0.370370
vt 1.000000 0.407407
vt 0.526316 0.314815
vt 0.526316 0.314815
vt 0.781588 0.307394
vt 0.789223 0.333333
vt 0.781588 0.359272
vt 0.763158 0.370016
vt 0.744728 0.359272
vt 0.789725 0.333333
vt 0.797359 0.307394
vt 0.815790 0.296650
vt 0.841854 0.333333
vt 0.815790 0.370017
vt 0.513158 0.592593
vt 0.539474 0.740741
vt 0.578947 0.648148
vt 0.473684 0.685185
vt 0.513158 0.592593
vt 0.539474 0.740741
vt 0.578947 0.648148
vt 0.473684 0.685185
vt 0.513158 0.592593
vt 0.539474 0.740741
vt 0.578947 0.648148
vt 0.473684 0.685185
vt 0.513158 0.592593
vt 0.539474 0.740741
vt 0.578947 0.648148
vt 0.473684 0.685185
vt 0.513158 0.592593
vt 0.539474 0.740741
vt 0.578947 0.648148
vt 0.473684 0.685185
vt 0.513158 0.592593
vt 0.539474 0.740741
vt 0.578947 0.648148
vt 0.473684 0.685185
vt 0.513158 0.592593
vt 0.539474 0.740741
vt 0.578947 0.648148
vt 0.473684 0.685185
vt 0.513158 0.592593
vt 0.578947 0.648148
vt 0.473684 0.685185
vt 0.513158 0.592593
vt 0.578947 0.648148
vt 0.473684 0.685185
vt 0.513158 0.592593
vt 0.539474 0.740741
vt 0.578947 0.648148
vt 0.473684 0.685185
vt 0.513158 0.592593
vt 0.578947 0.648148
vt 0.473684 0.685185
vt 0.055921 0.148148
vt 0.108553 0.148148
vt 0.161184 0.148148
vt 0.213816 0.148148
vt 0.266447 0.148148
vt 0.319079 0.148148
vt 0.371711 0.148148
vt 0.424342 0.148148
vt 0.476974 0.148148
vt 0.634869 0.148148
vt 0.529605 0.148148
vt 0.687500 0.148148
vt 0.582237 0.148148
vt 0.740132 0.148148
vt 0.792763 0.148148
vt 0.003289 0.148148
vt 0.960526 0.000000
vt 0.980263 0.370370
vt 0.960526 0.370370
vt 0.980263 0.000000
vt 1.000000 0.370370
vt 0.842105 0.000000
vt 0.861842 0.370370
vt 0.842105 0.370370
vt 0.861842 0.000000
vt 0.881579 0.370370
vt 0.881579 0.000000
vt 0.901316 0.370370
vt 0.901316 0.000000
vt 0.921053 0.370370
vt 0.921053 0.000000
vt 0.940789 0.370370
vt 0.940789 0.000000
vt 0.101974 0.148148
vt 0.154605 0.148148
vt 0.207237 0.148148
vt 0.259868 0.148148
vt 0.312500 0.148148
vt 0.365132 0.148148
vt 0.417763 0.148148
vt 0.470395 0.148148
vt 0.523026 0.148148
vt 0.680921 0.148148
vt 0.575658 0.148148
vt 0.733553 0.148148
vt 0.628289 0.148148
vt 0.786184 0.148148
vt 0.838816 0.148148
vt 0.049342 0.148148
vt 1.000000 0.000000
vn 1.0000 0.0000 0.0000
vn -1.0000 0.0000 0.0000
vn 0.0000 0.0000 -1.0000
vn 0.0000 0.0000 1.0000
vn 0.0000 -1.0000 -0.0000
vn 0.0000 1.0000 0.0000
vn 0.7071 0.0000 0.7071
vn -0.7071 0.0000 -0.7071
vn 0.7071 0.0000 -0.7071
vn -0.7071 0.0000 0.7071
vn -0.7071 0.7071 0.0000
vn 0.0000 0.7071 0.7071
vn 0.7071 0.7071 0.0000
vn 0.0000 0.7071 -0.7071
vn -0.3827 0.0000 0.9239
vn 0.9239 0.0000 -0.3827
vn 0.3827 0.0000 0.9239
vn 0.3827 0.0000 -0.9239
vn 0.9239 0.0000 0.3827
vn -0.3827 0.0000 -0.9239
vn -0.9239 -0.0000 -0.3827
vn -0.9239 0.0000 0.3827
vn 0.0000 -0.7071 -0.7071
vn 0.0000 -0.7071 0.7071
s 1
f 1/1/1 2/2/1 3/3/1
f 4/4/2 5/5/2 6/6/2
f 7/7/3 8/8/3 5/5/3
f 9/9/1 10/10/1 8/8/1
f 11/11/4 6/6/4 10/12/4
f 8/8/5 6/13/5 5/14/5
f 7/15/6 11/16/6 9/9/6
f 12/17/2 13/18/2 14/19/2
f 15/20/3 16/21/3 13/18/3
f 17/22/1 18/23/1 16/21/1
f 19/24/4 14/19/4 18/25/4
f 16/21/5 14/26/5 13/27/5
f 15/28/6 19/29/6 17/22/6
f 20/30/2 21/31/2 22/32/2
f 23/33/3 24/34/3 21/31/3
f 25/35/1 26/36/1 24/34/1
f 27/37/4 22/32/4 26/38/4
f 24/34/5 22/39/5 21/40/5
f 23/41/6 27/42/6 25/35/6
f 28/43/2 29/44/2 30/45/2
f 31/46/3 32/47/3 29/44/3
f 33/48/1 34/49/1 32/47/1
f 35/50/4 30/45/4 34/51/4
f 32/47/5 30/52/5 29/53/5
f 31/54/6 35/55/6 33/48/6
f 3/3/5 36/56/5 1/1/5
f 37/57/6 38/58/6 2/2/6
f 36/56/2 38/59/2 39/60/2
f 40/61/1 41/62/1 42/63/1
f 42/63/5 43/64/5 40/61/5
f 44/65/6 45/66/6 41/67/6
f 43/64/2 45/66/2 46/68/2
f 47/69/3 48/70/3 49/71/3
f 49/71/5 50/72/5 47/69/5
f 51/73/6 52/74/6 48/70/6
f 50/72/4 52/75/4 53/76/4
f 54/77/3 55/78/3 56/79/3
f 56/79/5 57/80/5 54/77/5
f 58/81/6 59/82/6 55/83/6
f 57/80/4 59/82/4 60/84/4
f 61/85/1 62/86/1 63/87/1
f 64/88/5 65/89/5 66/90/5
f 67/91/3 68/92/3 62/86/3
f 63/87/4 69/93/4 61/85/4
f 61/85/5 70/94/5 67/91/5
f 62/86/6 71/95/6 63/87/6
f 72/96/2 68/97/2 73/98/2
f 64/99/2 71/100/2 72/101/2
f 66/90/2 69/102/2 64/88/2
f 73/103/2 70/104/2 66/105/2
f 73/98/6 74/106/6 72/96/6
f 66/105/3 75/107/3 73/103/3
f 72/101/4 76/108/4 64/99/4
f 77/109/5 78/110/5 79/111/5
f 80/112/6 81/113/6 82/114/6
f 77/115/2 83/116/2 84/117/2
f 78/110/1 82/114/1 79/111/1
f 84/118/3 80/112/3 78/119/3
f 79/120/4 81/113/4 77/121/4
f 85/122/5 86/123/5 87/124/5
f 88/125/6 89/126/6 90/127/6
f 85/128/2 91/129/2 92/130/2
f 86/123/1 90/127/1 87/124/1
f 92/131/3 88/125/3 86/132/3
f 87/133/4 89/126/4 85/134/4
f 93/135/5 94/136/5 95/137/5
f 96/138/6 97/139/6 98/140/6
f 93/141/2 99/142/2 100/143/2
f 94/136/1 98/140/1 95/137/1
f 100/144/3 96/138/3 94/145/3
f 95/146/4 97/139/4 93/147/4
f 101/148/5 102/149/5 103/150/5
f 104/151/6 105/152/6 106/153/6
f 103/150/1 107/154/1 104/155/1
f 108/156/3 109/157/3 110/158/3
f 103/150/4 106/159/4 101/148/4
f 105/152/3 102/149/3 111/160/3
f 106/161/2 111/160/2 101/148/2
f 112/162/3 113/163/3 114/164/3
f 115/165/4 116/166/4 117/167/4
f 113/168/5 117/169/5 114/170/5
f 114/171/2 116/166/2 112/162/2
f 112/162/6 118/172/6 119/173/6
f 119/173/1 115/174/1 113/168/1
f 120/175/4 121/176/4 122/177/4
f 108/178/2 123/179/2 124/180/2
f 124/180/6 120/175/6 109/157/6
f 110/181/5 121/182/5 108/183/5
f 109/157/1 122/184/1 110/181/1
f 125/185/6 126/186/6 127/187/6
f 128/188/6 127/189/6 129/190/6
f 130/191/6 129/192/6 131/193/6
f 132/194/6 131/195/6 133/196/6
f 134/197/6 133/198/6 135/199/6
f 136/200/6 135/201/6 137/202/6
f 136/203/6 138/204/6 139/205/6
f 139/205/6 140/206/6 141/207/6
f 141/207/6 142/208/6 143/209/6
f 143/209/6 144/210/6 145/211/6
f 145/211/6 146/212/6 147/213/6
f 147/213/6 148/214/6 149/215/6
f 149/215/6 150/216/6 151/217/6
f 151/217/6 152/218/6 153/219/6
f 153/219/6 154/220/6 155/221/6
f 156/222/6 154/223/6 126/224/6
f 157/225/5 158/226/5 159/227/5
f 160/228/5 161/229/5 157/225/5
f 162/230/5 163/231/5 160/228/5
f 164/232/5 165/233/5 162/230/5
f 166/234/5 167/235/5 164/232/5
f 168/236/5 169/237/5 166/234/5
f 170/238/5 168/239/5 171/240/5
f 172/241/5 171/240/5 173/242/5
f 174/243/5 173/242/5 175/244/5
f 176/245/5 175/244/5 177/246/5
f 178/247/5 177/246/5 179/248/5
f 180/249/5 179/248/5 181/250/5
f 182/251/5 181/250/5 183/252/5
f 184/253/5 183/252/5 185/254/5
f 186/255/5 185/254/5 187/256/5
f 159/227/5 186/257/5 187/256/5
f 188/258/6 189/259/6 190/260/6
f 191/261/1 192/262/1 193/263/1
f 189/259/2 194/264/2 190/260/2
f 195/265/3 196/266/3 189/259/3
f 190/260/4 197/267/4 188/258/4
f 188/258/1 198/268/1 195/265/1
f 199/269/2 200/270/2 201/271/2
f 202/272/1 203/273/1 204/274/1
f 205/275/2 206/276/2 207/277/2
f 207/277/3 208/278/3 209/279/3
f 210/280/4 211/281/4 205/275/4
f 212/282/6 213/283/6 214/284/6
f 215/285/6 216/286/6 217/287/6
f 218/288/4 219/289/4 220/290/4
f 221/291/3 222/292/3 223/293/3
f 220/290/2 224/294/2 221/291/2
f 225/295/1 226/296/1 227/297/1
f 228/298/2 229/299/2 230/300/2
f 230/300/3 231/301/3 225/295/3
f 227/302/4 232/303/4 228/298/4
f 233/304/6 234/305/6 235/306/6
f 223/293/1 236/307/1 218/308/1
f 201/271/3 237/309/3 202/272/3
f 204/310/4 238/311/4 199/269/4
f 239/312/6 240/313/6 241/314/6
f 209/279/1 242/315/1 210/316/1
f 243/317/5 196/318/5 244/319/5
f 191/320/5 194/321/5 243/322/5
f 193/263/5 197/323/5 191/261/5
f 244/324/5 198/325/5 193/326/5
f 245/327/5 246/328/5 247/329/5
f 244/319/2 247/330/2 243/317/2
f 193/326/3 245/331/3 244/324/3
f 243/322/4 246/332/4 191/320/4
f 248/333/5 249/334/5 250/335/5
f 251/336/6 252/337/6 253/338/6
f 249/334/7 251/336/7 250/335/7
f 248/339/8 252/337/8 254/340/8
f 255/341/5 256/342/5 257/343/5
f 258/344/6 259/345/6 260/346/6
f 256/342/9 258/344/9 257/343/9
f 255/347/10 259/345/10 261/348/10
f 262/349/6 263/350/6 264/351/6
f 265/352/2 266/353/2 267/354/2
f 268/355/5 269/356/5 270/357/5
f 271/358/5 265/352/5 272/359/5
f 269/356/1 263/350/1 273/360/1
f 274/361/1 275/362/1 276/363/1
f 277/364/6 266/353/6 278/365/6
f 279/366/2 280/367/2 281/368/2
f 213/369/11 211/281/11 214/370/11
f 214/371/12 242/372/12 212/373/12
f 212/282/13 208/278/13 282/374/13
f 282/375/14 206/276/14 213/376/14
f 283/377/14 224/294/14 216/378/14
f 215/285/13 222/292/13 283/379/13
f 217/380/12 236/381/12 215/382/12
f 216/383/11 219/289/11 217/384/11
f 234/385/11 232/303/11 235/386/11
f 235/387/12 226/388/12 233/389/12
f 233/304/13 231/301/13 284/390/13
f 284/391/14 229/299/14 234/392/14
f 240/393/11 238/311/11 241/394/11
f 241/395/12 203/396/12 239/397/12
f 239/312/13 237/309/13 285/398/13
f 285/399/14 200/270/14 240/400/14
f 286/401/1 287/402/1 288/403/1
f 289/404/5 290/405/5 291/406/5
f 292/407/3 293/408/3 287/402/3
f 288/403/4 294/409/4 286/401/4
f 286/401/5 295/410/5 292/407/5
f 287/402/6 296/411/6 288/403/6
f 297/412/2 293/413/2 298/414/2
f 289/415/2 296/416/2 297/417/2
f 291/406/2 294/418/2 289/404/2
f 298/419/2 295/420/2 291/421/2
f 298/414/6 299/422/6 297/412/6
f 291/421/3 300/423/3 298/419/3
f 297/417/4 301/424/4 289/415/4
f 302/425/1 303/426/1 304/427/1
f 305/428/5 306/429/5 307/430/5
f 308/431/3 309/432/3 303/426/3
f 304/427/4 310/433/4 302/425/4
f 302/425/5 311/434/5 308/431/5
f 303/426/6 312/435/6 304/427/6
f 313/436/2 309/437/2 314/438/2
f 305/439/2 312/440/2 313/441/2
f 307/430/2 310/442/2 305/428/2
f 314/443/2 311/444/2 307/445/2
f 314/438/6 315/446/6 313/436/6
f 307/445/3 316/447/3 314/443/3
f 313/441/4 317/448/4 305/439/4
f 318/449/2 319/450/2 320/451/2
f 321/452/5 322/453/5 323/454/5
f 324/455/4 325/456/4 319/450/4
f 320/451/3 326/457/3 318/449/3
f 318/449/5 327/458/5 324/455/5
f 319/450/6 328/459/6 320/451/6
f 329/460/1 325/461/1 330/462/1
f 321/463/1 328/464/1 329/465/1
f 323/454/1 326/466/1 321/452/1
f 330/467/1 327/468/1 323/469/1
f 330/462/6 331/470/6 329/460/6
f 323/469/4 332/471/4 330/467/4
f 329/465/3 333/472/3 321/463/3
f 334/473/2 335/474/2 336/475/2
f 337/476/5 338/477/5 339/478/5
f 340/479/4 341/480/4 335/474/4
f 336/475/3 342/481/3 334/473/3
f 334/473/5 343/482/5 340/479/5
f 335/474/6 344/483/6 336/475/6
f 345/484/1 341/485/1 346/486/1
f 337/487/1 344/488/1 345/489/1
f 339/478/1 342/490/1 337/476/1
f 346/491/1 343/492/1 339/493/1
f 346/486/6 347/494/6 345/484/6
f 339/493/4 348/495/4 346/491/4
f 345/489/3 349/496/3 337/487/3
f 350/497/2 351/498/2 352/499/2
f 353/500/5 354/501/5 355/502/5
f 356/503/4 357/504/4 351/498/4
f 352/499/3 358/505/3 350/497/3
f 350/497/5 359/506/5 356/503/5
f 351/498/6 360/507/6 352/499/6
f 361/508/1 357/509/1 362/510/1
f 353/511/1 360/512/1 361/513/1
f 355/502/1 358/514/1 353/500/1
f 362/515/1 359/516/1 355/517/1
f 362/510/6 363/518/6 361/508/6
f 355/517/4 364/519/4 362/515/4
f 361/513/3 365/520/3 353/511/3
f 366/521/3 367/522/3 368/523/3
f 369/524/5 370/525/5 371/526/5
f 372/527/2 373/528/2 367/522/2
f 368/523/1 374/529/1 366/521/1
f 366/521/5 375/530/5 372/527/5
f 367/522/6 376/531/6 368/523/6
f 377/532/4 373/533/4 378/534/4
f 369/535/4 376/536/4 377/537/4
f 371/526/4 374/538/4 369/524/4
f 378/539/4 375/540/4 371/541/4
f 378/534/6 379/542/6 377/532/6
f 371/541/2 380/543/2 378/539/2
f 377/537/1 381/544/1 369/535/1
f 382/545/3 383/546/3 384/547/3
f 385/548/5 386/549/5 387/550/5
f 388/551/2 389/552/2 383/546/2
f 384/547/1 390/553/1 382/545/1
f 382/545/5 391/554/5 388/551/5
f 383/546/6 392/555/6 384/547/6
f 393/556/4 389/557/4 394/558/4
f 385/559/4 392/560/4 393/561/4
f 387/550/4 390/562/4 385/548/4
f 394/563/4 391/564/4 387/565/4
f 394/558/6 395/566/6 393/556/6
f 387/565/2 396/567/2 394/563/2
f 393/561/1 397/568/1 385/559/1
f 398/569/3 399/570/3 400/571/3
f 401/572/5 402/573/5 403/574/5
f 404/575/2 405/576/2 399/570/2
f 400/571/1 406/577/1 398/569/1
f 398/569/5 407/578/5 404/575/5
f 399/570/6 408/579/6 400/571/6
f 409/580/4 405/581/4 410/582/4
f 401/583/4 408/584/4 409/585/4
f 403/574/4 406/586/4 401/572/4
f 410/587/4 407/588/4 403/589/4
f 409/580/6 411/590/6 412/591/6
f 403/589/2 411/592/2 410/587/2
f 409/585/1 413/593/1 401/583/1
f 414/594/4 415/595/4 416/596/4
f 417/597/5 418/598/5 419/599/5
f 420/600/1 421/601/1 415/595/1
f 416/596/2 422/602/2 414/594/2
f 414/594/5 423/603/5 420/600/5
f 415/595/6 424/604/6 416/596/6
f 425/605/3 421/606/3 426/607/3
f 417/608/3 424/609/3 425/610/3
f 419/599/3 422/611/3 417/597/3
f 426/612/3 423/613/3 419/614/3
f 425/605/6 427/615/6 428/616/6
f 419/614/1 427/617/1 426/612/1
f 425/610/2 429/618/2 417/608/2
f 430/619/4 431/620/4 432/621/4
f 433/622/5 434/623/5 435/624/5
f 436/625/1 437/626/1 431/620/1
f 432/621/2 438/627/2 430/619/2
f 430/619/5 439/628/5 436/625/5
f 431/620/6 440/629/6 432/621/6
f 441/630/3 437/631/3 442/632/3
f 433/633/3 440/634/3 441/635/3
f 435/624/3 438/636/3 433/622/3
f 442/637/3 439/638/3 435/639/3
f 442/632/6 443/640/6 441/630/6
f 435/639/1 444/641/1 442/637/1
f 441/635/2 445/642/2 433/633/2
f 446/643/4 447/644/4 448/645/4
f 449/646/5 450/647/5 451/648/5
f 452/649/1 453/650/1 447/644/1
f 448/645/2 454/651/2 446/643/2
f 446/643/5 455/652/5 452/649/5
f 448/645/6 453/653/6 456/654/6
f 457/655/3 453/653/3 458/656/3
f 449/657/3 456/658/3 457/659/3
f 451/648/3 454/660/3 449/646/3
f 458/661/3 455/662/3 451/663/3
f 457/655/6 459/664/6 460/665/6
f 451/663/1 459/666/1 458/661/1
f 457/659/2 461/667/2 449/657/2
f 1/1/1 37/57/1 2/2/1
f 4/4/2 7/7/2 5/5/2
f 7/7/3 9/9/3 8/8/3
f 9/9/1 11/16/1 10/10/1
f 11/11/4 4/4/4 6/6/4
f 8/8/5 10/10/5 6/13/5
f 7/15/6 4/668/6 11/16/6
f 12/17/2 15/20/2 13/18/2
f 15/20/3 17/22/3 16/21/3
f 17/22/1 19/29/1 18/23/1
f 19/24/4 12/17/4 14/19/4
f 16/21/5 18/23/5 14/26/5
f 15/28/6 12/669/6 19/29/6
f 20/30/2 23/33/2 21/31/2
f 23/33/3 25/35/3 24/34/3
f 25/35/1 27/42/1 26/36/1
f 27/37/4 20/30/4 22/32/4
f 24/34/5 26/36/5 22/39/5
f 23/41/6 20/670/6 27/42/6
f 28/43/2 31/46/2 29/44/2
f 31/46/3 33/48/3 32/47/3
f 33/48/1 35/55/1 34/49/1
f 35/50/4 28/43/4 30/45/4
f 32/47/5 34/49/5 30/52/5
f 31/54/6 28/671/6 35/55/6
f 3/3/5 462/672/5 36/56/5
f 37/57/6 39/673/6 38/58/6
f 36/56/2 462/672/2 38/59/2
f 40/61/1 44/674/1 41/62/1
f 42/63/5 463/675/5 43/64/5
f 44/65/6 46/68/6 45/66/6
f 43/64/2 463/675/2 45/66/2
f 47/69/3 51/73/3 48/70/3
f 49/71/5 464/676/5 50/72/5
f 51/73/6 53/677/6 52/74/6
f 50/72/4 464/676/4 52/75/4
f 54/77/3 58/678/3 55/78/3
f 56/79/5 465/679/5 57/80/5
f 58/81/6 60/84/6 59/82/6
f 57/80/4 465/679/4 59/82/4
f 61/85/1 67/91/1 62/86/1
f 64/88/5 76/680/5 65/89/5
f 67/91/3 70/104/3 68/92/3
f 63/87/4 71/100/4 69/93/4
f 61/85/5 69/102/5 70/94/5
f 62/86/6 68/97/6 71/95/6
f 72/96/2 71/95/2 68/97/2
f 64/99/2 69/93/2 71/100/2
f 66/90/2 70/94/2 69/102/2
f 73/103/2 68/92/2 70/104/2
f 73/98/6 75/681/6 74/106/6
f 66/105/3 65/682/3 75/107/3
f 72/101/4 74/683/4 76/108/4
f 77/109/5 84/684/5 78/110/5
f 80/112/6 83/116/6 81/113/6
f 77/115/2 81/113/2 83/116/2
f 78/110/1 80/112/1 82/114/1
f 84/118/3 83/116/3 80/112/3
f 79/120/4 82/114/4 81/113/4
f 85/122/5 92/685/5 86/123/5
f 88/125/6 91/129/6 89/126/6
f 85/128/2 89/126/2 91/129/2
f 86/123/1 88/125/1 90/127/1
f 92/131/3 91/129/3 88/125/3
f 87/133/4 90/127/4 89/126/4
f 93/135/5 100/686/5 94/136/5
f 96/138/6 99/142/6 97/139/6
f 93/141/2 97/139/2 99/142/2
f 94/136/1 96/138/1 98/140/1
f 100/144/3 99/142/3 96/138/3
f 95/146/4 98/140/4 97/139/4
f 101/148/5 111/160/5 102/149/5
f 104/151/6 107/687/6 105/152/6
f 103/150/1 102/149/1 107/154/1
f 108/156/3 124/180/3 109/157/3
f 103/150/4 104/688/4 106/159/4
f 105/152/3 107/687/3 102/149/3
f 106/161/2 105/689/2 111/160/2
f 112/162/3 119/173/3 113/163/3
f 115/165/4 118/172/4 116/166/4
f 113/168/5 115/174/5 117/169/5
f 114/171/2 117/690/2 116/166/2
f 112/162/6 116/166/6 118/172/6
f 119/173/1 118/172/1 115/174/1
f 120/175/4 123/179/4 121/176/4
f 108/178/2 121/691/2 123/179/2
f 124/180/6 123/179/6 120/175/6
f 110/181/5 122/184/5 121/182/5
f 109/157/1 120/175/1 122/184/1
f 125/185/6 156/222/6 126/186/6
f 128/188/6 125/185/6 127/189/6
f 130/191/6 128/188/6 129/192/6
f 132/194/6 130/191/6 131/195/6
f 134/197/6 132/194/6 133/198/6
f 136/200/6 134/197/6 135/201/6
f 136/203/6 137/692/6 138/204/6
f 139/205/6 138/693/6 140/206/6
f 141/207/6 140/694/6 142/208/6
f 143/209/6 142/695/6 144/210/6
f 145/211/6 144/696/6 146/212/6
f 147/213/6 146/697/6 148/214/6
f 149/215/6 148/698/6 150/216/6
f 151/217/6 150/699/6 152/218/6
f 153/219/6 152/700/6 154/220/6
f 156/222/6 155/221/6 154/223/6
f 157/225/5 161/701/5 158/226/5
f 160/228/5 163/702/5 161/229/5
f 162/230/5 165/703/5 163/231/5
f 164/232/5 167/704/5 165/233/5
f 166/234/5 169/705/5 167/235/5
f 168/236/5 466/706/5 169/237/5
f 170/238/5 466/707/5 168/239/5
f 172/241/5 170/708/5 171/240/5
f 174/243/5 172/709/5 173/242/5
f 176/245/5 174/710/5 175/244/5
f 178/247/5 176/711/5 177/246/5
f 180/249/5 178/712/5 179/248/5
f 182/251/5 180/713/5 181/250/5
f 184/253/5 182/714/5 183/252/5
f 186/255/5 184/715/5 185/254/5
f 159/227/5 158/716/5 186/257/5
f 188/258/6 195/265/6 189/259/6
f 191/261/1 246/328/1 192/262/1
f 189/259/2 196/318/2 194/264/2
f 195/265/3 198/325/3 196/266/3
f 190/260/4 194/321/4 197/267/4
f 188/258/1 197/323/1 198/268/1
f 199/269/2 238/311/2 200/270/2
f 202/272/1 237/309/1 203/273/1
f 205/275/2 211/281/2 206/276/2
f 207/277/3 206/276/3 208/278/3
f 210/280/4 242/372/4 211/281/4
f 212/282/6 282/374/6 213/283/6
f 215/285/6 283/379/6 216/286/6
f 218/288/4 236/381/4 219/289/4
f 221/291/3 224/294/3 222/292/3
f 220/290/2 219/289/2 224/294/2
f 225/295/1 231/301/1 226/296/1
f 228/298/2 232/303/2 229/299/2
f 230/300/3 229/299/3 231/301/3
f 227/302/4 226/388/4 232/303/4
f 233/304/6 284/390/6 234/305/6
f 223/293/1 222/292/1 236/307/1
f 201/271/3 200/270/3 237/309/3
f 204/310/4 203/396/4 238/311/4
f 239/312/6 285/398/6 240/313/6
f 209/279/1 208/278/1 242/315/1
f 243/317/5 194/264/5 196/318/5
f 191/320/5 197/267/5 194/321/5
f 193/263/5 198/268/5 197/323/5
f 244/324/5 196/266/5 198/325/5
f 245/327/5 192/262/5 246/328/5
f 244/319/2 245/717/2 247/330/2
f 193/326/3 192/718/3 245/331/3
f 243/322/4 247/719/4 246/332/4
f 248/333/5 254/720/5 249/334/5
f 251/336/6 467/721/6 252/337/6
f 249/334/7 467/721/7 251/336/7
f 248/339/8 253/338/8 252/337/8
f 255/341/5 261/722/5 256/342/5
f 258/344/6 468/723/6 259/345/6
f 256/342/9 468/723/9 258/344/9
f 255/347/10 260/346/10 259/345/10
f 262/349/6 273/360/6 263/350/6
f 265/352/2 469/724/2 266/353/2
f 268/355/5 470/725/5 269/356/5
f 271/358/5 469/724/5 265/352/5
f 269/356/1 470/725/1 263/350/1
f 276/363/1 471/726/1 472/727/1
f 472/727/1 473/728/1 276/363/1
f 473/728/1 474/729/1 276/363/1
f 474/729/1 475/730/1 276/363/1
f 475/730/1 274/361/1 276/363/1
f 277/364/6 267/354/6 266/353/6
f 281/368/2 476/731/2 477/732/2
f 477/732/2 478/733/2 279/366/2
f 279/366/2 479/734/2 280/367/2
f 280/367/2 480/735/2 281/368/2
f 281/368/2 477/732/2 279/366/2
f 213/369/11 206/276/11 211/281/11
f 214/371/12 211/281/12 242/372/12
f 212/282/13 242/315/13 208/278/13
f 282/375/14 208/278/14 206/276/14
f 283/377/14 222/292/14 224/294/14
f 215/285/13 236/307/13 222/292/13
f 217/380/12 219/289/12 236/381/12
f 216/383/11 224/294/11 219/289/11
f 234/385/11 229/299/11 232/303/11
f 235/387/12 232/303/12 226/388/12
f 233/304/13 226/296/13 231/301/13
f 284/391/14 231/301/14 229/299/14
f 240/393/11 200/270/11 238/311/11
f 241/395/12 238/311/12 203/396/12
f 239/312/13 203/273/13 237/309/13
f 285/399/14 237/309/14 200/270/14
f 286/401/1 292/407/1 287/402/1
f 289/404/5 301/736/5 290/405/5
f 292/407/3 295/420/3 293/408/3
f 288/403/4 296/416/4 294/409/4
f 286/401/5 294/418/5 295/410/5
f 287/402/6 293/413/6 296/411/6
f 297/412/2 296/411/2 293/413/2
f 289/415/2 294/409/2 296/416/2
f 291/406/2 295/410/2 294/418/2
f 298/419/2 293/408/2 295/420/2
f 298/414/6 300/737/6 299/422/6
f 291/421/3 290/738/3 300/423/3
f 297/417/4 299/739/4 301/424/4
f 302/425/1 308/431/1 303/426/1
f 305/428/5 317/740/5 306/429/5
f 308/431/3 311/444/3 309/432/3
f 304/427/4 312/440/4 310/433/4
f 302/425/5 310/442/5 311/434/5
f 303/426/6 309/437/6 312/435/6
f 313/436/2 312/435/2 309/437/2
f 305/439/2 310/433/2 312/440/2
f 307/430/2 311/434/2 310/442/2
f 314/443/2 309/432/2 311/444/2
f 314/438/6 316/741/6 315/446/6
f 307/445/3 306/742/3 316/447/3
f 313/441/4 315/743/4 317/448/4
f 318/449/2 324/455/2 319/450/2
f 321/452/5 333/744/5 322/453/5
f 324/455/4 327/468/4 325/456/4
f 320/451/3 328/464/3 326/457/3
f 318/449/5 326/466/5 327/458/5
f 319/450/6 325/461/6 328/459/6
f 329/460/1 328/459/1 325/461/1
f 321/463/1 326/457/1 328/464/1
f 323/454/1 327/458/1 326/466/1
f 330/467/1 325/456/1 327/468/1
f 330/462/6 332/745/6 331/470/6
f 323/469/4 322/746/4 332/471/4
f 329/465/3 331/747/3 333/472/3
f 334/473/2 340/479/2 335/474/2
f 337/476/5 349/748/5 338/477/5
f 340/479/4 343/492/4 341/480/4
f 336/475/3 344/488/3 342/481/3
f 334/473/5 342/490/5 343/482/5
f 335/474/6 341/485/6 344/483/6
f 345/484/1 344/483/1 341/485/1
f 337/487/1 342/481/1 344/488/1
f 339/478/1 343/482/1 342/490/1
f 346/491/1 341/480/1 343/492/1
f 346/486/6 348/749/6 347/494/6
f 339/493/4 338/750/4 348/495/4
f 345/489/3 347/751/3 349/496/3
f 350/497/2 356/503/2 351/498/2
f 353/500/5 365/752/5 354/501/5
f 356/503/4 359/516/4 357/504/4
f 352/499/3 360/512/3 358/505/3
f 350/497/5 358/514/5 359/506/5
f 351/498/6 357/509/6 360/507/6
f 361/508/1 360/507/1 357/509/1
f 353/511/1 358/505/1 360/512/1
f 355/502/1 359/506/1 358/514/1
f 362/515/1 357/504/1 359/516/1
f 362/510/6 364/753/6 363/518/6
f 355/517/4 354/754/4 364/519/4
f 361/513/3 363/755/3 365/520/3
f 366/521/3 372/527/3 367/522/3
f 369/524/5 381/756/5 370/525/5
f 372/527/2 375/540/2 373/528/2
f 368/523/1 376/536/1 374/529/1
f 366/521/5 374/538/5 375/530/5
f 367/522/6 373/533/6 376/531/6
f 377/532/4 376/531/4 373/533/4
f 369/535/4 374/529/4 376/536/4
f 371/526/4 375/530/4 374/538/4
f 378/539/4 373/528/4 375/540/4
f 378/534/6 380/757/6 379/542/6
f 371/541/2 370/758/2 380/543/2
f 377/537/1 379/759/1 381/544/1
f 382/545/3 388/551/3 383/546/3
f 385/548/5 397/760/5 386/549/5
f 388/551/2 391/564/2 389/552/2
f 384/547/1 392/560/1 390/553/1
f 382/545/5 390/562/5 391/554/5
f 383/546/6 389/557/6 392/555/6
f 393/556/4 392/555/4 389/557/4
f 385/559/4 390/553/4 392/560/4
f 387/550/4 391/554/4 390/562/4
f 394/563/4 389/552/4 391/564/4
f 394/558/6 396/761/6 395/566/6
f 387/565/2 386/762/2 396/567/2
f 393/561/1 395/763/1 397/568/1
f 398/569/3 404/575/3 399/570/3
f 401/572/5 413/764/5 402/573/5
f 404/575/2 407/588/2 405/576/2
f 400/571/1 408/584/1 406/577/1
f 398/569/5 406/586/5 407/578/5
f 399/570/6 405/581/6 408/579/6
f 409/580/4 408/579/4 405/581/4
f 401/583/4 406/577/4 408/584/4
f 403/574/4 407/578/4 406/586/4
f 410/587/4 405/576/4 407/588/4
f 409/580/6 410/582/6 411/590/6
f 403/589/2 402/765/2 411/592/2
f 409/585/1 412/766/1 413/593/1
f 414/594/4 420/600/4 415/595/4
f 417/597/5 429/767/5 418/598/5
f 420/600/1 423/613/1 421/601/1
f 416/596/2 424/609/2 422/602/2
f 414/594/5 422/611/5 423/603/5
f 415/595/6 421/606/6 424/604/6
f 425/605/3 424/604/3 421/606/3
f 417/608/3 422/602/3 424/609/3
f 419/599/3 423/603/3 422/611/3
f 426/612/3 421/601/3 423/613/3
f 425/605/6 426/607/6 427/615/6
f 419/614/1 418/768/1 427/617/1
f 425/610/2 428/769/2 429/618/2
f 430/619/4 436/625/4 431/620/4
f 433/622/5 445/770/5 434/623/5
f 436/625/1 439/638/1 437/626/1
f 432/621/2 440/634/2 438/627/2
f 430/619/5 438/636/5 439/628/5
f 431/620/6 437/631/6 440/629/6
f 441/630/3 440/629/3 437/631/3
f 433/633/3 438/627/3 440/634/3
f 435/624/3 439/628/3 438/636/3
f 442/637/3 437/626/3 439/638/3
f 442/632/6 444/771/6 443/640/6
f 435/639/1 434/772/1 444/641/1
f 441/635/2 443/773/2 445/642/2
f 446/643/4 452/649/4 447/644/4
f 449/646/5 461/774/5 450/647/5
f 452/649/1 455/662/1 453/650/1
f 448/645/2 456/658/2 454/651/2
f 446/643/5 454/660/5 455/652/5
f 448/645/6 447/644/6 453/653/6
f 457/655/3 456/654/3 453/653/3
f 449/657/3 454/651/3 456/658/3
f 451/648/3 455/652/3 454/660/3
f 458/661/3 453/650/3 455/662/3
f 457/655/6 458/656/6 459/664/6
f 451/663/1 450/775/1 459/666/1
f 457/659/2 460/776/2 461/667/2
f 130/191/15 160/228/4 128/188/4
f 133/198/9 169/777/16 135/199/16
f 128/188/4 157/225/17 125/185/17
f 131/195/18 167/778/9 133/196/9
f 125/185/17 159/227/7 156/222/7
f 129/192/3 165/779/18 131/193/18
f 156/222/7 187/256/19 155/221/19
f 127/189/20 163/780/3 129/190/3
f 155/221/19 185/254/1 153/219/1
f 126/186/8 161/781/20 127/187/20
f 153/219/1 183/252/16 151/217/16
f 154/223/21 158/782/8 126/224/8
f 151/217/16 181/250/9 149/215/9
f 145/211/3 175/244/20 143/209/20
f 152/700/2 186/783/21 154/220/21
f 149/215/9 179/248/18 147/213/18
f 143/209/20 173/242/8 141/207/8
f 150/699/22 184/784/2 152/218/2
f 147/213/18 177/246/3 145/211/3
f 141/207/8 171/240/21 139/205/21
f 148/698/10 182/785/22 150/216/22
f 142/695/17 176/786/4 144/210/4
f 139/205/21 168/239/2 136/203/2
f 146/697/15 180/787/10 148/214/10
f 140/694/7 174/788/17 142/208/17
f 136/200/2 166/234/22 134/197/22
f 144/696/4 178/789/15 146/212/15
f 138/693/19 172/790/7 140/206/7
f 134/197/22 164/232/10 132/194/10
f 137/692/1 170/791/19 138/204/19
f 132/194/10 162/230/15 130/191/15
f 135/201/16 466/792/1 137/202/1
f 472/793/3 477/794/23 476/795/3
f 471/796/23 478/797/5 477/794/23
f 276/798/5 279/799/24 478/800/5
f 275/801/24 479/802/4 279/799/24
f 274/803/4 280/804/12 479/802/4
f 475/805/12 480/806/6 280/804/12
f 474/807/6 281/808/14 480/806/6
f 473/809/14 476/795/3 281/808/14
f 130/191/15 162/230/15 160/228/4
f 133/198/9 167/810/9 169/777/16
f 128/188/4 160/228/4 157/225/17
f 131/195/18 165/811/18 167/778/9
f 125/185/17 157/225/17 159/227/7
f 129/192/3 163/812/3 165/779/18
f 156/222/7 159/227/7 187/256/19
f 127/189/20 161/813/20 163/780/3
f 155/221/19 187/256/19 185/254/1
f 126/186/8 158/814/8 161/781/20
f 153/219/1 185/254/1 183/252/16
f 154/223/21 186/815/21 158/782/8
f 151/217/16 183/252/16 181/250/9
f 145/211/3 177/246/3 175/244/20
f 152/700/2 184/816/2 186/783/21
f 149/215/9 181/250/9 179/248/18
f 143/209/20 175/244/20 173/242/8
f 150/699/22 182/817/22 184/784/2
f 147/213/18 179/248/18 177/246/3
f 141/207/8 173/242/8 171/240/21
f 148/698/10 180/818/10 182/785/22
f 142/695/17 174/819/17 176/786/4
f 139/205/21 171/240/21 168/239/2
f 146/697/15 178/820/15 180/787/10
f 140/694/7 172/821/7 174/788/17
f 136/200/2 168/236/2 166/234/22
f 144/696/4 176/822/4 178/789/15
f 138/693/19 170/823/19 172/790/7
f 134/197/22 166/234/22 164/232/10
f 137/692/1 466/824/1 170/791/19
f 132/194/10 164/232/10 162/230/15
f 135/201/16 169/825/16 466/792/1
f 472/793/3 471/796/23 477/794/23
f 471/796/23 276/826/5 478/797/5
f 276/798/5 275/801/24 279/799/24
f 275/801/24 274/803/4 479/802/4
f 274/803/4 475/805/12 280/804/12
f 475/805/12 474/807/6 480/806/6
f 474/807/6 473/809/14 281/808/14
f 473/809/14 472/793/3 476/795/3
