mtllib assembly_machine_frame.mtl
usemtl material
o Frame
v 1.250000 3.000000 -1.250000
v 1.250000 2.750000 -1.500000
v 1.250000 2.750000 -1.250000
v 1.250000 3.000000 -1.500000
v 1.500000 2.750000 -1.500000
v 1.500000 3.000000 -1.500000
v 1.500000 2.750000 -1.250000
v 1.500000 3.000000 -1.250000
v -1.500000 3.000000 -1.250000
v -1.500000 2.750000 -1.500000
v -1.500000 2.750000 -1.250000
v -1.500000 3.000000 -1.500000
v -1.250000 2.750000 -1.500000
v -1.250000 3.000000 -1.500000
v -1.250000 2.750000 -1.250000
v -1.250000 3.000000 -1.250000
v 1.250000 3.000000 1.500000
v 1.250000 2.750000 1.250000
v 1.250000 2.750000 1.500000
v 1.250000 3.000000 1.250000
v 1.500000 2.750000 1.250000
v 1.500000 3.000000 1.250000
v 1.500000 2.750000 1.500000
v 1.500000 3.000000 1.500000
v -1.500000 3.000000 1.500000
v -1.500000 2.750000 1.250000
v -1.500000 2.750000 1.500000
v -1.500000 3.000000 1.250000
v -1.250000 2.750000 1.250000
v -1.250000 3.000000 1.250000
v -1.250000 2.750000 1.500000
v -1.250000 3.000000 1.500000
v 1.500000 2.875000 -1.250000
v 1.500000 3.000000 1.250000
v 1.500000 2.875000 1.250000
v 1.375000 2.875000 -1.250000
v 1.500000 3.000000 -1.250000
v 1.375000 3.000000 1.250000
v 1.375000 3.000000 -1.250000
v -1.375000 2.875000 -1.250000
v -1.375000 3.000000 1.250000
v -1.375000 2.875000 1.250000
v -1.500000 2.875000 -1.250000
v -1.375000 3.000000 -1.250000
v -1.500000 3.000000 1.250000
v -1.500000 3.000000 -1.250000
v -1.250000 2.875000 -1.500000
v 1.250000 3.000000 -1.500000
v 1.250000 2.875000 -1.500000
v -1.250000 2.875000 -1.375000
v -1.250000 3.000000 -1.500000
v 1.250000 3.000000 -1.375000
v -1.250000 3.000000 -1.375000
v -1.250000 2.875000 1.375000
v 1.250000 3.000000 1.375000
v 1.250000 2.875000 1.375000
v -1.250000 2.875000 1.500000
v -1.250000 3.000000 1.375000
v 1.250000 3.000000 1.500000
v -1.250000 3.000000 1.500000
v -1.500000 2.750000 -1.500000
v -1.375000 0.250000 -1.500000
v -1.500000 0.250000 -1.500000
v -1.500000 2.750000 -1.375000
v -1.375000 2.750000 -1.500000
v -1.375000 0.250000 -1.375000
v -1.375000 2.750000 -1.375000
v -1.500000 2.750000 1.375000
v -1.375000 0.250000 1.375000
v -1.500000 0.250000 1.375000
v -1.500000 2.750000 1.500000
v -1.375000 2.750000 1.375000
v -1.375000 0.250000 1.500000
v -1.375000 2.750000 1.500000
v 1.375000 2.750000 -1.500000
v 1.500000 0.250000 -1.500000
v 1.375000 0.250000 -1.500000
v 1.375000 2.750000 -1.375000
v 1.500000 2.750000 -1.500000
v 1.500000 0.250000 -1.375000
v 1.500000 2.750000 -1.375000
v 1.375000 2.750000 1.375000
v 1.500000 0.250000 1.375000
v 1.375000 0.250000 1.375000
v 1.375000 2.750000 1.500000
v 1.500000 2.750000 1.375000
v 1.500000 0.250000 1.500000
v 1.500000 2.750000 1.500000
v 1.375000 2.875000 1.250000
v -1.500000 2.875000 1.250000
v 1.250000 2.875000 -1.375000
v 1.250000 2.875000 1.500000
v -1.500000 0.250000 -1.375000
v -1.500000 0.250000 1.500000
v 1.375000 0.250000 -1.375000
v 1.375000 0.250000 1.500000
vt 0.421053 0.962963
vt 0.394737 0.925926
vt 0.421053 0.925926
vt 0.394737 0.962963
vt 0.368421 0.925926
vt 0.368421 0.962963
vt 0.342105 0.925926
vt 0.447368 0.962963
vt 0.447368 0.925926
vt 0.342105 0.888889
vt 0.368421 0.888889
vt 0.368421 1.000000
vt 0.342105 0.962963
vt 0.421053 0.962963
vt 0.394737 0.925926
vt 0.421053 0.925926
vt 0.394737 0.962963
vt 0.368421 0.925926
vt 0.368421 0.962963
vt 0.342105 0.925926
vt 0.447368 0.962963
vt 0.447368 0.925926
vt 0.342105 0.888889
vt 0.368421 0.888889
vt 0.368421 1.000000
vt 0.342105 0.962963
vt 0.421053 0.962963
vt 0.394737 0.925926
vt 0.421053 0.925926
vt 0.394737 0.962963
vt 0.368421 0.925926
vt 0.368421 0.962963
vt 0.342105 0.925926
vt 0.447368 0.962963
vt 0.447368 0.925926
vt 0.342105 0.888889
vt 0.368421 0.888889
vt 0.368421 1.000000
vt 0.342105 0.962963
vt 0.421053 0.962963
vt 0.394737 0.925926
vt 0.421053 0.925926
vt 0.394737 0.962963
vt 0.368421 0.925926
vt 0.368421 0.962963
vt 0.342105 0.925926
vt 0.447368 0.962963
vt 0.447368 0.925926
vt 0.342105 0.888889
vt 0.368421 0.888889
vt 0.368421 1.000000
vt 0.342105 0.962963
vt 0.473684 0.833333
vt 0.210526 0.851852
vt 0.210526 0.833333
vt 0.473684 0.814815
vt 0.473684 0.851852
vt 0.210526 0.870370
vt 0.473684 0.888889
vt 0.473684 0.870370
vt 0.210526 0.888889
vt 0.473684 0.870370
vt 0.473684 0.888889
vt 0.473684 0.814815
vt 0.210526 0.833333
vt 0.210526 0.814815
vt 0.210526 0.870370
vt 0.473684 0.851852
vt 0.210526 0.851852
vt 0.473684 0.833333
vt 0.210526 0.851852
vt 0.210526 0.833333
vt 0.473684 0.814815
vt 0.473684 0.851852
vt 0.210526 0.870370
vt 0.473684 0.888889
vt 0.473684 0.870370
vt 0.210526 0.888889
vt 0.473684 0.870370
vt 0.473684 0.888889
vt 0.473684 0.814815
vt 0.210526 0.833333
vt 0.210526 0.814815
vt 0.210526 0.870370
vt 0.473684 0.851852
vt 0.210526 0.851852
vt 0.210526 0.851852
vt 0.473684 0.833333
vt 0.473684 0.851852
vt 0.210526 0.870370
vt 0.210526 0.833333
vt 0.473684 0.814815
vt 0.473684 0.888889
vt 0.210526 0.888889
vt 0.210526 0.833333
vt 0.473684 0.814815
vt 0.473684 0.833333
vt 0.210526 0.851852
vt 0.210526 0.888889
vt 0.473684 0.870370
vt 0.473684 0.888889
vt 0.210526 0.870370
vt 0.210526 0.870370
vt 0.473684 0.851852
vt 0.473684 0.870370
vt 0.210526 0.888889
vt 0.210526 0.851852
vt 0.473684 0.833333
vt 0.210526 0.814815
vt 0.210526 0.833333
vt 0.210526 0.888889
vt 0.473684 0.870370
vt 0.473684 0.888889
vt 0.473684 0.814815
vt 0.210526 0.833333
vt 0.210526 0.814815
vt 0.210526 0.870370
vt 0.473684 0.851852
vt 0.210526 0.851852
vt 0.342105 1.000000
vt 0.342105 1.000000
vt 0.342105 1.000000
vt 0.342105 1.000000
vt 0.210526 0.814815
vt 0.210526 0.888889
vt 0.473684 0.833333
vt 0.210526 0.814815
vt 0.210526 0.888889
vt 0.473684 0.833333
vt 0.473684 0.870370
vt 0.210526 0.814815
vt 0.210526 0.814815
vt 0.473684 0.851852
vt 0.473684 0.888889
vt 0.473684 0.814815
vt 0.473684 0.833333
vn -1.0000 0.0000 0.0000
vn 0.0000 0.0000 -1.0000
vn 1.0000 0.0000 0.0000
vn 0.0000 0.0000 1.0000
vn 0.0000 -1.0000 0.0000
vn 0.0000 1.0000 0.0000
s off
f 1/1/1 2/2/1 3/3/1
f 4/4/2 5/5/2 2/2/2
f 6/6/3 7/7/3 5/5/3
f 8/8/4 3/3/4 7/9/4
f 5/5/5 3/10/5 2/11/5
f 4/12/6 8/13/6 6/6/6
f 9/14/1 10/15/1 11/16/1
f 12/17/2 13/18/2 10/15/2
f 14/19/3 15/20/3 13/18/3
f 16/21/4 11/16/4 15/22/4
f 13/18/5 11/23/5 10/24/5
f 12/25/6 16/26/6 14/19/6
f 17/27/1 18/28/1 19/29/1
f 20/30/2 21/31/2 18/28/2
f 22/32/3 23/33/3 21/31/3
f 24/34/4 19/29/4 23/35/4
f 21/31/5 19/36/5 18/37/5
f 20/38/6 24/39/6 22/32/6
f 25/40/1 26/41/1 27/42/1
f 28/43/2 29/44/2 26/41/2
f 30/45/3 31/46/3 29/44/3
f 32/47/4 27/42/4 31/48/4
f 29/44/5 27/49/5 26/50/5
f 28/51/6 32/52/6 30/45/6
f 33/53/3 34/54/3 35/55/3
f 35/55/5 36/56/5 33/53/5
f 37/57/6 38/58/6 34/54/6
f 36/59/1 38/58/1 39/60/1
f 40/61/3 41/62/3 42/63/3
f 42/64/5 43/65/5 40/66/5
f 44/67/6 45/68/6 41/62/6
f 43/65/1 45/68/1 46/69/1
f 47/70/2 48/71/2 49/72/2
f 49/72/5 50/73/5 47/70/5
f 51/74/6 52/75/6 48/71/6
f 50/76/4 52/75/4 53/77/4
f 54/78/2 55/79/2 56/80/2
f 56/81/5 57/82/5 54/83/5
f 58/84/6 59/85/6 55/79/6
f 57/82/4 59/85/4 60/86/4
f 61/87/2 62/88/2 63/89/2
f 63/89/1 64/90/1 61/87/1
f 65/91/3 66/92/3 62/88/3
f 64/90/4 66/93/4 67/94/4
f 68/95/2 69/96/2 70/97/2
f 70/97/1 71/98/1 68/95/1
f 72/99/3 73/100/3 69/101/3
f 71/98/4 73/100/4 74/102/4
f 75/103/2 76/104/2 77/105/2
f 77/105/1 78/106/1 75/103/1
f 79/107/3 80/108/3 76/104/3
f 78/109/4 80/108/4 81/110/4
f 82/111/2 83/112/2 84/113/2
f 84/114/1 85/115/1 82/116/1
f 86/117/3 87/118/3 83/112/3
f 85/115/4 87/118/4 88/119/4
f 1/1/1 4/4/1 2/2/1
f 4/4/2 6/6/2 5/5/2
f 6/6/3 8/13/3 7/7/3
f 8/8/4 1/1/4 3/3/4
f 5/5/5 7/7/5 3/10/5
f 4/12/6 1/120/6 8/13/6
f 9/14/1 12/17/1 10/15/1
f 12/17/2 14/19/2 13/18/2
f 14/19/3 16/26/3 15/20/3
f 16/21/4 9/14/4 11/16/4
f 13/18/5 15/20/5 11/23/5
f 12/25/6 9/121/6 16/26/6
f 17/27/1 20/30/1 18/28/1
f 20/30/2 22/32/2 21/31/2
f 22/32/3 24/39/3 23/33/3
f 24/34/4 17/27/4 19/29/4
f 21/31/5 23/33/5 19/36/5
f 20/38/6 17/122/6 24/39/6
f 25/40/1 28/43/1 26/41/1
f 28/43/2 30/45/2 29/44/2
f 30/45/3 32/52/3 31/46/3
f 32/47/4 25/40/4 27/42/4
f 29/44/5 31/46/5 27/49/5
f 28/51/6 25/123/6 32/52/6
f 33/53/3 37/57/3 34/54/3
f 35/55/5 89/124/5 36/56/5
f 37/57/6 39/60/6 38/58/6
f 36/59/1 89/125/1 38/58/1
f 40/61/3 44/67/3 41/62/3
f 42/64/5 90/126/5 43/65/5
f 44/67/6 46/69/6 45/68/6
f 43/65/1 90/126/1 45/68/1
f 47/70/2 51/74/2 48/71/2
f 49/72/5 91/127/5 50/73/5
f 51/74/6 53/77/6 52/75/6
f 50/76/4 91/128/4 52/75/4
f 54/78/2 58/84/2 55/79/2
f 56/81/5 92/129/5 57/82/5
f 58/84/6 60/86/6 59/85/6
f 57/82/4 92/129/4 59/85/4
f 61/87/2 65/91/2 62/88/2
f 63/89/1 93/130/1 64/90/1
f 65/91/3 67/131/3 66/92/3
f 64/90/4 93/130/4 66/93/4
f 68/95/2 72/132/2 69/96/2
f 70/97/1 94/133/1 71/98/1
f 72/99/3 74/102/3 73/100/3
f 71/98/4 94/133/4 73/100/4
f 75/103/2 79/107/2 76/104/2
f 77/105/1 95/134/1 78/106/1
f 79/107/3 81/110/3 80/108/3
f 78/109/4 95/135/4 80/108/4
f 82/111/2 86/117/2 83/112/2
f 84/114/1 96/136/1 85/115/1
f 86/117/3 88/119/3 87/118/3
f 85/115/4 96/136/4 87/118/4
