mtllib assembly_machine_ring.mtl
usemtl material
o Ring
v 0.972271 1.500000 0.972272
v 1.154849 1.500000 0.478354
v 0.883883 1.500000 0.883884
v 1.270334 1.500000 0.526190
v 1.250000 1.500000 0.000000
v 1.270334 1.500000 -0.526190
v 1.375000 1.500000 0.000000
v 0.972271 1.500000 -0.972272
v 1.154849 1.500000 -0.478354
v 0.526189 1.500000 -1.270335
v 0.883883 1.500000 -0.883884
v 0.000000 1.500000 -1.375000
v 0.478354 1.500000 -1.154850
v -0.526190 1.500000 -1.270334
v 0.000000 1.500000 -1.250000
v -0.972272 1.500000 -0.972272
v -0.478355 1.500000 -1.154850
v -1.270334 1.500000 -0.526190
v -0.883884 1.500000 -0.883883
v -1.375000 1.500000 0.000000
v -1.154850 1.500000 -0.478354
v -1.270334 1.500000 0.526190
v -1.250000 1.500000 0.000000
v -0.883884 1.500000 0.883883
v -1.154850 1.500000 0.478354
v -0.972272 1.500000 0.972272
v -0.478355 1.500000 1.154850
v -0.526190 1.500000 1.270334
v 0.000000 1.500000 1.250000
v 0.000000 1.500000 1.375000
v 0.478354 1.500000 1.154850
v 0.526189 1.500000 1.270334
v 0.000000 1.375000 1.250000
v 0.430518 1.375000 1.039365
v 0.000000 1.375000 1.125000
v -0.478355 1.375000 1.154850
v -0.430519 1.375000 1.039364
v -0.883884 1.375000 0.883883
v -0.795495 1.375000 0.795495
v -1.154850 1.375000 0.478354
v -1.039365 1.375000 0.430519
v -1.250000 1.375000 0.000000
v -1.125000 1.375000 0.000000
v -1.039365 1.375000 -0.430519
v -1.154850 1.375000 -0.478354
v -0.883884 1.375000 -0.883883
v -0.795495 1.375000 -0.795495
v -0.430519 1.375000 -1.039364
v -0.478355 1.375000 -1.154850
v 0.000000 1.375000 -1.125000
v 0.000000 1.375000 -1.250000
v 0.430518 1.375000 -1.039365
v 0.478354 1.375000 -1.154850
v 0.795495 1.375000 -0.795496
v 0.883883 1.375000 -0.883884
v 1.039364 1.375000 -0.430519
v 1.154849 1.375000 -0.478354
v 1.125000 1.375000 0.000000
v 1.250000 1.375000 0.000000
v 1.039364 1.375000 0.430519
v 1.154849 1.375000 0.478354
v 0.883883 1.375000 0.883884
v 0.795495 1.375000 0.795496
v 0.478354 1.375000 1.154850
v 0.526189 1.250000 1.270334
v 0.795495 1.250000 0.795496
v 0.972271 1.250000 0.972272
v 0.000000 1.250000 1.375000
v 0.430518 1.250000 1.039365
v -0.526190 1.250000 1.270334
v 0.000000 1.250000 1.125000
v -0.972272 1.250000 0.972272
v -0.430519 1.250000 1.039364
v -1.270334 1.250000 0.526190
v -0.795495 1.250000 0.795495
v -1.375000 1.250000 0.000000
v -1.039365 1.250000 0.430519
v -1.039365 1.250000 -0.430519
v -1.270334 1.250000 -0.526190
v -0.795495 1.250000 -0.795495
v -0.972272 1.250000 -0.972272
v -0.430519 1.250000 -1.039364
v -0.526190 1.250000 -1.270334
v 0.000000 1.250000 -1.125000
v 0.000000 1.250000 -1.375000
v 0.430518 1.250000 -1.039365
v 0.526189 1.250000 -1.270335
v 0.795495 1.250000 -0.795496
v 0.972271 1.250000 -0.972272
v 1.039364 1.250000 -0.430519
v 1.270334 1.250000 -0.526190
v 1.125000 1.250000 0.000000
v 1.375000 1.250000 0.000000
v 1.039364 1.250000 0.430519
v 1.270334 1.250000 0.526190
v -0.093750 1.250000 -1.437500
v 0.093750 1.250000 -0.812500
v -0.093750 1.250000 -0.812500
v 0.093750 1.625000 -0.812500
v -0.093750 1.625000 -1.437500
v -0.093750 1.625000 -0.812500
v 0.093750 1.250000 -1.437500
v 0.093750 1.625000 -1.437500
v 0.125000 1.750000 -0.937500
v 0.125000 1.625000 -0.812500
v 0.125000 1.500000 -0.937500
v 0.000000 1.713388 -1.025888
v 0.000000 1.536612 -1.025888
v 0.000000 1.536612 -0.849112
v -0.062501 1.750000 -1.375000
v 0.062499 1.750000 -1.250000
v 0.062499 1.750000 -1.375000
v -0.062501 1.625000 -1.375000
v 0.062499 1.625000 -1.375000
v -0.062501 1.625000 -1.250000
v 0.062499 1.625000 -1.250000
v -0.062501 1.750000 -1.250000
v 0.093750 1.250000 1.437500
v -0.093750 1.250000 0.812500
v 0.093750 1.250000 0.812500
v -0.093750 1.625000 0.812500
v 0.093750 1.625000 1.437500
v 0.093750 1.625000 0.812500
v -0.093750 1.250000 1.437500
v -0.093750 1.625000 1.437500
v -0.125000 1.750000 0.937500
v -0.125000 1.625000 0.812500
v -0.125000 1.500000 0.937500
v 0.000000 1.713388 1.025888
v 0.000000 1.536612 1.025888
v 0.000000 1.536612 0.849112
v 0.062501 1.750000 1.375000
v -0.062499 1.750000 1.250000
v -0.062499 1.750000 1.375000
v 0.062501 1.625000 1.375000
v -0.062499 1.625000 1.375000
v 0.062501 1.625000 1.250000
v -0.062499 1.625000 1.250000
v 0.062501 1.750000 1.250000
v -1.125000 1.250000 0.000000
v 0.125000 1.536612 -1.025888
v 0.125000 1.625000 -1.062500
v 0.125000 1.713388 -1.025888
v 0.125000 1.713388 -0.849112
v 0.125000 1.536612 -0.849112
v 0.000000 1.625000 -1.062500
v 0.000000 1.500000 -0.937500
v 0.000000 1.625000 -0.812500
v 0.000000 1.713388 -0.849112
v 0.000000 1.750000 -0.937500
v -0.125000 1.536612 1.025888
v -0.125000 1.625000 1.062500
v -0.125000 1.713388 1.025888
v -0.125000 1.713388 0.849112
v -0.125000 1.536612 0.849112
v 0.000000 1.625000 1.062500
v 0.000000 1.500000 0.937500
v 0.000000 1.625000 0.812500
v 0.000000 1.713388 0.849112
v 0.000000 1.750000 0.937500
vt 0.315789 0.222222
vt 0.368421 0.240741
vt 0.315789 0.240741
vt 0.368421 0.222222
vt 0.421053 0.240741
vt 0.473684 0.222222
vt 0.421053 0.222222
vt 0.526316 0.222222
vt 0.473684 0.240741
vt 0.578947 0.222222
vt 0.526316 0.240741
vt 0.631579 0.222222
vt 0.578947 0.240741
vt 0.684211 0.222222
vt 0.631579 0.240741
vt 0.736842 0.222222
vt 0.684211 0.240741
vt 0.789474 0.222222
vt 0.736842 0.240741
vt 0.842105 0.222222
vt 0.789474 0.240741
vt 0.052632 0.222222
vt 0.000000 0.240741
vt -0.000000 0.222222
vt 0.105263 0.240741
vt 0.052632 0.240741
vt 0.105263 0.222222
vt 0.157895 0.240741
vt 0.157895 0.222222
vt 0.210526 0.240741
vt 0.210526 0.222222
vt 0.263158 0.240741
vt 0.263158 0.222222
vt 0.210526 0.259259
vt 0.259868 0.277778
vt 0.213816 0.277778
vt 0.157895 0.259259
vt 0.207237 0.277778
vt 0.161184 0.277778
vt 0.105263 0.259259
vt 0.154605 0.277778
vt 0.108553 0.277778
vt 0.052632 0.259259
vt 0.101974 0.277778
vt 0.055921 0.277778
vt -0.000000 0.259259
vt 0.049342 0.277778
vt 0.003289 0.277778
vt 0.842105 0.259259
vt 0.792763 0.277778
vt 0.789474 0.259259
vt 0.736842 0.259259
vt 0.786184 0.277778
vt 0.740132 0.277778
vt 0.687500 0.277778
vt 0.684211 0.259259
vt 0.634869 0.277778
vt 0.631579 0.259259
vt 0.582237 0.277778
vt 0.578947 0.259259
vt 0.529605 0.277778
vt 0.526316 0.259259
vt 0.476974 0.277778
vt 0.473684 0.259259
vt 0.424342 0.277778
vt 0.421053 0.259259
vt 0.371711 0.277778
vt 0.368421 0.259259
vt 0.315789 0.259259
vt 0.365132 0.277778
vt 0.319079 0.277778
vt 0.263158 0.259259
vt 0.312500 0.277778
vt 0.266447 0.277778
vt 0.263158 0.185185
vt 0.312500 0.148148
vt 0.315789 0.185185
vt 0.210526 0.185185
vt 0.259868 0.148148
vt 0.157895 0.185185
vt 0.207237 0.148148
vt 0.105263 0.185185
vt 0.154605 0.148148
vt 0.052632 0.185185
vt 0.101974 0.148148
vt 0.000000 0.185185
vt 0.049342 0.148148
vt 0.792763 0.148148
vt 0.842105 0.185185
vt 0.789474 0.185185
vt 0.740132 0.148148
vt 0.736842 0.185185
vt 0.687500 0.148148
vt 0.684211 0.185185
vt 0.634869 0.148148
vt 0.631579 0.185185
vt 0.582237 0.148148
vt 0.578947 0.185185
vt 0.529605 0.148148
vt 0.526316 0.185185
vt 0.476974 0.148148
vt 0.473684 0.185185
vt 0.424342 0.148148
vt 0.421053 0.185185
vt 0.371711 0.148148
vt 0.368421 0.185185
vt 0.365132 0.148148
vt 0.861842 0.490741
vt 0.796053 0.518519
vt 0.796053 0.490741
vt 0.796053 0.574074
vt 0.861842 0.601852
vt 0.796053 0.601852
vt 0.776316 0.574074
vt 0.776316 0.518519
vt 0.861842 0.518519
vt 0.947368 0.518519
vt 0.881579 0.574074
vt 0.881579 0.518519
vt 0.861842 0.574074
vt 0.723684 0.629566
vt 0.710572 0.611111
vt 0.723684 0.592656
vt 0.688096 0.624161
vt 0.688096 0.598061
vt 0.706641 0.598061
vt 0.907895 0.481481
vt 0.894737 0.462963
vt 0.907895 0.462963
vt 0.921053 0.444444
vt 0.907895 0.444444
vt 0.934211 0.444444
vt 0.921053 0.462963
vt 0.894737 0.444444
vt 0.947368 0.444444
vt 0.934211 0.462963
vt 0.861842 0.490741
vt 0.796053 0.518519
vt 0.796053 0.490741
vt 0.796053 0.574074
vt 0.861842 0.601852
vt 0.796053 0.601852
vt 0.776316 0.574074
vt 0.776316 0.518519
vt 0.861842 0.518519
vt 0.947368 0.518519
vt 0.881579 0.574074
vt 0.881579 0.518519
vt 0.861842 0.574074
vt 0.723684 0.629566
vt 0.710572 0.611111
vt 0.723684 0.592656
vt 0.688096 0.624161
vt 0.688096 0.598061
vt 0.706641 0.598061
vt 0.907895 0.481481
vt 0.894737 0.462963
vt 0.907895 0.462963
vt 0.921053 0.444444
vt 0.907895 0.444444
vt 0.934211 0.444444
vt 0.921053 0.462963
vt 0.894737 0.444444
vt 0.947368 0.444444
vt 0.934211 0.462963
vt 0.842105 0.240741
vt 0.838816 0.277778
vt 0.733553 0.277778
vt 0.680921 0.277778
vt 0.628289 0.277778
vt 0.575658 0.277778
vt 0.523026 0.277778
vt 0.470395 0.277778
vt 0.417763 0.277778
vt 0.266447 0.148148
vt 0.213816 0.148148
vt 0.161184 0.148148
vt 0.108553 0.148148
vt 0.055921 0.148148
vt 0.003289 0.148148
vt 0.838816 0.148148
vt 0.786184 0.148148
vt 0.733553 0.148148
vt 0.680921 0.148148
vt 0.628289 0.148148
vt 0.575658 0.148148
vt 0.523026 0.148148
vt 0.470395 0.148148
vt 0.417763 0.148148
vt 0.319079 0.148148
vt 0.947368 0.574074
vt 0.732957 0.598061
vt 0.736797 0.611111
vt 0.732957 0.624161
vt 0.714412 0.624161
vt 0.714412 0.598061
vt 0.684256 0.611111
vt 0.697369 0.592656
vt 0.710482 0.611111
vt 0.706641 0.624161
vt 0.697369 0.629566
vt 0.894737 0.481481
vt 0.947368 0.462963
vt 0.947368 0.574074
vt 0.732957 0.598061
vt 0.736797 0.611111
vt 0.732957 0.624161
vt 0.714412 0.624161
vt 0.714412 0.598061
vt 0.684256 0.611111
vt 0.697369 0.592656
vt 0.710482 0.611111
vt 0.706641 0.624161
vt 0.697369 0.629566
vt 0.894737 0.481481
vt 0.947368 0.462963
vt 0.319079 0.296296
vt 0.792763 0.296296
vt 0.371711 0.296296
vt 0.003289 0.296296
vt 0.424342 0.296296
vt 0.055921 0.296296
vt 0.476974 0.296296
vt 0.108553 0.296296
vt 0.529605 0.296296
vt 0.161184 0.296296
vt 0.634869 0.296296
vt 0.582237 0.296296
vt 0.213816 0.296296
vt 0.687500 0.296296
vt 0.266447 0.296296
vt 0.740132 0.296296
vt 0.763158 0.574074
vt 0.776316 0.592593
vt 0.763158 0.592593
vt 0.776316 0.574074
vt 0.789474 0.592593
vt 0.684211 0.574074
vt 0.697368 0.592593
vt 0.684211 0.592593
vt 0.697368 0.574074
vt 0.710526 0.592593
vt 0.710526 0.574074
vt 0.723684 0.592593
vt 0.723684 0.574074
vt 0.736842 0.592593
vt 0.736842 0.574074
vt 0.750000 0.592593
vt 0.750000 0.574074
vt 0.763158 0.574074
vt 0.776316 0.592593
vt 0.763158 0.592593
vt 0.789474 0.574074
vt 0.789474 0.592593
vt 0.684211 0.574074
vt 0.697368 0.592593
vt 0.684211 0.592593
vt 0.697368 0.574074
vt 0.710526 0.592593
vt 0.710526 0.574074
vt 0.723684 0.592593
vt 0.723684 0.574074
vt 0.736842 0.592593
vt 0.736842 0.574074
vt 0.750000 0.592593
vt 0.750000 0.574074
vt 0.365132 0.296296
vt 0.838816 0.296296
vt 0.417763 0.296296
vt 0.049342 0.296296
vt 0.470395 0.296296
vt 0.101974 0.296296
vt 0.523026 0.296296
vt 0.154605 0.296296
vt 0.575658 0.296296
vt 0.207237 0.296296
vt 0.680921 0.296296
vt 0.628289 0.296296
vt 0.259868 0.296296
vt 0.733553 0.296296
vt 0.312500 0.296296
vt 0.786184 0.296296
vt 0.789474 0.574074
vt 0.776316 0.574074
vn 0.0000 1.0000 0.0000
vn 0.0000 -1.0000 0.0000
vn 0.0000 0.0000 1.0000
vn 1.0000 0.0000 0.0000
vn -1.0000 0.0000 0.0000
vn 0.0000 0.0000 -1.0000
vn 0.9239 0.0000 0.3827
vn -0.9239 -0.0000 0.3827
vn 0.9239 0.0000 -0.3827
vn -0.7071 0.0000 0.7071
vn 0.7071 0.0000 -0.7071
vn -0.3827 -0.0000 0.9239
vn 0.3827 0.0000 -0.9239
vn -0.3827 0.0000 -0.9239
vn 0.3827 -0.0000 0.9239
vn -0.7071 0.0000 -0.7071
vn 0.7071 -0.0000 0.7071
vn -0.9239 0.0000 -0.3827
vn 0.0000 -0.7071 -0.7071
vn 0.0000 -0.7071 0.7071
vn 0.0000 0.7071 0.7071
vn 0.0000 0.7071 -0.7071
s 1
f 1/1/1 2/2/1 3/3/1
f 4/4/1 5/5/1 2/2/1
f 6/6/1 5/5/1 7/7/1
f 8/8/1 9/9/1 6/6/1
f 10/10/1 11/11/1 8/8/1
f 12/12/1 13/13/1 10/10/1
f 14/14/1 15/15/1 12/12/1
f 16/16/1 17/17/1 14/14/1
f 18/18/1 19/19/1 16/16/1
f 20/20/1 21/21/1 18/18/1
f 22/22/1 23/23/1 20/24/1
f 22/22/1 24/25/1 25/26/1
f 26/27/1 27/28/1 24/25/1
f 28/29/1 29/30/1 27/28/1
f 30/31/1 31/32/1 29/30/1
f 32/33/1 3/3/1 31/32/1
f 33/34/1 34/35/1 35/36/1
f 36/37/1 35/38/1 37/39/1
f 38/40/1 37/41/1 39/42/1
f 40/43/1 39/44/1 41/45/1
f 42/46/1 41/47/1 43/48/1
f 42/49/1 44/50/1 45/51/1
f 46/52/1 44/53/1 47/54/1
f 46/52/1 48/55/1 49/56/1
f 49/56/1 50/57/1 51/58/1
f 51/58/1 52/59/1 53/60/1
f 53/60/1 54/61/1 55/62/1
f 55/62/1 56/63/1 57/64/1
f 57/64/1 58/65/1 59/66/1
f 59/66/1 60/67/1 61/68/1
f 62/69/1 60/70/1 63/71/1
f 64/72/1 63/73/1 34/74/1
f 65/75/2 66/76/2 67/77/2
f 68/78/2 69/79/2 65/75/2
f 70/80/2 71/81/2 68/78/2
f 72/82/2 73/83/2 70/80/2
f 74/84/2 75/85/2 72/82/2
f 76/86/2 77/87/2 74/84/2
f 78/88/2 76/89/2 79/90/2
f 80/91/2 79/90/2 81/92/2
f 82/93/2 81/92/2 83/94/2
f 84/95/2 83/94/2 85/96/2
f 86/97/2 85/96/2 87/98/2
f 88/99/2 87/98/2 89/100/2
f 90/101/2 89/100/2 91/102/2
f 92/103/2 91/102/2 93/104/2
f 94/105/2 93/104/2 95/106/2
f 67/77/2 94/107/2 95/106/2
f 96/108/2 97/109/2 98/110/2
f 99/111/1 100/112/1 101/113/1
f 97/109/3 101/114/3 98/115/3
f 102/116/4 99/111/4 97/109/4
f 98/117/5 100/118/5 96/119/5
f 96/119/6 103/120/6 102/116/6
f 104/121/4 105/122/4 106/123/4
f 107/124/5 108/125/5 109/126/5
f 110/127/1 111/128/1 112/129/1
f 113/130/6 112/129/6 114/131/6
f 115/132/5 110/133/5 113/130/5
f 114/131/4 111/128/4 116/134/4
f 116/135/3 117/136/3 115/132/3
f 118/137/2 119/138/2 120/139/2
f 121/140/1 122/141/1 123/142/1
f 119/138/6 123/143/6 120/144/6
f 124/145/5 121/140/5 119/138/5
f 120/146/4 122/147/4 118/148/4
f 118/148/3 125/149/3 124/145/3
f 126/150/5 127/151/5 128/152/5
f 129/153/4 130/154/4 131/155/4
f 132/156/1 133/157/1 134/158/1
f 135/159/3 134/158/3 136/160/3
f 137/161/4 132/162/4 135/159/4
f 136/160/5 133/157/5 138/163/5
f 138/164/6 139/165/6 137/161/6
f 1/1/1 4/4/1 2/2/1
f 4/4/1 7/7/1 5/5/1
f 6/6/1 9/9/1 5/5/1
f 8/8/1 11/11/1 9/9/1
f 10/10/1 13/13/1 11/11/1
f 12/12/1 15/15/1 13/13/1
f 14/14/1 17/17/1 15/15/1
f 16/16/1 19/19/1 17/17/1
f 18/18/1 21/21/1 19/19/1
f 20/20/1 23/166/1 21/21/1
f 22/22/1 25/26/1 23/23/1
f 22/22/1 26/27/1 24/25/1
f 26/27/1 28/29/1 27/28/1
f 28/29/1 30/31/1 29/30/1
f 30/31/1 32/33/1 31/32/1
f 32/33/1 1/1/1 3/3/1
f 33/34/1 64/72/1 34/35/1
f 36/37/1 33/34/1 35/38/1
f 38/40/1 36/37/1 37/41/1
f 40/43/1 38/40/1 39/44/1
f 42/46/1 40/43/1 41/47/1
f 42/49/1 43/167/1 44/50/1
f 46/52/1 45/51/1 44/53/1
f 46/52/1 47/168/1 48/55/1
f 49/56/1 48/169/1 50/57/1
f 51/58/1 50/170/1 52/59/1
f 53/60/1 52/171/1 54/61/1
f 55/62/1 54/172/1 56/63/1
f 57/64/1 56/173/1 58/65/1
f 59/66/1 58/174/1 60/67/1
f 62/69/1 61/68/1 60/70/1
f 64/72/1 62/69/1 63/73/1
f 65/75/2 69/175/2 66/76/2
f 68/78/2 71/176/2 69/79/2
f 70/80/2 73/177/2 71/81/2
f 72/82/2 75/178/2 73/83/2
f 74/84/2 77/179/2 75/85/2
f 76/86/2 140/180/2 77/87/2
f 78/88/2 140/181/2 76/89/2
f 80/91/2 78/182/2 79/90/2
f 82/93/2 80/183/2 81/92/2
f 84/95/2 82/184/2 83/94/2
f 86/97/2 84/185/2 85/96/2
f 88/99/2 86/186/2 87/98/2
f 90/101/2 88/187/2 89/100/2
f 92/103/2 90/188/2 91/102/2
f 94/105/2 92/189/2 93/104/2
f 67/77/2 66/190/2 94/107/2
f 96/108/2 102/116/2 97/109/2
f 99/111/1 103/120/1 100/112/1
f 97/109/3 99/111/3 101/114/3
f 102/116/4 103/120/4 99/111/4
f 98/117/5 101/191/5 100/118/5
f 96/119/6 100/118/6 103/120/6
f 106/123/4 141/192/4 142/193/4
f 142/193/4 143/194/4 106/123/4
f 143/194/4 104/121/4 106/123/4
f 104/121/4 144/195/4 105/122/4
f 105/122/4 145/196/4 106/123/4
f 107/124/5 146/197/5 108/125/5
f 108/125/5 147/198/5 109/126/5
f 109/126/5 148/199/5 107/124/5
f 148/199/5 149/200/5 107/124/5
f 149/200/5 150/201/5 107/124/5
f 110/127/1 117/202/1 111/128/1
f 113/130/6 110/133/6 112/129/6
f 115/132/5 117/136/5 110/133/5
f 114/131/4 112/129/4 111/128/4
f 116/135/3 111/203/3 117/136/3
f 118/137/2 124/145/2 119/138/2
f 121/140/1 125/149/1 122/141/1
f 119/138/6 121/140/6 123/143/6
f 124/145/5 125/149/5 121/140/5
f 120/146/4 123/204/4 122/147/4
f 118/148/3 122/147/3 125/149/3
f 128/152/5 151/205/5 152/206/5
f 152/206/5 153/207/5 128/152/5
f 153/207/5 126/150/5 128/152/5
f 126/150/5 154/208/5 127/151/5
f 127/151/5 155/209/5 128/152/5
f 129/153/4 156/210/4 130/154/4
f 130/154/4 157/211/4 131/155/4
f 131/155/4 158/212/4 129/153/4
f 158/212/4 159/213/4 129/153/4
f 159/213/4 160/214/4 129/153/4
f 132/156/1 139/215/1 133/157/1
f 135/159/3 132/162/3 134/158/3
f 137/161/4 139/165/4 132/162/4
f 136/160/5 134/158/5 133/157/5
f 138/164/6 133/216/6 139/165/6
f 93/104/4 4/4/7 95/106/7
f 74/84/8 20/24/5 76/86/5
f 91/102/9 7/7/4 93/104/4
f 72/82/10 22/22/8 74/84/8
f 89/100/11 6/6/9 91/102/9
f 70/80/12 26/27/10 72/82/10
f 87/98/13 8/8/11 89/100/11
f 68/78/3 28/29/12 70/80/12
f 83/94/14 12/12/6 85/96/6
f 85/96/6 10/10/13 87/98/13
f 65/75/15 30/31/3 68/78/3
f 81/92/16 14/14/14 83/94/14
f 67/77/17 32/33/15 65/75/15
f 79/90/18 16/16/16 81/92/16
f 95/106/7 1/1/17 67/77/17
f 76/89/5 18/18/18 79/90/18
f 17/17/15 51/58/3 15/15/3
f 15/15/3 53/60/12 13/13/12
f 31/32/14 33/34/6 29/30/6
f 19/19/17 49/56/15 17/17/15
f 3/3/16 64/72/14 31/32/14
f 21/21/7 46/52/17 19/19/17
f 2/2/18 62/69/16 3/3/16
f 23/166/4 45/51/7 21/21/7
f 5/5/5 61/68/18 2/2/18
f 25/26/9 42/46/4 23/23/4
f 9/9/8 59/66/5 5/5/5
f 24/25/11 40/43/9 25/26/9
f 11/11/10 57/64/8 9/9/8
f 27/28/13 38/40/11 24/25/11
f 13/13/12 55/62/10 11/11/10
f 29/30/6 36/37/13 27/28/13
f 60/70/18 66/217/16 63/71/16
f 43/167/4 78/218/7 44/50/7
f 58/174/5 94/219/18 60/67/18
f 41/47/9 140/220/4 43/48/4
f 56/173/8 92/221/5 58/65/5
f 39/44/11 77/222/9 41/45/9
f 54/172/10 90/223/8 56/63/8
f 37/41/13 75/224/11 39/42/11
f 52/171/12 88/225/10 54/61/10
f 35/38/6 73/226/13 37/39/13
f 48/169/15 84/227/3 50/57/3
f 50/170/3 86/228/12 52/59/12
f 34/35/14 71/229/6 35/36/6
f 47/168/17 82/230/15 48/55/15
f 63/73/16 69/231/14 34/74/14
f 44/53/7 80/232/17 47/54/17
f 142/233/6 108/234/19 146/235/6
f 141/236/19 147/237/2 108/234/19
f 106/238/2 109/239/20 147/240/2
f 145/241/20 148/242/3 109/239/20
f 105/243/3 149/244/21 148/242/3
f 144/245/21 150/246/1 149/244/21
f 104/247/1 107/248/22 150/246/1
f 143/249/22 146/235/6 107/248/22
f 152/250/3 130/251/20 156/252/3
f 130/251/20 128/253/2 157/254/2
f 128/255/2 131/256/19 157/257/2
f 155/258/19 158/259/6 131/256/19
f 127/260/6 159/261/22 158/259/6
f 154/262/22 160/263/1 159/261/22
f 126/264/1 129/265/21 160/263/1
f 153/266/21 156/252/3 129/265/21
f 93/104/4 7/7/4 4/4/7
f 74/84/8 22/22/8 20/24/5
f 91/102/9 6/6/9 7/7/4
f 72/82/10 26/27/10 22/22/8
f 89/100/11 8/8/11 6/6/9
f 70/80/12 28/29/12 26/27/10
f 87/98/13 10/10/13 8/8/11
f 68/78/3 30/31/3 28/29/12
f 83/94/14 14/14/14 12/12/6
f 85/96/6 12/12/6 10/10/13
f 65/75/15 32/33/15 30/31/3
f 81/92/16 16/16/16 14/14/14
f 67/77/17 1/1/17 32/33/15
f 79/90/18 18/18/18 16/16/16
f 95/106/7 4/4/7 1/1/17
f 76/89/5 20/20/5 18/18/18
f 17/17/15 49/56/15 51/58/3
f 15/15/3 51/58/3 53/60/12
f 31/32/14 64/72/14 33/34/6
f 19/19/17 46/52/17 49/56/15
f 3/3/16 62/69/16 64/72/14
f 21/21/7 45/51/7 46/52/17
f 2/2/18 61/68/18 62/69/16
f 23/166/4 42/49/4 45/51/7
f 5/5/5 59/66/5 61/68/18
f 25/26/9 40/43/9 42/46/4
f 9/9/8 57/64/8 59/66/5
f 24/25/11 38/40/11 40/43/9
f 11/11/10 55/62/10 57/64/8
f 27/28/13 36/37/13 38/40/11
f 13/13/12 53/60/12 55/62/10
f 29/30/6 33/34/6 36/37/13
f 60/70/18 94/267/18 66/217/16
f 43/167/4 140/268/4 78/218/7
f 58/174/5 92/269/5 94/219/18
f 41/47/9 77/270/9 140/220/4
f 56/173/8 90/271/8 92/221/5
f 39/44/11 75/272/11 77/222/9
f 54/172/10 88/273/10 90/223/8
f 37/41/13 73/274/13 75/224/11
f 52/171/12 86/275/12 88/225/10
f 35/38/6 71/276/6 73/226/13
f 48/169/15 82/277/15 84/227/3
f 50/170/3 84/278/3 86/228/12
f 34/35/14 69/279/14 71/229/6
f 47/168/17 80/280/17 82/230/15
f 63/73/16 66/281/16 69/231/14
f 44/53/7 78/282/7 80/232/17
f 142/233/6 141/236/19 108/234/19
f 141/236/19 106/283/2 147/237/2
f 106/238/2 145/241/20 109/239/20
f 145/241/20 105/243/3 148/242/3
f 105/243/3 144/245/21 149/244/21
f 144/245/21 104/247/1 150/246/1
f 104/247/1 143/249/22 107/248/22
f 143/249/22 142/233/6 146/235/6
f 152/250/3 151/284/20 130/251/20
f 130/251/20 151/284/20 128/253/2
f 128/255/2 155/258/19 131/256/19
f 155/258/19 127/260/6 158/259/6
f 127/260/6 154/262/22 159/261/22
f 154/262/22 126/264/1 160/263/1
f 126/264/1 153/266/21 129/265/21
f 153/266/21 152/250/3 156/252/3
