mtllib chemical_plant_spinner.mtl
usemtl material
o Spinner
v 0.500000 0.875000 0.250000
v 0.323223 0.875000 0.323223
v 0.250000 0.875000 0.500000
v 0.323223 0.875000 0.676777
v 0.500000 0.875000 0.750000
v 0.676777 0.875000 0.676777
v 0.750000 0.875000 0.500000
v 0.676777 0.875000 0.323223
v 0.500000 1.625000 0.250000
v 0.323223 1.625000 0.323223
v 0.250000 1.625000 0.500000
v 0.323223 1.625000 0.676777
v 0.500000 1.625000 0.750000
v 0.676777 1.625000 0.676777
v 0.750000 1.625000 0.500000
v 0.676777 1.625000 0.323223
v 0.625000 0.875000 0.562500
v 1.250000 0.875000 0.562500
v 0.625000 0.875000 0.437500
v 1.250000 0.875000 0.437500
v -0.250000 0.875000 0.562500
v 0.375000 0.875000 0.562500
v 1.250000 1.125000 0.562500
v 1.250000 1.125000 0.437500
v -0.250000 0.875000 0.437500
v 1.250000 1.250000 0.562500
v 0.375000 0.875000 0.437500
v 1.250000 1.250000 0.437500
v 0.625000 1.625000 0.437500
v 0.625000 1.625000 0.562500
v 1.250000 1.625000 0.562500
v 1.250000 1.625000 0.437500
v 0.875000 1.125000 0.562500
v 0.875000 1.125000 0.437500
v 0.875000 1.250000 0.562500
v 0.875000 1.250000 0.437500
v -0.250000 1.125000 0.437500
v -0.250000 1.125000 0.562500
v -0.250000 1.250000 0.437500
v -0.250000 1.250000 0.562500
v 0.375000 1.625000 0.562500
v 0.375000 1.625000 0.437500
v -0.250000 1.625000 0.437500
v -0.250000 1.625000 0.562500
v 0.125000 1.125000 0.437500
v 0.125000 1.125000 0.562500
v 0.125000 1.250000 0.437500
v 0.125000 1.250000 0.562500
v 0.562500 0.875000 0.375000
v 0.562500 0.875000 -0.250000
v 0.437500 0.875000 0.375000
v 0.437500 0.875000 -0.250000
v 0.562500 0.875000 1.250000
v 0.562500 0.875000 0.625000
v 0.562500 1.125000 -0.250000
v 0.437500 1.125000 -0.250000
v 0.437500 0.875000 1.250000
v 0.562500 1.250000 -0.250000
v 0.437500 0.875000 0.625000
v 0.437500 1.250000 -0.250000
v 0.437500 1.625000 0.375000
v 0.562500 1.625000 0.375000
v 0.562500 1.625000 -0.250000
v 0.437500 1.625000 -0.250000
v 0.562500 1.125000 0.125000
v 0.437500 1.125000 0.125000
v 0.562500 1.250000 0.125000
v 0.437500 1.250000 0.125000
v 0.437500 1.125000 1.250000
v 0.562500 1.125000 1.250000
v 0.437500 1.250000 1.250000
v 0.562500 1.250000 1.250000
v 0.562500 1.625000 0.625000
v 0.437500 1.625000 0.625000
v 0.437500 1.625000 1.250000
v 0.562500 1.625000 1.250000
v 0.437500 1.125000 0.875000
v 0.562500 1.125000 0.875000
v 0.437500 1.250000 0.875000
v 0.562500 1.250000 0.875000
v 0.632582 0.875000 0.455806
v 1.074524 0.875000 0.013864
v 0.544194 0.875000 0.367417
v 0.986136 0.875000 -0.074524
v 0.013864 0.875000 1.074524
v 0.455806 0.875000 0.632583
v 1.074524 1.125000 0.013864
v 0.986136 1.125000 -0.074524
v -0.074524 0.875000 0.986136
v 1.074524 1.250000 0.013864
v 0.367417 0.875000 0.544194
v 0.986136 1.250000 -0.074524
v 0.544194 1.625000 0.367417
v 0.632582 1.625000 0.455806
v 1.074524 1.625000 0.013864
v 0.986136 1.625000 -0.074524
v 0.809359 1.125000 0.279029
v 0.720971 1.125000 0.190640
v 0.809359 1.250000 0.279029
v 0.720971 1.250000 0.190640
v -0.074524 1.125000 0.986136
v 0.013864 1.125000 1.074524
v -0.074524 1.250000 0.986136
v 0.013864 1.250000 1.074524
v 0.455806 1.625000 0.632583
v 0.367417 1.625000 0.544194
v -0.074524 1.625000 0.986136
v 0.013864 1.625000 1.074524
v 0.190641 1.125000 0.720971
v 0.279029 1.125000 0.809359
v 0.190641 1.250000 0.720971
v 0.279029 1.250000 0.809359
v 0.455806 0.875000 0.367417
v 0.013864 0.875000 -0.074524
v 0.367417 0.875000 0.455806
v -0.074524 0.875000 0.013864
v 1.074524 0.875000 0.986135
v 0.632582 0.875000 0.544194
v 0.013864 1.125000 -0.074524
v -0.074524 1.125000 0.013864
v 0.986136 0.875000 1.074524
v 0.013864 1.250000 -0.074524
v 0.544194 0.875000 0.632583
v -0.074524 1.250000 0.013864
v 0.367417 1.625000 0.455806
v 0.455806 1.625000 0.367417
v 0.013864 1.625000 -0.074524
v -0.074524 1.625000 0.013864
v 0.279029 1.125000 0.190641
v 0.190641 1.125000 0.279029
v 0.279029 1.250000 0.190641
v 0.190641 1.250000 0.279029
v 0.986136 1.125000 1.074524
v 1.074524 1.125000 0.986135
v 0.986136 1.250000 1.074524
v 1.074524 1.250000 0.986135
v 0.632582 1.625000 0.544194
v 0.544194 1.625000 0.632583
v 0.986136 1.625000 1.074524
v 1.074524 1.625000 0.986135
v 0.720971 1.125000 0.809359
v 0.809359 1.125000 0.720971
v 0.720971 1.250000 0.809359
v 0.809359 1.250000 0.720971
vt 0.331731 0.714286
vt 0.317308 0.800000
vt 0.317308 0.714286
vt 0.302885 0.714286
vt 0.288462 0.800000
vt 0.288462 0.714286
vt 0.274038 0.714286
vt 0.259615 0.800000
vt 0.259615 0.714286
vt 0.360577 0.714286
vt 0.346154 0.800000
vt 0.346154 0.714286
vt 0.331731 0.800000
vt 0.302885 0.800000
vt 0.274038 0.800000
vt 0.375000 0.714286
vt 0.360577 0.800000
vt 0.173077 0.742857
vt 0.201923 0.757143
vt 0.173077 0.757143
vt 0.173077 0.742857
vt 0.201923 0.757143
vt 0.173077 0.757143
vt 0.211538 0.714286
vt 0.201923 0.742857
vt 0.201923 0.714286
vt 0.173077 0.757143
vt 0.201923 0.800000
vt 0.153846 0.800000
vt 0.153846 0.714286
vt 0.173077 0.742857
vt 0.211538 0.714286
vt 0.201923 0.742857
vt 0.201923 0.714286
vt 0.211538 0.742857
vt 0.240385 0.757143
vt 0.211538 0.757143
vt 0.211538 0.757143
vt 0.201923 0.757143
vt 0.211538 0.800000
vt 0.240385 0.757143
vt 0.259615 0.800000
vt 0.240385 0.742857
vt 0.259615 0.714286
vt 0.173077 0.757143
vt 0.201923 0.800000
vt 0.153846 0.800000
vt 0.153846 0.714286
vt 0.173077 0.742857
vt 0.211538 0.742857
vt 0.240385 0.757143
vt 0.211538 0.757143
vt 0.211538 0.757143
vt 0.201923 0.757143
vt 0.211538 0.800000
vt 0.240385 0.757143
vt 0.259615 0.800000
vt 0.240385 0.742857
vt 0.259615 0.714286
vt 0.173077 0.742857
vt 0.201923 0.757143
vt 0.173077 0.757143
vt 0.173077 0.742857
vt 0.201923 0.757143
vt 0.173077 0.757143
vt 0.211538 0.714286
vt 0.201923 0.742857
vt 0.201923 0.714286
vt 0.173077 0.757143
vt 0.201923 0.800000
vt 0.153846 0.800000
vt 0.153846 0.714286
vt 0.173077 0.742857
vt 0.211538 0.714286
vt 0.201923 0.742857
vt 0.201923 0.714286
vt 0.211538 0.742857
vt 0.240385 0.757143
vt 0.211538 0.757143
vt 0.211538 0.757143
vt 0.201923 0.757143
vt 0.211538 0.800000
vt 0.240385 0.757143
vt 0.259615 0.800000
vt 0.240385 0.742857
vt 0.259615 0.714286
vt 0.173077 0.757143
vt 0.201923 0.800000
vt 0.153846 0.800000
vt 0.153846 0.714286
vt 0.173077 0.742857
vt 0.211538 0.757143
vt 0.240385 0.742857
vt 0.240385 0.757143
vt 0.211538 0.757143
vt 0.201923 0.757143
vt 0.211538 0.800000
vt 0.240385 0.757143
vt 0.259615 0.800000
vt 0.240385 0.742857
vt 0.259615 0.714286
vt 0.211538 0.742857
vt 0.173077 0.742857
vt 0.201923 0.757143
vt 0.173077 0.757143
vt 0.173077 0.757143
vt 0.201923 0.742857
vt 0.201923 0.757143
vt 0.211538 0.714286
vt 0.201923 0.742857
vt 0.201923 0.714286
vt 0.173077 0.757143
vt 0.201923 0.800000
vt 0.153846 0.800000
vt 0.153846 0.714286
vt 0.173077 0.742857
vt 0.211538 0.714286
vt 0.201923 0.742857
vt 0.201923 0.714286
vt 0.211538 0.757143
vt 0.240385 0.742857
vt 0.240385 0.757143
vt 0.211538 0.757143
vt 0.201923 0.757143
vt 0.211538 0.800000
vt 0.240385 0.757143
vt 0.259615 0.800000
vt 0.240385 0.742857
vt 0.259615 0.714286
vt 0.211538 0.742857
vt 0.173077 0.757143
vt 0.201923 0.800000
vt 0.153846 0.800000
vt 0.153846 0.714286
vt 0.173077 0.742857
vt 0.211538 0.742857
vt 0.240385 0.757143
vt 0.211538 0.757143
vt 0.211538 0.757143
vt 0.201923 0.757143
vt 0.211538 0.800000
vt 0.240385 0.757143
vt 0.259615 0.800000
vt 0.240385 0.742857
vt 0.259615 0.714286
vt 0.173077 0.742857
vt 0.201923 0.757143
vt 0.173077 0.757143
vt 0.173077 0.742857
vt 0.201923 0.757143
vt 0.173077 0.757143
vt 0.211538 0.714286
vt 0.201923 0.742857
vt 0.201923 0.714286
vt 0.173077 0.757143
vt 0.201923 0.800000
vt 0.153846 0.800000
vt 0.153846 0.714286
vt 0.173077 0.742857
vt 0.211538 0.714286
vt 0.201923 0.742857
vt 0.201923 0.714286
vt 0.211538 0.757143
vt 0.240385 0.742857
vt 0.240385 0.757143
vt 0.211538 0.757143
vt 0.201923 0.757143
vt 0.211538 0.800000
vt 0.240385 0.757143
vt 0.259615 0.800000
vt 0.240385 0.742857
vt 0.259615 0.714286
vt 0.211538 0.742857
vt 0.173077 0.757143
vt 0.201923 0.800000
vt 0.153846 0.800000
vt 0.153846 0.714286
vt 0.173077 0.742857
vt 0.211538 0.742857
vt 0.240385 0.757143
vt 0.211538 0.757143
vt 0.211538 0.757143
vt 0.201923 0.757143
vt 0.211538 0.800000
vt 0.240385 0.757143
vt 0.259615 0.800000
vt 0.240385 0.742857
vt 0.259615 0.714286
vt 0.375000 0.800000
vt 0.201923 0.742857
vt 0.201923 0.742857
vt 0.211538 0.742857
vt 0.211538 0.742857
vt 0.240385 0.742857
vt 0.240385 0.742857
vt 0.201923 0.742857
vt 0.201923 0.742857
vt 0.211538 0.742857
vt 0.211538 0.742857
vt 0.240385 0.742857
vt 0.201923 0.742857
vt 0.173077 0.742857
vt 0.211538 0.742857
vt 0.211538 0.742857
vt 0.240385 0.742857
vt 0.201923 0.742857
vt 0.201923 0.742857
vt 0.211538 0.742857
vt 0.211538 0.742857
vt 0.240385 0.742857
vn 0.9239 0.0000 -0.3827
vn 0.3827 0.0000 0.9239
vn -0.9239 0.0000 0.3827
vn -0.3827 0.0000 -0.9239
vn 0.3827 0.0000 -0.9239
vn 0.9239 0.0000 0.3827
vn -0.3827 0.0000 0.9239
vn -0.9239 0.0000 -0.3827
vn 0.0000 -1.0000 0.0000
vn 1.0000 0.0000 0.0000
vn 0.0000 0.0000 1.0000
vn -1.0000 0.0000 0.0000
vn 0.0000 1.0000 0.0000
vn 0.0000 0.0000 -1.0000
vn 0.7071 0.0000 -0.7071
vn 0.7071 -0.0000 0.7071
vn -0.7071 0.0000 0.7071
vn -0.7071 0.0000 -0.7071
s off
f 8/1/1 15/2/1 7/3/1
f 6/4/2 13/5/2 5/6/2
f 4/7/3 11/8/3 3/9/3
f 2/10/4 9/11/4 1/12/4
f 1/12/5 16/13/5 8/1/5
f 7/3/6 14/14/6 6/4/6
f 5/6/7 12/15/7 4/7/7
f 3/16/8 10/17/8 2/10/8
f 26/18/9 36/19/9 28/20/9
f 39/21/9 48/22/9 40/23/9
f 20/24/10 23/25/10 18/26/10
f 35/27/11 31/28/11 30/29/11
f 35/27/11 17/30/11 33/31/11
f 21/32/12 37/33/12 25/34/12
f 18/26/11 33/31/11 17/30/11
f 33/35/13 24/36/13 34/37/13
f 28/38/10 31/28/10 26/39/10
f 32/40/14 36/41/14 29/42/14
f 34/43/14 20/24/14 19/44/14
f 19/44/14 36/41/14 34/43/14
f 36/19/10 33/35/10 34/37/10
f 47/45/14 43/46/14 42/47/14
f 47/45/14 27/48/14 45/49/14
f 25/34/14 45/49/14 27/48/14
f 45/50/13 38/51/13 46/52/13
f 40/53/12 43/46/12 39/54/12
f 44/55/11 48/56/11 41/57/11
f 46/58/11 21/32/11 22/59/11
f 22/59/11 48/56/11 46/58/11
f 48/22/12 45/50/12 46/52/12
f 58/60/9 68/61/9 60/62/9
f 71/63/9 80/64/9 72/65/9
f 52/66/14 55/67/14 50/68/14
f 67/69/10 63/70/10 62/71/10
f 67/69/10 49/72/10 65/73/10
f 53/74/11 69/75/11 57/76/11
f 50/68/10 65/73/10 49/72/10
f 65/77/13 56/78/13 66/79/13
f 60/80/14 63/70/14 58/81/14
f 64/82/12 68/83/12 61/84/12
f 66/85/12 52/66/12 51/86/12
f 51/86/12 68/83/12 66/85/12
f 68/61/14 65/77/14 66/79/14
f 79/87/12 75/88/12 74/89/12
f 79/87/12 59/90/12 77/91/12
f 57/76/12 77/91/12 59/90/12
f 78/92/13 69/93/13 70/94/13
f 72/95/11 75/88/11 71/96/11
f 76/97/10 80/98/10 73/99/10
f 78/100/10 53/74/10 54/101/10
f 54/101/10 80/98/10 78/100/10
f 80/64/11 77/102/11 78/92/11
f 90/103/9 100/104/9 92/105/9
f 104/106/9 111/107/9 112/108/9
f 84/109/15 87/110/15 82/111/15
f 99/112/16 95/113/16 94/114/16
f 99/112/16 81/115/16 97/116/16
f 85/117/17 101/118/17 89/119/17
f 82/111/16 97/116/16 81/115/16
f 98/120/13 87/121/13 88/122/13
f 92/123/15 95/113/15 90/124/15
f 96/125/18 100/126/18 93/127/18
f 98/128/18 84/109/18 83/129/18
f 83/129/18 100/126/18 98/128/18
f 100/104/15 97/130/15 98/120/15
f 111/131/18 107/132/18 106/133/18
f 111/131/18 91/134/18 109/135/18
f 89/119/18 109/135/18 91/134/18
f 109/136/13 102/137/13 110/138/13
f 104/139/17 107/132/17 103/140/17
f 108/141/16 112/142/16 105/143/16
f 110/144/16 85/117/16 86/145/16
f 86/145/16 112/142/16 110/144/16
f 112/108/17 109/136/17 110/138/17
f 122/146/9 132/147/9 124/148/9
f 135/149/9 144/150/9 136/151/9
f 116/152/18 119/153/18 114/154/18
f 131/155/15 127/156/15 126/157/15
f 131/155/15 113/158/15 129/159/15
f 117/160/16 133/161/16 121/162/16
f 114/154/15 129/159/15 113/158/15
f 130/163/13 119/164/13 120/165/13
f 124/166/18 127/156/18 122/167/18
f 128/168/17 132/169/17 125/170/17
f 130/171/17 116/152/17 115/172/17
f 115/172/17 132/169/17 130/171/17
f 132/147/18 129/173/18 130/163/18
f 143/174/17 139/175/17 138/176/17
f 143/174/17 123/177/17 141/178/17
f 121/162/17 141/178/17 123/177/17
f 141/179/13 134/180/13 142/181/13
f 136/182/16 139/175/16 135/183/16
f 140/184/15 144/185/15 137/186/15
f 142/187/15 117/160/15 118/188/15
f 118/188/15 144/185/15 142/187/15
f 144/150/16 141/179/16 142/181/16
f 8/1/1 16/13/1 15/2/1
f 6/4/2 14/14/2 13/5/2
f 4/7/3 12/15/3 11/8/3
f 2/10/4 10/17/4 9/11/4
f 1/12/5 9/11/5 16/13/5
f 7/3/6 15/2/6 14/14/6
f 5/6/7 13/5/7 12/15/7
f 3/16/8 11/189/8 10/17/8
f 26/18/9 35/190/9 36/19/9
f 39/21/9 47/191/9 48/22/9
f 20/24/10 24/192/10 23/25/10
f 35/27/11 26/39/11 31/28/11
f 35/27/11 30/29/11 17/30/11
f 21/32/12 38/193/12 37/33/12
f 18/26/11 23/25/11 33/31/11
f 33/35/13 23/194/13 24/36/13
f 28/38/10 32/40/10 31/28/10
f 32/40/14 28/38/14 36/41/14
f 34/43/14 24/192/14 20/24/14
f 19/44/14 29/42/14 36/41/14
f 36/19/10 35/190/10 33/35/10
f 47/45/14 39/54/14 43/46/14
f 47/45/14 42/47/14 27/48/14
f 25/34/14 37/33/14 45/49/14
f 45/50/13 37/195/13 38/51/13
f 40/53/12 44/55/12 43/46/12
f 44/55/11 40/53/11 48/56/11
f 46/58/11 38/193/11 21/32/11
f 22/59/11 41/57/11 48/56/11
f 48/22/12 47/191/12 45/50/12
f 58/60/9 67/196/9 68/61/9
f 71/63/9 79/197/9 80/64/9
f 52/66/14 56/198/14 55/67/14
f 67/69/10 58/81/10 63/70/10
f 67/69/10 62/71/10 49/72/10
f 53/74/11 70/199/11 69/75/11
f 50/68/10 55/67/10 65/73/10
f 65/77/13 55/200/13 56/78/13
f 60/80/14 64/82/14 63/70/14
f 64/82/12 60/80/12 68/83/12
f 66/85/12 56/198/12 52/66/12
f 51/86/12 61/84/12 68/83/12
f 68/61/14 67/196/14 65/77/14
f 79/87/12 71/96/12 75/88/12
f 79/87/12 74/89/12 59/90/12
f 57/76/12 69/75/12 77/91/12
f 78/92/13 77/102/13 69/93/13
f 72/95/11 76/97/11 75/88/11
f 76/97/10 72/95/10 80/98/10
f 78/100/10 70/199/10 53/74/10
f 54/101/10 73/99/10 80/98/10
f 80/64/11 79/197/11 77/102/11
f 90/103/9 99/201/9 100/104/9
f 104/106/9 103/202/9 111/107/9
f 84/109/15 88/203/15 87/110/15
f 99/112/16 90/124/16 95/113/16
f 99/112/16 94/114/16 81/115/16
f 85/117/17 102/204/17 101/118/17
f 82/111/16 87/110/16 97/116/16
f 98/120/13 97/130/13 87/121/13
f 92/123/15 96/125/15 95/113/15
f 96/125/18 92/123/18 100/126/18
f 98/128/18 88/203/18 84/109/18
f 83/129/18 93/127/18 100/126/18
f 100/104/15 99/201/15 97/130/15
f 111/131/18 103/140/18 107/132/18
f 111/131/18 106/133/18 91/134/18
f 89/119/18 101/118/18 109/135/18
f 109/136/13 101/205/13 102/137/13
f 104/139/17 108/141/17 107/132/17
f 108/141/16 104/139/16 112/142/16
f 110/144/16 102/204/16 85/117/16
f 86/145/16 105/143/16 112/142/16
f 112/108/17 111/107/17 109/136/17
f 122/146/9 131/206/9 132/147/9
f 135/149/9 143/207/9 144/150/9
f 116/152/18 120/208/18 119/153/18
f 131/155/15 122/167/15 127/156/15
f 131/155/15 126/157/15 113/158/15
f 117/160/16 134/209/16 133/161/16
f 114/154/15 119/153/15 129/159/15
f 130/163/13 129/173/13 119/164/13
f 124/166/18 128/168/18 127/156/18
f 128/168/17 124/166/17 132/169/17
f 130/171/17 120/208/17 116/152/17
f 115/172/17 125/170/17 132/169/17
f 132/147/18 131/206/18 129/173/18
f 143/174/17 135/183/17 139/175/17
f 143/174/17 138/176/17 123/177/17
f 121/162/17 133/161/17 141/178/17
f 141/179/13 133/210/13 134/180/13
f 136/182/16 140/184/16 139/175/16
f 140/184/15 136/182/15 144/185/15
f 142/187/15 134/209/15 117/160/15
f 118/188/15 137/186/15 144/185/15
f 144/150/16 143/207/16 141/179/16
