mtllib chemical_plant_slider.mtl
usemtl material
o Slider
v -0.187500 2.000000 -0.687500
v 0.187500 2.000000 -0.687500
v -0.187500 2.000000 -1.312500
v 0.187500 2.000000 -1.312500
v -0.187500 2.375000 -1.312500
v -0.187500 2.375000 -0.687500
v 0.187500 2.375000 -0.687500
v 0.187500 2.375000 -1.312500
vt 0.894231 0.271429
vt 0.942308 0.314286
vt 0.894231 0.314286
vt 0.942308 0.228571
vt 0.894231 0.228571
vt 0.894231 0.357143
vt 0.942308 0.357143
vt 0.971154 0.314286
vt 0.942308 0.271429
vt 0.971154 0.271429
vt 0.865385 0.271429
vt 0.865385 0.314286
vn 0.0000 1.0000 0.0000
vn 1.0000 0.0000 0.0000
vn -1.0000 0.0000 0.0000
vn 0.0000 0.0000 -1.0000
vn 0.0000 0.0000 1.0000
s off
f 7/1/1 5/2/1 6/3/1
f 4/4/2 7/1/2 2/5/2
f 1/6/3 5/2/3 3/7/3
f 3/8/4 8/9/4 4/10/4
f 2/11/5 6/3/5 1/12/5
f 7/1/1 8/9/1 5/2/1
f 4/4/2 8/9/2 7/1/2
f 1/6/3 6/3/3 5/2/3
f 3/8/4 5/2/4 8/9/4
f 2/11/5 7/1/5 6/3/5
