mtllib chemical_plant_frame.mtl
usemtl material
o Frame
v 1.500000 2.750000 1.500000
v 1.250000 2.750000 1.500000
v 1.500000 2.750000 1.250000
v 1.250000 2.750000 1.250000
v 1.500000 3.000000 1.500000
v 1.250000 3.000000 1.500000
v 1.500000 3.000000 1.250000
v 1.250000 3.000000 1.250000
v 1.500000 2.750000 -1.250000
v 1.250000 2.750000 -1.250000
v 1.500000 2.750000 -1.500000
v 1.250000 2.750000 -1.500000
v 1.500000 3.000000 -1.250000
v 1.250000 3.000000 -1.250000
v 1.500000 3.000000 -1.500000
v 1.250000 3.000000 -1.500000
v -1.250000 2.750000 1.500000
v -1.500000 2.750000 1.500000
v -1.250000 2.750000 1.250000
v -1.500000 2.750000 1.250000
v -1.250000 3.000000 1.500000
v -1.500000 3.000000 1.500000
v -1.250000 3.000000 1.250000
v -1.500000 3.000000 1.250000
v -1.250000 2.750000 -1.250000
v -1.500000 2.750000 -1.250000
v -1.250000 2.750000 -1.500000
v -1.500000 2.750000 -1.500000
v -1.250000 3.000000 -1.250000
v -1.500000 3.000000 -1.250000
v -1.250000 3.000000 -1.500000
v -1.500000 3.000000 -1.500000
v -1.375000 0.250000 -1.500000
v -1.375000 2.750000 -1.500000
v -1.375000 2.750000 -1.375000
v -1.375000 0.250000 -1.375000
v -1.500000 0.250000 -1.375000
v -1.500000 2.750000 -1.375000
v -1.500000 2.750000 -1.500000
v -1.500000 0.250000 -1.500000
v -1.375000 0.250000 1.375000
v -1.375000 2.750000 1.375000
v -1.375000 2.750000 1.500000
v -1.375000 0.250000 1.500000
v -1.500000 0.250000 1.500000
v -1.500000 2.750000 1.500000
v -1.500000 2.750000 1.375000
v -1.500000 0.250000 1.375000
v 1.375000 2.750000 -1.500000
v 1.375000 0.250000 -1.500000
v 1.375000 0.250000 -1.375000
v 1.375000 2.750000 -1.375000
v 1.500000 2.750000 -1.375000
v 1.500000 0.250000 -1.375000
v 1.500000 0.250000 -1.500000
v 1.500000 2.750000 -1.500000
v 1.375000 2.750000 1.375000
v 1.375000 0.250000 1.375000
v 1.375000 0.250000 1.500000
v 1.375000 2.750000 1.500000
v 1.500000 2.750000 1.500000
v 1.500000 0.250000 1.500000
v 1.500000 0.250000 1.375000
v 1.500000 2.750000 1.375000
v -1.500000 2.875000 1.250000
v -1.500000 2.875000 -1.250000
v -1.375000 2.875000 -1.250000
v -1.375000 2.875000 1.250000
v -1.375000 3.000000 1.250000
v -1.375000 3.000000 -1.250000
v -1.500000 3.000000 -1.250000
v -1.500000 3.000000 1.250000
v 1.375000 2.875000 1.250000
v 1.375000 2.875000 -1.250000
v 1.500000 2.875000 -1.250000
v 1.500000 2.875000 1.250000
v 1.500000 3.000000 1.250000
v 1.500000 3.000000 -1.250000
v 1.375000 3.000000 -1.250000
v 1.375000 3.000000 1.250000
v -1.250000 2.875000 -1.500000
v 1.250000 2.875000 -1.500000
v 1.250000 2.875000 -1.375000
v -1.250000 2.875000 -1.375000
v -1.250000 3.000000 -1.375000
v 1.250000 3.000000 -1.375000
v 1.250000 3.000000 -1.500000
v -1.250000 3.000000 -1.500000
v -1.250000 2.875000 1.375000
v 1.250000 2.875000 1.375000
v 1.250000 2.875000 1.500000
v -1.250000 2.875000 1.500000
v -1.250000 3.000000 1.500000
v 1.250000 3.000000 1.500000
v 1.250000 3.000000 1.375000
v -1.250000 3.000000 1.375000
vt 0.394231 0.714286
vt 0.375000 0.742857
vt 0.375000 0.714286
vt 0.375000 0.771429
vt 0.394231 0.800000
vt 0.375000 0.800000
vt 0.432692 0.742857
vt 0.413462 0.771429
vt 0.413462 0.742857
vt 0.451923 0.742857
vt 0.432692 0.771429
vt 0.394231 0.742857
vt 0.394231 0.771429
vt 0.394231 0.714286
vt 0.375000 0.742857
vt 0.375000 0.714286
vt 0.375000 0.771429
vt 0.394231 0.800000
vt 0.375000 0.800000
vt 0.432692 0.742857
vt 0.413462 0.771429
vt 0.413462 0.742857
vt 0.451923 0.742857
vt 0.432692 0.771429
vt 0.394231 0.742857
vt 0.394231 0.771429
vt 0.394231 0.714286
vt 0.375000 0.742857
vt 0.375000 0.714286
vt 0.375000 0.771429
vt 0.394231 0.800000
vt 0.375000 0.800000
vt 0.432692 0.742857
vt 0.413462 0.771429
vt 0.413462 0.742857
vt 0.451923 0.742857
vt 0.432692 0.771429
vt 0.394231 0.742857
vt 0.394231 0.771429
vt 0.394231 0.714286
vt 0.375000 0.742857
vt 0.375000 0.714286
vt 0.375000 0.771429
vt 0.394231 0.800000
vt 0.375000 0.800000
vt 0.432692 0.742857
vt 0.413462 0.771429
vt 0.413462 0.742857
vt 0.451923 0.742857
vt 0.432692 0.771429
vt 0.394231 0.742857
vt 0.394231 0.771429
vt 0.442308 0.828571
vt 0.250000 0.842857
vt 0.250000 0.828571
vt 0.442308 0.814286
vt 0.442308 0.842857
vt 0.250000 0.857143
vt 0.250000 0.800000
vt 0.442308 0.800000
vt 0.442308 0.814286
vt 0.250000 0.828571
vt 0.250000 0.814286
vt 0.442308 0.800000
vt 0.442308 0.828571
vt 0.250000 0.842857
vt 0.442308 0.857143
vt 0.442308 0.842857
vt 0.250000 0.828571
vt 0.442308 0.814286
vt 0.442308 0.828571
vt 0.250000 0.842857
vt 0.250000 0.814286
vt 0.442308 0.800000
vt 0.442308 0.857143
vt 0.250000 0.857143
vt 0.250000 0.842857
vt 0.442308 0.828571
vt 0.442308 0.842857
vt 0.250000 0.857143
vt 0.250000 0.828571
vt 0.442308 0.814286
vt 0.250000 0.800000
vt 0.250000 0.814286
vt 0.442308 0.828571
vt 0.250000 0.842857
vt 0.250000 0.828571
vt 0.442308 0.814286
vt 0.442308 0.842857
vt 0.250000 0.857143
vt 0.250000 0.800000
vt 0.442308 0.800000
vt 0.250000 0.842857
vt 0.442308 0.828571
vt 0.442308 0.842857
vt 0.250000 0.857143
vt 0.250000 0.828571
vt 0.442308 0.814286
vt 0.250000 0.800000
vt 0.250000 0.814286
vt 0.442308 0.828571
vt 0.250000 0.842857
vt 0.250000 0.828571
vt 0.442308 0.814286
vt 0.442308 0.842857
vt 0.250000 0.857143
vt 0.250000 0.800000
vt 0.442308 0.800000
vt 0.250000 0.842857
vt 0.442308 0.828571
vt 0.442308 0.842857
vt 0.250000 0.857143
vt 0.250000 0.828571
vt 0.442308 0.814286
vt 0.250000 0.800000
vt 0.250000 0.814286
vt 0.451923 0.771429
vt 0.451923 0.771429
vt 0.451923 0.771429
vt 0.451923 0.771429
vt 0.250000 0.814286
vt 0.442308 0.857143
vt 0.250000 0.800000
vt 0.250000 0.857143
vt 0.442308 0.842857
vt 0.250000 0.800000
vt 0.442308 0.857143
vt 0.442308 0.800000
vt 0.250000 0.814286
vt 0.442308 0.857143
vt 0.442308 0.857143
vt 0.442308 0.800000
vt 0.250000 0.814286
vt 0.442308 0.857143
vt 0.442308 0.857143
vt 0.442308 0.800000
vn 0.0000 -1.0000 0.0000
vn 0.0000 1.0000 0.0000
vn -1.0000 0.0000 0.0000
vn 0.0000 0.0000 1.0000
vn 1.0000 0.0000 0.0000
vn 0.0000 0.0000 -1.0000
s off
f 4/1/1 1/2/1 2/3/1
f 5/4/2 8/5/2 6/6/2
f 2/7/3 8/8/3 4/9/3
f 1/10/4 6/11/4 2/7/4
f 3/12/5 5/4/5 1/2/5
f 4/9/6 7/13/6 3/12/6
f 12/14/1 9/15/1 10/16/1
f 13/17/2 16/18/2 14/19/2
f 10/20/3 16/21/3 12/22/3
f 9/23/4 14/24/4 10/20/4
f 11/25/5 13/17/5 9/15/5
f 12/22/6 15/26/6 11/25/6
f 20/27/1 17/28/1 18/29/1
f 21/30/2 24/31/2 22/32/2
f 18/33/3 24/34/3 20/35/3
f 17/36/4 22/37/4 18/33/4
f 19/38/5 21/30/5 17/28/5
f 20/35/6 23/39/6 19/38/6
f 28/40/1 25/41/1 26/42/1
f 29/43/2 32/44/2 30/45/2
f 26/46/3 32/47/3 28/48/3
f 25/49/4 30/50/4 26/46/4
f 27/51/5 29/43/5 25/41/5
f 28/48/6 31/52/6 27/51/6
f 40/53/3 38/54/3 39/55/3
f 39/55/6 33/56/6 40/53/6
f 37/57/4 35/58/4 38/54/4
f 33/56/5 35/59/5 36/60/5
f 48/61/3 46/62/3 47/63/3
f 47/63/6 41/64/6 48/61/6
f 45/65/4 43/66/4 46/62/4
f 41/67/5 43/66/5 44/68/5
f 56/69/5 54/70/5 55/71/5
f 55/71/6 49/72/6 56/69/6
f 53/73/4 51/74/4 54/70/4
f 49/72/3 51/75/3 52/76/3
f 64/77/5 62/78/5 63/79/5
f 63/79/6 57/80/6 64/77/6
f 61/81/4 59/82/4 62/78/4
f 57/83/3 59/82/3 60/84/3
f 72/85/2 70/86/2 71/87/2
f 71/87/3 65/88/3 72/85/3
f 69/89/5 67/90/5 70/86/5
f 65/88/1 67/91/1 68/92/1
f 80/93/2 78/94/2 79/95/2
f 79/95/3 73/96/3 80/93/3
f 77/97/5 75/98/5 78/94/5
f 73/99/1 75/98/1 76/100/1
f 88/101/2 86/102/2 87/103/2
f 87/103/6 81/104/6 88/101/6
f 85/105/4 83/106/4 86/102/4
f 81/104/1 83/107/1 84/108/1
f 96/109/2 94/110/2 95/111/2
f 95/111/6 89/112/6 96/109/6
f 93/113/4 91/114/4 94/110/4
f 89/115/1 91/114/1 92/116/1
f 4/1/1 3/12/1 1/2/1
f 5/4/2 7/13/2 8/5/2
f 2/7/3 6/11/3 8/8/3
f 1/10/4 5/117/4 6/11/4
f 3/12/5 7/13/5 5/4/5
f 4/9/6 8/8/6 7/13/6
f 12/14/1 11/25/1 9/15/1
f 13/17/2 15/26/2 16/18/2
f 10/20/3 14/24/3 16/21/3
f 9/23/4 13/118/4 14/24/4
f 11/25/5 15/26/5 13/17/5
f 12/22/6 16/21/6 15/26/6
f 20/27/1 19/38/1 17/28/1
f 21/30/2 23/39/2 24/31/2
f 18/33/3 22/37/3 24/34/3
f 17/36/4 21/119/4 22/37/4
f 19/38/5 23/39/5 21/30/5
f 20/35/6 24/34/6 23/39/6
f 28/40/1 27/51/1 25/41/1
f 29/43/2 31/52/2 32/44/2
f 26/46/3 30/50/3 32/47/3
f 25/49/4 29/120/4 30/50/4
f 27/51/5 31/52/5 29/43/5
f 28/48/6 32/47/6 31/52/6
f 40/53/3 37/57/3 38/54/3
f 39/55/6 34/121/6 33/56/6
f 37/57/4 36/122/4 35/58/4
f 33/56/5 34/121/5 35/59/5
f 48/61/3 45/65/3 46/62/3
f 47/63/6 42/123/6 41/64/6
f 45/65/4 44/68/4 43/66/4
f 41/67/5 42/124/5 43/66/5
f 56/69/5 53/73/5 54/70/5
f 55/71/6 50/125/6 49/72/6
f 53/73/4 52/126/4 51/74/4
f 49/72/3 50/125/3 51/75/3
f 64/77/5 61/81/5 62/78/5
f 63/79/6 58/127/6 57/80/6
f 61/81/4 60/84/4 59/82/4
f 57/83/3 58/128/3 59/82/3
f 72/85/2 69/89/2 70/86/2
f 71/87/3 66/129/3 65/88/3
f 69/89/5 68/130/5 67/90/5
f 65/88/1 66/129/1 67/91/1
f 80/93/2 77/97/2 78/94/2
f 79/95/3 74/131/3 73/96/3
f 77/97/5 76/100/5 75/98/5
f 73/99/1 74/132/1 75/98/1
f 88/101/2 85/105/2 86/102/2
f 87/103/6 82/133/6 81/104/6
f 85/105/4 84/134/4 83/106/4
f 81/104/1 82/133/1 83/107/1
f 96/109/2 93/113/2 94/110/2
f 95/111/6 90/135/6 89/112/6
f 93/113/4 92/116/4 91/114/4
f 89/115/1 90/136/1 91/114/1
