mtllib chemical_plant_fluid.mtl
usemtl material
o Fluid
v 0.500000 1.375000 -0.375000
v 0.165152 1.375000 -0.308394
v -0.118718 1.375000 -0.118718
v -0.308394 1.375000 0.165152
v -0.375000 1.375000 0.500000
v -0.308394 1.375000 0.834848
v -0.118718 1.375000 1.118718
v 0.165152 1.375000 1.308394
v 0.500000 1.375000 1.375000
v 0.834848 1.375000 1.308394
v 1.118718 1.375000 1.118719
v 1.308394 1.375000 0.834848
v 1.375000 1.375000 0.500000
v 1.308394 1.375000 0.165152
v 1.118718 1.375000 -0.118719
v 0.834847 1.375000 -0.308395
v -0.118718 1.000000 1.118718
v 0.165152 1.000000 1.308394
v 0.500000 1.000000 1.375000
v 0.834848 1.000000 1.308394
v 1.118718 1.000000 1.118719
v 1.308394 1.000000 0.834848
v 1.375000 1.000000 0.500000
v 1.308394 1.000000 0.165152
v 1.118718 1.000000 -0.118719
v 0.500000 1.375000 0.500000
vt 0.687500 -0.000000
vt 0.750000 -0.000000
vt 0.718750 1.000000
vt 0.812500 -0.000000
vt 0.781250 1.000000
vt 0.875000 0.000000
vt 0.843750 1.000000
vt 0.937500 -0.000000
vt 0.906250 1.000000
vt 1.000000 -0.000000
vt 0.968750 1.000000
vt -0.000000 -0.000000
vt 0.062500 0.000000
vt 0.031250 1.000000
vt 0.125000 -0.000000
vt 0.093750 1.000000
vt 0.187500 -0.000000
vt 0.156250 1.000000
vt 0.250000 0.000000
vt 0.218750 1.000000
vt 0.312500 0.000000
vt 0.281250 1.000000
vt 0.375000 0.000000
vt 0.343750 1.000000
vt 0.437500 0.000000
vt 0.406250 1.000000
vt 0.500000 -0.000000
vt 0.468750 1.000000
vt 0.562500 -0.000000
vt 0.531250 1.000000
vt 0.625000 -0.000000
vt 0.593750 1.000000
vt 0.656250 1.000000
vt -0.000000 -0.000000
vt 0.062500 0.428571
vt -0.000000 0.428571
vt 0.062500 -0.000000
vt 0.125000 0.428571
vt 0.125000 -0.000000
vt 0.187500 0.428571
vt 0.187500 -0.000000
vt 0.250000 0.428571
vt 0.250000 0.000000
vt 0.312500 0.428571
vt 0.312500 0.000000
vt 0.375000 0.428571
vt 0.375000 0.000000
vt 0.437500 0.428571
vt 0.500000 -0.000000
vt 0.437500 -0.000000
vt 0.500000 0.428571
vn 0.0000 1.0000 0.0000
vn -0.5556 0.0000 0.8315
vn -0.3827 0.0000 0.9239
vn 0.0000 0.0000 1.0000
vn 0.3827 0.0000 0.9239
vn 0.7071 0.0000 0.7071
vn 0.9239 0.0000 0.3827
vn 1.0000 0.0000 -0.0000
vn 0.9239 0.0000 -0.3827
vn 0.8315 0.0000 -0.5556
s 1
f 2/1/1 3/2/1 26/3/1
f 3/2/1 4/4/1 26/5/1
f 4/4/1 5/6/1 26/7/1
f 5/6/1 6/8/1 26/9/1
f 6/8/1 7/10/1 26/11/1
f 7/12/1 8/13/1 26/14/1
f 8/13/1 9/15/1 26/16/1
f 9/15/1 10/17/1 26/18/1
f 10/17/1 11/19/1 26/20/1
f 11/19/1 12/21/1 26/22/1
f 12/21/1 13/23/1 26/24/1
f 13/23/1 14/25/1 26/26/1
f 14/25/1 15/27/1 26/28/1
f 15/27/1 16/29/1 26/30/1
f 16/29/1 1/31/1 26/32/1
f 1/31/1 2/1/1 26/33/1
f 17/34/2 8/35/3 7/36/2
f 18/37/3 9/38/4 8/35/3
f 19/39/4 10/40/5 9/38/4
f 20/41/5 11/42/6 10/40/5
f 21/43/6 12/44/7 11/42/6
f 22/45/7 13/46/8 12/44/7
f 23/47/8 14/48/9 13/46/8
f 25/49/10 14/48/9 24/50/9
f 17/34/2 18/37/3 8/35/3
f 18/37/3 19/39/4 9/38/4
f 19/39/4 20/41/5 10/40/5
f 20/41/5 21/43/6 11/42/6
f 21/43/6 22/45/7 12/44/7
f 22/45/7 23/47/8 13/46/8
f 23/47/8 24/50/9 14/48/9
f 25/49/10 15/51/10 14/48/9
