mtllib deco_satellite_receiver.mtl
usemtl material
# generated from 1.7 ModelSatelliteReceiver
o Dish
v 0.875000 1.000000 0.125000
v 0.125000 1.000000 0.125000
v 0.125000 0.000000 0.125000
v 0.875000 0.000000 0.125000
v 0.875000 1.000000 0.875000
v 0.125000 1.000000 0.875000
v 0.125000 0.000000 0.875000
v 0.875000 0.000000 0.875000
v 0.251931 0.711076 0.009582
v -0.201223 0.711076 0.220892
v -0.255914 0.228113 0.103607
v 0.197240 0.228113 -0.107702
v 0.302958 0.678724 0.119011
v -0.150195 0.678724 0.330320
v -0.204886 0.195761 0.213035
v 0.248268 0.195761 0.001726
v 0.214577 0.864169 -0.070525
v -0.238577 0.864169 0.140784
v -0.252250 0.743429 0.111463
v 0.200904 0.743429 -0.099846
v 0.291117 0.815641 0.093618
v -0.162036 0.815641 0.304927
v -0.175709 0.694900 0.275606
v 0.277445 0.694900 0.064297
v 0.314192 0.743429 -0.152673
v 0.200904 0.743429 -0.099846
v 0.146213 0.260466 -0.217131
v 0.259502 0.260466 -0.269958
v 0.390733 0.694900 0.011469
v 0.277445 0.694900 0.064297
v 0.222754 0.211937 -0.052988
v 0.336042 0.211937 -0.105816
v -0.252250 0.743429 0.111463
v -0.365538 0.743429 0.164291
v -0.420229 0.260466 0.047006
v -0.306941 0.260466 -0.005822
v -0.175709 0.694900 0.275606
v -0.288998 0.694900 0.328433
v -0.343688 0.211937 0.211148
v -0.230400 0.211937 0.158321
v 0.146213 0.260466 -0.217131
v -0.306941 0.260466 -0.005822
v -0.320614 0.139725 -0.035143
v 0.132540 0.139725 -0.246452
v 0.222754 0.211937 -0.052988
v -0.230400 0.211937 0.158321
v -0.244073 0.091196 0.129000
v 0.209081 0.091196 -0.082310
v -0.015051 0.578494 -0.119301
v -0.128340 0.578494 -0.066474
v -0.142013 0.457753 -0.095795
v -0.028724 0.457753 -0.148622
v 0.061489 0.529965 0.044841
v -0.051799 0.529965 0.097669
v -0.065472 0.409224 0.068348
v 0.047817 0.409224 0.015520
v -0.123333 0.596837 -0.277567
v -0.179977 0.596837 -0.251153
v -0.186813 0.536467 -0.265814
v -0.130169 0.536467 -0.292227
v -0.046792 0.548309 -0.113424
v -0.103436 0.548309 -0.087011
v -0.110272 0.487938 -0.101671
v -0.053628 0.487938 -0.128085
v -0.142620 0.659375 -0.392872
v -0.255908 0.659375 -0.340044
v -0.269581 0.538634 -0.369365
v -0.156292 0.538634 -0.422193
v -0.091592 0.627022 -0.283443
v -0.204881 0.627022 -0.230616
v -0.218553 0.506282 -0.259937
v -0.105265 0.506282 -0.312765
vt 0.187500 0.812500
vt 0.375000 0.812500
vt 0.375000 1.000000
vt 0.187500 1.000000
vt 0.375000 0.812500
vt 0.562500 0.812500
vt 0.562500 1.000000
vt 0.375000 1.000000
vt 0.000000 0.812500
vt 0.187500 0.812500
vt 0.187500 0.562500
vt 0.000000 0.562500
vt 0.375000 0.812500
vt 0.562500 0.812500
vt 0.562500 0.562500
vt 0.375000 0.562500
vt 0.187500 0.812500
vt 0.375000 0.812500
vt 0.375000 0.562500
vt 0.187500 0.562500
vt 0.562500 0.812500
vt 0.750000 0.812500
vt 0.750000 0.562500
vt 0.562500 0.562500
vt 0.187500 0.531250
vt 0.312500 0.531250
vt 0.312500 0.562500
vt 0.187500 0.562500
vt 0.312500 0.531250
vt 0.437500 0.531250
vt 0.437500 0.562500
vt 0.312500 0.562500
vt 0.156250 0.531250
vt 0.187500 0.531250
vt 0.187500 0.406250
vt 0.156250 0.406250
vt 0.312500 0.531250
vt 0.343750 0.531250
vt 0.343750 0.406250
vt 0.312500 0.406250
vt 0.187500 0.531250
vt 0.312500 0.531250
vt 0.312500 0.406250
vt 0.187500 0.406250
vt 0.343750 0.531250
vt 0.468750 0.531250
vt 0.468750 0.406250
vt 0.343750 0.406250
vt 0.046875 0.343750
vt 0.171875 0.343750
vt 0.171875 0.390625
vt 0.046875 0.390625
vt 0.171875 0.343750
vt 0.296875 0.343750
vt 0.296875 0.390625
vt 0.171875 0.390625
vt 0.000000 0.343750
vt 0.046875 0.343750
vt 0.046875 0.312500
vt 0.000000 0.312500
vt 0.171875 0.343750
vt 0.218750 0.343750
vt 0.218750 0.312500
vt 0.171875 0.312500
vt 0.046875 0.343750
vt 0.171875 0.343750
vt 0.171875 0.312500
vt 0.046875 0.312500
vt 0.218750 0.343750
vt 0.343750 0.343750
vt 0.343750 0.312500
vt 0.218750 0.312500
vt 0.046875 0.515625
vt 0.078125 0.515625
vt 0.078125 0.562500
vt 0.046875 0.562500
vt 0.078125 0.515625
vt 0.109375 0.515625
vt 0.109375 0.562500
vt 0.078125 0.562500
vt 0.000000 0.515625
vt 0.046875 0.515625
vt 0.046875 0.390625
vt 0.000000 0.390625
vt 0.078125 0.515625
vt 0.125000 0.515625
vt 0.125000 0.390625
vt 0.078125 0.390625
vt 0.046875 0.515625
vt 0.078125 0.515625
vt 0.078125 0.390625
vt 0.046875 0.390625
vt 0.125000 0.515625
vt 0.156250 0.515625
vt 0.156250 0.390625
vt 0.125000 0.390625
vt 0.046875 0.515625
vt 0.078125 0.515625
vt 0.078125 0.562500
vt 0.046875 0.562500
vt 0.078125 0.515625
vt 0.109375 0.515625
vt 0.109375 0.562500
vt 0.078125 0.562500
vt 0.000000 0.515625
vt 0.046875 0.515625
vt 0.046875 0.390625
vt 0.000000 0.390625
vt 0.078125 0.515625
vt 0.125000 0.515625
vt 0.125000 0.390625
vt 0.078125 0.390625
vt 0.046875 0.515625
vt 0.078125 0.515625
vt 0.078125 0.390625
vt 0.046875 0.390625
vt 0.125000 0.515625
vt 0.156250 0.515625
vt 0.156250 0.390625
vt 0.125000 0.390625
vt 0.046875 0.343750
vt 0.171875 0.343750
vt 0.171875 0.390625
vt 0.046875 0.390625
vt 0.171875 0.343750
vt 0.296875 0.343750
vt 0.296875 0.390625
vt 0.171875 0.390625
vt 0.000000 0.343750
vt 0.046875 0.343750
vt 0.046875 0.312500
vt 0.000000 0.312500
vt 0.171875 0.343750
vt 0.218750 0.343750
vt 0.218750 0.312500
vt 0.171875 0.312500
vt 0.046875 0.343750
vt 0.171875 0.343750
vt 0.171875 0.312500
vt 0.046875 0.312500
vt 0.218750 0.343750
vt 0.343750 0.343750
vt 0.343750 0.312500
vt 0.218750 0.312500
vt 0.046875 0.265625
vt 0.078125 0.265625
vt 0.078125 0.312500
vt 0.046875 0.312500
vt 0.078125 0.265625
vt 0.109375 0.265625
vt 0.109375 0.312500
vt 0.078125 0.312500
vt 0.000000 0.265625
vt 0.046875 0.265625
vt 0.046875 0.234375
vt 0.000000 0.234375
vt 0.078125 0.265625
vt 0.125000 0.265625
vt 0.125000 0.234375
vt 0.078125 0.234375
vt 0.046875 0.265625
vt 0.078125 0.265625
vt 0.078125 0.234375
vt 0.046875 0.234375
vt 0.125000 0.265625
vt 0.156250 0.265625
vt 0.156250 0.234375
vt 0.125000 0.234375
vt 0.046875 0.187500
vt 0.062500 0.187500
vt 0.062500 0.234375
vt 0.046875 0.234375
vt 0.062500 0.187500
vt 0.078125 0.187500
vt 0.078125 0.234375
vt 0.062500 0.234375
vt 0.000000 0.187500
vt 0.046875 0.187500
vt 0.046875 0.171875
vt 0.000000 0.171875
vt 0.062500 0.187500
vt 0.109375 0.187500
vt 0.109375 0.171875
vt 0.062500 0.171875
vt 0.046875 0.187500
vt 0.062500 0.187500
vt 0.062500 0.171875
vt 0.046875 0.171875
vt 0.109375 0.187500
vt 0.125000 0.187500
vt 0.125000 0.171875
vt 0.109375 0.171875
vt 0.031250 0.140625
vt 0.062500 0.140625
vt 0.062500 0.171875
vt 0.031250 0.171875
vt 0.062500 0.140625
vt 0.093750 0.140625
vt 0.093750 0.171875
vt 0.062500 0.171875
vt 0.000000 0.140625
vt 0.031250 0.140625
vt 0.031250 0.109375
vt 0.000000 0.109375
vt 0.062500 0.140625
vt 0.093750 0.140625
vt 0.093750 0.109375
vt 0.062500 0.109375
vt 0.031250 0.140625
vt 0.062500 0.140625
vt 0.062500 0.109375
vt 0.031250 0.109375
vt 0.093750 0.140625
vt 0.125000 0.140625
vt 0.125000 0.109375
vt 0.093750 0.109375
f 1/1 2/2 6/3 5/4
f 4/5 8/6 7/7 3/8
f 1/9 5/10 8/11 4/12
f 2/13 3/14 7/15 6/16
f 1/17 4/18 3/19 2/20
f 5/21 6/22 7/23 8/24
f 9/25 10/26 14/27 13/28
f 12/29 16/30 15/31 11/32
f 9/33 13/34 16/35 12/36
f 10/37 11/38 15/39 14/40
f 9/41 12/42 11/43 10/44
f 13/45 14/46 15/47 16/48
f 17/49 18/50 22/51 21/52
f 20/53 24/54 23/55 19/56
f 17/57 21/58 24/59 20/60
f 18/61 19/62 23/63 22/64
f 17/65 20/66 19/67 18/68
f 21/69 22/70 23/71 24/72
f 25/73 26/74 30/75 29/76
f 28/77 32/78 31/79 27/80
f 25/81 29/82 32/83 28/84
f 26/85 27/86 31/87 30/88
f 25/89 28/90 27/91 26/92
f 29/93 30/94 31/95 32/96
f 33/97 34/98 38/99 37/100
f 36/101 40/102 39/103 35/104
f 33/105 37/106 40/107 36/108
f 34/109 35/110 39/111 38/112
f 33/113 36/114 35/115 34/116
f 37/117 38/118 39/119 40/120
f 41/121 42/122 46/123 45/124
f 44/125 48/126 47/127 43/128
f 41/129 45/130 48/131 44/132
f 42/133 43/134 47/135 46/136
f 41/137 44/138 43/139 42/140
f 45/141 46/142 47/143 48/144
f 49/145 50/146 54/147 53/148
f 52/149 56/150 55/151 51/152
f 49/153 53/154 56/155 52/156
f 50/157 51/158 55/159 54/160
f 49/161 52/162 51/163 50/164
f 53/165 54/166 55/167 56/168
f 57/169 58/170 62/171 61/172
f 60/173 64/174 63/175 59/176
f 57/177 61/178 64/179 60/180
f 58/181 59/182 63/183 62/184
f 57/185 60/186 59/187 58/188
f 61/189 62/190 63/191 64/192
f 65/193 66/194 70/195 69/196
f 68/197 72/198 71/199 67/200
f 65/201 69/202 72/203 68/204
f 66/205 67/206 71/207 70/208
f 65/209 68/210 67/211 66/212
f 69/213 70/214 71/215 72/216
