# det_cord part Core
mtllib det_cord.mtl
o Core
v 0.343750 0.343750 0.406250
v 0.343750 0.343750 0.593750
v 0.406250 0.343750 0.656250
v 0.593750 0.343750 0.656250
v 0.656250 0.343750 0.593750
v 0.656250 0.343750 0.406250
v 0.593750 0.343750 0.343750
v 0.406250 0.343750 0.343750
v 0.343750 0.656250 0.406250
v 0.343750 0.656250 0.593750
v 0.406250 0.656250 0.656250
v 0.593750 0.656250 0.656250
v 0.656250 0.656250 0.593750
v 0.656250 0.656250 0.406250
v 0.593750 0.656250 0.343750
v 0.406250 0.656250 0.343750
v 0.656250 0.406250 0.343750
v 0.656250 0.593750 0.343750
v 0.656250 0.593750 0.656250
v 0.656250 0.406250 0.656250
v 0.343750 0.406250 0.656250
v 0.343750 0.593750 0.656250
v 0.343750 0.593750 0.343750
v 0.343750 0.406250 0.343750
vt 0.250000 0.062500
vt 0.250000 -0.000000
vt 0.312500 0.000000
vt 0.312500 0.312500
vt 0.250000 0.312500
vt 0.250000 0.250000
vt 0.312500 0.000000
vt 0.250000 0.062500
vt 0.250000 -0.000000
vt 0.562500 0.062500
vt 0.500000 0.000000
vt 0.562500 -0.000000
vt 0.562500 0.062500
vt 0.500000 0.000000
vt 0.562500 -0.000000
vt 0.562500 0.250000
vt 0.562500 0.312500
vt 0.500000 0.312500
vt 0.500000 0.312500
vt 0.562500 0.250000
vt 0.562500 0.312500
vt 0.312500 0.312500
vt 0.250000 0.312500
vt 0.250000 0.250000
vt 0.562500 0.250000
vt 0.312500 0.312500
vt 0.250000 0.062500
vt 0.312500 0.312500
vt 0.250000 0.062500
vt 0.500000 0.000000
vt 0.250000 0.250000
vt 0.312500 0.000000
vt 0.562500 0.062500
vt 0.250000 0.250000
vt 0.312500 0.000000
vt 0.562500 0.062500
vt 0.312500 0.000000
vt 0.500000 0.000000
vt 0.562500 0.062500
vt 0.500000 0.312500
vt 0.250000 0.250000
vt 0.562500 0.062500
vt 0.562500 0.250000
vt 0.500000 0.312500
vt 0.250000 0.250000
vt 0.312500 0.000000
vt 0.562500 0.250000
vt 0.500000 0.312500
vt 0.312500 0.312500
vt 0.250000 0.062500
vt 0.500000 0.000000
vt 0.562500 0.250000
vt 0.500000 0.312500
vt 0.312500 0.312500
vt 0.250000 0.062500
vt 0.500000 0.000000
vn -0.5774 -0.5774 0.5774
vn 0.5774 -0.5774 0.5774
vn -0.5774 0.5774 0.5774
vn 0.5774 0.5774 0.5774
vn -0.5774 -0.5774 -0.5774
vn 0.5774 -0.5774 -0.5774
vn 0.5774 0.5774 -0.5774
vn -0.5774 0.5774 -0.5774
vn 0.0000 -1.0000 0.0000
vn 0.0000 0.0000 -1.0000
vn -1.0000 0.0000 0.0000
vn 1.0000 0.0000 0.0000
vn 0.0000 1.0000 0.0000
vn 0.0000 0.0000 1.0000
usemtl material
s off
s off
f 3/1/1 21/2/1 2/3/1
f 5/4/2 20/5/2 4/6/2
f 11/7/3 10/8/3 22/9/3
f 13/10/4 12/11/4 19/12/4
f 8/13/5 1/14/5 24/15/5
f 7/16/6 17/17/6 6/18/6
f 15/19/7 14/20/7 18/21/7
f 16/22/8 23/23/8 9/24/8
f 1/14/9 7/16/9 5/4/9
f 8/25/10 23/26/10 15/27/10
f 22/28/11 9/29/11 24/30/11
f 5/31/12 17/32/12 14/33/12
f 14/20/13 16/22/13 10/8/13
f 3/34/14 20/35/14 12/36/14
f 5/4/9 4/6/9 3/1/9
f 3/1/9 2/3/9 1/14/9
f 1/14/9 8/13/9 7/16/9
f 7/16/9 6/18/9 5/4/9
f 5/4/9 3/1/9 1/14/9
f 15/27/10 18/37/10 17/38/10
f 17/38/10 7/39/10 8/25/10
f 8/25/10 24/40/10 23/26/10
f 23/26/10 16/41/10 15/27/10
f 15/27/10 17/38/10 8/25/10
f 24/30/11 1/42/11 2/43/11
f 2/43/11 21/44/11 22/28/11
f 22/28/11 10/45/11 9/29/11
f 9/29/11 23/46/11 24/30/11
f 24/30/11 2/43/11 22/28/11
f 14/33/12 13/47/12 19/48/12
f 19/48/12 20/49/12 5/31/12
f 5/31/12 6/50/12 17/32/12
f 17/32/12 18/51/12 14/33/12
f 14/33/12 19/48/12 5/31/12
f 10/8/13 11/7/13 12/11/13
f 12/11/13 13/10/13 14/20/13
f 14/20/13 15/19/13 16/22/13
f 16/22/13 9/24/13 10/8/13
f 10/8/13 12/11/13 14/20/13
f 12/36/14 11/52/14 22/53/14
f 22/53/14 21/54/14 3/34/14
f 3/34/14 4/55/14 20/35/14
f 20/35/14 19/56/14 12/36/14
f 12/36/14 22/53/14 3/34/14
