# det_cord part posX
mtllib det_cord.mtl
o posX
v 1.000000 0.406250 0.343750
v 1.000000 0.593750 0.343750
v 1.000000 0.593750 0.656250
v 1.000000 0.406250 0.656250
v 1.000000 0.656250 0.406250
v 1.000000 0.656250 0.593750
v 1.000000 0.343750 0.593750
v 1.000000 0.343750 0.406250
v 0.656250 0.656250 0.406250
v 0.656250 0.656250 0.593750
v 0.656250 0.343750 0.406250
v 0.656250 0.343750 0.593750
v 0.656250 0.593750 0.656250
v 0.656250 0.406250 0.656250
v 0.656250 0.406250 0.343750
v 0.656250 0.593750 0.343750
vt 0.250000 0.062500
vt 0.312500 0.000000
vt 0.500000 0.312500
vt 0.062500 1.000000
vt 0.250000 0.656250
vt 0.250000 1.000000
vt 0.000000 1.000000
vt 0.062500 0.656250
vt 0.062500 1.000000
vt 0.250000 0.656250
vt 0.250000 1.000000
vt -0.000000 1.000000
vt 0.062500 0.656250
vt 0.062500 0.656250
vt 0.250000 1.000000
vt 0.062500 1.000000
vt 0.000000 0.656250
vt -0.000000 1.000000
vt 0.062500 1.000000
vt 0.250000 0.656250
vt 0.250000 1.000000
vt 0.000000 0.656250
vt 0.062500 0.656250
vt 0.500000 0.000000
vt 0.562500 0.062500
vt 0.562500 0.250000
vt 0.312500 0.312500
vt 0.250000 0.250000
vt 0.000000 0.656250
vt 0.000000 0.656250
vt 0.250000 0.656250
vt 0.000000 1.000000
vn 1.0000 0.0000 0.0000
vn 0.0000 1.0000 0.0000
vn 0.0000 0.7071 -0.7071
vn -0.0000 0.0000 -1.0000
vn 0.0000 -0.7071 -0.7071
vn 0.0000 -1.0000 0.0000
vn 0.0000 -0.7071 0.7071
vn 0.0000 0.0000 1.0000
vn 0.0000 0.7071 0.7071
usemtl material
s off
s off
f 8/1/1 1/2/1 3/3/1
f 5/4/2 10/5/2 6/6/2
f 2/7/3 9/8/3 5/4/3
f 1/9/4 16/10/4 2/11/4
f 8/12/5 15/13/5 1/9/5
f 12/14/6 8/15/6 7/16/6
f 14/17/7 7/16/7 4/18/7
f 3/19/8 14/20/8 4/21/8
f 3/19/9 10/22/9 13/23/9
f 1/2/1 2/24/1 3/3/1
f 2/24/1 5/25/1 3/3/1
f 5/25/1 6/26/1 3/3/1
f 3/3/1 4/27/1 7/28/1
f 7/28/1 8/1/1 3/3/1
f 5/4/2 9/8/2 10/5/2
f 2/7/3 16/29/3 9/8/3
f 1/9/4 15/13/4 16/10/4
f 8/12/5 11/30/5 15/13/5
f 12/14/6 11/31/6 8/15/6
f 14/17/7 12/14/7 7/16/7
f 3/19/8 13/23/8 14/20/8
f 3/19/9 6/32/9 10/22/9
