# det_cord part CZ
mtllib det_cord.mtl
o CZ
v 0.343750 0.593750 1.000000
v 0.406250 0.656250 0.000000
v 0.593750 0.656250 0.000000
v 0.343750 0.406250 1.000000
v 0.656250 0.406250 1.000000
v 0.593750 0.343750 0.000000
v 0.406250 0.343750 0.000000
v 0.656250 0.593750 1.000000
v 0.406250 0.343750 1.000000
v 0.656250 0.593750 0.000000
v 0.656250 0.406250 0.000000
v 0.593750 0.343750 1.000000
v 0.593750 0.656250 1.000000
v 0.343750 0.406250 0.000000
v 0.343750 0.593750 0.000000
v 0.406250 0.656250 1.000000
vt 0.250000 1.000000
vt 0.062500 0.000000
vt 0.250000 0.000000
vt -0.000000 1.000000
vt 0.062500 1.000000
vt 0.062500 1.000000
vt 0.250000 0.000000
vt 0.250000 1.000000
vt -0.000000 0.000000
vt -0.000000 1.000000
vt 0.250000 1.000000
vt 0.062500 0.000000
vt 0.250000 0.000000
vt 0.062500 1.000000
vt -0.000000 0.000000
vt 0.062500 1.000000
vt 0.250000 0.000000
vt 0.250000 1.000000
vt 0.062500 0.000000
vt -0.000000 1.000000
vt -0.000000 0.000000
vt 0.562500 0.250000
vt 0.312500 0.312500
vt 0.250000 0.062500
vt 0.562500 0.062500
vt 0.500000 0.312500
vt 0.250000 0.250000
vt -0.000000 0.000000
vt 0.062500 0.000000
vt -0.000000 1.000000
vt 0.312500 0.000000
vt 0.500000 0.000000
vt 0.562500 0.062500
vt 0.500000 0.312500
vt 0.250000 0.250000
vt 0.250000 0.062500
vt 0.312500 0.000000
vt 0.500000 0.000000
vt 0.562500 0.250000
vt 0.312500 0.312500
vn 0.0000 1.0000 0.0000
vn 0.7071 0.7071 0.0000
vn 1.0000 0.0000 0.0000
vn 0.7071 -0.7071 -0.0000
vn 0.0000 -1.0000 -0.0000
vn -0.7071 -0.7071 -0.0000
vn -1.0000 0.0000 0.0000
vn -0.7071 0.7071 0.0000
vn -0.0000 0.0000 1.0000
vn 0.0000 0.0000 -1.0000
usemtl material
s off
s off
f 16/1/1 3/2/1 2/3/1
f 8/4/2 3/2/2 13/5/2
f 5/6/3 10/7/3 8/8/3
f 6/9/4 5/6/4 12/10/4
f 12/11/5 7/12/5 6/13/5
f 9/14/6 14/15/6 7/12/6
f 1/16/7 14/17/7 4/18/7
f 15/19/8 16/20/8 2/21/8
f 16/22/9 4/23/9 12/24/9
f 6/25/10 14/26/10 2/27/10
f 16/1/1 13/5/1 3/2/1
f 8/4/2 10/28/2 3/2/2
f 5/6/3 11/29/3 10/7/3
f 6/9/4 11/29/4 5/6/4
f 12/11/5 9/14/5 7/12/5
f 9/14/6 4/30/6 14/15/6
f 1/16/7 15/19/7 14/17/7
f 15/19/8 1/16/8 16/20/8
f 12/24/9 5/31/9 8/32/9
f 8/32/9 13/33/9 16/22/9
f 16/22/9 1/34/9 4/23/9
f 4/23/9 9/35/9 12/24/9
f 12/24/9 8/32/9 16/22/9
f 2/27/10 3/36/10 10/37/10
f 10/37/10 11/38/10 6/25/10
f 6/25/10 7/39/10 14/26/10
f 14/26/10 15/40/10 2/27/10
f 2/27/10 10/37/10 6/25/10
