# det_cord part negZ
mtllib det_cord.mtl
o negZ
v 0.593750 0.656250 1.000000
v 0.406250 0.656250 1.000000
v 0.406250 0.343750 1.000000
v 0.593750 0.343750 1.000000
v 0.343750 0.593750 1.000000
v 0.343750 0.406250 1.000000
v 0.656250 0.406250 1.000000
v 0.656250 0.593750 1.000000
v 0.343750 0.593750 0.656250
v 0.343750 0.406250 0.656250
v 0.656250 0.593750 0.656250
v 0.656250 0.406250 0.656250
v 0.406250 0.343750 0.656250
v 0.593750 0.343750 0.656250
v 0.593750 0.656250 0.656250
v 0.406250 0.656250 0.656250
vt 0.312500 0.000000
vt 0.562500 0.062500
vt 0.500000 0.312500
vt 0.062500 1.000000
vt 0.250000 0.656250
vt 0.250000 1.000000
vt 0.000000 0.656250
vt 0.000000 1.000000
vt 0.062500 1.000000
vt 0.250000 0.656250
vt 0.250000 1.000000
vt -0.000000 1.000000
vt 0.062500 0.656250
vt 0.062500 0.656250
vt 0.250000 1.000000
vt 0.062500 1.000000
vt 0.000000 0.656250
vt -0.000000 1.000000
vt 0.062500 1.000000
vt 0.250000 0.656250
vt 0.250000 1.000000
vt 0.000000 1.000000
vt 0.062500 0.656250
vt 0.500000 0.000000
vt 0.562500 0.250000
vt 0.312500 0.312500
vt 0.250000 0.250000
vt 0.250000 0.062500
vt 0.062500 0.656250
vt 0.000000 0.656250
vt 0.250000 0.656250
vt 0.000000 0.656250
vn 0.0000 0.0000 1.0000
vn -1.0000 0.0000 0.0000
vn -0.7071 0.7071 0.0000
vn 0.0000 1.0000 -0.0000
vn 0.7071 0.7071 0.0000
vn 1.0000 0.0000 0.0000
vn 0.7071 -0.7071 0.0000
vn 0.0000 -1.0000 0.0000
vn -0.7071 -0.7071 0.0000
usemtl material
s off
s off
f 1/1/1 5/2/1 3/3/1
f 5/4/2 10/5/2 6/6/2
f 16/7/3 5/4/3 2/8/3
f 1/9/4 16/10/4 2/11/4
f 8/12/5 15/13/5 1/9/5
f 12/14/6 8/15/6 7/16/6
f 14/17/7 7/16/7 4/18/7
f 3/19/8 14/20/8 4/21/8
f 6/22/9 13/23/9 3/19/9
f 1/1/1 2/24/1 5/2/1
f 5/2/1 6/25/1 3/3/1
f 3/3/1 4/26/1 7/27/1
f 7/27/1 8/28/1 3/3/1
f 8/28/1 1/1/1 3/3/1
f 5/4/2 9/29/2 10/5/2
f 16/7/3 9/29/3 5/4/3
f 1/9/4 15/13/4 16/10/4
f 8/12/5 11/30/5 15/13/5
f 12/14/6 11/31/6 8/15/6
f 14/17/7 12/14/7 7/16/7
f 3/19/8 13/23/8 14/20/8
f 6/22/9 10/32/9 13/23/9
