# det_cord part negX
mtllib det_cord.mtl
o negX
v 0.000000 0.343750 0.406250
v 0.000000 0.343750 0.593750
v 0.000000 0.656250 0.593750
v 0.000000 0.656250 0.406250
v 0.000000 0.406250 0.656250
v 0.000000 0.593750 0.656250
v 0.000000 0.593750 0.343750
v 0.000000 0.406250 0.343750
v 0.343750 0.656250 0.593750
v 0.343750 0.656250 0.406250
v 0.343750 0.343750 0.593750
v 0.343750 0.343750 0.406250
v 0.343750 0.593750 0.343750
v 0.343750 0.406250 0.343750
v 0.343750 0.406250 0.656250
v 0.343750 0.593750 0.656250
vt 0.250000 0.250000
vt 0.250000 0.062500
vt 0.562500 0.250000
vt 0.250000 -0.000000
vt 0.062500 0.343750
vt 0.062500 -0.000000
vt 0.000000 0.343750
vt -0.000000 -0.000000
vt 0.250000 0.000000
vt 0.062500 0.343750
vt 0.062500 0.000000
vt 0.000000 0.343750
vt -0.000000 0.000000
vt 0.250000 0.343750
vt 0.062500 0.000000
vt 0.250000 0.000000
vt 0.062500 0.343750
vt -0.000000 0.000000
vt 0.250000 0.000000
vt 0.062500 0.343750
vt 0.062500 0.000000
vt 0.000000 0.343750
vt -0.000000 0.000000
vt 0.312500 0.000000
vt 0.500000 0.000000
vt 0.562500 0.062500
vt 0.500000 0.312500
vt 0.312500 0.312500
vt 0.250000 0.343750
vt 0.250000 0.343750
vt 0.000000 0.343750
vt 0.250000 0.343750
vn -1.0000 0.0000 0.0000
vn 0.0000 1.0000 0.0000
vn 0.0000 0.7071 -0.7071
vn 0.0000 0.0000 -1.0000
vn 0.0000 -0.7071 -0.7071
vn 0.0000 -1.0000 0.0000
vn 0.0000 -0.7071 0.7071
vn 0.0000 0.0000 1.0000
vn 0.0000 0.7071 0.7071
usemtl material
s off
s off
f 5/1/1 6/2/1 8/3/1
f 3/4/2 10/5/2 4/6/2
f 4/6/3 13/7/3 7/8/3
f 7/9/4 14/10/4 8/11/4
f 8/11/5 12/12/5 1/13/5
f 12/14/6 2/15/6 1/16/6
f 11/17/7 5/18/7 2/15/7
f 5/19/8 16/20/8 6/21/8
f 6/21/9 9/22/9 3/23/9
f 6/2/1 3/24/1 8/3/1
f 3/24/1 4/25/1 8/3/1
f 4/25/1 7/26/1 8/3/1
f 8/3/1 1/27/1 2/28/1
f 2/28/1 5/1/1 8/3/1
f 3/4/2 9/29/2 10/5/2
f 4/6/3 10/5/3 13/7/3
f 7/9/4 13/30/4 14/10/4
f 8/11/5 14/10/5 12/12/5
f 12/14/6 11/17/6 2/15/6
f 11/17/7 15/31/7 5/18/7
f 5/19/8 15/32/8 16/20/8
f 6/21/9 16/20/9 9/22/9
