mtllib dieselgen_engine.mtl
usemtl material
o Engine
v 0.125000 0.125000 0.343750
v 0.125000 0.500000 -0.031250
v 0.125000 0.500000 0.343750
v -0.375000 0.500000 -0.031250
v -0.375000 0.125000 0.343750
v -0.375000 0.500000 0.343750
v 0.125000 0.125000 -0.031250
v -0.375000 0.125000 -0.031250
v -0.500000 0.213063 0.255687
v -0.375000 0.171875 0.156250
v -0.375000 0.213063 0.255687
v 0.375000 0.312500 0.343750
v 0.375000 0.125000 0.156250
v 0.375000 0.312500 -0.031250
v 0.125000 0.312500 -0.031250
v 0.375000 0.179917 0.023668
v 0.125000 0.179917 0.023668
v 0.125000 0.179917 0.288832
v 0.375000 0.179917 0.288832
v 0.125000 0.445083 0.288832
v 0.375000 0.445082 0.288832
v 0.125000 0.445083 0.023667
v 0.375000 0.500000 0.156250
v 0.375000 0.445082 0.023667
v 0.125000 0.125000 0.156250
v 0.125000 0.312500 0.343750
v 0.125000 0.500000 0.156250
v 0.500000 0.312500 0.296875
v 0.500000 0.171875 0.156250
v 0.500000 0.312500 0.015625
v 0.375000 0.312500 0.015625
v 0.500000 0.213063 0.056813
v 0.375000 0.213063 0.056813
v 0.375000 0.213063 0.255687
v 0.500000 0.213063 0.255687
v 0.375000 0.312500 0.296875
v 0.500000 0.411937 0.255687
v 0.375000 0.411937 0.255687
v 0.375000 0.411937 0.056813
v 0.500000 0.453125 0.156250
v 0.500000 0.411937 0.056813
v 0.375000 0.171875 0.156250
v 0.375000 0.453125 0.156250
v -0.500000 0.411937 0.255687
v -0.375000 0.312500 0.296875
v -0.375000 0.411937 0.255687
v -0.500000 0.411937 0.056813
v -0.375000 0.453125 0.156250
v -0.375000 0.411937 0.056813
v -0.500000 0.171875 0.156250
v -0.375000 0.213063 0.056813
v -0.500000 0.312500 0.296875
v -0.500000 0.453125 0.156250
v -0.500000 0.312500 0.015625
v -0.375000 0.312500 0.015625
v -0.500000 0.213063 0.056813
vt 0.400000 0.736842
vt 0.285714 0.894737
vt 0.285714 0.736842
vt 0.421429 0.119901
vt 0.400657 0.104052
vt 0.442200 0.027527
vt 0.987281 0.023430
vt 0.987281 0.134464
vt 0.927005 0.134464
vt 0.400000 0.578947
vt 0.285714 0.578947
vt 0.085714 0.894737
vt 0.200000 0.736842
vt 0.200000 0.894737
vt 0.485714 0.894737
vt 0.400000 0.894737
vt 0.350128 0.119901
vt 0.329320 0.104219
vt 0.370680 0.027360
vt 0.392054 0.065789
vt 0.400657 0.027527
vt 0.421429 0.011678
vt 0.450804 0.065790
vt 0.442200 0.104052
vt 0.914522 0.078947
vt 0.927005 0.023430
vt 0.957143 0.000434
vt 0.999764 0.078947
vt 0.957143 0.157460
vt 0.085714 0.736842
vt 0.485714 0.736842
vt 0.320625 0.066026
vt 0.329138 0.027694
vt 0.349872 0.011678
vt 0.379375 0.065553
vt 0.370862 0.103885
vt 0.114286 1.000000
vt 0.085714 0.894737
vt 0.114286 0.894737
vt 0.514286 0.947368
vt 0.542857 0.894737
vt 0.542857 0.947368
vt 0.600000 0.947368
vt 0.628571 0.894737
vt 0.628571 0.947368
vt 0.514286 0.894737
vt 0.485714 0.947368
vt 0.485714 0.894737
vt 0.714286 0.947368
vt 0.742857 0.894737
vt 0.742857 0.947368
vt 0.400000 0.894737
vt 0.371429 0.947368
vt 0.371429 0.894737
vt 0.457143 0.947368
vt 0.428571 0.894737
vt 0.457143 0.894737
vt 0.142857 1.000000
vt 0.142857 0.894737
vt 0.657143 0.947368
vt 0.685714 0.894737
vt 0.685714 0.947368
vt 0.171429 1.000000
vt 0.200000 0.894737
vt 0.171429 0.894737
vt 0.342857 0.947368
vt 0.314286 0.894737
vt 0.342857 0.894737
vt 0.714286 0.894737
vt 0.285714 0.894737
vt 0.257143 1.000000
vt 0.257143 0.894737
vt 0.057143 1.000000
vt 0.057143 0.894737
vt 0.657143 0.894737
vt 0.571429 0.947368
vt 0.600000 0.894737
vt 0.228571 0.894737
vt 0.200000 1.000000
vt 0.428571 0.947368
vt 0.571429 0.894737
vt 0.314286 0.947368
vt 0.285714 0.894737
vt 0.228571 1.000000
vt 0.085714 1.000000
vt 0.514286 0.894737
vt 0.514286 0.947368
vt 0.400000 0.947368
vt 0.285714 1.000000
vt 0.285714 0.947368
vn 0.0000 0.0000 -1.0000
vn -1.0000 0.0000 0.0000
vn 1.0000 0.0000 0.0000
vn 0.0000 -1.0000 -0.0000
vn 0.0000 -0.0000 1.0000
vn 0.0000 -0.7071 -0.7071
vn 0.0000 -0.7071 0.7071
vn 0.0000 0.7071 0.7071
vn 0.0000 1.0000 -0.0000
vn 0.0000 0.7071 -0.7071
s 1
f 8/1/1 2/2/1 7/3/1
f 50/4/2 9/5/2 47/6/2
f 16/7/3 24/8/3 21/9/3
f 5/10/4 7/3/4 1/11/4
f 6/12/5 1/13/5 3/14/5
f 7/3/3 3/14/3 1/13/3
f 8/1/2 6/15/2 4/16/2
f 40/17/3 37/18/3 32/19/3
f 8/1/1 4/16/1 2/2/1
f 9/5/2 52/20/2 44/21/2
f 44/21/2 53/22/2 9/5/2
f 53/22/2 47/6/2 9/5/2
f 47/6/2 54/23/2 56/24/2
f 56/24/2 50/4/2 47/6/2
f 21/9/3 12/25/3 19/26/3
f 19/26/3 13/27/3 21/9/3
f 13/27/3 16/7/3 21/9/3
f 16/7/3 14/28/3 24/8/3
f 24/8/3 23/29/3 21/9/3
f 5/10/4 8/1/4 7/3/4
f 6/12/5 5/30/5 1/13/5
f 7/3/3 2/2/3 3/14/3
f 8/1/2 5/31/2 6/15/2
f 37/18/3 28/32/3 35/33/3
f 35/33/3 29/34/3 37/18/3
f 29/34/3 32/19/3 37/18/3
f 32/19/3 30/35/3 41/36/3
f 41/36/3 40/17/3 32/19/3
f 14/37/1 17/38/6 15/39/1
f 50/40/4 11/41/7 9/42/7
f 44/43/8 48/44/9 53/45/9
f 42/46/4 35/47/7 34/48/7
f 56/49/6 10/50/4 50/51/4
f 43/52/9 41/53/10 39/54/10
f 28/55/5 38/56/8 36/57/5
f 24/58/10 15/39/1 22/59/10
f 47/60/10 55/61/1 54/62/1
f 22/59/10 23/63/9 24/58/10
f 20/64/8 23/63/9 27/65/9
f 30/66/1 33/67/6 31/68/1
f 54/62/1 51/69/6 56/49/6
f 25/70/4 19/71/7 18/72/7
f 17/38/6 13/73/4 25/74/4
f 53/45/9 49/75/10 47/60/10
f 52/76/5 46/77/8 44/43/8
f 26/78/5 21/79/8 20/64/8
f 37/80/8 43/52/9 38/56/8
f 35/47/7 36/57/5 34/48/7
f 41/53/10 31/68/1 39/54/10
f 9/42/7 45/81/5 52/76/5
f 32/82/6 42/83/4 33/67/6
f 18/72/7 12/84/5 26/78/5
f 14/37/1 16/85/6 17/38/6
f 50/40/4 10/86/4 11/41/7
f 44/43/8 46/77/8 48/44/9
f 42/46/4 29/87/4 35/47/7
f 56/49/6 51/69/6 10/50/4
f 43/52/9 40/88/9 41/53/10
f 28/55/5 37/80/8 38/56/8
f 24/58/10 14/37/1 15/39/1
f 47/60/10 49/75/10 55/61/1
f 22/59/10 27/65/9 23/63/9
f 20/64/8 21/79/8 23/63/9
f 30/66/1 32/82/6 33/67/6
f 54/62/1 55/61/1 51/69/6
f 25/70/4 13/89/4 19/71/7
f 17/38/6 16/85/6 13/73/4
f 53/45/9 48/44/9 49/75/10
f 52/76/5 45/81/5 46/77/8
f 26/78/5 12/84/5 21/79/8
f 37/80/8 40/88/9 43/52/9
f 35/47/7 28/55/5 36/57/5
f 41/53/10 30/66/1 31/68/1
f 9/42/7 11/41/7 45/81/5
f 32/82/6 29/90/4 42/83/4
f 18/72/7 19/71/7 12/84/5
