mtllib dieselgen_generator.mtl
usemtl material
o Generator
v 0.500000 0.062500 -0.500000
v 0.437500 0.937500 -0.500000
v 0.500000 0.937500 -0.500000
v 0.437500 0.937500 0.500000
v 0.500000 0.062500 0.500000
v 0.500000 0.937500 0.500000
v -0.500000 0.062500 0.500000
v -0.437500 0.937500 0.500000
v -0.500000 0.937500 0.500000
v -0.437500 0.937500 -0.500000
v -0.500000 0.062500 -0.500000
v -0.500000 0.937500 -0.500000
v 0.500000 0.062500 0.437500
v -0.437500 0.062500 0.500000
v -0.437500 0.937500 0.437500
v 0.437500 0.937500 0.437500
v 0.437500 0.062500 0.500000
v -0.500000 0.062500 0.437500
v 0.437500 0.062500 -0.500000
v 0.437500 0.937500 -0.437500
v 0.500000 0.062500 -0.437500
v -0.500000 0.062500 -0.437500
v -0.437500 0.937500 -0.437500
v -0.437500 0.062500 -0.500000
v 0.437500 0.062500 -0.437500
v 0.500000 0.937500 -0.437500
v -0.500000 0.937500 -0.437500
v -0.500000 0.937500 0.437500
v 0.500000 0.937500 0.437500
v 0.437500 0.062500 0.437500
v -0.437500 0.062500 -0.437500
v -0.437500 0.062500 0.437500
v -0.437500 -0.000000 0.437500
v 0.437500 -0.000000 0.500000
v 0.437500 0.000000 -0.437500
v -0.437500 0.000000 -0.500000
v 0.437500 0.000000 -0.500000
v -0.437500 0.000000 -0.437500
v -0.437500 -0.000000 0.500000
v 0.437500 -0.000000 0.437500
v 0.437500 1.000000 -0.437500
v -0.437500 1.000000 0.437500
v 0.500000 1.000000 0.437500
v -0.500000 1.000000 -0.437500
v 0.437500 1.000000 0.437500
v -0.500000 1.000000 0.437500
v -0.437500 1.000000 -0.437500
v 0.500000 1.000000 -0.437500
v 0.500000 0.875000 0.312500
v -0.500000 0.875000 -0.312500
v -0.500000 0.875000 0.312500
v 0.500000 0.625000 -0.375000
v 0.500000 0.625000 0.375000
v -0.500000 0.625000 0.375000
v -0.500000 0.625000 -0.375000
v 0.500000 0.875000 -0.312500
v 0.500000 0.625000 -0.437500
v -0.500000 0.625000 0.437500
v 0.500000 0.625000 0.437500
v 0.500000 0.250000 -0.437500
v -0.500000 0.625000 -0.437500
v -0.500000 0.250000 0.437500
v -0.500000 0.250000 0.375000
v 0.500000 0.250000 0.437500
v 0.500000 0.250000 -0.375000
v -0.500000 0.250000 -0.437500
v 0.500000 0.500000 -0.375000
v -0.500000 0.250000 -0.375000
v -0.500000 0.500000 0.375000
v 0.500000 0.250000 0.375000
v 0.500000 0.500000 0.375000
v -0.500000 0.500000 -0.375000
v -0.250000 0.062500 -0.500000
v -0.187500 0.062500 0.500000
v -0.250000 0.062500 0.500000
v -0.187500 0.125000 0.437500
v -0.250000 0.125000 -0.437500
v -0.250000 0.125000 0.437500
v -0.187500 0.062500 -0.500000
v -0.187500 0.125000 -0.437500
v 0.187500 0.062500 -0.500000
v 0.250000 0.062500 0.500000
v 0.187500 0.062500 0.500000
v 0.250000 0.125000 0.437500
v 0.187500 0.125000 -0.437500
v 0.187500 0.125000 0.437500
v 0.250000 0.062500 -0.500000
v 0.250000 0.125000 -0.437500
v 0.125000 0.937500 0.125000
v 0.250000 0.937500 0.000000
v 0.125000 0.937500 -0.125000
v 0.125000 0.875000 -0.125000
v 0.213388 0.937500 -0.088388
v 0.213388 0.875000 -0.088388
v 0.250000 0.875000 0.000000
v 0.213388 0.937500 0.088388
v 0.213388 0.875000 0.088388
v 0.125000 0.875000 0.125000
v 0.036612 0.937500 0.088388
v 0.036612 0.875000 0.088388
v 0.000000 0.875000 0.000000
v 0.036612 0.937500 -0.088388
v 0.036612 0.875000 -0.088388
v 0.000000 0.937500 0.000000
v -0.437500 0.125000 -0.343750
v 0.437500 0.125000 -0.093750
v -0.437500 0.125000 -0.093750
v 0.437500 0.500000 -0.093750
v -0.437500 0.500000 -0.343750
v -0.437500 0.500000 -0.093750
v 0.437500 0.500000 -0.343750
v 0.437500 0.125000 -0.343750
v 0.437500 0.937500 0.187500
v -0.437500 1.000000 0.187500
v 0.437500 1.000000 0.187500
v -0.437500 1.000000 0.250000
v 0.437500 0.937500 0.250000
v 0.437500 1.000000 0.250000
v -0.437500 1.000000 -0.187500
v 0.437500 0.937500 -0.187500
v 0.437500 1.000000 -0.187500
v 0.437500 0.937500 -0.250000
v -0.437500 1.000000 -0.250000
v 0.437500 1.000000 -0.250000
v -0.437500 0.937500 0.250000
v -0.437500 0.937500 0.187500
v -0.437500 0.937500 -0.187500
v -0.437500 0.937500 -0.250000
vt 0.057143 0.394737
vt 0.042857 0.763158
vt 0.042857 0.394737
vt 0.057143 0.394737
vt 0.042857 0.763158
vt 0.042857 0.394737
vt 0.028571 0.368421
vt 0.042857 0.000000
vt 0.042857 0.368421
vt -0.000000 0.000000
vt 0.014286 0.368421
vt -0.000000 0.368421
vt 0.014286 0.000000
vt -0.000000 0.368421
vt -0.000000 0.000000
vt 0.014286 0.763158
vt 0.028571 0.394737
vt 0.028571 0.763158
vt 0.285714 0.657895
vt 0.057143 0.631579
vt 0.285714 0.631579
vt 0.028571 0.394737
vt -0.000000 0.368421
vt 0.014286 0.000000
vt 0.014286 0.368421
vt 0.742857 0.894737
vt 0.685714 0.736842
vt 0.742857 0.736842
vt 0.028571 0.368421
vt 0.014286 0.394737
vt 0.014286 0.368421
vt 0.014286 0.000000
vt -0.000000 0.368421
vt -0.000000 0.000000
vt 0.271429 0.710526
vt 0.285714 0.684211
vt 0.285714 0.710526
vt 0.385714 0.157895
vt 0.471429 0.578947
vt 0.385714 0.578947
vt 0.757143 0.578947
vt 0.671429 0.157895
vt 0.757143 0.157895
vt 0.942857 0.894737
vt 0.942857 0.736842
vt 0.057143 0.000000
vt 0.042857 0.368421
vt 0.042857 0.000000
vt -0.000000 0.000000
vt 0.014286 0.368421
vt -0.000000 0.368421
vt 0.257143 0.526316
vt 0.314286 0.105263
vt 0.314286 0.526316
vt 0.028571 0.000000
vt 0.014286 0.368421
vt 0.014286 0.394737
vt 0.028571 0.368421
vt 0.028571 0.394737
vt 0.014286 0.000000
vt 0.028571 0.000000
vt 0.014286 0.368421
vt 0.014286 0.000000
vt 0.042857 0.368421
vt 0.028571 0.000000
vt 0.042857 0.000000
vt 0.028571 0.394737
vt 0.028571 0.368421
vt 0.257143 0.105263
vt 0.114286 0.526316
vt 0.114286 0.105263
vt -0.000000 0.394737
vt 0.042857 0.394737
vt 0.028571 0.368421
vt 0.042857 0.368421
vt 0.057143 0.000000
vt 0.057143 0.368421
vt -0.000000 0.368421
vt -0.000000 0.394737
vt 0.042857 0.368421
vt 0.042857 0.394737
vt 0.028571 0.000000
vt 0.014286 0.368421
vt 0.014286 0.000000
vt 0.042857 0.368421
vt 0.042857 0.394737
vt -0.000000 0.394737
vt 0.042857 0.000000
vt 0.014286 0.368421
vt -0.000000 0.394737
vt 0.042857 0.394737
vt 0.028571 0.368421
vt 0.028571 0.394737
vt 0.014286 0.394737
vt 0.042857 0.394737
vt -0.000000 0.368421
vt -0.000000 0.394737
vt 0.042857 0.394737
vt -0.000000 0.394737
vt 0.028571 0.368421
vt 0.042857 0.000000
vt 0.042857 0.368421
vt -0.000000 0.394737
vt 0.042857 0.394737
vt 0.028571 0.368421
vt 0.042857 0.000000
vt 0.042857 0.368421
vt -0.000000 0.368421
vt -0.000000 0.394737
vt 0.042857 0.394737
vt 0.100000 0.000000
vt 0.271429 0.000000
vt 0.371429 0.157895
vt 0.371429 0.578947
vt 0.057143 0.000000
vt 0.042857 0.000000
vt 0.057143 0.000000
vt 0.057143 0.368421
vt 0.028571 0.394737
vt 0.014286 0.394737
vt 0.014286 0.394737
vt 0.028571 0.394737
vt 0.057143 0.368421
vt 0.057143 0.000000
vt 0.028571 0.000000
vt -0.000000 0.763158
vt 0.014286 0.394737
vt 0.014286 0.763158
vt 0.271429 0.684211
vt 0.057143 0.657895
vt 0.771429 0.578947
vt 0.771429 0.157895
vt -0.000000 0.000000
vt 0.828571 0.578947
vt 1.000000 0.157895
vt 1.000000 0.578947
vt 0.014286 0.000000
vt 0.028571 0.000000
vt 0.014286 0.000000
vt 0.057143 0.368421
vt 0.271429 0.631579
vt 0.100000 0.631579
vt 0.057143 0.368421
vt 0.057143 0.000000
vt 0.028571 0.394737
vt 0.014286 0.394737
vt -0.000000 0.763158
vt 0.014286 0.394737
vt 0.828571 0.157895
vt 0.028571 0.000000
vt 0.271429 0.684211
vt 0.071429 0.710526
vt 0.071429 0.684211
vt 0.057143 0.526316
vt 0.057143 0.105263
vt -0.000000 0.000000
vt 0.057143 0.710526
vt 0.057143 0.684211
vt 0.285714 0.657895
vt 0.057143 0.631579
vt 0.285714 0.631579
vt 0.057143 0.000000
vt 0.057143 0.368421
vt 0.057143 0.657895
vt 0.071429 0.684211
vt 0.057143 0.710526
vt 0.057143 0.684211
vt 0.285714 0.736842
vt 0.057143 0.736842
vt 0.071429 0.710526
vt 0.471429 0.736842
vt 0.485714 0.631579
vt 0.485714 0.736842
vt 0.271429 0.710526
vt 0.285714 0.684211
vt 0.285714 0.710526
vt 1.000000 0.894737
vt 1.000000 0.736842
vt 0.014286 0.394737
vt 0.028571 0.394737
vt 0.942857 0.631579
vt 0.042857 0.000000
vt 0.685714 0.894737
vt 0.485714 0.736842
vt 0.314286 0.157895
vt 0.314286 0.578947
vt 0.671429 0.000000
vt 0.657143 0.105263
vt 0.657143 0.000000
vt 0.285714 0.736842
vt 0.057143 0.736842
vt 0.471429 0.000000
vt 0.485714 0.105263
vt 0.471429 0.157895
vt 0.720149 0.116064
vt 0.679851 0.116065
vt 0.679851 0.041831
vt 0.028571 0.763158
vt 0.671429 0.736842
vt 0.657143 0.631579
vt 0.671429 0.578947
vt 0.057143 0.763158
vt 0.057143 0.763158
vt -0.000000 0.000000
vt 0.028571 0.394737
vt 0.057143 0.368421
vt 0.028571 0.000000
vt 0.014286 0.394737
vt 0.057143 0.368421
vt -0.000000 0.394737
vt 0.057143 0.000000
vt -0.000000 0.394737
vt -0.000000 0.000000
vt 0.742857 0.631579
vt 0.485714 0.894737
vt 0.485714 0.000000
vt 0.700000 0.026456
vt 0.720149 0.041830
vt 0.728495 0.078947
vt 0.700000 0.131439
vt 0.671505 0.078948
vt 0.657143 0.736842
vt 0.900000 0.026316
vt 0.871429 0.000000
vt 0.900000 0.000000
vt 0.785714 0.026316
vt 0.757143 0.000000
vt 0.785714 0.000000
vt 0.842857 0.026316
vt 0.842857 0.000000
vt 0.814286 0.000000
vt 0.728571 0.026316
vt 0.700000 0.000000
vt 0.728571 0.000000
vt 0.700000 0.026316
vt 0.671429 0.000000
vt 0.814286 0.026316
vt 0.757143 0.026316
vt 0.871429 0.026316
vt 0.671429 0.026316
vn 0.0000 -1.0000 0.0000
vn 0.0000 0.0000 1.0000
vn -1.0000 0.0000 0.0000
vn 0.0000 1.0000 0.0000
vn 0.0000 0.0000 -1.0000
vn 1.0000 0.0000 0.0000
vn 0.0000 0.7071 0.7071
vn 0.0000 0.7071 -0.7071
vn 0.0000 0.2425 -0.9701
vn -0.7071 -0.7071 -0.0000
vn 0.7071 -0.7071 -0.0000
vn 0.0000 0.2425 0.9701
vn -0.7071 0.0000 -0.7071
vn 0.7071 0.0000 0.7071
vn 0.7071 0.0000 -0.7071
vn -0.7071 -0.0000 0.7071
s 1
f 117/1/1 126/2/1 113/3/1
f 120/4/1 128/5/1 122/6/1
f 38/7/2 25/8/2 31/9/2
f 30/10/3 4/11/3 16/12/3
f 45/13/3 20/14/3 16/15/3
f 116/16/4 115/17/4 114/18/4
f 87/19/1 83/20/1 81/21/1
f 128/5/5 124/22/5 122/6/5
f 14/23/2 9/24/2 7/25/2
f 111/26/6 106/27/6 112/28/6
f 46/29/7 8/30/7 42/31/7
f 39/32/2 17/33/2 14/34/2
f 77/35/8 79/36/8 73/37/8
f 64/38/2 58/39/2 62/40/2
f 66/41/5 57/42/5 60/43/5
f 109/44/5 112/28/5 105/45/5
f 16/46/1 26/47/1 29/48/1
f 31/49/6 10/50/6 23/51/6
f 50/52/9 52/53/9 55/54/9
f 33/55/1 34/56/1 39/32/1
f 39/57/10 18/58/10 33/59/10
f 47/60/4 46/29/4 42/31/4
f 26/61/6 1/62/6 3/63/6
f 29/64/6 5/65/6 13/66/6
f 44/67/8 10/50/8 12/68/8
f 56/69/4 51/70/4 49/71/4
f 4/11/3 45/72/3 16/12/3
f 29/64/6 43/73/6 6/74/6
f 32/75/6 8/76/6 14/77/6
f 15/78/6 42/31/6 8/79/6
f 28/80/3 9/81/3 46/29/3
f 35/82/1 36/83/1 37/84/1
f 27/85/3 44/86/3 12/68/3
f 10/50/6 47/87/6 23/51/6
f 46/29/3 27/88/3 28/80/3
f 20/14/3 41/89/3 2/90/3
f 26/47/6 3/91/6 48/92/6
f 41/89/8 3/93/8 2/94/8
f 31/9/2 22/95/2 38/7/2
f 24/96/5 36/83/5 11/97/5
f 32/75/5 33/98/5 18/58/5
f 14/23/2 7/25/2 39/99/2
f 40/100/5 32/101/5 30/102/5
f 17/33/2 34/56/2 5/103/2
f 13/104/5 40/100/5 30/102/5
f 21/105/2 20/106/2 25/107/2
f 19/108/5 1/62/5 37/109/5
f 25/107/2 35/110/2 21/105/2
f 56/69/6 53/111/6 52/112/6
f 70/113/1 62/40/1 63/114/1
f 31/115/2 27/85/2 22/116/2
f 25/107/3 2/117/3 19/118/3
f 34/56/11 13/119/11 5/120/11
f 45/121/7 6/74/7 43/122/7
f 17/123/4 32/101/4 14/124/4
f 28/125/3 7/25/3 9/24/3
f 127/126/2 121/127/2 119/128/2
f 88/129/6 82/130/6 87/19/6
f 68/131/1 60/43/1 65/132/1
f 47/60/6 15/78/6 23/133/6
f 72/134/1 71/135/1 69/136/1
f 17/137/2 6/74/2 4/11/2
f 27/85/3 11/138/3 22/116/3
f 24/139/5 12/68/5 10/50/5
f 13/66/5 16/140/5 29/64/5
f 51/70/3 55/141/3 54/142/3
f 24/143/4 25/8/4 19/144/4
f 36/83/10 22/145/10 11/146/10
f 125/147/2 118/148/2 116/16/2
f 72/134/2 65/132/2 67/149/2
f 48/92/4 45/13/4 43/150/4
f 19/108/5 3/63/5 1/62/5
f 126/2/5 115/17/5 113/3/5
f 80/151/4 78/152/4 76/153/4
f 49/71/12 54/154/12 53/155/12
f 37/84/5 24/96/5 19/156/5
f 76/153/7 75/157/7 74/158/7
f 79/159/1 75/160/1 73/161/1
f 28/80/1 23/162/1 15/163/1
f 80/151/6 74/164/6 79/159/6
f 84/165/7 83/166/7 82/167/7
f 78/152/3 73/168/3 75/169/3
f 88/129/4 86/170/4 84/165/4
f 48/92/6 29/48/6 26/47/6
f 62/171/3 69/172/3 63/173/3
f 85/174/8 87/175/8 81/176/8
f 110/177/3 105/45/3 107/178/3
f 37/179/11 21/105/11 35/180/11
f 112/28/1 107/181/1 105/45/1
f 32/75/5 28/125/5 15/182/5
f 108/183/2 107/184/2 106/27/2
f 71/185/5 63/114/5 69/186/5
f 60/187/6 67/188/6 65/189/6
f 86/170/3 81/190/3 83/191/3
f 64/192/6 71/193/6 59/194/6
f 102/195/4 99/196/4 96/197/4
f 119/128/4 124/22/4 123/198/4
f 66/199/3 72/200/3 61/201/3
f 57/42/6 71/193/6 67/188/6
f 61/201/4 59/194/4 57/42/4
f 58/39/3 72/200/3 69/172/3
f 117/1/1 125/202/1 126/2/1
f 120/4/1 127/203/1 128/5/1
f 38/7/2 35/82/2 25/8/2
f 30/10/3 17/137/3 4/11/3
f 45/13/3 41/89/3 20/14/3
f 116/16/4 118/148/4 115/17/4
f 87/19/1 82/130/1 83/20/1
f 128/5/5 123/198/5 124/22/5
f 14/23/2 8/204/2 9/24/2
f 111/26/6 108/183/6 106/27/6
f 46/29/7 9/205/7 8/30/7
f 39/32/2 34/56/2 17/33/2
f 77/35/8 80/151/8 79/36/8
f 64/38/2 59/194/2 58/39/2
f 66/41/5 61/201/5 57/42/5
f 109/44/5 111/26/5 112/28/5
f 16/46/1 20/206/1 26/47/1
f 31/49/6 24/139/6 10/50/6
f 50/52/9 56/69/9 52/53/9
f 33/55/1 40/100/1 34/56/1
f 39/57/10 7/25/10 18/58/10
f 47/60/4 44/207/4 46/29/4
f 26/61/6 21/105/6 1/62/6
f 29/64/6 6/74/6 5/65/6
f 44/67/8 47/208/8 10/50/8
f 56/69/4 50/52/4 51/70/4
f 32/75/6 15/182/6 8/76/6
f 35/82/1 38/7/1 36/83/1
f 46/29/3 44/207/3 27/88/3
f 41/89/8 48/92/8 3/93/8
f 40/100/5 33/55/5 32/101/5
f 21/105/2 26/61/2 20/106/2
f 56/69/6 49/71/6 53/111/6
f 70/113/1 64/38/1 62/40/1
f 31/115/2 23/209/2 27/85/2
f 25/107/3 20/106/3 2/117/3
f 34/56/11 40/100/11 13/119/11
f 45/121/7 4/11/7 6/74/7
f 17/123/4 30/102/4 32/101/4
f 28/125/3 18/58/3 7/25/3
f 127/126/2 120/210/2 121/127/2
f 88/129/6 84/165/6 82/130/6
f 68/131/1 66/41/1 60/43/1
f 47/60/6 42/31/6 15/78/6
f 72/134/1 67/149/1 71/135/1
f 17/137/2 5/65/2 6/74/2
f 27/85/3 12/68/3 11/138/3
f 24/139/5 11/138/5 12/68/5
f 13/66/5 30/211/5 16/140/5
f 51/70/3 50/52/3 55/141/3
f 24/143/4 31/9/4 25/8/4
f 36/83/10 38/7/10 22/145/10
f 125/147/2 117/212/2 118/148/2
f 72/134/2 68/131/2 65/132/2
f 48/92/4 41/89/4 45/13/4
f 19/108/5 2/213/5 3/63/5
f 126/2/5 114/18/5 115/17/5
f 80/151/4 77/35/4 78/152/4
f 49/71/12 51/70/12 54/154/12
f 37/84/5 36/83/5 24/96/5
f 76/153/7 78/152/7 75/157/7
f 79/159/1 74/164/1 75/160/1
f 28/80/1 27/88/1 23/162/1
f 80/151/6 76/153/6 74/164/6
f 84/165/7 86/170/7 83/166/7
f 78/152/3 77/35/3 73/168/3
f 88/129/4 85/174/4 86/170/4
f 48/92/6 43/150/6 29/48/6
f 62/171/3 58/39/3 69/172/3
f 85/174/8 88/129/8 87/175/8
f 110/177/3 109/44/3 105/45/3
f 37/179/11 1/62/11 21/105/11
f 112/28/1 106/214/1 107/181/1
f 32/75/5 18/58/5 28/125/5
f 108/183/2 110/215/2 107/184/2
f 71/185/5 70/113/5 63/114/5
f 60/187/6 57/42/6 67/188/6
f 86/170/3 85/174/3 81/190/3
f 64/192/6 70/216/6 71/193/6
f 96/197/4 90/217/4 93/218/4
f 93/218/4 91/219/4 102/195/4
f 102/195/4 104/220/4 99/196/4
f 99/196/4 89/221/4 96/197/4
f 96/197/4 93/218/4 102/195/4
f 119/128/4 121/127/4 124/22/4
f 66/199/3 68/222/3 72/200/3
f 57/42/6 59/194/6 71/193/6
f 61/201/4 58/39/4 59/194/4
f 58/39/3 61/201/3 72/200/3
f 104/223/3 103/224/13 101/225/3
f 90/226/6 97/227/14 95/228/6
f 103/224/13 91/229/5 92/230/5
f 91/229/5 94/231/15 92/230/5
f 89/232/2 100/233/16 98/234/2
f 99/235/16 101/236/3 100/233/16
f 93/237/15 95/228/6 94/231/15
f 96/238/14 98/234/2 97/227/14
f 104/223/3 102/239/13 103/224/13
f 90/226/6 96/238/14 97/227/14
f 103/224/13 102/239/13 91/229/5
f 91/229/5 93/237/15 94/231/15
f 89/232/2 99/235/16 100/233/16
f 99/235/16 104/240/3 101/236/3
f 93/237/15 90/226/6 95/228/6
f 96/238/14 89/232/2 98/234/2
