mtllib firebox_main.mtl
usemtl material
o Main
v -1.500000 0.000000 1.500000
v 1.500000 0.000000 1.500000
v -1.500000 0.000000 -1.500000
v 1.500000 0.000000 -1.500000
v 1.500000 1.000000 1.500000
v -1.500000 1.000000 -1.500000
v -1.500000 1.000000 1.500000
v 1.500000 1.000000 -1.500000
v 1.375000 0.125000 1.500000
v -1.375000 0.125000 -1.500000
v -1.375000 0.125000 1.500000
v 1.375000 0.125000 -1.500000
v 1.375000 0.875000 1.500000
v -1.375000 0.875000 -1.500000
v -1.375000 0.875000 1.500000
v 1.375000 0.875000 -1.500000
v 1.500000 0.125000 -1.375000
v -1.500000 0.125000 1.375000
v 1.500000 0.125000 1.375000
v -1.500000 0.125000 -1.375000
v 1.500000 0.875000 -1.375000
v -1.500000 0.875000 1.375000
v 1.500000 0.875000 1.375000
v -1.500000 0.875000 -1.375000
v 1.375000 0.125000 1.375000
v -1.375000 0.125000 1.375000
v 1.375000 0.875000 1.375000
v -1.375000 0.875000 1.375000
v -1.375000 0.125000 -1.375000
v 1.375000 0.125000 -1.375000
v -1.375000 0.875000 -1.375000
v 1.375000 0.875000 -1.375000
v 1.375000 0.750000 0.125000
v 1.375000 0.250000 0.125000
v 1.375000 0.750000 -0.125000
v 1.375000 0.250000 -0.125000
v 1.375000 0.375000 0.250000
v 1.375000 0.375000 -0.250000
v 1.375000 0.625000 0.250000
v 1.375000 0.625000 -0.250000
v 1.250000 0.750000 0.125000
v 1.250000 0.250000 0.125000
v 1.250000 0.750000 -0.125000
v 1.250000 0.250000 -0.125000
v 1.250000 0.375000 0.250000
v 1.250000 0.375000 -0.250000
v 1.250000 0.625000 0.250000
v 1.250000 0.625000 -0.250000
v -0.500000 1.000000 0.500000
v 0.500000 1.000000 0.500000
v -0.500000 1.000000 -0.500000
v 0.500000 1.000000 -0.500000
v -0.437500 1.000000 0.437500
v 0.437500 1.000000 0.437500
v -0.437500 1.000000 -0.437500
v 0.437500 1.000000 -0.437500
v -0.500000 0.937500 -0.500000
v -0.500000 0.937500 0.500000
v 0.500000 0.937500 0.500000
v 0.500000 0.937500 -0.500000
v -0.437500 0.937500 -0.437500
v -0.437500 0.937500 0.437500
v 0.437500 0.937500 0.437500
v 0.437500 0.937500 -0.437500
vt 0.413793 0.000000
vt 0.000000 0.375000
vt 0.000000 -0.000000
vt -0.000000 0.890625
vt 0.017241 0.984375
vt -0.000000 0.984375
vt 0.000000 0.890625
vt 0.017241 0.984375
vt 0.000000 0.984375
vt -0.000000 0.890625
vt 0.017241 0.984375
vt -0.000000 0.984375
vt 0.000000 0.890625
vt 0.017241 0.984375
vt 0.000000 0.984375
vt 0.413793 0.375000
vt 0.017241 0.390625
vt 0.000000 0.375000
vt 0.017241 0.484375
vt 0.000000 0.500000
vt 0.413793 0.500000
vt 0.396552 0.390625
vt 0.413793 0.375000
vt 0.413793 0.500000
vt 0.396552 0.390625
vt 0.413793 0.375000
vt 0.017241 0.390625
vt 0.000000 0.375000
vt 0.017241 0.484375
vt 0.000000 0.500000
vt 0.413793 0.500000
vt 0.396552 0.390625
vt 0.017241 0.484375
vt 0.000000 0.500000
vt 0.413793 0.500000
vt 0.413793 0.375000
vt 0.017241 0.390625
vt 0.396552 0.390625
vt 0.000000 0.375000
vt 0.017241 0.484375
vt 0.000000 0.500000
vt 0.017241 0.390625
vt 0.396552 0.890625
vt 0.017241 0.890625
vt 0.413793 0.984375
vt 0.413793 0.890625
vt 0.017241 1.000000
vt 0.396552 0.984375
vt 0.396552 1.000000
vt 0.396552 0.875000
vt 0.017241 0.875000
vt 0.396552 0.890625
vt 0.017241 0.890625
vt 0.017241 1.000000
vt 0.396552 0.984375
vt 0.396552 1.000000
vt 0.396552 0.875000
vt 0.017241 0.875000
vt 0.413793 0.984375
vt 0.413793 0.890625
vt 0.413793 0.890625
vt 0.396552 0.984375
vt 0.396552 0.890625
vt 0.017241 0.875000
vt 0.396552 0.875000
vt 0.017241 1.000000
vt 0.396552 1.000000
vt 0.017241 0.890625
vt 0.413793 0.890625
vt 0.396552 0.984375
vt 0.396552 0.890625
vt 0.017241 0.875000
vt 0.396552 0.875000
vt 0.017241 1.000000
vt 0.396552 1.000000
vt 0.017241 0.890625
vt 0.172414 0.953125
vt 0.241379 0.953125
vt 0.189655 0.906250
vt 0.224138 0.968750
vt 0.172414 0.921875
vt 0.224138 0.906250
vt 0.241379 0.921875
vt 0.189655 0.968750
vt 0.413793 0.265625
vt 0.431034 0.296875
vt 0.413793 0.296875
vt 0.431034 0.312500
vt 0.413793 0.312500
vt 0.413793 0.203125
vt 0.431034 0.218750
vt 0.413793 0.218750
vt 0.431034 0.343750
vt 0.413793 0.343750
vt 0.431034 0.250000
vt 0.413793 0.250000
vt 0.413793 0.156250
vt 0.431034 0.171875
vt 0.413793 0.171875
vt 0.431034 0.265625
vt 0.431034 0.203125
vt 0.275862 0.625000
vt 0.431034 0.156250
vt 0.568965 0.148438
vt 0.568965 0.156250
vt 0.275862 0.750000
vt 0.413793 0.875000
vt 0.137931 0.750000
vt 0.000000 0.875000
vt 0.439655 0.023438
vt 0.560345 0.132812
vt 0.439655 0.132812
vt 0.560345 0.023438
vt 0.568965 0.132812
vt 0.568965 -0.000000
vt 0.431034 0.007812
vt 0.431034 -0.000000
vt 0.439655 0.140625
vt 0.431034 0.023438
vt 0.422414 0.140625
vt 0.422414 0.015625
vt 0.431034 0.148438
vt 0.577586 0.015625
vt 0.577586 0.140625
vt 0.560345 0.015625
vt 0.568965 0.007812
vt 0.586207 0.140625
vt 0.586207 0.015625
vt 0.413793 0.015625
vt 0.413793 0.140625
vt 0.137931 0.625000
vt 0.396552 0.484375
vt 0.396552 0.484375
vt 0.396552 0.484375
vt 0.396552 0.484375
vt 0.413793 0.984375
vt 0.413793 0.984375
vt 0.431034 0.156250
vt 0.568965 0.023438
vt 0.560345 0.140625
vt 0.431034 0.132812
vt 0.439655 0.015625
vn 0.0000 -1.0000 0.0000
vn 1.0000 0.0000 0.0000
vn -1.0000 0.0000 0.0000
vn -0.0000 0.0000 -1.0000
vn 0.0000 0.0000 1.0000
vn 0.0000 1.0000 0.0000
vn 0.0000 0.7071 0.7071
vn 0.0000 -0.7071 -0.7071
vn 0.0000 0.7071 -0.7071
vn 0.0000 -0.7071 0.7071
s off
f 3/1/1 2/2/1 1/3/1
f 11/4/2 28/5/2 15/6/2
f 12/7/3 32/8/3 16/9/3
f 19/10/4 27/11/4 23/12/4
f 20/13/5 31/14/5 24/15/5
f 1/16/3 20/17/3 3/18/3
f 3/18/3 24/19/3 6/20/3
f 6/21/4 10/22/4 3/23/4
f 7/24/3 18/25/3 1/16/3
f 2/26/5 11/27/5 1/28/5
f 1/28/5 15/29/5 7/30/5
f 24/19/3 7/24/3 6/20/3
f 15/29/5 5/31/5 7/30/5
f 5/31/5 9/32/5 2/26/5
f 2/2/2 23/33/2 5/34/2
f 23/33/2 8/35/2 5/34/2
f 4/36/2 19/37/2 2/2/2
f 8/35/2 17/38/2 4/36/2
f 4/39/4 16/40/4 8/41/4
f 16/40/4 6/21/4 8/41/4
f 3/23/4 12/42/4 4/39/4
f 25/43/5 28/5/5 26/44/5
f 13/45/3 25/43/3 9/46/3
f 15/47/1 27/48/1 13/49/1
f 9/50/6 26/44/6 11/51/6
f 29/52/4 32/8/4 30/53/4
f 16/54/1 31/55/1 14/56/1
f 10/57/6 30/53/6 12/58/6
f 14/59/2 29/52/2 10/60/2
f 18/61/4 28/62/4 26/63/4
f 26/63/6 20/64/6 18/65/6
f 24/66/1 28/62/1 22/67/1
f 26/63/3 31/14/3 29/68/3
f 17/69/5 32/70/5 30/71/5
f 30/71/6 19/72/6 17/73/6
f 23/74/1 32/70/1 21/75/1
f 25/76/2 39/77/2 27/11/2
f 40/78/2 30/71/2 32/70/2
f 30/71/2 34/79/2 25/76/2
f 27/11/2 35/80/2 32/70/2
f 34/79/2 37/81/2 25/76/2
f 36/82/2 30/71/2 38/83/2
f 35/80/2 40/78/2 32/70/2
f 33/84/2 27/11/2 39/77/2
f 40/85/5 46/86/5 38/87/5
f 38/87/7 44/88/7 36/89/7
f 39/90/8 41/91/8 33/92/8
f 36/89/6 42/93/6 34/94/6
f 33/92/1 43/95/1 35/96/1
f 34/97/9 45/98/9 37/99/9
f 35/96/10 48/100/10 40/85/10
f 37/99/4 47/101/4 39/90/4
f 52/102/6 5/34/6 8/35/6
f 49/103/2 57/104/2 51/105/2
f 51/106/6 8/35/6 6/107/6
f 49/108/6 6/107/6 7/109/6
f 54/110/6 55/111/6 53/112/6
f 56/113/4 61/114/4 55/111/4
f 52/115/3 59/116/3 50/117/3
f 55/111/3 62/118/3 53/112/3
f 63/119/6 58/120/6 59/121/6
f 62/118/6 57/104/6 58/122/6
f 61/114/6 60/123/6 57/124/6
f 64/125/6 59/116/6 60/126/6
f 53/112/5 63/119/5 54/110/5
f 51/127/5 60/123/5 52/128/5
f 50/129/4 58/120/4 49/130/4
f 54/110/2 64/125/2 56/113/2
f 49/108/6 5/34/6 50/131/6
f 3/1/1 4/36/1 2/2/1
f 11/4/2 26/44/2 28/5/2
f 12/7/3 30/53/3 32/8/3
f 19/10/4 25/76/4 27/11/4
f 20/13/5 29/68/5 31/14/5
f 1/16/3 18/25/3 20/17/3
f 3/18/3 20/17/3 24/19/3
f 6/21/4 14/132/4 10/22/4
f 7/24/3 22/133/3 18/25/3
f 2/26/5 9/32/5 11/27/5
f 1/28/5 11/27/5 15/29/5
f 24/19/3 22/133/3 7/24/3
f 15/29/5 13/134/5 5/31/5
f 5/31/5 13/134/5 9/32/5
f 2/2/2 19/37/2 23/33/2
f 23/33/2 21/135/2 8/35/2
f 4/36/2 17/38/2 19/37/2
f 8/35/2 21/135/2 17/38/2
f 4/39/4 12/42/4 16/40/4
f 16/40/4 14/132/4 6/21/4
f 3/23/4 10/22/4 12/42/4
f 25/43/5 27/48/5 28/5/5
f 13/45/3 27/48/3 25/43/3
f 15/47/1 28/5/1 27/48/1
f 9/50/6 25/43/6 26/44/6
f 29/52/4 31/55/4 32/8/4
f 16/54/1 32/8/1 31/55/1
f 10/57/6 29/52/6 30/53/6
f 14/59/2 31/55/2 29/52/2
f 18/61/4 22/136/4 28/62/4
f 26/63/6 29/68/6 20/64/6
f 24/66/1 31/14/1 28/62/1
f 26/63/3 28/62/3 31/14/3
f 17/69/5 21/137/5 32/70/5
f 30/71/6 25/76/6 19/72/6
f 23/74/1 27/11/1 32/70/1
f 25/76/2 37/81/2 39/77/2
f 40/78/2 38/83/2 30/71/2
f 30/71/2 36/82/2 34/79/2
f 27/11/2 33/84/2 35/80/2
f 40/85/5 48/100/5 46/86/5
f 38/87/7 46/86/7 44/88/7
f 39/90/8 47/101/8 41/91/8
f 36/89/6 44/88/6 42/93/6
f 33/92/1 41/91/1 43/95/1
f 34/97/9 42/138/9 45/98/9
f 35/96/10 43/95/10 48/100/10
f 37/99/4 45/98/4 47/101/4
f 52/102/6 50/131/6 5/34/6
f 49/103/2 58/122/2 57/104/2
f 51/106/6 52/102/6 8/35/6
f 49/108/6 51/106/6 6/107/6
f 54/110/6 56/113/6 55/111/6
f 56/113/4 64/139/4 61/114/4
f 52/115/3 60/126/3 59/116/3
f 55/111/3 61/140/3 62/118/3
f 63/119/6 62/141/6 58/120/6
f 62/118/6 61/140/6 57/104/6
f 61/114/6 64/139/6 60/123/6
f 64/125/6 63/142/6 59/116/6
f 53/112/5 62/141/5 63/119/5
f 51/127/5 57/124/5 60/123/5
f 50/129/4 59/121/4 58/120/4
f 54/110/2 63/142/2 64/125/2
f 49/108/6 7/109/6 5/34/6
