mtllib firebox_item.mtl
usemtl material
v 1.375000 0.750000 0.125000
v 1.375000 0.250000 0.125000
v 1.375000 0.750000 -0.125000
v 1.375000 0.250000 -0.125000
v 1.375000 0.375000 0.250000
v 1.375000 0.375000 -0.250000
v 1.375000 0.625000 0.250000
v 1.375000 0.625000 -0.250000
v 1.312500 0.750000 -0.125000
v 1.312500 0.750000 0.125000
v 1.312500 0.375000 -0.250000
v 1.312500 0.625000 -0.250000
v 1.312500 0.250000 0.125000
v 1.312500 0.250000 -0.125000
v 1.312500 0.625000 0.250000
v 1.312500 0.375000 0.250000
v 1.375000 0.875000 0.187500
v 1.375000 0.125000 0.187500
v 1.375000 0.875000 -0.187500
v 1.375000 0.125000 -0.187500
v 1.375000 0.312500 0.375000
v 1.375000 0.312500 -0.375000
v 1.375000 0.687500 0.375000
v 1.375000 0.687500 -0.375000
v 1.437500 0.875000 0.187500
v 1.437500 0.125000 0.187500
v 1.437500 0.875000 -0.187500
v 1.437500 0.125000 -0.187500
v 1.437500 0.312500 0.375000
v 1.437500 0.312500 -0.375000
v 1.437500 0.687500 0.375000
v 1.437500 0.687500 -0.375000
v 1.500000 0.750000 0.125000
v 1.500000 0.250000 0.125000
v 1.500000 0.750000 -0.125000
v 1.500000 0.250000 -0.125000
v 1.500000 0.375000 0.250000
v 1.500000 0.375000 -0.250000
v 1.500000 0.625000 0.250000
v 1.500000 0.625000 -0.250000
v 1.625000 0.687500 -0.126000
v 1.625000 0.312500 -0.126000
v 1.625000 0.687500 -0.188500
v 1.625000 0.312500 -0.188500
v 1.500000 0.687500 -0.126000
v 1.500000 0.312500 -0.126000
v 1.500000 0.687500 -0.188500
v 1.500000 0.312500 -0.188500
v 1.500000 0.375000 -0.126000
v 1.500000 0.375000 -0.188500
v 1.500000 0.625000 -0.126000
v 1.500000 0.625000 -0.188500
v 1.562500 0.375000 -0.126000
v 1.562500 0.375000 -0.188500
v 1.562500 0.625000 -0.126000
v 1.562500 0.625000 -0.188500
v -1.500000 0.000000 1.500000
v 1.500000 0.000000 1.500000
v -1.500000 0.000000 -1.500000
v 1.500000 0.000000 -1.500000
v 1.500000 1.000000 1.500000
v -1.500000 1.000000 -1.500000
v -1.500000 1.000000 1.500000
v 1.500000 1.000000 -1.500000
v 1.375000 0.125000 1.500000
v -1.375000 0.125000 -1.500000
v -1.375000 0.125000 1.500000
v 1.375000 0.125000 -1.500000
v 1.375000 0.875000 1.500000
v -1.375000 0.875000 -1.500000
v -1.375000 0.875000 1.500000
v 1.375000 0.875000 -1.500000
v 1.500000 0.125000 -1.375000
v -1.500000 0.125000 1.375000
v 1.500000 0.125000 1.375000
v -1.500000 0.125000 -1.375000
v 1.500000 0.875000 -1.375000
v -1.500000 0.875000 1.375000
v 1.500000 0.875000 1.375000
v -1.500000 0.875000 -1.375000
v 1.375000 0.125000 1.375000
v -1.375000 0.125000 1.375000
v 1.375000 0.875000 1.375000
v -1.375000 0.875000 1.375000
v -1.375000 0.125000 -1.375000
v 1.375000 0.125000 -1.375000
v -1.375000 0.875000 -1.375000
v 1.375000 0.875000 -1.375000
v 1.375000 0.750000 0.125000
v 1.375000 0.250000 0.125000
v 1.375000 0.750000 -0.125000
v 1.375000 0.250000 -0.125000
v 1.375000 0.375000 0.250000
v 1.375000 0.375000 -0.250000
v 1.375000 0.625000 0.250000
v 1.375000 0.625000 -0.250000
v 1.250000 0.750000 0.125000
v 1.250000 0.250000 0.125000
v 1.250000 0.750000 -0.125000
v 1.250000 0.250000 -0.125000
v 1.250000 0.375000 0.250000
v 1.250000 0.375000 -0.250000
v 1.250000 0.625000 0.250000
v 1.250000 0.625000 -0.250000
v -0.500000 1.000000 0.500000
v 0.500000 1.000000 0.500000
v -0.500000 1.000000 -0.500000
v 0.500000 1.000000 -0.500000
v -0.437500 1.000000 0.437500
v 0.437500 1.000000 0.437500
v -0.437500 1.000000 -0.437500
v 0.437500 1.000000 -0.437500
v -0.500000 0.937500 -0.500000
v -0.500000 0.937500 0.500000
v 0.500000 0.937500 0.500000
v 0.500000 0.937500 -0.500000
v -0.437500 0.937500 -0.437500
v -0.437500 0.937500 0.437500
v 0.437500 0.937500 0.437500
v 0.437500 0.937500 -0.437500
vt 0.465517 0.218750
vt 0.508621 0.234375
vt 0.474138 0.234375
vt 0.439655 0.171875
vt 0.491379 0.156250
vt 0.508621 0.203125
vt 0.431034 0.156250
vt 0.431034 0.171875
vt 0.431034 0.250000
vt 0.439655 0.265625
vt 0.431034 0.265625
vt 0.431034 0.312500
vt 0.439655 0.343750
vt 0.431034 0.343750
vt 0.431034 0.218750
vt 0.439655 0.250000
vt 0.431034 0.296875
vt 0.439655 0.312500
vt 0.431034 0.203125
vt 0.439655 0.218750
vt 0.439655 0.296875
vt 0.439655 0.203125
vt 0.439655 0.289062
vt 0.456897 0.250000
vt 0.456897 0.281250
vt 0.517241 0.312500
vt 0.474138 0.296875
vt 0.508621 0.296875
vt 0.543103 0.242188
vt 0.525862 0.281250
vt 0.525862 0.250000
vt 0.543103 0.289062
vt 0.465517 0.312500
vt 0.439655 0.242188
vt 0.551724 0.179688
vt 0.543103 0.156250
vt 0.551724 0.156250
vt 0.551724 0.250000
vt 0.543103 0.226562
vt 0.551724 0.226562
vt 0.551724 0.437500
vt 0.543103 0.390625
vt 0.551724 0.390625
vt 0.551724 0.296875
vt 0.543103 0.250000
vt 0.543103 0.367188
vt 0.551724 0.367188
vt 0.543103 0.320312
vt 0.551724 0.320312
vt 0.543103 0.296875
vt 0.543103 0.179688
vt 0.543103 0.382812
vt 0.525862 0.343750
vt 0.543103 0.335938
vt 0.508621 0.390625
vt 0.525862 0.375000
vt 0.474138 0.390625
vt 0.517241 0.406250
vt 0.465517 0.406250
vt 0.439655 0.382812
vt 0.456897 0.343750
vt 0.439655 0.335938
vt 0.474138 0.328125
vt 0.508621 0.328125
vt 0.465517 0.312500
vt 0.517241 0.312500
vt 0.568965 0.171875
vt 0.577586 0.218750
vt 0.568965 0.218750
vt 0.577586 0.156250
vt 0.577586 0.171875
vt 0.568965 0.234375
vt 0.560345 0.226562
vt 0.560345 0.210938
vt 0.551724 0.234375
vt 0.560345 0.234375
vt 0.560345 0.156250
vt 0.551724 0.164062
vt 0.551724 0.156250
vt 0.551724 0.179688
vt 0.560345 0.179688
vt 0.560345 0.164062
vt 0.568965 0.156250
vt 0.586207 0.210938
vt 0.586207 0.164062
vt 0.586207 0.226562
vt 0.577586 0.234375
vt 0.517241 0.218750
vt 0.491379 0.218750
vt 0.456897 0.218750
vt 0.456897 0.156250
vt 0.508621 0.171875
vt 0.439655 0.156250
vt 0.543103 0.437500
vt 0.456897 0.375000
vt 0.551724 0.226562
vt 0.551724 0.210938
vt 0.586207 0.179688
vt 0.586207 0.156250
vt 0.586207 0.234375
vt 0.413793 0.000000
vt 0.000000 0.375000
vt 0.000000 -0.000000
vt -0.000000 0.890625
vt 0.017241 0.984375
vt -0.000000 0.984375
vt 0.000000 0.890625
vt 0.017241 0.984375
vt 0.000000 0.984375
vt -0.000000 0.890625
vt 0.017241 0.984375
vt -0.000000 0.984375
vt 0.000000 0.890625
vt 0.017241 0.984375
vt 0.000000 0.984375
vt 0.413793 0.375000
vt 0.017241 0.390625
vt 0.000000 0.375000
vt 0.017241 0.484375
vt 0.000000 0.500000
vt 0.413793 0.500000
vt 0.396552 0.390625
vt 0.413793 0.375000
vt 0.413793 0.500000
vt 0.396552 0.390625
vt 0.413793 0.375000
vt 0.017241 0.390625
vt 0.000000 0.375000
vt 0.017241 0.484375
vt 0.000000 0.500000
vt 0.413793 0.500000
vt 0.396552 0.390625
vt 0.017241 0.484375
vt 0.000000 0.500000
vt 0.413793 0.500000
vt 0.413793 0.375000
vt 0.017241 0.390625
vt 0.396552 0.390625
vt 0.000000 0.375000
vt 0.017241 0.484375
vt 0.000000 0.500000
vt 0.017241 0.390625
vt 0.396552 0.890625
vt 0.017241 0.890625
vt 0.413793 0.984375
vt 0.413793 0.890625
vt 0.017241 1.000000
vt 0.396552 0.984375
vt 0.396552 1.000000
vt 0.396552 0.875000
vt 0.017241 0.875000
vt 0.396552 0.890625
vt 0.017241 0.890625
vt 0.017241 1.000000
vt 0.396552 0.984375
vt 0.396552 1.000000
vt 0.396552 0.875000
vt 0.017241 0.875000
vt 0.413793 0.984375
vt 0.413793 0.890625
vt 0.413793 0.890625
vt 0.396552 0.984375
vt 0.396552 0.890625
vt 0.017241 0.875000
vt 0.396552 0.875000
vt 0.017241 1.000000
vt 0.396552 1.000000
vt 0.017241 0.890625
vt 0.413793 0.890625
vt 0.396552 0.984375
vt 0.396552 0.890625
vt 0.017241 0.875000
vt 0.396552 0.875000
vt 0.017241 1.000000
vt 0.396552 1.000000
vt 0.017241 0.890625
vt 0.172414 0.953125
vt 0.241379 0.953125
vt 0.189655 0.906250
vt 0.224138 0.968750
vt 0.172414 0.921875
vt 0.224138 0.906250
vt 0.241379 0.921875
vt 0.189655 0.968750
vt 0.413793 0.265625
vt 0.431034 0.296875
vt 0.413793 0.296875
vt 0.431034 0.312500
vt 0.413793 0.312500
vt 0.413793 0.203125
vt 0.431034 0.218750
vt 0.413793 0.218750
vt 0.431034 0.343750
vt 0.413793 0.343750
vt 0.431034 0.250000
vt 0.413793 0.250000
vt 0.413793 0.156250
vt 0.431034 0.171875
vt 0.413793 0.171875
vt 0.431034 0.265625
vt 0.431034 0.203125
vt 0.275862 0.625000
vt 0.431034 0.156250
vt 0.568965 0.148438
vt 0.568965 0.156250
vt 0.275862 0.750000
vt 0.413793 0.875000
vt 0.137931 0.750000
vt 0.000000 0.875000
vt 0.439655 0.023438
vt 0.560345 0.132812
vt 0.439655 0.132812
vt 0.560345 0.023438
vt 0.568965 0.132812
vt 0.568965 -0.000000
vt 0.431034 0.007812
vt 0.431034 -0.000000
vt 0.439655 0.140625
vt 0.431034 0.023438
vt 0.422414 0.140625
vt 0.422414 0.015625
vt 0.431034 0.148438
vt 0.577586 0.015625
vt 0.577586 0.140625
vt 0.560345 0.015625
vt 0.568965 0.007812
vt 0.586207 0.140625
vt 0.586207 0.015625
vt 0.413793 0.015625
vt 0.413793 0.140625
vt 0.137931 0.625000
vt 0.396552 0.484375
vt 0.396552 0.484375
vt 0.396552 0.484375
vt 0.396552 0.484375
vt 0.413793 0.984375
vt 0.413793 0.984375
vt 0.431034 0.156250
vt 0.568965 0.023438
vt 0.560345 0.140625
vt 0.431034 0.132812
vt 0.439655 0.015625
vn -1.0000 0.0000 0.0000
vn 0.0000 -0.7071 -0.7071
vn 0.0000 0.7071 0.7071
vn 0.0000 -1.0000 0.0000
vn 0.0000 1.0000 0.0000
vn 0.0000 -0.7071 0.7071
vn 0.0000 0.7071 -0.7071
vn 0.0000 0.0000 1.0000
vn 0.0000 0.0000 -1.0000
vn 0.8944 0.0000 -0.4472
vn 0.9045 0.3015 -0.3015
vn 0.8944 0.4472 0.0000
vn 0.9045 0.3015 0.3015
vn 0.8944 0.0000 0.4472
vn 0.9045 -0.3015 0.3015
vn 0.8944 -0.4472 0.0000
vn 0.9045 -0.3015 -0.3015
vn 1.0000 0.0000 0.0000
vn 0.0000 -1.0000 0.0000
vn 1.0000 0.0000 0.0000
vn -1.0000 0.0000 0.0000
vn -0.0000 0.0000 -1.0000
vn 0.0000 0.0000 1.0000
vn 0.0000 1.0000 0.0000
vn 0.0000 0.7071 0.7071
vn 0.0000 -0.7071 -0.7071
vn 0.0000 0.7071 -0.7071
vn 0.0000 -0.7071 0.7071
o Main
s off
f 59/101/19 58/102/19 57/103/19
f 67/104/20 84/105/20 71/106/20
f 68/107/21 88/108/21 72/109/21
f 75/110/22 83/111/22 79/112/22
f 76/113/23 87/114/23 80/115/23
f 57/116/21 76/117/21 59/118/21
f 59/118/21 80/119/21 62/120/21
f 62/121/22 66/122/22 59/123/22
f 63/124/21 74/125/21 57/116/21
f 58/126/23 67/127/23 57/128/23
f 57/128/23 71/129/23 63/130/23
f 80/119/21 63/124/21 62/120/21
f 71/129/23 61/131/23 63/130/23
f 61/131/23 65/132/23 58/126/23
f 58/102/20 79/133/20 61/134/20
f 79/133/20 64/135/20 61/134/20
f 60/136/20 75/137/20 58/102/20
f 64/135/20 73/138/20 60/136/20
f 60/139/22 72/140/22 64/141/22
f 72/140/22 62/121/22 64/141/22
f 59/123/22 68/142/22 60/139/22
f 81/143/23 84/105/23 82/144/23
f 69/145/21 81/143/21 65/146/21
f 71/147/19 83/148/19 69/149/19
f 65/150/24 82/144/24 67/151/24
f 85/152/22 88/108/22 86/153/22
f 72/154/19 87/155/19 70/156/19
f 66/157/24 86/153/24 68/158/24
f 70/159/20 85/152/20 66/160/20
f 74/161/22 84/162/22 82/163/22
f 82/163/24 76/164/24 74/165/24
f 80/166/19 84/162/19 78/167/19
f 82/163/21 87/114/21 85/168/21
f 73/169/23 88/170/23 86/171/23
f 86/171/24 75/172/24 73/173/24
f 79/174/19 88/170/19 77/175/19
f 81/176/20 95/177/20 83/111/20
f 96/178/20 86/171/20 88/170/20
f 86/171/20 90/179/20 81/176/20
f 83/111/20 91/180/20 88/170/20
f 90/179/20 93/181/20 81/176/20
f 92/182/20 86/171/20 94/183/20
f 91/180/20 96/178/20 88/170/20
f 89/184/20 83/111/20 95/177/20
f 96/185/23 102/186/23 94/187/23
f 94/187/25 100/188/25 92/189/25
f 95/190/26 97/191/26 89/192/26
f 92/189/24 98/193/24 90/194/24
f 89/192/19 99/195/19 91/196/19
f 90/197/27 101/198/27 93/199/27
f 91/196/28 104/200/28 96/185/28
f 93/199/22 103/201/22 95/190/22
f 108/202/24 61/134/24 64/135/24
f 105/203/20 113/204/20 107/205/20
f 107/206/24 64/135/24 62/207/24
f 105/208/24 62/207/24 63/209/24
f 110/210/24 111/211/24 109/212/24
f 112/213/22 117/214/22 111/211/22
f 108/215/21 115/216/21 106/217/21
f 111/211/21 118/218/21 109/212/21
f 119/219/24 114/220/24 115/221/24
f 118/218/24 113/204/24 114/222/24
f 117/214/24 116/223/24 113/224/24
f 120/225/24 115/216/24 116/226/24
f 109/212/23 119/219/23 110/210/23
f 107/227/23 116/223/23 108/228/23
f 106/229/22 114/220/22 105/230/22
f 110/210/20 120/225/20 112/213/20
f 105/208/24 61/134/24 106/231/24
f 59/101/19 60/136/19 58/102/19
f 67/104/20 82/144/20 84/105/20
f 68/107/21 86/153/21 88/108/21
f 75/110/22 81/176/22 83/111/22
f 76/113/23 85/168/23 87/114/23
f 57/116/21 74/125/21 76/117/21
f 59/118/21 76/117/21 80/119/21
f 62/121/22 70/232/22 66/122/22
f 63/124/21 78/233/21 74/125/21
f 58/126/23 65/132/23 67/127/23
f 57/128/23 67/127/23 71/129/23
f 80/119/21 78/233/21 63/124/21
f 71/129/23 69/234/23 61/131/23
f 61/131/23 69/234/23 65/132/23
f 58/102/20 75/137/20 79/133/20
f 79/133/20 77/235/20 64/135/20
f 60/136/20 73/138/20 75/137/20
f 64/135/20 77/235/20 73/138/20
f 60/139/22 68/142/22 72/140/22
f 72/140/22 70/232/22 62/121/22
f 59/123/22 66/122/22 68/142/22
f 81/143/23 83/148/23 84/105/23
f 69/145/21 83/148/21 81/143/21
f 71/147/19 84/105/19 83/148/19
f 65/150/24 81/143/24 82/144/24
f 85/152/22 87/155/22 88/108/22
f 72/154/19 88/108/19 87/155/19
f 66/157/24 85/152/24 86/153/24
f 70/159/20 87/155/20 85/152/20
f 74/161/22 78/236/22 84/162/22
f 82/163/24 85/168/24 76/164/24
f 80/166/19 87/114/19 84/162/19
f 82/163/21 84/162/21 87/114/21
f 73/169/23 77/237/23 88/170/23
f 86/171/24 81/176/24 75/172/24
f 79/174/19 83/111/19 88/170/19
f 81/176/20 93/181/20 95/177/20
f 96/178/20 94/183/20 86/171/20
f 86/171/20 92/182/20 90/179/20
f 83/111/20 89/184/20 91/180/20
f 96/185/23 104/200/23 102/186/23
f 94/187/25 102/186/25 100/188/25
f 95/190/26 103/201/26 97/191/26
f 92/189/24 100/188/24 98/193/24
f 89/192/19 97/191/19 99/195/19
f 90/197/27 98/238/27 101/198/27
f 91/196/28 99/195/28 104/200/28
f 93/199/22 101/198/22 103/201/22
f 108/202/24 106/231/24 61/134/24
f 105/203/20 114/222/20 113/204/20
f 107/206/24 108/202/24 64/135/24
f 105/208/24 107/206/24 62/207/24
f 110/210/24 112/213/24 111/211/24
f 112/213/22 120/239/22 117/214/22
f 108/215/21 116/226/21 115/216/21
f 111/211/21 117/240/21 118/218/21
f 119/219/24 118/241/24 114/220/24
f 118/218/24 117/240/24 113/204/24
f 117/214/24 120/239/24 116/223/24
f 120/225/24 119/242/24 115/216/24
f 109/212/23 118/241/23 119/219/23
f 107/227/23 113/224/23 116/223/23
f 106/229/22 115/221/22 114/220/22
f 110/210/20 119/242/20 120/225/20
f 105/208/24 63/209/24 61/134/24
o Door
s off
f 20/1/1 2/2/1 4/3/1
f 11/4/1 13/5/1 15/6/1
f 4/7/2 11/4/2 6/8/2
f 1/9/3 15/10/3 7/11/3
f 2/12/4 14/13/4 4/14/4
f 3/15/5 10/16/5 1/9/5
f 5/17/6 13/18/6 2/12/6
f 8/19/7 9/20/7 3/15/7
f 7/11/8 16/21/8 5/17/8
f 6/8/9 12/22/9 8/19/9
f 24/23/1 6/24/1 8/25/1
f 17/26/1 3/27/1 1/28/1
f 21/29/1 7/30/1 5/31/1
f 23/32/1 1/28/1 7/30/1
f 19/33/1 8/25/1 3/27/1
f 2/2/1 21/29/1 5/31/1
f 22/34/1 4/3/1 6/24/1
f 22/35/2 28/36/2 20/37/2
f 19/38/7 32/39/7 24/40/7
f 20/41/4 26/42/4 18/43/4
f 17/44/5 27/45/5 19/38/5
f 18/43/6 29/46/6 21/47/6
f 21/47/8 31/48/8 23/49/8
f 23/49/3 25/50/3 17/44/3
f 24/40/9 30/51/9 22/35/9
f 32/52/10 38/53/10 30/54/10
f 32/52/11 35/55/11 40/56/11
f 33/57/12 27/58/12 25/59/12
f 31/60/13 33/57/13 25/59/13
f 37/61/14 31/60/14 29/62/14
f 29/62/15 34/63/15 37/61/15
f 36/64/16 26/65/16 28/66/16
f 30/54/17 36/64/17 28/66/17
f 37/61/18 36/64/18 40/56/18
f 42/67/18 43/68/18 41/69/18
f 42/67/4 48/70/4 44/71/4
f 43/68/5 45/72/5 41/69/5
f 45/72/8 55/73/8 41/69/8
f 55/74/8 42/67/8 41/69/8
f 52/75/4 55/73/4 51/76/4
f 49/77/5 54/78/5 50/79/5
f 55/74/1 54/80/1 53/81/1
f 53/82/8 46/83/8 42/67/8
f 44/71/9 56/84/9 43/68/9
f 48/70/9 54/85/9 44/71/9
f 56/86/9 47/87/9 43/68/9
f 20/1/1 18/88/1 2/2/1
f 15/6/1 10/89/1 9/90/1
f 9/90/1 12/22/1 11/4/1
f 11/4/1 14/91/1 13/5/1
f 13/5/1 16/92/1 15/6/1
f 15/6/1 9/90/1 11/4/1
f 4/7/2 14/93/2 11/4/2
f 1/9/3 10/16/3 15/10/3
f 2/12/4 13/18/4 14/13/4
f 3/15/5 9/20/5 10/16/5
f 5/17/6 16/21/6 13/18/6
f 8/19/7 12/22/7 9/20/7
f 7/11/8 15/10/8 16/21/8
f 6/8/9 11/4/9 12/22/9
f 24/23/1 22/34/1 6/24/1
f 17/26/1 19/33/1 3/27/1
f 21/29/1 23/32/1 7/30/1
f 23/32/1 17/26/1 1/28/1
f 19/33/1 24/23/1 8/25/1
f 2/2/1 18/88/1 21/29/1
f 22/34/1 20/1/1 4/3/1
f 22/35/2 30/51/2 28/36/2
f 19/38/7 27/45/7 32/39/7
f 20/41/4 28/94/4 26/42/4
f 17/44/5 25/50/5 27/45/5
f 18/43/6 26/42/6 29/46/6
f 21/47/8 29/46/8 31/48/8
f 23/49/3 31/48/3 25/50/3
f 24/40/9 32/39/9 30/51/9
f 32/52/10 40/56/10 38/53/10
f 32/52/11 27/58/11 35/55/11
f 33/57/12 35/55/12 27/58/12
f 31/60/13 39/95/13 33/57/13
f 37/61/14 39/95/14 31/60/14
f 29/62/15 26/65/15 34/63/15
f 36/64/16 34/63/16 26/65/16
f 30/54/17 38/53/17 36/64/17
f 40/56/18 35/55/18 33/57/18
f 33/57/18 39/95/18 37/61/18
f 37/61/18 34/63/18 36/64/18
f 36/64/18 38/53/18 40/56/18
f 40/56/18 33/57/18 37/61/18
f 42/67/18 44/71/18 43/68/18
f 42/67/4 46/83/4 48/70/4
f 43/68/5 47/87/5 45/72/5
f 45/72/8 51/76/8 55/73/8
f 55/74/8 53/81/8 42/67/8
f 52/75/4 56/96/4 55/73/4
f 49/77/5 53/82/5 54/78/5
f 55/74/1 56/97/1 54/80/1
f 53/82/8 49/77/8 46/83/8
f 44/71/9 54/98/9 56/84/9
f 48/70/9 50/99/9 54/85/9
f 56/86/9 52/100/9 47/87/9
