mtllib firebox_inner_empty.mtl
usemtl material
o InnerEmpty
v 1.250000 0.750000 0.125000
v 1.250000 0.250000 0.125000
v 1.250000 0.750000 -0.125000
v 1.250000 0.250000 -0.125000
v 1.250000 0.375000 0.250000
v 1.250000 0.375000 -0.250000
v 1.250000 0.625000 0.250000
v 1.250000 0.625000 -0.250000
v 1.250000 0.875000 0.375000
v 1.250000 0.125000 0.375000
v 1.250000 0.875000 -0.375000
v 1.250000 0.125000 -0.375000
v 0.500000 0.875000 0.375000
v 0.500000 0.125000 0.375000
v 0.500000 0.875000 -0.375000
v 0.500000 0.125000 -0.375000
vt 0.586207 0.187500
vt 0.603448 0.125000
vt 0.603448 0.156250
vt 0.586207 0.093750
vt 0.655172 0.109375
vt 0.620690 0.109375
vt 0.689655 0.187500
vt 0.620690 0.171875
vt 0.655172 0.171875
vt 0.689655 0.093750
vt 0.672414 0.156250
vt 0.672414 0.125000
vt 1.000000 0.187500
vt 0.896552 0.093750
vt 1.000000 0.093750
vt 0.793103 0.187500
vt 0.896552 0.187500
vt 0.896552 0.281250
vt 0.793103 0.281250
vt 0.793103 -0.000000
vt 0.896552 -0.000000
vt 0.793103 0.093750
vn -1.0000 0.0000 0.0000
vn 0.0000 0.0000 1.0000
vn 0.0000 0.0000 -1.0000
vn 1.0000 0.0000 0.0000
vn 0.0000 -1.0000 0.0000
vn 0.0000 1.0000 0.0000
s off
f 11/1/1 6/2/1 8/3/1
f 12/4/1 2/5/1 4/6/1
f 9/7/1 3/8/1 1/9/1
f 10/10/1 7/11/1 5/12/1
f 6/2/1 12/4/1 4/6/1
f 5/12/1 2/5/1 10/10/1
f 7/11/1 9/7/1 1/9/1
f 8/3/1 3/8/1 11/1/1
f 11/13/2 16/14/2 12/15/2
f 10/10/3 13/16/3 9/7/3
f 13/16/4 16/14/4 15/17/4
f 13/16/5 11/18/5 9/19/5
f 16/14/6 10/20/6 12/21/6
f 11/1/1 12/4/1 6/2/1
f 12/4/1 10/10/1 2/5/1
f 9/7/1 11/1/1 3/8/1
f 10/10/1 9/7/1 7/11/1
f 11/13/2 15/17/2 16/14/2
f 10/10/3 14/22/3 13/16/3
f 13/16/4 14/22/4 16/14/4
f 13/16/5 15/17/5 11/18/5
f 16/14/6 14/22/6 10/20/6
