mtllib firebox_door.mtl
usemtl material
o Door
v 1.375000 0.750000 0.125000
v 1.375000 0.250000 0.125000
v 1.375000 0.750000 -0.125000
v 1.375000 0.250000 -0.125000
v 1.375000 0.375000 0.250000
v 1.375000 0.375000 -0.250000
v 1.375000 0.625000 0.250000
v 1.375000 0.625000 -0.250000
v 1.312500 0.750000 -0.125000
v 1.312500 0.750000 0.125000
v 1.312500 0.375000 -0.250000
v 1.312500 0.625000 -0.250000
v 1.312500 0.250000 0.125000
v 1.312500 0.250000 -0.125000
v 1.312500 0.625000 0.250000
v 1.312500 0.375000 0.250000
v 1.375000 0.875000 0.187500
v 1.375000 0.125000 0.187500
v 1.375000 0.875000 -0.187500
v 1.375000 0.125000 -0.187500
v 1.375000 0.312500 0.375000
v 1.375000 0.312500 -0.375000
v 1.375000 0.687500 0.375000
v 1.375000 0.687500 -0.375000
v 1.437500 0.875000 0.187500
v 1.437500 0.125000 0.187500
v 1.437500 0.875000 -0.187500
v 1.437500 0.125000 -0.187500
v 1.437500 0.312500 0.375000
v 1.437500 0.312500 -0.375000
v 1.437500 0.687500 0.375000
v 1.437500 0.687500 -0.375000
v 1.500000 0.750000 0.125000
v 1.500000 0.250000 0.125000
v 1.500000 0.750000 -0.125000
v 1.500000 0.250000 -0.125000
v 1.500000 0.375000 0.250000
v 1.500000 0.375000 -0.250000
v 1.500000 0.625000 0.250000
v 1.500000 0.625000 -0.250000
v 1.625000 0.687500 -0.126000
v 1.625000 0.312500 -0.126000
v 1.625000 0.687500 -0.188500
v 1.625000 0.312500 -0.188500
v 1.500000 0.687500 -0.126000
v 1.500000 0.312500 -0.126000
v 1.500000 0.687500 -0.188500
v 1.500000 0.312500 -0.188500
v 1.500000 0.375000 -0.126000
v 1.500000 0.375000 -0.188500
v 1.500000 0.625000 -0.126000
v 1.500000 0.625000 -0.188500
v 1.562500 0.375000 -0.126000
v 1.562500 0.375000 -0.188500
v 1.562500 0.625000 -0.126000
v 1.562500 0.625000 -0.188500
vt 0.465517 0.218750
vt 0.508621 0.234375
vt 0.474138 0.234375
vt 0.439655 0.171875
vt 0.491379 0.156250
vt 0.508621 0.203125
vt 0.431034 0.156250
vt 0.431034 0.171875
vt 0.431034 0.250000
vt 0.439655 0.265625
vt 0.431034 0.265625
vt 0.431034 0.312500
vt 0.439655 0.343750
vt 0.431034 0.343750
vt 0.431034 0.218750
vt 0.439655 0.250000
vt 0.431034 0.296875
vt 0.439655 0.312500
vt 0.431034 0.203125
vt 0.439655 0.218750
vt 0.439655 0.296875
vt 0.439655 0.203125
vt 0.439655 0.289062
vt 0.456897 0.250000
vt 0.456897 0.281250
vt 0.517241 0.312500
vt 0.474138 0.296875
vt 0.508621 0.296875
vt 0.543103 0.242188
vt 0.525862 0.281250
vt 0.525862 0.250000
vt 0.543103 0.289062
vt 0.465517 0.312500
vt 0.439655 0.242188
vt 0.551724 0.179688
vt 0.543103 0.156250
vt 0.551724 0.156250
vt 0.551724 0.250000
vt 0.543103 0.226562
vt 0.551724 0.226562
vt 0.551724 0.437500
vt 0.543103 0.390625
vt 0.551724 0.390625
vt 0.551724 0.296875
vt 0.543103 0.250000
vt 0.543103 0.367188
vt 0.551724 0.367188
vt 0.543103 0.320312
vt 0.551724 0.320312
vt 0.543103 0.296875
vt 0.543103 0.179688
vt 0.543103 0.382812
vt 0.525862 0.343750
vt 0.543103 0.335938
vt 0.508621 0.390625
vt 0.525862 0.375000
vt 0.474138 0.390625
vt 0.517241 0.406250
vt 0.465517 0.406250
vt 0.439655 0.382812
vt 0.456897 0.343750
vt 0.439655 0.335938
vt 0.474138 0.328125
vt 0.508621 0.328125
vt 0.465517 0.312500
vt 0.517241 0.312500
vt 0.568965 0.171875
vt 0.577586 0.218750
vt 0.568965 0.218750
vt 0.577586 0.156250
vt 0.577586 0.171875
vt 0.568965 0.234375
vt 0.560345 0.226562
vt 0.560345 0.210938
vt 0.551724 0.234375
vt 0.560345 0.234375
vt 0.560345 0.156250
vt 0.551724 0.164062
vt 0.551724 0.156250
vt 0.551724 0.179688
vt 0.560345 0.179688
vt 0.560345 0.164062
vt 0.568965 0.156250
vt 0.586207 0.210938
vt 0.586207 0.164062
vt 0.586207 0.226562
vt 0.577586 0.234375
vt 0.517241 0.218750
vt 0.491379 0.218750
vt 0.456897 0.218750
vt 0.456897 0.156250
vt 0.508621 0.171875
vt 0.439655 0.156250
vt 0.543103 0.437500
vt 0.456897 0.375000
vt 0.551724 0.226562
vt 0.551724 0.210938
vt 0.586207 0.179688
vt 0.586207 0.156250
vt 0.586207 0.234375
vn -1.0000 0.0000 0.0000
vn 0.0000 -0.7071 -0.7071
vn 0.0000 0.7071 0.7071
vn 0.0000 -1.0000 0.0000
vn 0.0000 1.0000 0.0000
vn 0.0000 -0.7071 0.7071
vn 0.0000 0.7071 -0.7071
vn 0.0000 0.0000 1.0000
vn 0.0000 0.0000 -1.0000
vn 0.8944 0.0000 -0.4472
vn 0.9045 0.3015 -0.3015
vn 0.8944 0.4472 0.0000
vn 0.9045 0.3015 0.3015
vn 0.8944 0.0000 0.4472
vn 0.9045 -0.3015 0.3015
vn 0.8944 -0.4472 0.0000
vn 0.9045 -0.3015 -0.3015
vn 1.0000 0.0000 0.0000
s off
f 20/1/1 2/2/1 4/3/1
f 11/4/1 13/5/1 15/6/1
f 4/7/2 11/4/2 6/8/2
f 1/9/3 15/10/3 7/11/3
f 2/12/4 14/13/4 4/14/4
f 3/15/5 10/16/5 1/9/5
f 5/17/6 13/18/6 2/12/6
f 8/19/7 9/20/7 3/15/7
f 7/11/8 16/21/8 5/17/8
f 6/8/9 12/22/9 8/19/9
f 24/23/1 6/24/1 8/25/1
f 17/26/1 3/27/1 1/28/1
f 21/29/1 7/30/1 5/31/1
f 23/32/1 1/28/1 7/30/1
f 19/33/1 8/25/1 3/27/1
f 2/2/1 21/29/1 5/31/1
f 22/34/1 4/3/1 6/24/1
f 22/35/2 28/36/2 20/37/2
f 19/38/7 32/39/7 24/40/7
f 20/41/4 26/42/4 18/43/4
f 17/44/5 27/45/5 19/38/5
f 18/43/6 29/46/6 21/47/6
f 21/47/8 31/48/8 23/49/8
f 23/49/3 25/50/3 17/44/3
f 24/40/9 30/51/9 22/35/9
f 32/52/10 38/53/10 30/54/10
f 32/52/11 35/55/11 40/56/11
f 33/57/12 27/58/12 25/59/12
f 31/60/13 33/57/13 25/59/13
f 37/61/14 31/60/14 29/62/14
f 29/62/15 34/63/15 37/61/15
f 36/64/16 26/65/16 28/66/16
f 30/54/17 36/64/17 28/66/17
f 37/61/18 36/64/18 40/56/18
f 42/67/18 43/68/18 41/69/18
f 42/67/4 48/70/4 44/71/4
f 43/68/5 45/72/5 41/69/5
f 45/72/8 55/73/8 41/69/8
f 55/74/8 42/67/8 41/69/8
f 52/75/4 55/73/4 51/76/4
f 49/77/5 54/78/5 50/79/5
f 55/74/1 54/80/1 53/81/1
f 53/82/8 46/83/8 42/67/8
f 44/71/9 56/84/9 43/68/9
f 48/70/9 54/85/9 44/71/9
f 56/86/9 47/87/9 43/68/9
f 20/1/1 18/88/1 2/2/1
f 15/6/1 10/89/1 9/90/1
f 9/90/1 12/22/1 11/4/1
f 11/4/1 14/91/1 13/5/1
f 13/5/1 16/92/1 15/6/1
f 15/6/1 9/90/1 11/4/1
f 4/7/2 14/93/2 11/4/2
f 1/9/3 10/16/3 15/10/3
f 2/12/4 13/18/4 14/13/4
f 3/15/5 9/20/5 10/16/5
f 5/17/6 16/21/6 13/18/6
f 8/19/7 12/22/7 9/20/7
f 7/11/8 15/10/8 16/21/8
f 6/8/9 11/4/9 12/22/9
f 24/23/1 22/34/1 6/24/1
f 17/26/1 19/33/1 3/27/1
f 21/29/1 23/32/1 7/30/1
f 23/32/1 17/26/1 1/28/1
f 19/33/1 24/23/1 8/25/1
f 2/2/1 18/88/1 21/29/1
f 22/34/1 20/1/1 4/3/1
f 22/35/2 30/51/2 28/36/2
f 19/38/7 27/45/7 32/39/7
f 20/41/4 28/94/4 26/42/4
f 17/44/5 25/50/5 27/45/5
f 18/43/6 26/42/6 29/46/6
f 21/47/8 29/46/8 31/48/8
f 23/49/3 31/48/3 25/50/3
f 24/40/9 32/39/9 30/51/9
f 32/52/10 40/56/10 38/53/10
f 32/52/11 27/58/11 35/55/11
f 33/57/12 35/55/12 27/58/12
f 31/60/13 39/95/13 33/57/13
f 37/61/14 39/95/14 31/60/14
f 29/62/15 26/65/15 34/63/15
f 36/64/16 34/63/16 26/65/16
f 30/54/17 38/53/17 36/64/17
f 40/56/18 35/55/18 33/57/18
f 33/57/18 39/95/18 37/61/18
f 37/61/18 34/63/18 36/64/18
f 36/64/18 38/53/18 40/56/18
f 40/56/18 33/57/18 37/61/18
f 42/67/18 44/71/18 43/68/18
f 42/67/4 46/83/4 48/70/4
f 43/68/5 47/87/5 45/72/5
f 45/72/8 51/76/8 55/73/8
f 55/74/8 53/81/8 42/67/8
f 52/75/4 56/96/4 55/73/4
f 49/77/5 53/82/5 54/78/5
f 55/74/1 56/97/1 54/80/1
f 53/82/8 49/77/8 46/83/8
f 44/71/9 54/98/9 56/84/9
f 48/70/9 50/99/9 54/85/9
f 56/86/9 52/100/9 47/87/9
