mtllib firebox_inner_burning.mtl
usemtl material
o InnerBurning
v 1.250000 0.750000 0.125000
v 1.250000 0.250000 0.125000
v 1.250000 0.750000 -0.125000
v 1.250000 0.250000 -0.125000
v 1.250000 0.375000 0.250000
v 1.250000 0.375000 -0.250000
v 1.250000 0.625000 0.250000
v 1.250000 0.625000 -0.250000
v 1.250000 0.875000 0.375000
v 1.250000 0.125000 0.375000
v 1.250000 0.875000 -0.375000
v 1.250000 0.125000 -0.375000
v 0.500000 0.875000 0.375000
v 0.500000 0.125000 0.375000
v 0.500000 0.875000 -0.375000
v 0.500000 0.125000 -0.375000
v 1.250000 0.125000 0.375000
v 1.250000 0.125000 -0.375000
v 0.500000 0.125000 0.375000
v 0.500000 0.250000 -0.375000
v 1.250000 0.125000 0.250000
v 1.250000 0.187500 0.125000
v 1.250000 0.187500 -0.000000
v 1.250000 0.125000 -0.125000
v 1.250000 0.125000 -0.250000
v 0.500000 0.187500 0.250000
v 0.500000 0.250000 0.125000
v 0.500000 0.250000 -0.000000
v 0.500000 0.187500 -0.125000
v 0.500000 0.250000 -0.250000
v 0.625000 0.187500 0.375000
v 0.750000 0.187500 0.375000
v 0.875000 0.250000 0.375000
v 1.000000 0.187500 0.375000
v 1.125000 0.125000 0.375000
v 1.125000 0.125000 -0.375000
v 1.000000 0.187500 -0.375000
v 0.875000 0.125000 -0.375000
v 0.750000 0.187500 -0.375000
v 0.625000 0.187500 -0.375000
v 1.125000 0.187500 0.250000
v 1.000000 0.187500 0.250000
v 0.875000 0.250000 0.250000
v 0.750000 0.250000 0.250000
v 0.625000 0.187500 0.250000
v 1.125000 0.187500 0.125000
v 1.000000 0.250000 0.125000
v 0.875000 0.250000 0.125000
v 0.750000 0.312500 0.125000
v 0.625000 0.250000 0.125000
v 1.125000 0.187500 -0.000000
v 1.000000 0.250000 -0.000000
v 0.875000 0.312500 -0.000000
v 0.750000 0.312500 -0.000000
v 0.625000 0.250000 -0.000000
v 1.125000 0.187500 -0.125000
v 1.000000 0.250000 -0.125000
v 0.875000 0.250000 -0.125000
v 0.750000 0.250000 -0.125000
v 0.625000 0.250000 -0.125000
v 1.125000 0.187500 -0.250000
v 1.000000 0.187500 -0.250000
v 0.875000 0.187500 -0.250000
v 0.750000 0.187500 -0.250000
v 0.625000 0.250000 -0.250000
vt 0.586207 0.468750
vt 0.603448 0.406250
vt 0.603448 0.437500
vt 0.586207 0.375000
vt 0.655172 0.390625
vt 0.620690 0.390625
vt 0.689655 0.468750
vt 0.620690 0.453125
vt 0.655172 0.453125
vt 0.689655 0.375000
vt 0.672414 0.437500
vt 0.672414 0.406250
vt 1.000000 0.468750
vt 0.896552 0.375000
vt 1.000000 0.375000
vt 0.793103 0.468750
vt 0.896552 0.468750
vt 0.879310 0.359375
vt 0.896552 0.359375
vt 0.879310 0.375000
vt 0.793103 0.359375
vt 0.810345 0.359375
vt 0.793103 0.375000
vt 0.827586 0.359375
vt 0.810345 0.375000
vt 0.844828 0.359375
vt 0.827586 0.375000
vt 0.862069 0.359375
vt 0.844828 0.375000
vt 0.862069 0.375000
vt 0.793103 0.281250
vt 0.810345 0.281250
vt 0.793103 0.296875
vt 0.810345 0.296875
vt 0.793103 0.312500
vt 0.810345 0.312500
vt 0.793103 0.328125
vt 0.810345 0.343750
vt 0.793103 0.343750
vt 0.827586 0.281250
vt 0.827586 0.312500
vt 0.810345 0.328125
vt 0.827586 0.328125
vt 0.827586 0.343750
vt 0.844828 0.281250
vt 0.827586 0.296875
vt 0.844828 0.296875
vt 0.844828 0.312500
vt 0.844828 0.328125
vt 0.862069 0.296875
vt 0.862069 0.312500
vt 0.862069 0.328125
vt 0.844828 0.343750
vt 0.862069 0.343750
vt 0.879310 0.281250
vt 0.862069 0.281250
vt 0.879310 0.296875
vt 0.879310 0.312500
vt 0.879310 0.328125
vt 0.879310 0.343750
vt 0.896552 0.296875
vt 0.896552 0.312500
vt 0.896552 0.328125
vt 0.896552 0.562500
vt 0.793103 0.562500
vt 0.896552 0.281250
vt 0.896552 0.375000
vt 0.896552 0.343750
vt 0.793103 0.375000
vn -1.0000 0.0000 0.0000
vn 0.0000 0.0000 1.0000
vn 0.0000 0.0000 -1.0000
vn 1.0000 0.0000 0.0000
vn 0.0000 0.8944 -0.4472
vn -0.4472 0.8944 0.0000
vn 0.0000 0.8944 0.4472
vn 0.0000 1.0000 0.0000
vn 0.4082 0.8165 0.4082
vn 0.4472 0.8944 0.0000
vn -0.4082 0.8165 0.4082
vn 0.4082 0.8165 -0.4082
vn 0.0000 -1.0000 0.0000
vn -0.4082 0.8165 -0.4082
s off
f 11/1/1 6/2/1 8/3/1
f 12/4/1 2/5/1 4/6/1
f 9/7/1 3/8/1 1/9/1
f 10/10/1 7/11/1 5/12/1
f 6/2/1 12/4/1 4/6/1
f 5/12/1 2/5/1 10/10/1
f 7/11/1 9/7/1 1/9/1
f 8/3/1 3/8/1 11/1/1
f 11/13/2 16/14/2 12/15/2
f 10/10/3 13/16/3 9/7/3
f 13/16/4 16/14/4 15/17/4
f 65/18/5 40/19/5 30/20/5
f 31/21/6 45/22/6 19/23/6
f 50/24/7 26/25/7 45/22/7
f 55/26/8 27/27/8 50/24/8
f 55/26/8 60/28/8 28/29/8
f 60/28/6 65/18/6 29/30/6
f 17/31/8 21/32/8 35/33/8
f 35/33/9 41/34/9 34/35/9
f 42/36/10 33/37/10 34/35/10
f 33/37/11 44/38/11 32/39/11
f 32/39/11 44/38/11 45/22/11
f 22/40/9 41/34/9 21/32/9
f 41/34/7 47/41/7 42/36/7
f 42/36/9 47/41/9 43/42/9
f 43/42/10 48/43/10 49/44/10
f 23/45/8 46/46/8 22/40/8
f 51/47/10 47/41/10 46/46/10
f 47/41/10 52/48/10 53/49/10
f 48/43/9 53/49/9 49/44/9
f 50/24/11 44/38/11 49/44/11
f 23/45/8 56/50/8 51/47/8
f 56/50/10 52/48/10 51/47/10
f 52/48/10 57/51/10 53/49/10
f 58/52/5 54/53/5 53/49/5
f 54/53/5 59/54/5 60/28/5
f 25/55/10 56/50/10 24/56/10
f 56/50/10 61/57/10 57/51/10
f 62/58/5 58/52/5 57/51/5
f 63/59/5 59/54/5 58/52/5
f 59/54/12 64/60/12 65/18/12
f 25/55/12 36/61/12 61/57/12
f 61/57/12 36/61/12 37/62/12
f 37/62/8 63/59/8 62/58/8
f 63/59/5 38/63/5 64/60/5
f 64/60/12 40/19/12 65/18/12
f 13/16/13 11/64/13 9/65/13
f 55/26/6 49/44/6 54/53/6
f 35/33/9 21/32/9 41/34/9
f 36/61/8 25/55/8 18/66/8
f 30/20/10 40/19/10 20/67/10
f 64/60/10 38/63/10 39/68/10
f 57/51/5 61/57/5 62/58/5
f 47/41/10 41/34/10 46/46/10
f 43/42/8 47/41/8 48/43/8
f 34/35/8 41/34/8 42/36/8
f 45/22/8 31/21/8 32/39/8
f 19/23/7 45/22/7 26/25/7
f 28/29/14 60/28/14 29/30/14
f 29/30/7 65/18/7 30/20/7
f 65/18/8 60/28/8 59/54/8
f 53/49/5 57/51/5 58/52/5
f 53/49/7 48/43/7 47/41/7
f 60/28/6 55/26/6 54/53/6
f 49/44/7 44/38/7 43/42/7
f 49/44/8 53/49/8 54/53/8
f 37/62/8 62/58/8 61/57/8
f 56/50/12 23/45/12 24/56/12
f 11/1/1 12/4/1 6/2/1
f 12/4/1 10/10/1 2/5/1
f 9/7/1 11/1/1 3/8/1
f 10/10/1 9/7/1 7/11/1
f 11/13/2 15/17/2 16/14/2
f 10/10/3 14/69/3 13/16/3
f 13/16/4 14/69/4 16/14/4
f 50/24/7 27/27/7 26/25/7
f 55/26/8 28/29/8 27/27/8
f 42/36/10 43/42/10 33/37/10
f 33/37/8 43/42/8 44/38/8
f 22/40/8 46/46/8 41/34/8
f 23/45/8 51/47/8 46/46/8
f 51/47/10 52/48/10 47/41/10
f 50/24/11 45/22/11 44/38/11
f 56/50/10 57/51/10 52/48/10
f 58/52/5 59/54/5 54/53/5
f 25/55/10 61/57/10 56/50/10
f 62/58/5 63/59/5 58/52/5
f 63/59/5 64/60/5 59/54/5
f 37/62/14 38/63/14 63/59/14
f 64/60/8 39/68/8 40/19/8
f 13/16/13 15/17/13 11/64/13
f 55/26/6 50/24/6 49/44/6
