mtllib gascent.mtl
usemtl material
v 0.062500 0.000000 0.437500
v 0.437500 0.000000 0.437500
v 0.062500 0.000000 0.062500
v 0.437500 0.000000 0.062500
v 0.062500 0.062500 0.437500
v 0.437500 0.062500 0.437500
v 0.062500 0.062500 0.062500
v 0.437500 0.062500 0.062500
v 0.125000 0.062500 0.375000
v 0.375000 0.062500 0.375000
v 0.125000 0.062500 0.125000
v 0.375000 0.062500 0.125000
v 0.125000 0.125000 0.125000
v 0.125000 0.125000 0.375000
v 0.375000 0.125000 0.375000
v 0.375000 0.125000 0.125000
v 0.062500 0.125000 0.062500
v 0.062500 0.125000 0.437500
v 0.437500 0.125000 0.437500
v 0.437500 0.125000 0.062500
v 0.062500 0.625000 0.062500
v 0.062500 0.625000 0.437500
v 0.437500 0.625000 0.437500
v 0.437500 0.625000 0.062500
v 0.250000 0.625000 0.062500
v 0.156250 0.625000 0.087620
v 0.087620 0.625000 0.156250
v 0.062500 0.625000 0.250000
v 0.087620 0.625000 0.343750
v 0.156250 0.625000 0.412380
v 0.250000 0.625000 0.437500
v 0.343750 0.625000 0.412380
v 0.412380 0.625000 0.343750
v 0.437500 0.625000 0.250000
v 0.412380 0.625000 0.156250
v 0.343750 0.625000 0.087620
v 0.250000 3.875000 0.062500
v 0.156250 3.875000 0.087620
v 0.087620 3.875000 0.156250
v 0.062500 3.875000 0.250000
v 0.087620 3.875000 0.343750
v 0.156250 3.875000 0.412380
v 0.250000 3.875000 0.437500
v 0.343750 3.875000 0.412380
v 0.412380 3.875000 0.343750
v 0.437500 3.875000 0.250000
v 0.412380 3.875000 0.156250
v 0.343750 3.875000 0.087620
v 0.203125 3.937500 0.168810
v 0.250000 3.937500 0.156250
v 0.168810 3.937500 0.203125
v 0.156250 3.937500 0.250000
v 0.168810 3.937500 0.296875
v 0.203125 3.937500 0.331190
v 0.250000 3.937500 0.343750
v 0.296875 3.937500 0.331190
v 0.331190 3.937500 0.296875
v 0.343750 3.937500 0.250000
v 0.331190 3.937500 0.203125
v 0.296875 3.937500 0.168810
v 0.250000 3.937500 0.203125
v 0.209405 3.937500 0.226562
v 0.209405 3.937500 0.273438
v 0.250000 3.937500 0.296875
v 0.290595 3.937500 0.273438
v 0.290595 3.937500 0.226562
v 0.250000 4.000000 0.203125
v 0.209405 4.000000 0.226562
v 0.209405 4.000000 0.273438
v 0.250000 4.000000 0.296875
v 0.290595 4.000000 0.273438
v 0.290595 4.000000 0.226562
v 0.183709 3.968750 0.294194
v 0.205806 3.968750 0.316291
v 0.294194 3.968750 0.183709
v 0.316291 3.968750 0.205806
v 0.316291 3.968750 0.161612
v 0.161612 3.968750 0.316291
v 0.095320 3.968750 0.205806
v 0.205806 3.968750 0.095320
v 0.227903 3.968750 0.073223
v 0.073223 3.968750 0.227903
v 0.051126 3.906250 0.161612
v 0.161612 3.906250 0.051126
v 0.183709 3.906250 0.029029
v 0.029029 3.906250 0.183709
v 0.051126 0.562500 0.161612
v 0.161612 0.562500 0.051126
v 0.183709 0.562500 0.029029
v 0.029029 0.562500 0.183709
v 0.031250 0.562500 0.031250
v 0.031250 0.562500 0.281250
v 0.281250 0.562500 0.031250
v 0.031250 0.375000 0.031250
v 0.031250 0.375000 0.281250
v 0.281250 0.375000 0.031250
v 0.281250 0.562500 0.281250
v 0.281250 0.375000 0.281250
v -0.500000 1.000000 0.500000
v 0.500000 1.000000 0.500000
v -0.500000 1.000000 -0.500000
v 0.500000 1.000000 -0.500000
v -0.437500 1.000000 0.437500
v 0.437500 1.000000 0.437500
v -0.437500 1.000000 -0.437500
v 0.437500 1.000000 -0.437500
v -0.500000 0.875000 -0.500000
v -0.500000 0.875000 0.500000
v 0.500000 0.875000 0.500000
v 0.500000 0.875000 -0.500000
v -0.437500 0.875000 -0.437500
v -0.437500 0.875000 0.437500
v 0.437500 0.875000 0.437500
v 0.437500 0.875000 -0.437500
v 0.437500 0.000000 -0.437500
v 0.437500 0.000000 0.437500
v -0.437500 0.000000 0.437500
v -0.437500 0.000000 -0.437500
v 0.500000 0.000000 -0.500000
v 0.500000 0.000000 0.500000
v -0.500000 0.000000 0.500000
v -0.500000 0.000000 -0.500000
v 0.437500 0.125000 -0.437500
v -0.437500 0.125000 -0.437500
v 0.437500 0.125000 0.437500
v -0.437500 0.125000 0.437500
v 0.500000 0.125000 -0.500000
v -0.500000 0.125000 -0.500000
v 0.500000 0.125000 0.500000
v -0.500000 0.125000 0.500000
v -0.437500 0.875000 0.375000
v -0.437500 0.125000 0.375000
v -0.375000 0.875000 0.437500
v -0.375000 0.125000 0.437500
v -0.500000 0.875000 0.500000
v -0.437500 0.875000 0.437500
v -0.500000 0.125000 0.500000
v -0.437500 0.125000 0.437500
v -0.500000 0.875000 0.375000
v -0.500000 0.125000 0.375000
v -0.375000 0.875000 0.500000
v -0.375000 0.125000 0.500000
v 0.437500 0.875000 -0.375000
v 0.437500 0.125000 -0.375000
v 0.375000 0.875000 -0.437500
v 0.375000 0.125000 -0.437500
v 0.500000 0.875000 -0.500000
v 0.437500 0.875000 -0.437500
v 0.500000 0.125000 -0.500000
v 0.437500 0.125000 -0.437500
v 0.500000 0.875000 -0.375000
v 0.500000 0.125000 -0.375000
v 0.375000 0.875000 -0.500000
v 0.375000 0.125000 -0.500000
v 0.375000 0.875000 0.437500
v 0.375000 0.125000 0.437500
v 0.437500 0.875000 0.375000
v 0.437500 0.125000 0.375000
v 0.500000 0.875000 0.500000
v 0.437500 0.875000 0.437500
v 0.500000 0.125000 0.500000
v 0.437500 0.125000 0.437500
v 0.375000 0.875000 0.500000
v 0.375000 0.125000 0.500000
v 0.500000 0.875000 0.375000
v 0.500000 0.125000 0.375000
v -0.375000 0.875000 -0.437500
v -0.375000 0.125000 -0.437500
v -0.437500 0.875000 -0.375000
v -0.437500 0.125000 -0.375000
v -0.500000 0.875000 -0.500000
v -0.437500 0.875000 -0.437500
v -0.500000 0.125000 -0.500000
v -0.437500 0.125000 -0.437500
v -0.375000 0.875000 -0.500000
v -0.375000 0.125000 -0.500000
v -0.500000 0.875000 -0.375000
v -0.500000 0.125000 -0.375000
v 0.187500 0.687500 -0.437500
v -0.187500 0.312500 -0.437500
v -0.187500 0.687500 -0.437500
v 0.187500 0.312500 -0.437500
v 0.187500 0.687500 -0.500000
v -0.187500 0.312500 -0.500000
v -0.187500 0.687500 -0.500000
v 0.187500 0.312500 -0.500000
v -0.187500 0.687500 0.437500
v 0.187500 0.312500 0.437500
v 0.187500 0.687500 0.437500
v -0.187500 0.312500 0.437500
v -0.187500 0.687500 0.500000
v 0.187500 0.312500 0.500000
v 0.187500 0.687500 0.500000
v -0.187500 0.312500 0.500000
v -0.437500 0.687500 -0.187500
v -0.437500 0.312500 0.187500
v -0.437500 0.687500 0.187500
v -0.437500 0.312500 -0.187500
v -0.500000 0.687500 -0.187500
v -0.500000 0.312500 0.187500
v -0.500000 0.687500 0.187500
v -0.500000 0.312500 -0.187500
v 0.437500 0.750000 0.250000
v 0.437500 0.250000 -0.250000
v 0.437500 0.750000 -0.250000
v 0.437500 0.250000 0.250000
v 0.500000 0.687500 0.187500
v 0.500000 0.312500 -0.187500
v 0.500000 0.687500 -0.187500
v 0.500000 0.312500 0.187500
v 0.562500 0.750000 0.250000
v 0.562500 0.250000 -0.250000
v 0.562500 0.750000 -0.250000
v 0.562500 0.250000 0.250000
v 0.562500 0.687500 0.187500
v 0.562500 0.312500 -0.187500
v 0.562500 0.687500 -0.187500
v 0.562500 0.312500 0.187500
v -0.375000 0.812500 0.468750
v -0.375000 0.875000 0.468750
v -0.312500 0.875000 0.468750
v -0.187500 0.625000 0.468750
v -0.187500 0.687500 0.468750
v -0.125000 0.687500 0.468750
v 0.375000 0.187500 0.468750
v 0.375000 0.125000 0.468750
v 0.312500 0.125000 0.468750
v 0.187500 0.375000 0.468750
v 0.187500 0.312500 0.468750
v 0.125000 0.312500 0.468750
v 0.312500 0.875000 0.468750
v 0.375000 0.875000 0.468750
v 0.375000 0.812500 0.468750
v 0.125000 0.687500 0.468750
v 0.187500 0.687500 0.468750
v 0.187500 0.625000 0.468750
v -0.312500 0.125000 0.468750
v -0.375000 0.125000 0.468750
v -0.375000 0.187500 0.468750
v -0.125000 0.312500 0.468750
v -0.187500 0.312500 0.468750
v -0.187500 0.375000 0.468750
v 0.375000 0.812500 -0.468750
v 0.375000 0.875000 -0.468750
v 0.312500 0.875000 -0.468750
v 0.187500 0.625000 -0.468750
v 0.187500 0.687500 -0.468750
v 0.125000 0.687500 -0.468750
v -0.375000 0.187500 -0.468750
v -0.375000 0.125000 -0.468750
v -0.312500 0.125000 -0.468750
v -0.187500 0.375000 -0.468750
v -0.187500 0.312500 -0.468750
v -0.125000 0.312500 -0.468750
v -0.312500 0.875000 -0.468750
v -0.375000 0.875000 -0.468750
v -0.375000 0.812500 -0.468750
v -0.125000 0.687500 -0.468750
v -0.187500 0.687500 -0.468750
v -0.187500 0.625000 -0.468750
v 0.312500 0.125000 -0.468750
v 0.375000 0.125000 -0.468750
v 0.375000 0.187500 -0.468750
v 0.125000 0.312500 -0.468750
v 0.187500 0.312500 -0.468750
v 0.187500 0.375000 -0.468750
v 0.468750 0.812500 0.375000
v 0.468750 0.875000 0.375000
v 0.468750 0.875000 0.312500
v 0.468750 0.625000 0.187500
v 0.468750 0.687500 0.187500
v 0.468750 0.687500 0.125000
v 0.468750 0.187500 -0.375000
v 0.468750 0.125000 -0.375000
v 0.468750 0.125000 -0.312500
v 0.468750 0.375000 -0.187500
v 0.468750 0.312500 -0.187500
v 0.468750 0.312500 -0.125000
v 0.468750 0.875000 -0.312500
v 0.468750 0.875000 -0.375000
v 0.468750 0.812500 -0.375000
v 0.468750 0.687500 -0.125000
v 0.468750 0.687500 -0.187500
v 0.468750 0.625000 -0.187500
v 0.468750 0.125000 0.312500
v 0.468750 0.125000 0.375000
v 0.468750 0.187500 0.375000
v 0.468750 0.312500 0.125000
v 0.468750 0.312500 0.187500
v 0.468750 0.375000 0.187500
v -0.468750 0.812500 -0.375000
v -0.468750 0.875000 -0.375000
v -0.468750 0.875000 -0.312500
v -0.468750 0.625000 -0.187500
v -0.468750 0.687500 -0.187500
v -0.468750 0.687500 -0.125000
v -0.468750 0.187500 0.375000
v -0.468750 0.125000 0.375000
v -0.468750 0.125000 0.312500
v -0.468750 0.375000 0.187500
v -0.468750 0.312500 0.187500
v -0.468750 0.312500 0.125000
v -0.468750 0.875000 0.312500
v -0.468750 0.875000 0.375000
v -0.468750 0.812500 0.375000
v -0.468750 0.687500 0.125000
v -0.468750 0.687500 0.187500
v -0.468750 0.625000 0.187500
v -0.468750 0.125000 -0.312500
v -0.468750 0.125000 -0.375000
v -0.468750 0.187500 -0.375000
v -0.468750 0.312500 -0.125000
v -0.468750 0.312500 -0.187500
v -0.468750 0.375000 -0.187500
v 0.031250 0.562500 0.437500
v 0.031250 0.500000 0.437500
v -0.031250 0.562500 0.437500
v -0.031250 0.500000 0.437500
v 0.031250 0.562500 -0.437500
v 0.031250 0.500000 -0.437500
v -0.031250 0.562500 -0.437500
v -0.031250 0.500000 -0.437500
v -0.437500 0.625000 0.031250
v -0.437500 0.562500 0.031250
v -0.437500 0.625000 -0.031250
v -0.437500 0.562500 -0.031250
v 0.437500 0.625000 0.031250
v 0.437500 0.562500 0.031250
v 0.437500 0.625000 -0.031250
v 0.437500 0.562500 -0.031250
v -0.437500 0.500000 0.031250
v -0.437500 0.437500 0.031250
v -0.437500 0.500000 -0.031250
v -0.437500 0.437500 -0.031250
v 0.437500 0.500000 0.031250
v 0.437500 0.437500 0.031250
v 0.437500 0.500000 -0.031250
v 0.437500 0.437500 -0.031250
v 0.031250 0.437500 0.437500
v 0.031250 0.375000 0.437500
v -0.031250 0.437500 0.437500
v -0.031250 0.375000 0.437500
v 0.031250 0.437500 -0.437500
v 0.031250 0.375000 -0.437500
v -0.031250 0.437500 -0.437500
v -0.031250 0.375000 -0.437500
v 0.062500 0.000000 -0.062500
v 0.437500 0.000000 -0.062500
v 0.062500 0.000000 -0.437500
v 0.437500 0.000000 -0.437500
v 0.062500 0.062500 -0.062500
v 0.437500 0.062500 -0.062500
v 0.062500 0.062500 -0.437500
v 0.437500 0.062500 -0.437500
v 0.125000 0.062500 -0.125000
v 0.375000 0.062500 -0.125000
v 0.125000 0.062500 -0.375000
v 0.375000 0.062500 -0.375000
v 0.125000 0.125000 -0.375000
v 0.125000 0.125000 -0.125000
v 0.375000 0.125000 -0.125000
v 0.375000 0.125000 -0.375000
v 0.062500 0.125000 -0.437500
v 0.062500 0.125000 -0.062500
v 0.437500 0.125000 -0.062500
v 0.437500 0.125000 -0.437500
v 0.062500 0.625000 -0.437500
v 0.062500 0.625000 -0.062500
v 0.437500 0.625000 -0.062500
v 0.437500 0.625000 -0.437500
v 0.250000 0.625000 -0.437500
v 0.156250 0.625000 -0.412380
v 0.087620 0.625000 -0.343750
v 0.062500 0.625000 -0.250000
v 0.087620 0.625000 -0.156250
v 0.156250 0.625000 -0.087620
v 0.250000 0.625000 -0.062500
v 0.343750 0.625000 -0.087620
v 0.412380 0.625000 -0.156250
v 0.437500 0.625000 -0.250000
v 0.412380 0.625000 -0.343750
v 0.343750 0.625000 -0.412380
v 0.250000 3.875000 -0.437500
v 0.156250 3.875000 -0.412380
v 0.087620 3.875000 -0.343750
v 0.062500 3.875000 -0.250000
v 0.087620 3.875000 -0.156250
v 0.156250 3.875000 -0.087620
v 0.250000 3.875000 -0.062500
v 0.343750 3.875000 -0.087620
v 0.412380 3.875000 -0.156250
v 0.437500 3.875000 -0.250000
v 0.412380 3.875000 -0.343750
v 0.343750 3.875000 -0.412380
v 0.203125 3.937500 -0.331190
v 0.250000 3.937500 -0.343750
v 0.168810 3.937500 -0.296875
v 0.156250 3.937500 -0.250000
v 0.168810 3.937500 -0.203125
v 0.203125 3.937500 -0.168810
v 0.250000 3.937500 -0.156250
v 0.296875 3.937500 -0.168810
v 0.331190 3.937500 -0.203125
v 0.343750 3.937500 -0.250000
v 0.331190 3.937500 -0.296875
v 0.296875 3.937500 -0.331190
v 0.250000 3.937500 -0.296875
v 0.209405 3.937500 -0.273438
v 0.209405 3.937500 -0.226562
v 0.250000 3.937500 -0.203125
v 0.290595 3.937500 -0.226562
v 0.290595 3.937500 -0.273438
v 0.250000 4.000000 -0.296875
v 0.209405 4.000000 -0.273438
v 0.209405 4.000000 -0.226562
v 0.250000 4.000000 -0.203125
v 0.290595 4.000000 -0.226562
v 0.290595 4.000000 -0.273438
v 0.183709 3.968750 -0.205806
v 0.205806 3.968750 -0.183709
v 0.294194 3.968750 -0.316291
v 0.316291 3.968750 -0.294194
v 0.316291 3.968750 -0.338388
v 0.161612 3.968750 -0.183709
v 0.095320 3.968750 -0.294194
v 0.205806 3.968750 -0.404680
v 0.227903 3.968750 -0.426777
v 0.073223 3.968750 -0.272097
v 0.051126 3.906250 -0.338388
v 0.161612 3.906250 -0.448874
v 0.183709 3.906250 -0.470971
v 0.029029 3.906250 -0.316291
v 0.051126 0.562500 -0.338388
v 0.161612 0.562500 -0.448874
v 0.183709 0.562500 -0.470971
v 0.029029 0.562500 -0.316291
v 0.031250 0.562500 -0.468750
v 0.031250 0.562500 -0.218750
v 0.281250 0.562500 -0.468750
v 0.031250 0.375000 -0.468750
v 0.031250 0.375000 -0.218750
v 0.281250 0.375000 -0.468750
v 0.281250 0.562500 -0.218750
v 0.281250 0.375000 -0.218750
v -0.437500 0.000000 -0.062500
v -0.062500 0.000000 -0.062500
v -0.437500 0.000000 -0.437500
v -0.062500 0.000000 -0.437500
v -0.437500 0.062500 -0.062500
v -0.062500 0.062500 -0.062500
v -0.437500 0.062500 -0.437500
v -0.062500 0.062500 -0.437500
v -0.375000 0.062500 -0.125000
v -0.125000 0.062500 -0.125000
v -0.375000 0.062500 -0.375000
v -0.125000 0.062500 -0.375000
v -0.375000 0.125000 -0.375000
v -0.375000 0.125000 -0.125000
v -0.125000 0.125000 -0.125000
v -0.125000 0.125000 -0.375000
v -0.437500 0.125000 -0.437500
v -0.437500 0.125000 -0.062500
v -0.062500 0.125000 -0.062500
v -0.062500 0.125000 -0.437500
v -0.437500 0.625000 -0.437500
v -0.437500 0.625000 -0.062500
v -0.062500 0.625000 -0.062500
v -0.062500 0.625000 -0.437500
v -0.250000 0.625000 -0.437500
v -0.343750 0.625000 -0.412380
v -0.412380 0.625000 -0.343750
v -0.437500 0.625000 -0.250000
v -0.412380 0.625000 -0.156250
v -0.343750 0.625000 -0.087620
v -0.250000 0.625000 -0.062500
v -0.156250 0.625000 -0.087620
v -0.087620 0.625000 -0.156250
v -0.062500 0.625000 -0.250000
v -0.087620 0.625000 -0.343750
v -0.156250 0.625000 -0.412380
v -0.250000 3.875000 -0.437500
v -0.343750 3.875000 -0.412380
v -0.412380 3.875000 -0.343750
v -0.437500 3.875000 -0.250000
v -0.412380 3.875000 -0.156250
v -0.343750 3.875000 -0.087620
v -0.250000 3.875000 -0.062500
v -0.156250 3.875000 -0.087620
v -0.087620 3.875000 -0.156250
v -0.062500 3.875000 -0.250000
v -0.087620 3.875000 -0.343750
v -0.156250 3.875000 -0.412380
v -0.296875 3.937500 -0.331190
v -0.250000 3.937500 -0.343750
v -0.331190 3.937500 -0.296875
v -0.343750 3.937500 -0.250000
v -0.331190 3.937500 -0.203125
v -0.296875 3.937500 -0.168810
v -0.250000 3.937500 -0.156250
v -0.203125 3.937500 -0.168810
v -0.168810 3.937500 -0.203125
v -0.156250 3.937500 -0.250000
v -0.168810 3.937500 -0.296875
v -0.203125 3.937500 -0.331190
v -0.250000 3.937500 -0.296875
v -0.290595 3.937500 -0.273438
v -0.290595 3.937500 -0.226562
v -0.250000 3.937500 -0.203125
v -0.209405 3.937500 -0.226562
v -0.209405 3.937500 -0.273438
v -0.250000 4.000000 -0.296875
v -0.290595 4.000000 -0.273438
v -0.290595 4.000000 -0.226562
v -0.250000 4.000000 -0.203125
v -0.209405 4.000000 -0.226562
v -0.209405 4.000000 -0.273438
v -0.316291 3.968750 -0.205806
v -0.294194 3.968750 -0.183709
v -0.205806 3.968750 -0.316291
v -0.183709 3.968750 -0.294194
v -0.183709 3.968750 -0.338388
v -0.338388 3.968750 -0.183709
v -0.404680 3.968750 -0.294194
v -0.294194 3.968750 -0.404680
v -0.272097 3.968750 -0.426777
v -0.426777 3.968750 -0.272097
v -0.448874 3.906250 -0.338388
v -0.338388 3.906250 -0.448874
v -0.316291 3.906250 -0.470971
v -0.470971 3.906250 -0.316291
v -0.448874 0.562500 -0.338388
v -0.338388 0.562500 -0.448874
v -0.316291 0.562500 -0.470971
v -0.470971 0.562500 -0.316291
v -0.468750 0.562500 -0.468750
v -0.468750 0.562500 -0.218750
v -0.218750 0.562500 -0.468750
v -0.468750 0.375000 -0.468750
v -0.468750 0.375000 -0.218750
v -0.218750 0.375000 -0.468750
v -0.218750 0.562500 -0.218750
v -0.218750 0.375000 -0.218750
v -0.437500 0.000000 0.437500
v -0.062500 0.000000 0.437500
v -0.437500 0.000000 0.062500
v -0.062500 0.000000 0.062500
v -0.437500 0.062500 0.437500
v -0.062500 0.062500 0.437500
v -0.437500 0.062500 0.062500
v -0.062500 0.062500 0.062500
v -0.375000 0.062500 0.375000
v -0.125000 0.062500 0.375000
v -0.375000 0.062500 0.125000
v -0.125000 0.062500 0.125000
v -0.375000 0.125000 0.125000
v -0.375000 0.125000 0.375000
v -0.125000 0.125000 0.375000
v -0.125000 0.125000 0.125000
v -0.437500 0.125000 0.062500
v -0.437500 0.125000 0.437500
v -0.062500 0.125000 0.437500
v -0.062500 0.125000 0.062500
v -0.437500 0.625000 0.062500
v -0.437500 0.625000 0.437500
v -0.062500 0.625000 0.437500
v -0.062500 0.625000 0.062500
v -0.250000 0.625000 0.062500
v -0.343750 0.625000 0.087620
v -0.412380 0.625000 0.156250
v -0.437500 0.625000 0.250000
v -0.412380 0.625000 0.343750
v -0.343750 0.625000 0.412380
v -0.250000 0.625000 0.437500
v -0.156250 0.625000 0.412380
v -0.087620 0.625000 0.343750
v -0.062500 0.625000 0.250000
v -0.087620 0.625000 0.156250
v -0.156250 0.625000 0.087620
v -0.250000 3.875000 0.062500
v -0.343750 3.875000 0.087620
v -0.412380 3.875000 0.156250
v -0.437500 3.875000 0.250000
v -0.412380 3.875000 0.343750
v -0.343750 3.875000 0.412380
v -0.250000 3.875000 0.437500
v -0.156250 3.875000 0.412380
v -0.087620 3.875000 0.343750
v -0.062500 3.875000 0.250000
v -0.087620 3.875000 0.156250
v -0.156250 3.875000 0.087620
v -0.296875 3.937500 0.168810
v -0.250000 3.937500 0.156250
v -0.331190 3.937500 0.203125
v -0.343750 3.937500 0.250000
v -0.331190 3.937500 0.296875
v -0.296875 3.937500 0.331190
v -0.250000 3.937500 0.343750
v -0.203125 3.937500 0.331190
v -0.168810 3.937500 0.296875
v -0.156250 3.937500 0.250000
v -0.168810 3.937500 0.203125
v -0.203125 3.937500 0.168810
v -0.250000 3.937500 0.203125
v -0.290595 3.937500 0.226562
v -0.290595 3.937500 0.273438
v -0.250000 3.937500 0.296875
v -0.209405 3.937500 0.273438
v -0.209405 3.937500 0.226562
v -0.250000 4.000000 0.203125
v -0.290595 4.000000 0.226562
v -0.290595 4.000000 0.273438
v -0.250000 4.000000 0.296875
v -0.209405 4.000000 0.273438
v -0.209405 4.000000 0.226562
v -0.316291 3.968750 0.294194
v -0.294194 3.968750 0.316291
v -0.205806 3.968750 0.183709
v -0.183709 3.968750 0.205806
v -0.183709 3.968750 0.161612
v -0.338388 3.968750 0.316291
v -0.404680 3.968750 0.205806
v -0.294194 3.968750 0.095320
v -0.272097 3.968750 0.073223
v -0.426777 3.968750 0.227903
v -0.448874 3.906250 0.161612
v -0.338388 3.906250 0.051126
v -0.316291 3.906250 0.029029
v -0.470971 3.906250 0.183709
v -0.448874 0.562500 0.161612
v -0.338388 0.562500 0.051126
v -0.316291 0.562500 0.029029
v -0.470971 0.562500 0.183709
v -0.468750 0.562500 0.031250
v -0.468750 0.562500 0.281250
v -0.218750 0.562500 0.031250
v -0.468750 0.375000 0.031250
v -0.468750 0.375000 0.281250
v -0.218750 0.375000 0.031250
v -0.218750 0.562500 0.281250
v -0.218750 0.375000 0.281250
v 0.250000 3.875000 0.062500
v 0.156250 3.875000 0.087620
v 0.087620 3.875000 0.156250
v 0.062500 3.875000 0.250000
v 0.087620 3.875000 0.343750
v 0.156250 3.875000 0.412380
v 0.250000 3.875000 0.437500
v 0.343750 3.875000 0.412380
v 0.412380 3.875000 0.343750
v 0.437500 3.875000 0.250000
v 0.412380 3.875000 0.156250
v 0.343750 3.875000 0.087620
v 0.203125 3.937500 0.168810
v 0.250000 3.937500 0.156250
v 0.168810 3.937500 0.203125
v 0.156250 3.937500 0.250000
v 0.168810 3.937500 0.296875
v 0.203125 3.937500 0.331190
v 0.250000 3.937500 0.343750
v 0.296875 3.937500 0.331190
v 0.331190 3.937500 0.296875
v 0.343750 3.937500 0.250000
v 0.331190 3.937500 0.203125
v 0.296875 3.937500 0.168810
v 0.250000 3.875000 -0.437500
v 0.156250 3.875000 -0.412380
v 0.087620 3.875000 -0.343750
v 0.062500 3.875000 -0.250000
v 0.087620 3.875000 -0.156250
v 0.156250 3.875000 -0.087620
v 0.250000 3.875000 -0.062500
v 0.343750 3.875000 -0.087620
v 0.412380 3.875000 -0.156250
v 0.437500 3.875000 -0.250000
v 0.412380 3.875000 -0.343750
v 0.343750 3.875000 -0.412380
v 0.203125 3.937500 -0.331190
v 0.250000 3.937500 -0.343750
v 0.168810 3.937500 -0.296875
v 0.156250 3.937500 -0.250000
v 0.168810 3.937500 -0.203125
v 0.203125 3.937500 -0.168810
v 0.250000 3.937500 -0.156250
v 0.296875 3.937500 -0.168810
v 0.331190 3.937500 -0.203125
v 0.343750 3.937500 -0.250000
v 0.331190 3.937500 -0.296875
v 0.296875 3.937500 -0.331190
v -0.250000 3.875000 -0.437500
v -0.343750 3.875000 -0.412380
v -0.412380 3.875000 -0.343750
v -0.437500 3.875000 -0.250000
v -0.412380 3.875000 -0.156250
v -0.343750 3.875000 -0.087620
v -0.250000 3.875000 -0.062500
v -0.156250 3.875000 -0.087620
v -0.087620 3.875000 -0.156250
v -0.062500 3.875000 -0.250000
v -0.087620 3.875000 -0.343750
v -0.156250 3.875000 -0.412380
v -0.296875 3.937500 -0.331190
v -0.250000 3.937500 -0.343750
v -0.331190 3.937500 -0.296875
v -0.343750 3.937500 -0.250000
v -0.331190 3.937500 -0.203125
v -0.296875 3.937500 -0.168810
v -0.250000 3.937500 -0.156250
v -0.203125 3.937500 -0.168810
v -0.168810 3.937500 -0.203125
v -0.156250 3.937500 -0.250000
v -0.168810 3.937500 -0.296875
v -0.203125 3.937500 -0.331190
v -0.250000 3.875000 0.062500
v -0.343750 3.875000 0.087620
v -0.412380 3.875000 0.156250
v -0.437500 3.875000 0.250000
v -0.412380 3.875000 0.343750
v -0.343750 3.875000 0.412380
v -0.250000 3.875000 0.437500
v -0.156250 3.875000 0.412380
v -0.087620 3.875000 0.343750
v -0.062500 3.875000 0.250000
v -0.087620 3.875000 0.156250
v -0.156250 3.875000 0.087620
v -0.296875 3.937500 0.168810
v -0.250000 3.937500 0.156250
v -0.331190 3.937500 0.203125
v -0.343750 3.937500 0.250000
v -0.331190 3.937500 0.296875
v -0.296875 3.937500 0.331190
v -0.250000 3.937500 0.343750
v -0.203125 3.937500 0.331190
v -0.168810 3.937500 0.296875
v -0.156250 3.937500 0.250000
v -0.168810 3.937500 0.203125
v -0.203125 3.937500 0.168810
vt 0.538462 0.084507
vt 0.446154 0.169014
vt 0.446154 0.084507
vt 0.630769 0.183099
vt 0.523077 0.197183
vt 0.538462 0.183099
vt 0.723077 0.169014
vt 0.630769 0.169014
vt 0.538462 0.169014
vt 0.815385 0.169014
vt 0.723077 0.183099
vt 0.446154 0.183099
vt 0.461538 0.211268
vt 0.461538 0.197183
vt 0.815385 0.183099
vt 0.738462 0.197183
vt 0.646154 0.197183
vt 0.523077 0.211268
vt 0.446154 0.225352
vt 0.707692 0.197183
vt 0.646154 0.211268
vt 0.615385 0.197183
vt 0.553846 0.211268
vt 0.553846 0.197183
vt 0.800000 0.197183
vt 0.738462 0.211268
vt 0.630769 0.225352
vt 0.538462 0.338028
vt 0.538462 0.225352
vt 0.707692 0.211268
vt 0.615385 0.211268
vt 0.800000 0.211268
vt 0.723077 0.225352
vt 0.446154 0.338028
vt 0.538462 0.422535
vt 0.446154 0.422535
vt 0.815385 0.225352
vt 0.723077 0.338028
vt 0.630769 0.338028
vt 0.083589 0.851173
vt 0.122418 0.860698
vt 0.093993 0.886721
vt 0.492308 0.422535
vt 0.476923 0.436620
vt 0.476923 0.422535
vt 0.461538 0.422535
vt 0.446154 0.436620
vt 0.446154 0.422535
vt 0.523077 0.422535
vt 0.507692 0.436620
vt 0.507692 0.422535
vt 0.461538 0.436620
vt 0.538462 0.422535
vt 0.523077 0.436620
vt 0.492308 0.436620
vt 0.454038 0.462598
vt 0.454038 0.438811
vt 0.476540 0.450704
vt 0.061538 0.887324
vt 0.015385 0.901408
vt 0.015385 0.887324
vt 0.061538 0.901408
vt 0.076923 0.887324
vt -0.000000 0.887324
vt 0.076923 0.859155
vt 0.015385 0.859155
vt 0.061538 0.845070
vt 0.076923 0.845070
vt 0.000000 0.859155
vt 0.015385 0.845070
vt 0.076923 0.084507
vt 0.000000 0.845070
vt 0.015385 0.084507
vt 0.538462 0.394366
vt 0.600000 0.436620
vt 0.538462 0.436620
vt 0.600000 0.394366
vt 0.661538 0.436620
vt 0.784615 0.436620
vt 0.723077 0.394366
vt 0.784615 0.394366
vt 0.600000 0.338028
vt 0.538462 0.492958
vt 0.600000 0.492958
vt 0.661538 0.394366
vt 0.723077 0.436620
vt 0.476923 0.056338
vt 0.246154 0.042254
vt 0.492308 0.042254
vt 0.969231 0.056338
vt 0.738462 0.042254
vt 0.984615 0.042254
vt 0.230769 0.056338
vt 0.000000 0.042254
vt 0.723077 0.056338
vt 0.246154 0.014085
vt 0.476923 -0.000000
vt 0.492308 0.014085
vt 0.738462 0.014085
vt 0.969231 -0.000000
vt 0.984615 0.014085
vt 0.000000 0.014085
vt 0.230769 -0.000000
vt 0.723077 -0.000000
vt 0.261538 0.084507
vt 0.261538 0.056338
vt 0.753846 0.084507
vt 0.753846 0.056338
vt 0.015385 0.084507
vt 0.015385 0.056338
vt 0.507692 0.084507
vt 0.507692 0.056338
vt 0.492308 0.042254
vt 0.738462 0.014085
vt 0.738462 0.042254
vt 0.000000 0.042254
vt 0.246154 0.014085
vt 0.246154 0.042254
vt 0.723077 0.056338
vt 0.507692 0.084507
vt 0.507692 0.056338
vt 0.230769 0.056338
vt 0.015385 0.084507
vt 0.015385 0.056338
vt 0.984615 0.014085
vt 0.984615 0.042254
vt 0.492308 0.014085
vt 0.969231 0.056338
vt 0.753846 0.084507
vt 0.753846 0.056338
vt 0.476923 0.056338
vt 0.261538 0.084507
vt 0.261538 0.056338
vt 0.723077 0.000000
vt 0.000000 0.014085
vt 0.230769 0.000000
vt 0.969231 0.000000
vt 0.476923 0.000000
vt 0.923077 0.253521
vt 0.907692 0.084507
vt 0.923077 0.084507
vt 0.938462 0.084507
vt 0.938462 0.253521
vt 0.830769 0.084507
vt 0.815385 0.253521
vt 0.815385 0.084507
vt 0.846154 0.253521
vt 0.830769 0.253521
vt 0.876923 0.253521
vt 0.907692 0.253521
vt 0.876923 0.084507
vt 0.923077 0.253521
vt 0.907692 0.084507
vt 0.923077 0.084507
vt 0.938462 0.084507
vt 0.938462 0.253521
vt 0.830769 0.084507
vt 0.815385 0.253521
vt 0.815385 0.084507
vt 0.846154 0.253521
vt 0.830769 0.253521
vt 0.876923 0.253521
vt 0.907692 0.253521
vt 0.876923 0.084507
vt 0.923077 0.253521
vt 0.907692 0.084507
vt 0.923077 0.084507
vt 0.938462 0.084507
vt 0.938462 0.253521
vt 0.830769 0.084507
vt 0.815385 0.253521
vt 0.815385 0.084507
vt 0.846154 0.253521
vt 0.830769 0.253521
vt 0.876923 0.253521
vt 0.907692 0.253521
vt 0.876923 0.084507
vt 0.923077 0.253521
vt 0.907692 0.084507
vt 0.923077 0.084507
vt 0.938462 0.084507
vt 0.938462 0.253521
vt 0.830769 0.084507
vt 0.815385 0.253521
vt 0.815385 0.084507
vt 0.846154 0.253521
vt 0.830769 0.253521
vt 0.876923 0.253521
vt 0.907692 0.253521
vt 0.876923 0.084507
vt 0.923077 0.478873
vt 0.830769 0.394366
vt 0.923077 0.394366
vt 0.830769 0.380282
vt 0.923077 0.295775
vt 0.923077 0.380282
vt 0.938462 0.380282
vt 0.938462 0.295775
vt 0.815385 0.295775
vt 0.815385 0.380282
vt 0.923077 0.281690
vt 0.830769 0.295775
vt 0.830769 0.281690
vt 0.923077 0.478873
vt 0.830769 0.394366
vt 0.923077 0.394366
vt 0.830769 0.380282
vt 0.923077 0.295775
vt 0.923077 0.380282
vt 0.938462 0.380282
vt 0.938462 0.295775
vt 0.815385 0.295775
vt 0.815385 0.380282
vt 0.923077 0.281690
vt 0.830769 0.295775
vt 0.830769 0.281690
vt 0.923077 0.478873
vt 0.830769 0.394366
vt 0.923077 0.394366
vt 0.830769 0.380282
vt 0.923077 0.295775
vt 0.923077 0.380282
vt 0.938462 0.380282
vt 0.938462 0.295775
vt 0.815385 0.295775
vt 0.815385 0.380282
vt 0.923077 0.281690
vt 0.830769 0.295775
vt 0.830769 0.281690
vt 0.661538 0.535211
vt 0.784615 0.647887
vt 0.661538 0.647887
vt 0.507692 0.633803
vt 0.600000 0.549296
vt 0.600000 0.633803
vt 0.615385 0.492958
vt 0.492308 0.521127
vt 0.492308 0.492958
vt 0.492308 0.661972
vt 0.615385 0.690141
vt 0.492308 0.690141
vt 0.446154 0.535211
vt 0.476923 0.647887
vt 0.446154 0.647887
vt 0.630769 0.535211
vt 0.507692 0.549296
vt 0.600000 0.535211
vt 0.507692 0.647887
vt 0.492308 0.633803
vt 0.615385 0.633803
vt 0.615385 0.661972
vt 0.630769 0.647887
vt 0.615385 0.521127
vt 0.476923 0.535211
vt 0.876923 0.267606
vt 0.830769 0.281690
vt 0.815385 0.267606
vt 0.830769 0.253521
vt 0.876923 0.267606
vt 0.830769 0.281690
vt 0.815385 0.267606
vt 0.830769 0.253521
vt 0.876923 0.267606
vt 0.830769 0.281690
vt 0.815385 0.267606
vt 0.830769 0.253521
vt 0.876923 0.267606
vt 0.830769 0.281690
vt 0.815385 0.267606
vt 0.830769 0.253521
vt 0.876923 0.267606
vt 0.830769 0.281690
vt 0.815385 0.267606
vt 0.830769 0.253521
vt 0.876923 0.267606
vt 0.830769 0.281690
vt 0.815385 0.267606
vt 0.830769 0.253521
vt 0.876923 0.267606
vt 0.830769 0.281690
vt 0.815385 0.267606
vt 0.830769 0.253521
vt 0.876923 0.267606
vt 0.830769 0.281690
vt 0.815385 0.267606
vt 0.830769 0.253521
vt 0.876923 0.267606
vt 0.830769 0.281690
vt 0.815385 0.267606
vt 0.830769 0.253521
vt 0.876923 0.267606
vt 0.830769 0.281690
vt 0.815385 0.267606
vt 0.830769 0.253521
vt 0.876923 0.267606
vt 0.830769 0.281690
vt 0.815385 0.267606
vt 0.830769 0.253521
vt 0.876923 0.267606
vt 0.830769 0.281690
vt 0.815385 0.267606
vt 0.830769 0.253521
vt 0.876923 0.267606
vt 0.830769 0.281690
vt 0.815385 0.267606
vt 0.830769 0.253521
vt 0.876923 0.267606
vt 0.830769 0.281690
vt 0.815385 0.267606
vt 0.830769 0.253521
vt 0.876923 0.267606
vt 0.830769 0.281690
vt 0.815385 0.267606
vt 0.830769 0.253521
vt 0.876923 0.267606
vt 0.830769 0.281690
vt 0.815385 0.267606
vt 0.830769 0.253521
vt 0.969231 0.084507
vt 0.984615 0.281690
vt 0.969231 0.281690
vt 0.938462 0.084507
vt 0.953846 0.281690
vt 0.938462 0.281690
vt 0.984615 0.084507
vt 1.000000 0.281690
vt 0.953846 0.084507
vt 0.984615 0.084507
vt 1.000000 0.281690
vt 0.984615 0.281690
vt 0.953846 0.084507
vt 0.969231 0.281690
vt 0.953846 0.281690
vt 0.938462 0.084507
vt 0.938462 0.281690
vt 0.969231 0.084507
vt 0.984615 0.084507
vt 1.000000 0.281690
vt 0.984615 0.281690
vt 0.953846 0.084507
vt 0.969231 0.281690
vt 0.953846 0.281690
vt 0.938462 0.084507
vt 0.938462 0.281690
vt 0.969231 0.084507
vt 0.969231 0.084507
vt 0.984615 0.281690
vt 0.969231 0.281690
vt 0.938462 0.084507
vt 0.953846 0.281690
vt 0.938462 0.281690
vt 0.984615 0.084507
vt 1.000000 0.281690
vt 0.953846 0.084507
vt 0.538462 0.084507
vt 0.446154 0.169014
vt 0.446154 0.084507
vt 0.630769 0.183099
vt 0.523077 0.197183
vt 0.538462 0.183099
vt 0.723077 0.169014
vt 0.630769 0.169014
vt 0.815385 0.169014
vt 0.723077 0.183099
vt 0.461538 0.211268
vt 0.461538 0.197183
vt 0.815385 0.183099
vt 0.738462 0.197183
vt 0.446154 0.183099
vt 0.646154 0.197183
vt 0.523077 0.211268
vt 0.446154 0.225352
vt 0.707692 0.197183
vt 0.646154 0.211268
vt 0.615385 0.197183
vt 0.553846 0.211268
vt 0.553846 0.197183
vt 0.800000 0.197183
vt 0.738462 0.211268
vt 0.630769 0.225352
vt 0.538462 0.338028
vt 0.538462 0.225352
vt 0.707692 0.211268
vt 0.615385 0.211268
vt 0.800000 0.211268
vt 0.723077 0.225352
vt 0.446154 0.338028
vt 0.538462 0.422535
vt 0.446154 0.422535
vt 0.815385 0.225352
vt 0.723077 0.338028
vt 0.630769 0.338028
vt 0.083589 0.851173
vt 0.122418 0.860698
vt 0.093993 0.886721
vt 0.492308 0.422535
vt 0.476923 0.436620
vt 0.476923 0.422535
vt 0.461538 0.422535
vt 0.446154 0.436620
vt 0.446154 0.422535
vt 0.523077 0.422535
vt 0.507692 0.436620
vt 0.507692 0.422535
vt 0.461538 0.436620
vt 0.538462 0.422535
vt 0.523077 0.436620
vt 0.492308 0.436620
vt 0.454038 0.462598
vt 0.454038 0.438811
vt 0.476540 0.450704
vt 0.061538 0.887324
vt 0.015385 0.901408
vt 0.015385 0.887324
vt 0.061538 0.901408
vt 0.076923 0.887324
vt -0.000000 0.887324
vt 0.076923 0.859155
vt 0.015385 0.859155
vt 0.061538 0.859155
vt 0.076923 0.845070
vt 0.000000 0.859155
vt 0.015385 0.845070
vt 0.061538 0.845070
vt 0.076923 0.084507
vt 0.000000 0.845070
vt 0.015385 0.084507
vt 0.538462 0.394366
vt 0.600000 0.436620
vt 0.538462 0.436620
vt 0.600000 0.394366
vt 0.661538 0.436620
vt 0.784615 0.436620
vt 0.723077 0.394366
vt 0.784615 0.394366
vt 0.600000 0.338028
vt 0.538462 0.492958
vt 0.600000 0.492958
vt 0.661538 0.394366
vt 0.723077 0.436620
vt 0.538462 0.084507
vt 0.446154 0.169014
vt 0.446154 0.084507
vt 0.630769 0.183099
vt 0.523077 0.197183
vt 0.538462 0.183099
vt 0.815385 0.169014
vt 0.723077 0.183099
vt 0.723077 0.169014
vt 0.538462 0.169014
vt 0.446154 0.183099
vt 0.461538 0.211268
vt 0.461538 0.197183
vt 0.815385 0.183099
vt 0.738462 0.197183
vt 0.646154 0.197183
vt 0.523077 0.211268
vt 0.446154 0.225352
vt 0.707692 0.197183
vt 0.646154 0.211268
vt 0.615385 0.197183
vt 0.553846 0.211268
vt 0.553846 0.197183
vt 0.800000 0.197183
vt 0.738462 0.211268
vt 0.630769 0.225352
vt 0.538462 0.338028
vt 0.538462 0.225352
vt 0.707692 0.211268
vt 0.615385 0.211268
vt 0.800000 0.211268
vt 0.723077 0.225352
vt 0.446154 0.338028
vt 0.538462 0.422535
vt 0.446154 0.422535
vt 0.815385 0.225352
vt 0.723077 0.338028
vt 0.630769 0.338028
vt 0.083589 0.851173
vt 0.122418 0.860698
vt 0.093993 0.886721
vt 0.492308 0.422535
vt 0.476923 0.436620
vt 0.476923 0.422535
vt 0.461538 0.422535
vt 0.446154 0.436620
vt 0.446154 0.422535
vt 0.523077 0.422535
vt 0.507692 0.436620
vt 0.507692 0.422535
vt 0.461538 0.436620
vt 0.538462 0.422535
vt 0.523077 0.436620
vt 0.492308 0.436620
vt 0.454038 0.462598
vt 0.454038 0.438811
vt 0.476540 0.450704
vt 0.061538 0.887324
vt 0.015385 0.901408
vt 0.015385 0.887324
vt 0.061538 0.901408
vt 0.076923 0.887324
vt -0.000000 0.887324
vt 0.076923 0.859155
vt 0.015385 0.859155
vt 0.061538 0.859155
vt 0.076923 0.845070
vt 0.000000 0.859155
vt 0.015385 0.845070
vt 0.061538 0.845070
vt 0.076923 0.084507
vt 0.000000 0.845070
vt 0.015385 0.084507
vt 0.538462 0.394366
vt 0.600000 0.436620
vt 0.538462 0.436620
vt 0.600000 0.394366
vt 0.661538 0.436620
vt 0.784615 0.436620
vt 0.723077 0.394366
vt 0.784615 0.394366
vt 0.600000 0.338028
vt 0.538462 0.492958
vt 0.600000 0.492958
vt 0.661538 0.394366
vt 0.723077 0.436620
vt 0.538462 0.084507
vt 0.446154 0.169014
vt 0.446154 0.084507
vt 0.630769 0.183099
vt 0.523077 0.197183
vt 0.538462 0.183099
vt 0.630769 0.169014
vt 0.538462 0.169014
vt 0.446154 0.183099
vt 0.461538 0.211268
vt 0.461538 0.197183
vt 0.815385 0.183099
vt 0.738462 0.197183
vt 0.723077 0.183099
vt 0.646154 0.197183
vt 0.523077 0.211268
vt 0.446154 0.225352
vt 0.707692 0.197183
vt 0.646154 0.211268
vt 0.615385 0.197183
vt 0.553846 0.211268
vt 0.553846 0.197183
vt 0.800000 0.197183
vt 0.738462 0.211268
vt 0.630769 0.225352
vt 0.538462 0.338028
vt 0.538462 0.225352
vt 0.707692 0.211268
vt 0.615385 0.211268
vt 0.800000 0.211268
vt 0.723077 0.225352
vt 0.446154 0.338028
vt 0.538462 0.422535
vt 0.446154 0.422535
vt 0.815385 0.225352
vt 0.723077 0.338028
vt 0.630769 0.338028
vt 0.083589 0.851173
vt 0.122418 0.860698
vt 0.093993 0.886721
vt 0.492308 0.422535
vt 0.476923 0.436620
vt 0.476923 0.422535
vt 0.461538 0.422535
vt 0.446154 0.436620
vt 0.446154 0.422535
vt 0.523077 0.422535
vt 0.507692 0.436620
vt 0.507692 0.422535
vt 0.461538 0.436620
vt 0.538462 0.422535
vt 0.523077 0.436620
vt 0.492308 0.436620
vt 0.454038 0.462598
vt 0.454038 0.438811
vt 0.476540 0.450704
vt 0.061538 0.887324
vt 0.015385 0.901408
vt 0.015385 0.887324
vt 0.061538 0.901408
vt 0.076923 0.887324
vt -0.000000 0.887324
vt 0.076923 0.859155
vt 0.015385 0.859155
vt 0.061538 0.859155
vt 0.076923 0.845070
vt 0.000000 0.859155
vt 0.015385 0.845070
vt 0.061538 0.845070
vt 0.076923 0.084507
vt 0.000000 0.845070
vt 0.015385 0.084507
vt 0.538462 0.394366
vt 0.600000 0.436620
vt 0.538462 0.436620
vt 0.600000 0.394366
vt 0.661538 0.436620
vt 0.784615 0.436620
vt 0.723077 0.394366
vt 0.784615 0.394366
vt 0.600000 0.338028
vt 0.538462 0.492958
vt 0.600000 0.492958
vt 0.661538 0.394366
vt 0.723077 0.436620
vt 0.815385 0.338028
vt 0.083589 0.881222
vt 0.077582 0.871697
vt 0.077582 0.860698
vt 0.093993 0.845673
vt 0.106007 0.845673
vt 0.116411 0.851173
vt 0.122418 0.871697
vt 0.116411 0.881222
vt 0.106007 0.886721
vt 0.538462 0.436620
vt 0.469039 0.462598
vt 0.446537 0.450704
vt 0.469039 0.438811
vt 0.061538 0.859155
vt 0.061538 0.084507
vt 0.000000 0.084507
vt 0.538462 0.338028
vt 0.261538 -0.000000
vt 0.753846 -0.000000
vt 0.015385 -0.000000
vt 0.507692 -0.000000
vt 0.476923 0.084507
vt 0.969231 0.084507
vt 0.230769 0.084507
vt 0.723077 0.084507
vt 0.723077 0.084507
vt 0.230769 0.084507
vt 0.969231 0.084507
vt 0.476923 0.084507
vt 0.507692 0.000000
vt 0.015385 0.000000
vt 0.753846 0.000000
vt 0.261538 0.000000
vt 0.846154 0.084507
vt 0.846154 0.084507
vt 0.846154 0.084507
vt 0.846154 0.084507
vt 0.830769 0.478873
vt 0.830769 0.478873
vt 0.830769 0.478873
vt 0.784615 0.535211
vt 0.507692 0.535211
vt 0.600000 0.647887
vt 0.492308 0.549296
vt 0.615385 0.549296
vt 0.892308 0.281690
vt 0.892308 0.253521
vt 0.892308 0.281690
vt 0.892308 0.253521
vt 0.892308 0.281690
vt 0.892308 0.253521
vt 0.892308 0.281690
vt 0.892308 0.253521
vt 0.892308 0.281690
vt 0.892308 0.253521
vt 0.892308 0.281690
vt 0.892308 0.253521
vt 0.892308 0.281690
vt 0.892308 0.253521
vt 0.892308 0.281690
vt 0.892308 0.253521
vt 0.892308 0.281690
vt 0.892308 0.253521
vt 0.892308 0.281690
vt 0.892308 0.253521
vt 0.892308 0.281690
vt 0.892308 0.253521
vt 0.892308 0.281690
vt 0.892308 0.253521
vt 0.892308 0.281690
vt 0.892308 0.253521
vt 0.892308 0.281690
vt 0.892308 0.253521
vt 0.892308 0.281690
vt 0.892308 0.253521
vt 0.892308 0.281690
vt 0.892308 0.253521
vt 1.000000 0.084507
vt 1.000000 0.084507
vt 1.000000 0.084507
vt 1.000000 0.084507
vt 0.538462 0.169014
vt 0.815385 0.338028
vt 0.083589 0.881222
vt 0.077582 0.871697
vt 0.077582 0.860698
vt 0.093993 0.845673
vt 0.106007 0.845673
vt 0.116411 0.851173
vt 0.122418 0.871697
vt 0.116411 0.881222
vt 0.106007 0.886721
vt 0.538462 0.436620
vt 0.469039 0.462598
vt 0.446537 0.450704
vt 0.469039 0.438811
vt 0.061538 0.084507
vt 0.000000 0.084507
vt 0.538462 0.338028
vt 0.815385 0.338028
vt 0.083589 0.881222
vt 0.077582 0.871697
vt 0.077582 0.860698
vt 0.093993 0.845673
vt 0.106007 0.845673
vt 0.116411 0.851173
vt 0.122418 0.871697
vt 0.116411 0.881222
vt 0.106007 0.886721
vt 0.538462 0.436620
vt 0.469039 0.462598
vt 0.446537 0.450704
vt 0.469039 0.438811
vt 0.061538 0.084507
vt 0.000000 0.084507
vt 0.538462 0.338028
vt 0.815385 0.338028
vt 0.083589 0.881222
vt 0.077582 0.871697
vt 0.077582 0.860698
vt 0.093993 0.845673
vt 0.106007 0.845673
vt 0.116411 0.851173
vt 0.122418 0.871697
vt 0.116411 0.881222
vt 0.106007 0.886721
vt 0.538462 0.436620
vt 0.469039 0.462598
vt 0.446537 0.450704
vt 0.469039 0.438811
vt 0.061538 0.084507
vt 0.000000 0.084507
vt 0.538462 0.338028
vt 0.107692 0.084507
vt 0.076923 0.816901
vt 0.076923 0.084507
vt 0.446154 0.084507
vt 0.415385 0.816901
vt 0.415385 0.084507
vt 0.384615 0.816901
vt 0.384615 0.084507
vt 0.353846 0.816901
vt 0.353846 0.084507
vt 0.323077 0.816901
vt 0.323077 0.084507
vt 0.292308 0.816901
vt 0.292308 0.084507
vt 0.138462 0.084507
vt 0.107692 0.816901
vt 0.169231 0.084507
vt 0.138462 0.816901
vt 0.200000 0.084507
vt 0.169231 0.816901
vt 0.230769 0.084507
vt 0.200000 0.816901
vt 0.261538 0.084507
vt 0.230769 0.816901
vt 0.261538 0.816901
vt 0.107692 0.084507
vt 0.076923 0.816901
vt 0.076923 0.084507
vt 0.446154 0.084507
vt 0.415385 0.816901
vt 0.415385 0.084507
vt 0.384615 0.816901
vt 0.384615 0.084507
vt 0.353846 0.816901
vt 0.353846 0.084507
vt 0.323077 0.816901
vt 0.323077 0.084507
vt 0.292308 0.816901
vt 0.292308 0.084507
vt 0.138462 0.084507
vt 0.107692 0.816901
vt 0.169231 0.084507
vt 0.138462 0.816901
vt 0.200000 0.084507
vt 0.169231 0.816901
vt 0.230769 0.084507
vt 0.200000 0.816901
vt 0.261538 0.084507
vt 0.230769 0.816901
vt 0.261538 0.816901
vt 0.107692 0.084507
vt 0.076923 0.816901
vt 0.076923 0.084507
vt 0.446154 0.084507
vt 0.415385 0.816901
vt 0.415385 0.084507
vt 0.384615 0.816901
vt 0.384615 0.084507
vt 0.353846 0.816901
vt 0.353846 0.084507
vt 0.323077 0.816901
vt 0.323077 0.084507
vt 0.292308 0.816901
vt 0.292308 0.084507
vt 0.138462 0.084507
vt 0.107692 0.816901
vt 0.169231 0.084507
vt 0.138462 0.816901
vt 0.200000 0.084507
vt 0.169231 0.816901
vt 0.230769 0.084507
vt 0.200000 0.816901
vt 0.261538 0.084507
vt 0.230769 0.816901
vt 0.261538 0.816901
vt 0.107692 0.084507
vt 0.076923 0.816901
vt 0.076923 0.084507
vt 0.446154 0.084507
vt 0.415385 0.816901
vt 0.415385 0.084507
vt 0.384615 0.816901
vt 0.384615 0.084507
vt 0.353846 0.816901
vt 0.353846 0.084507
vt 0.323077 0.816901
vt 0.323077 0.084507
vt 0.292308 0.816901
vt 0.292308 0.084507
vt 0.138462 0.084507
vt 0.107692 0.816901
vt 0.169231 0.084507
vt 0.138462 0.816901
vt 0.200000 0.084507
vt 0.169231 0.816901
vt 0.230769 0.084507
vt 0.200000 0.816901
vt 0.261538 0.084507
vt 0.230769 0.816901
vt 0.261538 0.816901
vt 0.261538 0.816901
vt 0.230769 0.845070
vt 0.230769 0.816901
vt 0.169231 0.816901
vt 0.138462 0.845070
vt 0.138462 0.816901
vt 0.415385 0.816901
vt 0.430769 0.845070
vt 0.415385 0.845070
vt 0.292308 0.816901
vt 0.261538 0.845070
vt 0.184615 0.845070
vt 0.169231 0.845070
vt 0.107692 0.816901
vt 0.076923 0.845070
vt 0.076923 0.816901
vt 0.323077 0.816901
vt 0.292308 0.845070
vt 0.353846 0.816901
vt 0.369231 0.845070
vt 0.353846 0.845070
vt 0.200000 0.845070
vt 0.200000 0.816901
vt 0.123077 0.845070
vt 0.107692 0.845070
vt 0.323077 0.845070
vt 0.384615 0.845070
vt 0.384615 0.816901
vt 0.261538 0.816901
vt 0.230769 0.845070
vt 0.230769 0.816901
vt 0.169231 0.816901
vt 0.138462 0.845070
vt 0.138462 0.816901
vt 0.415385 0.816901
vt 0.430769 0.845070
vt 0.415385 0.845070
vt 0.292308 0.816901
vt 0.261538 0.845070
vt 0.200000 0.816901
vt 0.169231 0.845070
vt 0.107692 0.816901
vt 0.076923 0.845070
vt 0.076923 0.816901
vt 0.307692 0.845070
vt 0.292308 0.845070
vt 0.384615 0.816901
vt 0.353846 0.845070
vt 0.353846 0.816901
vt 0.200000 0.845070
vt 0.107692 0.845070
vt 0.323077 0.845070
vt 0.323077 0.816901
vt 0.384615 0.845070
vt 0.261538 0.816901
vt 0.230769 0.845070
vt 0.230769 0.816901
vt 0.169231 0.816901
vt 0.138462 0.845070
vt 0.138462 0.816901
vt 0.415385 0.816901
vt 0.430769 0.845070
vt 0.415385 0.845070
vt 0.292308 0.816901
vt 0.261538 0.845070
vt 0.184615 0.845070
vt 0.169231 0.845070
vt 0.107692 0.816901
vt 0.076923 0.845070
vt 0.076923 0.816901
vt 0.307692 0.845070
vt 0.292308 0.845070
vt 0.384615 0.816901
vt 0.353846 0.845070
vt 0.353846 0.816901
vt 0.200000 0.845070
vt 0.200000 0.816901
vt 0.107692 0.845070
vt 0.323077 0.845070
vt 0.323077 0.816901
vt 0.384615 0.845070
vt 0.261538 0.816901
vt 0.230769 0.845070
vt 0.230769 0.816901
vt 0.169231 0.816901
vt 0.138462 0.845070
vt 0.138462 0.816901
vt 0.415385 0.816901
vt 0.430769 0.845070
vt 0.415385 0.845070
vt 0.292308 0.816901
vt 0.261538 0.845070
vt 0.184615 0.845070
vt 0.169231 0.845070
vt 0.107692 0.816901
vt 0.076923 0.845070
vt 0.076923 0.816901
vt 0.307692 0.845070
vt 0.292308 0.845070
vt 0.384615 0.816901
vt 0.353846 0.845070
vt 0.353846 0.816901
vt 0.200000 0.845070
vt 0.200000 0.816901
vt 0.107692 0.845070
vt 0.323077 0.845070
vt 0.323077 0.816901
vt 0.384615 0.845070
vt 0.446154 0.816901
vt 0.446154 0.816901
vt 0.446154 0.816901
vt 0.446154 0.816901
vt 0.246154 0.845070
vt 0.153846 0.845070
vt 0.446154 0.816901
vt 0.276923 0.845070
vt 0.092308 0.845070
vt 0.307692 0.845070
vt 0.215385 0.845070
vt 0.338462 0.845070
vt 0.400000 0.845070
vt 0.246154 0.845070
vt 0.153846 0.845070
vt 0.446154 0.816901
vt 0.276923 0.845070
vt 0.184615 0.845070
vt 0.092308 0.845070
vt 0.369231 0.845070
vt 0.215385 0.845070
vt 0.123077 0.845070
vt 0.338462 0.845070
vt 0.400000 0.845070
vt 0.246154 0.845070
vt 0.153846 0.845070
vt 0.446154 0.816901
vt 0.276923 0.845070
vt 0.092308 0.845070
vt 0.369231 0.845070
vt 0.215385 0.845070
vt 0.123077 0.845070
vt 0.338462 0.845070
vt 0.400000 0.845070
vt 0.246154 0.845070
vt 0.153846 0.845070
vt 0.446154 0.816901
vt 0.276923 0.845070
vt 0.092308 0.845070
vt 0.369231 0.845070
vt 0.215385 0.845070
vt 0.123077 0.845070
vt 0.338462 0.845070
vt 0.400000 0.845070
vn 0.0000 -1.0000 0.0000
vn 0.0000 1.0000 0.0000
vn -1.0000 0.0000 0.0000
vn 0.0000 0.0000 -1.0000
vn 0.0000 0.0000 1.0000
vn 1.0000 0.0000 0.0000
vn 0.5000 0.0000 -0.8660
vn 0.5000 0.0000 0.8660
vn -0.5000 0.0000 0.8660
vn -0.5000 0.0000 -0.8660
vn -0.5000 0.7071 -0.5000
vn -0.7071 0.0000 -0.7071
vn -0.8660 0.0000 0.5000
vn -0.8660 0.0000 -0.5000
vn 0.8660 0.0000 -0.5000
vn 0.8660 0.0000 0.5000
vn 0.5547 0.8320 0.0000
vn 0.4804 0.8320 0.2773
vn 0.0000 0.8320 0.5547
vn -0.2773 0.8320 0.4804
vn -0.4804 0.8320 -0.2773
vn -0.5547 0.8320 0.0000
vn 0.4804 0.8320 -0.2773
vn 0.2773 0.8320 0.4804
vn -0.4804 0.8320 0.2773
vn 0.2773 0.8320 -0.4804
vn 0.4804 0.8320 -0.2774
vn 0.0000 0.8320 -0.5547
vn -0.2773 0.8320 -0.4804
o Centrifuge
s 1
f 3/1/1 2/2/1 1/3/1
f 7/4/2 12/5/2 8/6/2
f 1/7/3 7/4/3 3/8/3
f 3/8/4 8/6/4 4/9/4
f 2/10/5 5/11/5 1/7/5
f 4/9/6 6/12/6 2/2/6
f 12/5/6 15/13/6 10/14/6
f 6/15/2 9/16/2 5/11/2
f 8/6/2 10/14/2 6/12/2
f 5/11/2 11/17/2 7/4/2
f 16/18/1 19/19/1 15/13/1
f 9/20/3 13/21/3 11/17/3
f 11/22/4 16/23/4 12/24/4
f 10/25/5 14/26/5 9/16/5
f 17/27/4 24/28/4 20/29/4
f 14/30/1 17/27/1 13/21/1
f 13/31/1 20/29/1 16/23/1
f 15/32/1 18/33/1 14/26/1
f 23/34/2 21/35/2 22/36/2
f 19/37/5 22/38/5 18/33/5
f 20/29/6 23/34/6 19/19/6
f 18/33/3 21/39/3 17/27/3
f 53/40/2 57/41/2 50/42/2
f 61/43/7 72/44/7 66/45/7
f 65/46/8 70/47/8 64/48/8
f 63/49/3 68/50/3 62/51/3
f 66/45/6 71/52/6 65/46/6
f 64/53/9 69/54/9 63/49/9
f 62/51/10 67/55/10 61/43/10
f 69/56/2 71/57/2 67/58/2
f 73/59/2 76/60/2 75/61/2
f 74/62/2 73/59/2 78/63/2
f 75/61/2 76/60/2 77/64/2
f 73/59/2 82/65/2 78/63/2
f 77/64/2 80/66/2 75/61/2
f 82/65/11 83/67/11 86/68/11
f 81/69/11 84/70/11 80/66/11
f 83/67/12 90/71/12 86/68/12
f 85/72/12 88/73/12 84/70/12
f 96/74/4 91/75/4 93/76/4
f 94/77/3 92/78/3 91/75/3
f 93/79/6 98/80/6 96/81/6
f 96/74/1 95/82/1 94/77/1
f 97/83/2 91/75/2 92/84/2
f 95/85/5 97/86/5 92/78/5
f 105/87/2 102/88/2 101/89/2
f 104/90/2 99/91/2 100/92/2
f 106/93/2 100/94/2 102/88/2
f 103/95/2 101/89/2 99/91/2
f 110/96/1 111/97/1 107/98/1
f 108/99/1 113/100/1 109/101/1
f 109/102/1 114/103/1 110/96/1
f 107/98/1 112/104/1 108/99/1
f 105/87/5 114/105/5 106/106/5
f 104/90/4 112/107/4 103/108/4
f 102/88/4 107/98/4 101/89/4
f 99/91/5 109/101/5 100/92/5
f 106/93/3 113/109/3 104/110/3
f 103/95/6 111/111/6 105/112/6
f 100/94/6 110/96/6 102/88/6
f 101/89/3 108/99/3 99/91/3
f 128/113/3 121/114/3 130/115/3
f 129/116/6 119/117/6 127/118/6
f 126/119/6 118/120/6 124/121/6
f 123/122/3 116/123/3 125/124/3
f 130/115/5 120/125/5 129/126/5
f 127/118/4 122/127/4 128/113/4
f 125/128/4 117/129/4 126/130/4
f 124/131/5 115/132/5 123/133/5
f 122/127/1 117/134/1 121/114/1
f 120/135/1 115/136/1 119/117/1
f 121/114/1 116/137/1 120/125/1
f 119/117/1 118/138/1 122/127/1
f 126/119/2 128/113/2 130/115/2
f 123/122/2 129/116/2 127/118/2
f 125/128/2 130/115/2 129/126/2
f 124/131/2 127/118/2 128/113/2
f 133/139/6 142/140/6 134/141/6
f 133/139/4 138/142/4 136/143/4
f 132/144/6 136/145/6 138/146/6
f 132/144/4 139/147/4 131/148/4
f 135/149/5 142/140/5 141/150/5
f 139/147/3 137/151/3 135/149/3
f 145/152/3 154/153/3 146/154/3
f 145/152/5 150/155/5 148/156/5
f 144/157/3 148/158/3 150/159/3
f 144/157/5 151/160/5 143/161/5
f 147/162/4 154/153/4 153/163/4
f 151/160/6 149/164/6 147/162/6
f 157/165/4 166/166/4 158/167/4
f 157/165/3 162/168/3 160/169/3
f 156/170/4 160/171/4 162/172/4
f 156/170/3 163/173/3 155/174/3
f 159/175/6 166/166/6 165/176/6
f 163/173/5 161/177/5 159/175/5
f 169/178/5 178/179/5 170/180/5
f 169/178/6 174/181/6 172/182/6
f 168/183/5 172/184/5 174/185/5
f 168/183/6 175/186/6 167/187/6
f 171/188/3 178/179/3 177/189/3
f 175/186/4 173/190/4 171/188/4
f 180/191/5 179/192/5 181/193/5
f 183/194/4 184/195/4 185/196/4
f 181/197/3 184/195/3 180/198/3
f 182/199/6 183/194/6 179/200/6
f 180/201/1 186/202/1 182/203/1
f 179/192/2 185/196/2 181/193/2
f 188/204/4 187/205/4 189/206/4
f 191/207/5 192/208/5 193/209/5
f 189/210/6 192/208/6 188/211/6
f 190/212/3 191/207/3 187/213/3
f 188/214/1 194/215/1 190/216/1
f 187/205/2 193/209/2 189/206/2
f 196/217/6 195/218/6 197/219/6
f 199/220/3 200/221/3 201/222/3
f 197/223/5 200/221/5 196/224/5
f 198/225/4 199/220/4 195/226/4
f 196/227/1 202/228/1 198/229/1
f 195/218/2 201/222/2 197/219/2
f 204/230/3 203/231/3 205/232/3
f 207/233/6 208/234/6 209/235/6
f 204/236/1 214/237/1 206/238/1
f 211/239/2 205/240/2 203/241/2
f 206/242/5 211/243/5 203/244/5
f 205/232/4 212/245/4 204/230/4
f 210/246/2 216/247/2 208/234/2
f 209/235/1 215/248/1 207/233/1
f 215/249/4 210/246/4 207/233/4
f 208/234/5 217/250/5 209/235/5
f 215/248/6 213/251/6 211/239/6
f 217/250/6 212/245/6 213/252/6
f 216/247/6 214/237/6 212/253/6
f 214/254/6 215/249/6 211/243/6
f 223/255/5 221/256/5 220/257/5
f 219/258/5 223/255/5 220/257/5
f 229/259/5 227/260/5 226/261/5
f 225/262/5 229/259/5 226/261/5
f 235/263/5 233/264/5 232/265/5
f 231/266/5 235/263/5 232/265/5
f 241/267/5 239/268/5 238/269/5
f 237/270/5 241/267/5 238/269/5
f 247/271/4 245/272/4 244/273/4
f 243/274/4 247/271/4 244/273/4
f 253/275/4 251/276/4 250/277/4
f 249/278/4 253/275/4 250/277/4
f 259/279/4 257/280/4 256/281/4
f 255/282/4 259/279/4 256/281/4
f 265/283/4 263/284/4 262/285/4
f 261/286/4 265/283/4 262/285/4
f 271/287/6 269/288/6 268/289/6
f 267/290/6 271/287/6 268/289/6
f 277/291/6 275/292/6 274/293/6
f 273/294/6 277/291/6 274/293/6
f 283/295/6 281/296/6 280/297/6
f 279/298/6 283/295/6 280/297/6
f 289/299/6 287/300/6 286/301/6
f 285/302/6 289/299/6 286/301/6
f 295/303/3 293/304/3 292/305/3
f 291/306/3 295/303/3 292/305/3
f 301/307/3 299/308/3 298/309/3
f 297/310/3 301/307/3 298/309/3
f 307/311/3 305/312/3 304/313/3
f 303/314/3 307/311/3 304/313/3
f 313/315/3 311/316/3 310/317/3
f 309/318/3 313/315/3 310/317/3
f 321/319/3 318/320/3 317/321/3
f 320/322/6 315/323/6 316/324/6
f 322/325/1 316/326/1 318/320/1
f 319/327/2 317/321/2 315/323/2
f 329/328/4 326/329/4 325/330/4
f 328/331/5 323/332/5 324/333/5
f 330/334/1 324/333/1 326/335/1
f 327/336/2 325/330/2 323/332/2
f 337/337/4 334/338/4 333/339/4
f 336/340/5 331/341/5 332/342/5
f 338/343/1 332/342/1 334/344/1
f 335/345/2 333/339/2 331/341/2
f 345/346/3 342/347/3 341/348/3
f 344/349/6 339/350/6 340/351/6
f 346/352/1 340/353/1 342/347/1
f 343/354/2 341/348/2 339/350/2
f 349/355/1 348/356/1 347/357/1
f 353/358/2 358/359/2 354/360/2
f 347/361/3 353/358/3 349/362/3
f 348/363/5 351/364/5 347/361/5
f 358/359/6 361/365/6 356/366/6
f 352/367/2 355/368/2 351/364/2
f 354/360/2 356/366/2 352/369/2
f 351/364/2 357/370/2 353/358/2
f 362/371/1 365/372/1 361/365/1
f 355/373/3 359/374/3 357/370/3
f 357/375/4 362/376/4 358/377/4
f 356/378/5 360/379/5 355/368/5
f 363/380/4 370/381/4 366/382/4
f 360/383/1 363/380/1 359/374/1
f 359/384/1 366/382/1 362/376/1
f 361/385/1 364/386/1 360/379/1
f 369/387/2 367/388/2 368/389/2
f 365/390/5 368/391/5 364/386/5
f 366/382/6 369/387/6 365/372/6
f 364/386/3 367/392/3 363/380/3
f 399/393/2 403/394/2 396/395/2
f 407/396/7 418/397/7 412/398/7
f 411/399/8 416/400/8 410/401/8
f 409/402/3 414/403/3 408/404/3
f 412/398/6 417/405/6 411/399/6
f 410/406/9 415/407/9 409/402/9
f 408/404/10 413/408/10 407/396/10
f 415/409/2 417/410/2 413/411/2
f 419/412/2 422/413/2 421/414/2
f 420/415/2 419/412/2 424/416/2
f 421/414/2 422/413/2 423/417/2
f 419/412/2 428/418/2 424/416/2
f 423/417/2 426/419/2 421/414/2
f 425/420/11 432/421/11 428/418/11
f 427/422/11 430/423/11 426/419/11
f 429/424/12 436/425/12 432/421/12
f 431/426/12 434/427/12 430/423/12
f 442/428/4 437/429/4 439/430/4
f 440/431/3 438/432/3 437/429/3
f 439/433/6 444/434/6 442/435/6
f 442/428/1 441/436/1 440/431/1
f 443/437/2 437/429/2 438/438/2
f 441/439/5 443/440/5 438/432/5
f 447/441/1 446/442/1 445/443/1
f 451/444/2 456/445/2 452/446/2
f 446/447/5 449/448/5 445/449/5
f 448/450/6 450/451/6 446/442/6
f 456/445/6 459/452/6 454/453/6
f 450/454/2 453/455/2 449/448/2
f 452/446/2 454/453/2 450/451/2
f 449/448/2 455/456/2 451/444/2
f 460/457/1 463/458/1 459/452/1
f 453/459/3 457/460/3 455/456/3
f 455/461/4 460/462/4 456/463/4
f 454/464/5 458/465/5 453/455/5
f 461/466/4 468/467/4 464/468/4
f 458/469/1 461/466/1 457/460/1
f 457/470/1 464/468/1 460/462/1
f 459/471/1 462/472/1 458/465/1
f 467/473/2 465/474/2 466/475/2
f 463/476/5 466/477/5 462/472/5
f 464/468/6 467/473/6 463/458/6
f 462/472/3 465/478/3 461/466/3
f 497/479/2 501/480/2 494/481/2
f 505/482/7 516/483/7 510/484/7
f 509/485/8 514/486/8 508/487/8
f 507/488/3 512/489/3 506/490/3
f 510/484/6 515/491/6 509/485/6
f 508/492/9 513/493/9 507/488/9
f 506/490/10 511/494/10 505/482/10
f 513/495/2 515/496/2 511/497/2
f 517/498/2 520/499/2 519/500/2
f 518/501/2 517/498/2 522/502/2
f 519/500/2 520/499/2 521/503/2
f 517/498/2 526/504/2 522/502/2
f 521/503/2 524/505/2 519/500/2
f 523/506/11 530/507/11 526/504/11
f 525/508/11 528/509/11 524/505/11
f 527/510/12 534/511/12 530/507/12
f 529/512/12 532/513/12 528/509/12
f 540/514/4 535/515/4 537/516/4
f 538/517/3 536/518/3 535/515/3
f 537/519/6 542/520/6 540/521/6
f 540/514/1 539/522/1 538/517/1
f 541/523/2 535/515/2 536/524/2
f 539/525/5 541/526/5 536/518/5
f 545/527/1 544/528/1 543/529/1
f 549/530/2 554/531/2 550/532/2
f 545/533/4 550/532/4 546/534/4
f 546/534/6 548/535/6 544/528/6
f 554/531/6 557/536/6 552/537/6
f 548/538/2 551/539/2 547/540/2
f 550/532/2 552/537/2 548/535/2
f 547/540/2 553/541/2 549/530/2
f 558/542/1 561/543/1 557/536/1
f 551/544/3 555/545/3 553/541/3
f 553/546/4 558/547/4 554/548/4
f 552/549/5 556/550/5 551/539/5
f 559/551/4 566/552/4 562/553/4
f 556/554/1 559/551/1 555/545/1
f 555/555/1 562/553/1 558/547/1
f 557/556/1 560/557/1 556/550/1
f 565/558/2 563/559/2 564/560/2
f 561/561/5 564/562/5 560/557/5
f 562/553/6 565/558/6 561/543/6
f 560/557/3 563/563/3 559/551/3
f 595/564/2 599/565/2 592/566/2
f 603/567/7 614/568/7 608/569/7
f 607/570/8 612/571/8 606/572/8
f 605/573/3 610/574/3 604/575/3
f 608/569/6 613/576/6 607/570/6
f 606/577/9 611/578/9 605/573/9
f 604/575/10 609/579/10 603/567/10
f 611/580/2 613/581/2 609/582/2
f 615/583/2 618/584/2 617/585/2
f 616/586/2 615/583/2 620/587/2
f 617/585/2 618/584/2 619/588/2
f 615/583/2 624/589/2 620/587/2
f 619/588/2 622/590/2 617/585/2
f 621/591/11 628/592/11 624/589/11
f 623/593/11 626/594/11 622/590/11
f 625/595/12 632/596/12 628/592/12
f 627/597/12 630/598/12 626/594/12
f 638/599/4 633/600/4 635/601/4
f 636/602/3 634/603/3 633/600/3
f 635/604/6 640/605/6 638/606/6
f 638/599/1 637/607/1 636/602/1
f 639/608/2 633/600/2 634/609/2
f 637/610/5 639/611/5 634/603/5
f 3/1/1 4/9/1 2/2/1
f 7/4/2 11/22/2 12/5/2
f 1/7/3 5/11/3 7/4/3
f 3/8/4 7/4/4 8/6/4
f 2/10/5 6/15/5 5/11/5
f 4/9/6 8/6/6 6/12/6
f 12/5/6 16/18/6 15/13/6
f 6/15/2 10/25/2 9/16/2
f 8/6/2 12/24/2 10/14/2
f 5/11/2 9/20/2 11/17/2
f 16/18/1 20/29/1 19/19/1
f 9/20/3 14/30/3 13/21/3
f 11/22/4 13/31/4 16/23/4
f 10/25/5 15/32/5 14/26/5
f 17/27/4 21/39/4 24/28/4
f 14/30/1 18/33/1 17/27/1
f 13/31/1 17/27/1 20/29/1
f 15/32/1 19/37/1 18/33/1
f 23/34/2 24/28/2 21/35/2
f 19/37/5 23/612/5 22/38/5
f 20/29/6 24/28/6 23/34/6
f 18/33/3 22/38/3 21/39/3
f 50/42/2 49/613/2 51/614/2
f 51/614/2 52/615/2 53/40/2
f 53/40/2 54/616/2 57/41/2
f 54/616/2 55/617/2 57/41/2
f 55/617/2 56/618/2 57/41/2
f 57/41/2 58/619/2 59/620/2
f 59/620/2 60/621/2 57/41/2
f 60/621/2 50/42/2 57/41/2
f 50/42/2 51/614/2 53/40/2
f 61/43/7 67/55/7 72/44/7
f 65/46/8 71/52/8 70/47/8
f 63/49/3 69/54/3 68/50/3
f 66/45/6 72/44/6 71/52/6
f 64/53/9 70/622/9 69/54/9
f 62/51/10 68/50/10 67/55/10
f 67/58/2 68/623/2 69/56/2
f 69/56/2 70/624/2 71/57/2
f 71/57/2 72/625/2 67/58/2
f 73/59/2 74/62/2 76/60/2
f 73/59/2 79/626/2 82/65/2
f 77/64/2 81/69/2 80/66/2
f 82/65/11 79/626/11 83/67/11
f 81/69/11 85/72/11 84/70/11
f 83/67/12 87/627/12 90/71/12
f 85/72/12 89/628/12 88/73/12
f 96/74/4 94/77/4 91/75/4
f 94/77/3 95/85/3 92/78/3
f 93/79/6 97/86/6 98/80/6
f 96/74/1 98/629/1 95/82/1
f 97/83/2 93/76/2 91/75/2
f 95/85/5 98/80/5 97/86/5
f 105/87/2 106/106/2 102/88/2
f 104/90/2 103/108/2 99/91/2
f 106/93/2 104/110/2 100/94/2
f 103/95/2 105/112/2 101/89/2
f 110/96/1 114/630/1 111/97/1
f 108/99/1 112/631/1 113/100/1
f 109/102/1 113/632/1 114/103/1
f 107/98/1 111/633/1 112/104/1
f 105/87/5 111/634/5 114/105/5
f 104/90/4 113/635/4 112/107/4
f 102/88/4 110/96/4 107/98/4
f 99/91/5 108/99/5 109/101/5
f 106/93/3 114/636/3 113/109/3
f 103/95/6 112/637/6 111/111/6
f 100/94/6 109/102/6 110/96/6
f 101/89/3 107/98/3 108/99/3
f 128/113/3 122/127/3 121/114/3
f 129/116/6 120/135/6 119/117/6
f 126/119/6 117/638/6 118/120/6
f 123/122/3 115/639/3 116/123/3
f 130/115/5 121/114/5 120/125/5
f 127/118/4 119/117/4 122/127/4
f 125/128/4 116/640/4 117/129/4
f 124/131/5 118/641/5 115/132/5
f 122/127/1 118/642/1 117/134/1
f 120/135/1 116/643/1 115/136/1
f 121/114/1 117/644/1 116/137/1
f 119/117/1 115/645/1 118/138/1
f 126/119/2 124/121/2 128/113/2
f 123/122/2 125/124/2 129/116/2
f 125/128/2 126/130/2 130/115/2
f 124/131/2 123/133/2 127/118/2
f 133/139/6 141/150/6 142/140/6
f 133/139/4 134/141/4 138/142/4
f 132/144/6 131/148/6 136/145/6
f 132/144/4 140/646/4 139/147/4
f 135/149/5 137/151/5 142/140/5
f 139/147/3 140/646/3 137/151/3
f 145/152/3 153/163/3 154/153/3
f 145/152/5 146/154/5 150/155/5
f 144/157/3 143/161/3 148/158/3
f 144/157/5 152/647/5 151/160/5
f 147/162/4 149/164/4 154/153/4
f 151/160/6 152/647/6 149/164/6
f 157/165/4 165/176/4 166/166/4
f 157/165/3 158/167/3 162/168/3
f 156/170/4 155/174/4 160/171/4
f 156/170/3 164/648/3 163/173/3
f 159/175/6 161/177/6 166/166/6
f 163/173/5 164/648/5 161/177/5
f 169/178/5 177/189/5 178/179/5
f 169/178/6 170/180/6 174/181/6
f 168/183/5 167/187/5 172/184/5
f 168/183/6 176/649/6 175/186/6
f 171/188/3 173/190/3 178/179/3
f 175/186/4 176/649/4 173/190/4
f 180/191/5 182/650/5 179/192/5
f 183/194/4 186/202/4 184/195/4
f 181/197/3 185/196/3 184/195/3
f 182/199/6 186/202/6 183/194/6
f 180/201/1 184/195/1 186/202/1
f 179/192/2 183/194/2 185/196/2
f 188/204/4 190/651/4 187/205/4
f 191/207/5 194/215/5 192/208/5
f 189/210/6 193/209/6 192/208/6
f 190/212/3 194/215/3 191/207/3
f 188/214/1 192/208/1 194/215/1
f 187/205/2 191/207/2 193/209/2
f 196/217/6 198/652/6 195/218/6
f 199/220/3 202/228/3 200/221/3
f 197/223/5 201/222/5 200/221/5
f 198/225/4 202/228/4 199/220/4
f 196/227/1 200/221/1 202/228/1
f 195/218/2 199/220/2 201/222/2
f 204/230/3 206/653/3 203/231/3
f 207/233/6 210/246/6 208/234/6
f 204/236/1 212/253/1 214/237/1
f 211/239/2 213/251/2 205/240/2
f 206/242/5 214/254/5 211/243/5
f 205/232/4 213/252/4 212/245/4
f 210/246/2 218/654/2 216/247/2
f 209/235/1 217/655/1 215/248/1
f 215/249/4 218/656/4 210/246/4
f 208/234/5 216/657/5 217/250/5
f 215/248/6 217/655/6 213/251/6
f 217/250/6 216/657/6 212/245/6
f 216/247/6 218/654/6 214/237/6
f 214/254/6 218/656/6 215/249/6
f 223/255/5 224/658/5 221/256/5
f 219/258/5 222/659/5 223/255/5
f 229/259/5 230/660/5 227/260/5
f 225/262/5 228/661/5 229/259/5
f 235/263/5 236/662/5 233/264/5
f 231/266/5 234/663/5 235/263/5
f 241/267/5 242/664/5 239/268/5
f 237/270/5 240/665/5 241/267/5
f 247/271/4 248/666/4 245/272/4
f 243/274/4 246/667/4 247/271/4
f 253/275/4 254/668/4 251/276/4
f 249/278/4 252/669/4 253/275/4
f 259/279/4 260/670/4 257/280/4
f 255/282/4 258/671/4 259/279/4
f 265/283/4 266/672/4 263/284/4
f 261/286/4 264/673/4 265/283/4
f 271/287/6 272/674/6 269/288/6
f 267/290/6 270/675/6 271/287/6
f 277/291/6 278/676/6 275/292/6
f 273/294/6 276/677/6 277/291/6
f 283/295/6 284/678/6 281/296/6
f 279/298/6 282/679/6 283/295/6
f 289/299/6 290/680/6 287/300/6
f 285/302/6 288/681/6 289/299/6
f 295/303/3 296/682/3 293/304/3
f 291/306/3 294/683/3 295/303/3
f 301/307/3 302/684/3 299/308/3
f 297/310/3 300/685/3 301/307/3
f 307/311/3 308/686/3 305/312/3
f 303/314/3 306/687/3 307/311/3
f 313/315/3 314/688/3 311/316/3
f 309/318/3 312/689/3 313/315/3
f 321/319/3 322/325/3 318/320/3
f 320/322/6 319/327/6 315/323/6
f 322/325/1 320/690/1 316/326/1
f 319/327/2 321/319/2 317/321/2
f 329/328/4 330/691/4 326/329/4
f 328/331/5 327/336/5 323/332/5
f 330/334/1 328/331/1 324/333/1
f 327/336/2 329/328/2 325/330/2
f 337/337/4 338/692/4 334/338/4
f 336/340/5 335/345/5 331/341/5
f 338/343/1 336/340/1 332/342/1
f 335/345/2 337/337/2 333/339/2
f 345/346/3 346/352/3 342/347/3
f 344/349/6 343/354/6 339/350/6
f 346/352/1 344/693/1 340/353/1
f 343/354/2 345/346/2 341/348/2
f 349/355/1 350/694/1 348/356/1
f 353/358/2 357/375/2 358/359/2
f 347/361/3 351/364/3 353/358/3
f 348/363/5 352/367/5 351/364/5
f 358/359/6 362/371/6 361/365/6
f 352/367/2 356/378/2 355/368/2
f 354/360/2 358/377/2 356/366/2
f 351/364/2 355/373/2 357/370/2
f 362/371/1 366/382/1 365/372/1
f 355/373/3 360/383/3 359/374/3
f 357/375/4 359/384/4 362/376/4
f 356/378/5 361/385/5 360/379/5
f 363/380/4 367/392/4 370/381/4
f 360/383/1 364/386/1 363/380/1
f 359/384/1 363/380/1 366/382/1
f 361/385/1 365/390/1 364/386/1
f 369/387/2 370/381/2 367/388/2
f 365/390/5 369/695/5 368/391/5
f 366/382/6 370/381/6 369/387/6
f 364/386/3 368/391/3 367/392/3
f 396/395/2 395/696/2 397/697/2
f 397/697/2 398/698/2 399/393/2
f 399/393/2 400/699/2 403/394/2
f 400/699/2 401/700/2 403/394/2
f 401/700/2 402/701/2 403/394/2
f 403/394/2 404/702/2 405/703/2
f 405/703/2 406/704/2 403/394/2
f 406/704/2 396/395/2 403/394/2
f 396/395/2 397/697/2 399/393/2
f 407/396/7 413/408/7 418/397/7
f 411/399/8 417/405/8 416/400/8
f 409/402/3 415/407/3 414/403/3
f 412/398/6 418/397/6 417/405/6
f 410/406/9 416/705/9 415/407/9
f 408/404/10 414/403/10 413/408/10
f 413/411/2 414/706/2 415/409/2
f 415/409/2 416/707/2 417/410/2
f 417/410/2 418/708/2 413/411/2
f 419/412/2 420/415/2 422/413/2
f 419/412/2 425/420/2 428/418/2
f 423/417/2 427/422/2 426/419/2
f 425/420/11 429/424/11 432/421/11
f 427/422/11 431/426/11 430/423/11
f 429/424/12 433/709/12 436/425/12
f 431/426/12 435/710/12 434/427/12
f 442/428/4 440/431/4 437/429/4
f 440/431/3 441/439/3 438/432/3
f 439/433/6 443/440/6 444/434/6
f 442/428/1 444/711/1 441/436/1
f 443/437/2 439/430/2 437/429/2
f 441/439/5 444/434/5 443/440/5
f 447/441/1 448/450/1 446/442/1
f 451/444/2 455/461/2 456/445/2
f 446/447/5 450/454/5 449/448/5
f 448/450/6 452/446/6 450/451/6
f 456/445/6 460/457/6 459/452/6
f 450/454/2 454/464/2 453/455/2
f 452/446/2 456/463/2 454/453/2
f 449/448/2 453/459/2 455/456/2
f 460/457/1 464/468/1 463/458/1
f 453/459/3 458/469/3 457/460/3
f 455/461/4 457/470/4 460/462/4
f 454/464/5 459/471/5 458/465/5
f 461/466/4 465/478/4 468/467/4
f 458/469/1 462/472/1 461/466/1
f 457/470/1 461/466/1 464/468/1
f 459/471/1 463/476/1 462/472/1
f 467/473/2 468/467/2 465/474/2
f 463/476/5 467/712/5 466/477/5
f 464/468/6 468/467/6 467/473/6
f 462/472/3 466/477/3 465/478/3
f 494/481/2 493/713/2 495/714/2
f 495/714/2 496/715/2 497/479/2
f 497/479/2 498/716/2 501/480/2
f 498/716/2 499/717/2 501/480/2
f 499/717/2 500/718/2 501/480/2
f 501/480/2 502/719/2 503/720/2
f 503/720/2 504/721/2 501/480/2
f 504/721/2 494/481/2 501/480/2
f 494/481/2 495/714/2 497/479/2
f 505/482/7 511/494/7 516/483/7
f 509/485/8 515/491/8 514/486/8
f 507/488/3 513/493/3 512/489/3
f 510/484/6 516/483/6 515/491/6
f 508/492/9 514/722/9 513/493/9
f 506/490/10 512/489/10 511/494/10
f 511/497/2 512/723/2 513/495/2
f 513/495/2 514/724/2 515/496/2
f 515/496/2 516/725/2 511/497/2
f 517/498/2 518/501/2 520/499/2
f 517/498/2 523/506/2 526/504/2
f 521/503/2 525/508/2 524/505/2
f 523/506/11 527/510/11 530/507/11
f 525/508/11 529/512/11 528/509/11
f 527/510/12 531/726/12 534/511/12
f 529/512/12 533/727/12 532/513/12
f 540/514/4 538/517/4 535/515/4
f 538/517/3 539/525/3 536/518/3
f 537/519/6 541/526/6 542/520/6
f 540/514/1 542/728/1 539/522/1
f 541/523/2 537/516/2 535/515/2
f 539/525/5 542/520/5 541/526/5
f 545/527/1 546/534/1 544/528/1
f 549/530/2 553/546/2 554/531/2
f 545/533/4 549/530/4 550/532/4
f 546/534/6 550/532/6 548/535/6
f 554/531/6 558/542/6 557/536/6
f 548/538/2 552/549/2 551/539/2
f 550/532/2 554/548/2 552/537/2
f 547/540/2 551/544/2 553/541/2
f 558/542/1 562/553/1 561/543/1
f 551/544/3 556/554/3 555/545/3
f 553/546/4 555/555/4 558/547/4
f 552/549/5 557/556/5 556/550/5
f 559/551/4 563/563/4 566/552/4
f 556/554/1 560/557/1 559/551/1
f 555/555/1 559/551/1 562/553/1
f 557/556/1 561/561/1 560/557/1
f 565/558/2 566/552/2 563/559/2
f 561/561/5 565/729/5 564/562/5
f 562/553/6 566/552/6 565/558/6
f 560/557/3 564/562/3 563/563/3
f 592/566/2 591/730/2 593/731/2
f 593/731/2 594/732/2 595/564/2
f 595/564/2 596/733/2 599/565/2
f 596/733/2 597/734/2 599/565/2
f 597/734/2 598/735/2 599/565/2
f 599/565/2 600/736/2 601/737/2
f 601/737/2 602/738/2 599/565/2
f 602/738/2 592/566/2 599/565/2
f 592/566/2 593/731/2 595/564/2
f 603/567/7 609/579/7 614/568/7
f 607/570/8 613/576/8 612/571/8
f 605/573/3 611/578/3 610/574/3
f 608/569/6 614/568/6 613/576/6
f 606/577/9 612/739/9 611/578/9
f 604/575/10 610/574/10 609/579/10
f 609/582/2 610/740/2 611/580/2
f 611/580/2 612/741/2 613/581/2
f 613/581/2 614/742/2 609/582/2
f 615/583/2 616/586/2 618/584/2
f 615/583/2 621/591/2 624/589/2
f 619/588/2 623/593/2 622/590/2
f 621/591/11 625/595/11 628/592/11
f 623/593/11 627/597/11 626/594/11
f 625/595/12 629/743/12 632/596/12
f 627/597/12 631/744/12 630/598/12
f 638/599/4 636/602/4 633/600/4
f 636/602/3 637/610/3 634/603/3
f 635/604/6 639/611/6 640/605/6
f 638/599/1 640/745/1 637/607/1
f 639/608/2 635/601/2 633/600/2
f 637/610/5 640/605/5 639/611/5
f 29/746/13 40/747/3 28/748/3
f 28/749/3 39/750/14 27/751/14
f 27/751/14 38/752/10 26/753/10
f 26/753/10 37/754/4 25/755/4
f 25/755/4 48/756/7 36/757/7
f 36/757/7 47/758/15 35/759/15
f 30/760/9 41/761/13 29/746/13
f 31/762/5 42/763/9 30/760/9
f 32/764/8 43/765/5 31/762/5
f 33/766/16 44/767/8 32/764/8
f 34/768/6 45/769/16 33/766/16
f 35/759/15 46/770/6 34/768/6
f 375/771/13 386/772/3 374/773/3
f 374/774/3 385/775/14 373/776/14
f 373/776/14 384/777/10 372/778/10
f 372/778/10 383/779/4 371/780/4
f 371/780/4 394/781/7 382/782/7
f 382/782/7 393/783/15 381/784/15
f 376/785/9 387/786/13 375/771/13
f 377/787/5 388/788/9 376/785/9
f 378/789/8 389/790/5 377/787/5
f 379/791/16 390/792/8 378/789/8
f 380/793/6 391/794/16 379/791/16
f 381/784/15 392/795/6 380/793/6
f 473/796/13 484/797/3 472/798/3
f 472/799/3 483/800/14 471/801/14
f 471/801/14 482/802/10 470/803/10
f 470/803/10 481/804/4 469/805/4
f 469/805/4 492/806/7 480/807/7
f 480/807/7 491/808/15 479/809/15
f 474/810/9 485/811/13 473/796/13
f 475/812/5 486/813/9 474/810/9
f 476/814/8 487/815/5 475/812/5
f 477/816/16 488/817/8 476/814/8
f 478/818/6 489/819/16 477/816/16
f 479/809/15 490/820/6 478/818/6
f 571/821/13 582/822/3 570/823/3
f 570/824/3 581/825/14 569/826/14
f 569/826/14 580/827/10 568/828/10
f 568/828/10 579/829/4 567/830/4
f 567/830/4 590/831/7 578/832/7
f 578/832/7 589/833/15 577/834/15
f 572/835/9 583/836/13 571/821/13
f 573/837/5 584/838/9 572/835/9
f 574/839/8 585/840/5 573/837/5
f 575/841/16 586/842/8 574/839/8
f 576/843/6 587/844/16 575/841/16
f 577/834/15 588/845/6 576/843/6
f 650/846/17 661/847/18 649/848/18
f 647/849/19 658/850/20 646/851/20
f 643/852/21 656/853/22 655/854/21
f 651/855/23 662/856/17 650/846/17
f 647/849/19 660/857/24 659/858/19
f 645/859/25 656/860/22 644/861/22
f 652/862/26 663/863/27 651/855/23
f 641/864/28 653/865/29 654/866/28
f 649/848/18 660/867/24 648/868/24
f 645/859/25 658/869/20 657/870/25
f 641/864/28 664/871/26 652/862/26
f 643/852/21 653/872/29 642/873/29
f 674/874/17 685/875/18 673/876/18
f 671/877/19 682/878/20 670/879/20
f 667/880/21 680/881/22 679/882/21
f 675/883/23 686/884/17 674/874/17
f 672/885/24 683/886/19 671/877/19
f 669/887/25 680/888/22 668/889/22
f 675/883/23 688/890/26 687/891/23
f 666/892/29 678/893/28 665/894/28
f 673/876/18 684/895/24 672/885/24
f 670/879/20 681/896/25 669/887/25
f 665/894/28 688/897/26 676/898/26
f 667/880/21 677/899/29 666/892/29
f 698/900/17 709/901/18 697/902/18
f 695/903/19 706/904/20 694/905/20
f 691/906/21 704/907/22 703/908/21
f 699/909/23 710/910/17 698/900/17
f 695/903/19 708/911/24 707/912/19
f 693/913/25 704/914/22 692/915/22
f 699/909/23 712/916/26 711/917/23
f 690/918/29 702/919/28 689/920/28
f 697/902/18 708/921/24 696/922/24
f 694/905/20 705/923/25 693/913/25
f 689/920/28 712/924/26 700/925/26
f 691/906/21 701/926/29 690/918/29
f 722/927/17 733/928/18 721/929/18
f 719/930/19 730/931/20 718/932/20
f 715/933/21 728/934/22 727/935/21
f 723/936/23 734/937/17 722/927/17
f 719/930/19 732/938/24 731/939/19
f 717/940/25 728/941/22 716/942/22
f 723/936/23 736/943/26 735/944/23
f 714/945/29 726/946/28 713/947/28
f 721/929/18 732/948/24 720/949/24
f 718/932/20 729/950/25 717/940/25
f 713/947/28 736/951/26 724/952/26
f 715/933/21 725/953/29 714/945/29
f 29/746/13 41/761/13 40/747/3
f 28/749/3 40/954/3 39/750/14
f 27/751/14 39/750/14 38/752/10
f 26/753/10 38/752/10 37/754/4
f 25/755/4 37/754/4 48/756/7
f 36/757/7 48/756/7 47/758/15
f 30/760/9 42/763/9 41/761/13
f 31/762/5 43/765/5 42/763/9
f 32/764/8 44/767/8 43/765/5
f 33/766/16 45/769/16 44/767/8
f 34/768/6 46/770/6 45/769/16
f 35/759/15 47/758/15 46/770/6
f 375/771/13 387/786/13 386/772/3
f 374/774/3 386/955/3 385/775/14
f 373/776/14 385/775/14 384/777/10
f 372/778/10 384/777/10 383/779/4
f 371/780/4 383/779/4 394/781/7
f 382/782/7 394/781/7 393/783/15
f 376/785/9 388/788/9 387/786/13
f 377/787/5 389/790/5 388/788/9
f 378/789/8 390/792/8 389/790/5
f 379/791/16 391/794/16 390/792/8
f 380/793/6 392/795/6 391/794/16
f 381/784/15 393/783/15 392/795/6
f 473/796/13 485/811/13 484/797/3
f 472/799/3 484/956/3 483/800/14
f 471/801/14 483/800/14 482/802/10
f 470/803/10 482/802/10 481/804/4
f 469/805/4 481/804/4 492/806/7
f 480/807/7 492/806/7 491/808/15
f 474/810/9 486/813/9 485/811/13
f 475/812/5 487/815/5 486/813/9
f 476/814/8 488/817/8 487/815/5
f 477/816/16 489/819/16 488/817/8
f 478/818/6 490/820/6 489/819/16
f 479/809/15 491/808/15 490/820/6
f 571/821/13 583/836/13 582/822/3
f 570/824/3 582/957/3 581/825/14
f 569/826/14 581/825/14 580/827/10
f 568/828/10 580/827/10 579/829/4
f 567/830/4 579/829/4 590/831/7
f 578/832/7 590/831/7 589/833/15
f 572/835/9 584/838/9 583/836/13
f 573/837/5 585/840/5 584/838/9
f 574/839/8 586/842/8 585/840/5
f 575/841/16 587/844/16 586/842/8
f 576/843/6 588/845/6 587/844/16
f 577/834/15 589/833/15 588/845/6
f 650/846/17 662/958/17 661/847/18
f 647/849/19 659/959/19 658/850/20
f 643/852/21 644/960/22 656/853/22
f 651/855/23 663/961/27 662/856/17
f 647/849/19 648/868/24 660/857/24
f 645/859/25 657/962/25 656/860/22
f 652/862/26 664/963/26 663/863/27
f 641/864/28 642/873/29 653/865/29
f 649/848/18 661/964/18 660/867/24
f 645/859/25 646/851/20 658/869/20
f 641/864/28 654/965/28 664/871/26
f 643/852/21 655/966/21 653/872/29
f 674/874/17 686/967/17 685/875/18
f 671/877/19 683/968/19 682/878/20
f 667/880/21 668/969/22 680/881/22
f 675/883/23 687/970/23 686/884/17
f 672/885/24 684/971/24 683/886/19
f 669/887/25 681/972/25 680/888/22
f 675/883/23 676/898/26 688/890/26
f 666/892/29 677/973/29 678/893/28
f 673/876/18 685/974/18 684/895/24
f 670/879/20 682/975/20 681/896/25
f 665/894/28 678/976/28 688/897/26
f 667/880/21 679/977/21 677/899/29
f 698/900/17 710/978/17 709/901/18
f 695/903/19 707/979/19 706/904/20
f 691/906/21 692/980/22 704/907/22
f 699/909/23 711/981/23 710/910/17
f 695/903/19 696/922/24 708/911/24
f 693/913/25 705/982/25 704/914/22
f 699/909/23 700/925/26 712/916/26
f 690/918/29 701/983/29 702/919/28
f 697/902/18 709/984/18 708/921/24
f 694/905/20 706/985/20 705/923/25
f 689/920/28 702/986/28 712/924/26
f 691/906/21 703/987/21 701/926/29
f 722/927/17 734/988/17 733/928/18
f 719/930/19 731/989/19 730/931/20
f 715/933/21 716/990/22 728/934/22
f 723/936/23 735/991/23 734/937/17
f 719/930/19 720/949/24 732/938/24
f 717/940/25 729/992/25 728/941/22
f 723/936/23 724/952/26 736/943/26
f 714/945/29 725/993/29 726/946/28
f 721/929/18 733/994/18 732/948/24
f 718/932/20 730/995/20 729/950/25
f 713/947/28 726/996/28 736/951/26
f 715/933/21 727/997/21 725/953/29
