mtllib gascent_flag.mtl
usemtl material
v 0.250000 1.062500 0.442188
v 0.346094 1.062500 0.416439
v 0.416439 1.062500 0.346094
v 0.442187 1.062500 0.250000
v 0.250000 1.250000 0.442188
v 0.346094 1.250000 0.416439
v 0.416439 1.250000 0.346094
v 0.442187 1.250000 0.250000
vt 0.615385 0.704225
vt 0.446154 1.000000
vt 0.446154 0.704225
vt 0.784615 0.704225
vt 0.615385 1.000000
vt 0.953846 0.704225
vt 0.784615 1.000000
vt 0.953846 1.000000
vn 0.5000 0.0000 0.8660
vn 0.2588 0.0000 0.9659
vn 0.8660 0.0000 0.5000
vn 0.9659 0.0000 0.2588
o Flag
s 1
f 2/1/1 5/2/2 1/3/2
f 3/4/3 6/5/1 2/1/1
f 4/6/4 7/7/3 3/4/3
f 2/1/1 6/5/1 5/2/2
f 3/4/3 7/7/3 6/5/1
f 4/6/4 8/8/4 7/7/3
