mtllib mixer_fluid.mtl
usemtl material
v 0.000000 2.500000 -0.301419
v 0.212905 1.000000 -0.213135
v 0.000000 1.000000 -0.301419
v 0.212905 2.500000 -0.213135
v 0.301094 1.000000 0.000000
v 0.301094 2.500000 0.000000
v 0.212905 1.000000 0.213135
v 0.212905 2.500000 0.213135
v 0.000000 1.000000 0.301419
v 0.000000 2.500000 0.301419
v -0.212906 1.000000 0.213135
v -0.212906 2.500000 0.213135
v -0.301094 1.000000 0.000000
v -0.301094 2.500000 0.000000
v -0.212906 1.000000 -0.213135
v -0.212906 2.500000 -0.213135
v 0.000000 2.500000 -0.301419
v 0.212905 2.500000 -0.213135
v 0.301094 2.500000 0.000000
v 0.212905 2.500000 0.213135
v 0.000000 2.500000 0.301419
v -0.212906 2.500000 0.213135
v -0.301094 2.500000 0.000000
v -0.212906 2.500000 -0.213135
vt 0.000000 0.000000
vt 1.000000 0.000000
vt 1.000000 1.000000
vt 0.000000 0.000000
vt 1.000000 0.000000
vt 0.000000 0.000000
vt 1.000000 0.000000
vt 1.000000 1.000000
vt 1.000000 0.000000
vt 1.000000 1.000000
vt 0.000000 0.000000
vt 1.000000 0.000000
vt 1.000000 1.000000
vt 1.000000 0.000000
vt 0.000000 0.000000
vt 1.000000 0.000000
vt 1.000000 1.000000
vt 0.000000 0.000000
vt 1.000000 0.000000
vt 1.000000 1.000000
vt 0.000000 0.000000
vt 1.000000 0.000000
vt 1.000000 1.000000
vt 0.000000 0.000000
vt 1.000000 0.000000
vt 1.000000 1.000000
vt 0.000000 0.000000
vt 1.000000 0.000000
vt 1.000000 1.000000
vt 0.000000 0.000000
vt 1.000000 0.000000
vt 1.000000 1.000000
vt 0.000000 0.000000
vt 1.000000 0.000000
vt 1.000000 1.000000
vt 0.000000 0.000000
vt 1.000000 0.000000
vt 1.000000 1.000000
vt 1.000000 0.000000
vt 1.000000 0.000000
vt 1.000000 0.000000
vt 1.000000 0.000000
vt 1.000000 0.000000
vt 1.000000 0.000000
vt 1.000000 0.000000
vt 1.000000 0.000000
vn 0.0000 1.0000 0.0000
vn 0.0000 0.0000 -1.0000
vn 0.7074 0.0000 -0.7068
vn 1.0000 0.0000 0.0000
vn 0.7074 -0.0000 0.7068
vn 0.0000 -0.0000 1.0000
vn -0.7074 -0.0000 0.7068
vn -1.0000 -0.0000 0.0000
vn -0.7074 0.0000 -0.7068
o Fluid
s 1
f 23/1/1 21/2/1 17/3/1
f 19/4/1 18/5/1 17/3/1
f 17/6/1 24/7/1 23/8/1
f 23/1/1 22/9/1 21/10/1
f 21/11/1 20/12/1 19/13/1
f 19/4/1 17/14/1 21/10/1
f 1/15/2 2/16/3 3/17/2
f 4/18/3 5/19/4 2/20/3
f 6/21/4 7/22/5 5/23/4
f 8/24/5 9/25/6 7/26/5
f 10/27/6 11/28/7 9/29/6
f 12/30/7 13/31/8 11/32/7
f 14/33/8 15/34/9 13/35/8
f 16/36/9 3/37/2 15/38/9
f 1/15/2 4/39/3 2/20/3
f 4/18/3 6/40/4 5/23/4
f 6/21/4 8/41/5 7/26/5
f 8/24/5 10/42/6 9/29/6
f 10/27/6 12/43/7 11/32/7
f 12/30/7 14/44/8 13/35/8
f 14/33/8 16/45/9 15/38/9
f 16/36/9 1/46/2 3/17/2
