mtllib pumpjack_base.mtl
usemtl material
o Base
v -0.500000 0.000000 0.500000
v 0.500000 0.000000 0.500000
v -0.500000 0.000000 -0.500000
v 0.500000 0.000000 -0.500000
v -0.500000 0.062500 -0.500000
v -0.500000 0.062500 0.500000
v 0.500000 0.062500 0.500000
v 0.500000 0.062500 -0.500000
v 0.000000 0.062500 -0.125000
v -0.088388 0.062500 -0.088388
v -0.125000 0.062500 0.000000
v -0.088388 0.062500 0.088388
v 0.000000 0.062500 0.125000
v 0.088388 0.062500 0.088388
v 0.125000 0.062500 -0.000000
v 0.088388 0.062500 -0.088388
v -0.088388 0.750000 -0.088388
v 0.000000 0.750000 -0.125000
v -0.125000 0.750000 0.000000
v -0.088388 0.750000 0.088388
v 0.000000 0.750000 0.125000
v 0.088388 0.750000 0.088388
v 0.125000 0.750000 -0.000000
v 0.088388 0.750000 -0.088388
v 0.062500 0.250000 -0.062500
v 0.062500 0.294194 -0.044194
v 0.062500 0.312500 0.000000
v 0.062500 0.294194 0.044194
v 0.062500 0.250000 0.062500
v 0.062500 0.205806 0.044194
v 0.062500 0.187500 0.000000
v 0.062500 0.205806 -0.044194
v 0.250000 0.294194 -0.044194
v 0.250000 0.250000 -0.062500
v 0.250000 0.312500 0.000000
v 0.250000 0.294194 0.044194
v 0.250000 0.250000 0.062500
v 0.250000 0.205806 0.044194
v 0.250000 0.187500 0.000000
v 0.250000 0.205806 -0.044194
v -0.062500 0.500000 -0.062500
v -0.062500 0.544194 -0.044194
v -0.062500 0.562500 0.000000
v -0.062500 0.544194 0.044194
v -0.062500 0.500000 0.062500
v -0.062500 0.455806 0.044194
v -0.062500 0.437500 0.000000
v -0.062500 0.455806 -0.044194
v -0.250000 0.500000 -0.062500
v -0.250000 0.544194 -0.044194
v -0.250000 0.562500 0.000000
v -0.250000 0.544194 0.044194
v -0.250000 0.500000 0.062500
v -0.250000 0.455806 0.044194
v -0.250000 0.437500 0.000000
v -0.250000 0.455806 -0.044194
v -0.044194 0.062500 0.356694
v -0.062500 0.062500 0.312500
v -0.044194 0.062500 0.268306
v 0.000000 0.062500 0.250000
v 0.044194 0.062500 0.268306
v 0.062500 0.062500 0.312500
v 0.044194 0.062500 0.356694
v 0.000000 0.062500 0.375000
v 0.000000 0.562500 0.187500
v 0.044194 0.544194 0.187500
v 0.062500 0.500000 0.187500
v 0.044194 0.455806 0.187500
v 0.000000 0.437500 0.187500
v -0.044194 0.455806 0.187500
v -0.062500 0.500000 0.187500
v -0.044194 0.544194 0.187500
v 0.000000 0.507583 0.320082
v 0.044194 0.494638 0.307138
v 0.062500 0.463388 0.275888
v 0.044194 0.432138 0.244638
v 0.000000 0.419194 0.231694
v -0.044194 0.432138 0.244638
v -0.062500 0.463388 0.275888
v -0.044194 0.494638 0.307138
v 0.000000 0.375000 0.375000
v 0.044194 0.375000 0.356694
v 0.062500 0.375000 0.312500
v 0.044194 0.375000 0.268306
v 0.000000 0.375000 0.250000
v -0.044194 0.375000 0.268306
v -0.062500 0.375000 0.312500
v -0.044194 0.375000 0.356694
v -0.044194 0.544194 0.062500
v -0.062500 0.500000 0.062500
v -0.044194 0.455806 0.062500
v 0.000000 0.437500 0.062500
v 0.044194 0.455806 0.062500
v 0.062500 0.500000 0.062500
v 0.044194 0.544194 0.062500
v 0.000000 0.562500 0.062500
v -0.625000 3.375000 -3.375000
v -0.625000 3.625000 -3.375000
v -0.625000 3.375000 -3.625000
v -0.625000 3.625000 -3.625000
v 0.625000 3.375000 -3.375000
v 0.625000 3.625000 -3.375000
v 0.625000 3.375000 -3.625000
v 0.625000 3.625000 -3.625000
v -0.250000 3.375000 -3.625000
v -0.250000 3.375000 -3.375000
v -0.250000 3.625000 -3.375000
v -0.250000 3.625000 -3.625000
v 0.250000 3.625000 -3.625000
v 0.250000 3.375000 -3.625000
v 0.250000 3.375000 -3.375000
v 0.250000 3.625000 -3.375000
v -0.625000 0.000000 -0.500000
v 0.625000 0.000000 -0.500000
v -0.625000 0.000000 -6.500000
v 0.625000 0.000000 -6.500000
v -0.625000 0.250000 -6.500000
v -0.625000 0.250000 -0.500000
v 0.625000 0.250000 -0.500000
v 0.625000 0.250000 -6.500000
v 0.437500 0.250000 -2.375000
v 0.562500 0.250000 -2.375000
v 0.437500 0.250000 -2.625000
v 0.562500 0.250000 -2.625000
v 0.437500 3.375000 -3.625000
v 0.437500 3.375000 -3.375000
v 0.562500 3.375000 -3.375000
v 0.562500 3.375000 -3.625000
v -0.562500 0.250000 -2.375000
v -0.437500 0.250000 -2.375000
v -0.562500 0.250000 -2.625000
v -0.437500 0.250000 -2.625000
v -0.562500 3.375000 -3.625000
v -0.562500 3.375000 -3.375000
v -0.437500 3.375000 -3.375000
v -0.437500 3.375000 -3.625000
v 0.312500 0.250000 -4.375000
v 0.437500 0.250000 -4.375000
v 0.312500 0.250000 -4.625000
v 0.437500 0.250000 -4.625000
v 0.312500 3.375000 -3.625000
v 0.312500 3.375000 -3.375000
v 0.437500 3.375000 -3.375000
v 0.437500 3.375000 -3.625000
v -0.437500 0.250000 -4.375000
v -0.312500 0.250000 -4.375000
v -0.437500 0.250000 -4.625000
v -0.312500 0.250000 -4.625000
v -0.437500 3.375000 -3.625000
v -0.437500 3.375000 -3.375000
v -0.312500 3.375000 -3.375000
v -0.312500 3.375000 -3.625000
v 0.625000 0.000000 -1.500000
v 0.625000 0.750000 -4.500000
v 1.500000 0.000000 -3.500000
v 1.500000 0.000000 -2.500000
v 1.375000 0.000000 -1.500000
v 1.375000 1.000000 -1.500000
v 1.375000 0.000000 -2.500000
v 1.375000 1.000000 -2.500000
v 1.500000 1.000000 -3.500000
v 1.500000 1.000000 -2.500000
v 0.625000 0.000000 -4.500000
v 0.625000 0.750000 -1.500000
v 1.375000 0.000000 -3.500000
v 1.375000 1.000000 -3.500000
v 1.375000 0.000000 -4.500000
v 1.375000 1.000000 -4.500000
v 1.375000 0.312500 -3.812500
v 1.375000 0.687500 -3.812500
v 1.375000 0.312500 -4.187500
v 1.375000 0.687500 -4.187500
v 1.500000 0.687500 -4.187500
v 1.500000 0.312500 -4.187500
v 1.500000 0.312500 -3.812500
v 1.500000 0.687500 -3.812500
v 1.375000 0.312500 -1.812500
v 1.375000 0.687500 -1.812500
v 1.375000 0.312500 -2.187500
v 1.375000 0.687500 -2.187500
v 1.500000 0.687500 -2.187500
v 1.500000 0.312500 -2.187500
v 1.500000 0.312500 -1.812500
v 1.500000 0.687500 -1.812500
v 1.437500 0.125000 -3.375000
v 1.437500 0.125000 -2.625000
v 1.437500 0.875000 -3.375000
v 1.437500 0.875000 -2.625000
v 1.500000 0.875000 -2.625000
v 1.500000 0.875000 -3.375000
v 1.500000 0.125000 -3.375000
v 1.500000 0.125000 -2.625000
v 0.875000 1.000000 -4.500000
v 0.875000 1.000000 -1.500000
v -1.500000 0.687500 -4.187500
v -1.500000 0.312500 -4.187500
v -1.500000 0.312500 -3.812500
v -1.500000 0.687500 -3.812500
v -1.500000 0.687500 -2.187500
v -1.500000 0.312500 -2.187500
v -1.500000 0.312500 -1.812500
v -1.500000 0.687500 -1.812500
v -0.867417 0.632583 -2.750000
v -1.000000 0.687500 -2.750000
v -1.000000 0.875000 -2.500000
v -1.000000 0.875000 -1.000000
v -0.734835 0.765165 -2.500000
v -0.734835 0.765165 -1.000000
v -0.625000 0.500000 -2.500000
v -0.625000 0.500000 -1.000000
v -0.734835 0.234835 -2.500000
v -0.734835 0.234835 -1.000000
v -1.000000 0.125000 -2.500000
v -1.000000 0.125000 -1.000000
v -1.265165 0.234835 -2.500000
v -1.265165 0.234835 -1.000000
v -1.375000 0.500000 -2.500000
v -1.375000 0.500000 -1.000000
v -1.265165 0.765165 -2.500000
v -1.265165 0.765165 -1.000000
v -0.812500 0.500000 -2.750000
v -0.867417 0.367418 -2.750000
v -1.000000 0.312500 -2.750000
v -1.132583 0.367418 -2.750000
v -1.187500 0.500000 -2.750000
v -1.132583 0.632583 -2.750000
v -0.867417 0.632582 -0.750000
v -1.000000 0.687500 -0.750000
v -0.812500 0.500000 -0.750000
v -0.867417 0.367417 -0.750000
v -1.000000 0.312500 -0.750000
v -1.132583 0.367417 -0.750000
v -1.187500 0.500000 -0.750000
v -1.132583 0.632582 -0.750000
v -0.867417 0.632583 -5.250000
v -1.000000 0.687500 -5.250000
v -1.000000 0.875000 -5.000000
v -1.000000 0.875000 -3.500000
v -0.734835 0.765165 -5.000000
v -0.734835 0.765165 -3.500000
v -0.625000 0.500000 -5.000000
v -0.625000 0.500000 -3.500000
v -0.734835 0.234835 -5.000000
v -0.734835 0.234835 -3.500000
v -1.000000 0.125000 -5.000000
v -1.000000 0.125000 -3.500000
v -1.265165 0.234835 -5.000000
v -1.265165 0.234835 -3.500000
v -1.375000 0.500000 -5.000000
v -1.375000 0.500000 -3.500000
v -1.265165 0.765165 -5.000000
v -1.265165 0.765165 -3.500000
v -0.812500 0.500000 -5.250000
v -0.867417 0.367418 -5.250000
v -1.000000 0.312500 -5.250000
v -1.132583 0.367418 -5.250000
v -1.187500 0.500000 -5.250000
v -1.132583 0.632583 -5.250000
v -0.867417 0.632582 -3.250000
v -1.000000 0.687500 -3.250000
v -0.812500 0.500000 -3.250000
v -0.867417 0.367417 -3.250000
v -1.000000 0.312500 -3.250000
v -1.132583 0.367417 -3.250000
v -1.187500 0.500000 -3.250000
v -1.132583 0.632582 -3.250000
v -1.125000 0.000000 -1.062500
v -1.125000 0.187500 -1.062500
v -1.125000 0.000000 -1.187500
v -1.125000 0.187500 -1.187500
v -0.875000 0.000000 -1.062500
v -0.875000 0.187500 -1.062500
v -0.875000 0.000000 -1.187500
v -0.875000 0.187500 -1.187500
v -1.125000 0.000000 -4.812500
v -1.125000 0.187500 -4.812500
v -1.125000 0.000000 -4.937500
v -1.125000 0.187500 -4.937500
v -0.875000 0.000000 -4.812500
v -0.875000 0.187500 -4.812500
v -0.875000 0.000000 -4.937500
v -0.875000 0.187500 -4.937500
v -0.875000 0.187500 -3.687500
v -0.875000 0.000000 -3.687500
v -0.875000 0.187500 -3.562500
v -0.875000 0.000000 -3.562500
v -1.125000 0.187500 -3.687500
v -1.125000 0.000000 -3.687500
v -1.125000 0.187500 -3.562500
v -1.125000 0.000000 -3.562500
v -0.875000 0.187500 -2.437500
v -0.875000 0.000000 -2.437500
v -0.875000 0.187500 -2.312500
v -0.875000 0.000000 -2.312500
v -1.125000 0.187500 -2.437500
v -1.125000 0.000000 -2.437500
v -1.125000 0.187500 -2.312500
v -1.125000 0.000000 -2.312500
v 0.088388 0.750000 -0.088388
v 0.125000 0.750000 -0.000000
v 0.088388 0.750000 0.088388
v 0.000000 0.750000 0.125000
v -0.088388 0.750000 0.088388
v -0.125000 0.750000 0.000000
v 0.000000 0.750000 -0.125000
v -0.088388 0.750000 -0.088388
v -0.390165 1.250000 -1.765165
v -0.125000 1.250000 -1.875000
v -0.500000 1.250000 -1.500000
v -0.390165 1.250000 -1.234835
v -0.125000 1.250000 -1.125000
v 0.140165 1.250000 -1.234835
v 0.250000 1.250000 -1.500000
v 0.140165 1.250000 -1.765165
v -0.062500 0.625000 -0.062500
v -0.044194 0.669194 -0.062500
v 0.000000 0.687500 -0.062500
v 0.044194 0.669194 -0.062500
v 0.062500 0.625000 -0.062500
v 0.044194 0.580806 -0.062500
v 0.000000 0.562500 -0.062500
v -0.044194 0.580806 -0.062500
v -0.044194 0.669194 -1.187500
v -0.062500 0.625000 -1.187500
v 0.000000 0.687500 -1.187500
v 0.044194 0.669194 -1.187500
v 0.062500 0.625000 -1.187500
v 0.044194 0.580806 -1.187500
v 0.000000 0.562500 -1.187500
v -0.044194 0.580806 -1.187500
v -1.044194 0.580806 -2.750000
v -1.000000 0.562500 -2.750000
v -0.955806 0.580806 -2.750000
v -0.937500 0.625000 -2.750000
v -0.955806 0.669194 -2.750000
v -1.000000 0.687500 -2.750000
v -1.044194 0.669194 -2.750000
v -1.062500 0.625000 -2.750000
v -0.255362 0.580806 -0.630362
v -0.286612 0.562500 -0.661612
v -0.317862 0.580806 -0.692862
v -0.330806 0.625000 -0.705806
v -0.317862 0.669194 -0.692862
v -0.286612 0.687500 -0.661612
v -0.255362 0.669194 -0.630362
v -0.242418 0.625000 -0.617417
v -0.375000 0.580806 -0.580806
v -0.375000 0.562500 -0.625000
v -0.375000 0.580806 -0.669194
v -0.375000 0.625000 -0.687500
v -0.375000 0.669194 -0.669194
v -0.375000 0.687500 -0.625000
v -0.375000 0.669194 -0.580806
v -0.375000 0.625000 -0.562500
v -0.205806 0.580806 -0.750000
v -0.250000 0.562500 -0.750000
v -0.294194 0.580806 -0.750000
v -0.312500 0.625000 -0.750000
v -0.294194 0.669194 -0.750000
v -0.250000 0.687500 -0.750000
v -0.205806 0.669194 -0.750000
v -0.187500 0.625000 -0.750000
v -1.062500 0.625000 -0.750000
v -1.044194 0.669194 -0.750000
v -1.000000 0.687500 -0.750000
v -0.955806 0.669194 -0.750000
v -0.937500 0.625000 -0.750000
v -0.955806 0.580806 -0.750000
v -1.000000 0.562500 -0.750000
v -1.044194 0.580806 -0.750000
v -1.007583 0.625000 -0.617418
v -0.994638 0.669194 -0.630362
v -0.963388 0.687500 -0.661612
v -0.932138 0.669194 -0.692862
v -0.919194 0.625000 -0.705806
v -0.932138 0.580806 -0.692862
v -0.963388 0.562500 -0.661612
v -0.994638 0.580806 -0.630362
v -0.875000 0.625000 -0.562500
v -0.875000 0.669194 -0.580806
v -0.875000 0.687500 -0.625000
v -0.875000 0.669194 -0.669194
v -0.875000 0.625000 -0.687500
v -0.875000 0.580806 -0.669194
v -0.875000 0.562500 -0.625000
v -0.875000 0.580806 -0.580806
v -0.187500 0.625000 -1.250000
v -0.205806 0.669194 -1.250000
v -0.250000 0.687500 -1.250000
v -0.294194 0.669194 -1.250000
v -0.312500 0.625000 -1.250000
v -0.294194 0.580806 -1.250000
v -0.250000 0.562500 -1.250000
v -0.205806 0.580806 -1.250000
v -1.044194 0.580806 -3.250000
v -1.000000 0.562500 -3.250000
v -0.955806 0.580806 -3.250000
v -0.937500 0.625000 -3.250000
v -0.955806 0.669194 -3.250000
v -1.000000 0.687500 -3.250000
v -1.044194 0.669194 -3.250000
v -1.062500 0.625000 -3.250000
v -0.255362 0.330806 -0.630362
v -0.286612 0.312500 -0.661612
v -0.317862 0.330806 -0.692862
v -0.330806 0.375000 -0.705806
v -0.317862 0.419194 -0.692862
v -0.286612 0.437500 -0.661612
v -0.255362 0.419194 -0.630362
v -0.242418 0.375000 -0.617417
v -0.375000 0.330806 -0.580806
v -0.375000 0.312500 -0.625000
v -0.375000 0.330806 -0.669194
v -0.375000 0.375000 -0.687500
v -0.375000 0.419194 -0.669194
v -0.375000 0.437500 -0.625000
v -0.375000 0.419194 -0.580806
v -0.375000 0.375000 -0.562500
v -0.205806 0.330806 -0.750000
v -0.250000 0.312500 -0.750000
v -0.294194 0.330806 -0.750000
v -0.312500 0.375000 -0.750000
v -0.294194 0.419194 -0.750000
v -0.250000 0.437500 -0.750000
v -0.205806 0.419194 -0.750000
v -0.187500 0.375000 -0.750000
v -1.062500 0.375000 -0.750000
v -1.044194 0.419194 -0.750000
v -1.000000 0.437500 -0.750000
v -0.955806 0.419194 -0.750000
v -0.937500 0.375000 -0.750000
v -0.955806 0.330806 -0.750000
v -1.000000 0.312500 -0.750000
v -1.044194 0.330806 -0.750000
v -1.007583 0.375000 -0.617418
v -0.994638 0.419194 -0.630362
v -0.963388 0.437500 -0.661612
v -0.932138 0.419194 -0.692862
v -0.919194 0.375000 -0.705806
v -0.932138 0.330806 -0.692862
v -0.963388 0.312500 -0.661612
v -0.994638 0.330806 -0.630362
v -0.875000 0.375000 -0.562500
v -0.875000 0.419194 -0.580806
v -0.875000 0.437500 -0.625000
v -0.875000 0.419194 -0.669194
v -0.875000 0.375000 -0.687500
v -0.875000 0.330806 -0.669194
v -0.875000 0.312500 -0.625000
v -0.875000 0.330806 -0.580806
v -0.187500 0.375000 -1.250000
v -0.205806 0.419194 -1.250000
v -0.250000 0.437500 -1.250000
v -0.294194 0.419194 -1.250000
v -0.312500 0.375000 -1.250000
v -0.294194 0.330806 -1.250000
v -0.250000 0.312500 -1.250000
v -0.205806 0.330806 -1.250000
v -1.250000 0.687500 -4.187500
v -1.250000 0.312500 -4.187500
v -1.250000 0.312500 -3.812500
v -1.250000 0.687500 -3.812500
v -1.250000 0.687500 -2.187500
v -1.250000 0.312500 -2.187500
v -1.250000 0.312500 -1.812500
v -1.250000 0.687500 -1.812500
v -1.044194 0.330806 -2.750000
v -1.000000 0.312500 -2.750000
v -0.955806 0.330806 -2.750000
v -0.937500 0.375000 -2.750000
v -0.955806 0.419194 -2.750000
v -1.000000 0.437500 -2.750000
v -1.044194 0.419194 -2.750000
v -1.062500 0.375000 -2.750000
v -1.044194 0.330806 -3.250000
v -1.000000 0.312500 -3.250000
v -0.955806 0.330806 -3.250000
v -0.937500 0.375000 -3.250000
v -0.955806 0.419194 -3.250000
v -1.000000 0.437500 -3.250000
v -1.044194 0.419194 -3.250000
v -1.062500 0.375000 -3.250000
v -0.357019 1.250000 -1.732019
v -0.125000 1.250000 -1.828125
v -0.453125 1.250000 -1.500000
v -0.357019 1.250000 -1.267981
v -0.125000 1.250000 -1.171875
v 0.107019 1.250000 -1.267981
v 0.203125 1.250000 -1.500000
v 0.107019 1.250000 -1.732019
v -0.357019 1.312500 -1.732019
v -0.125000 1.312500 -1.828125
v -0.453125 1.312500 -1.500000
v -0.357019 1.312500 -1.267981
v -0.125000 1.312500 -1.171875
v 0.107019 1.312500 -1.267981
v 0.203125 1.312500 -1.500000
v 0.107019 1.312500 -1.732019
v -0.250000 0.375000 -4.625000
v 0.250000 0.375000 -4.625000
v -0.250000 0.375000 -6.375000
v 0.250000 0.375000 -6.375000
v -0.250000 1.875000 -4.625000
v 0.250000 1.875000 -4.625000
v -0.250000 2.375000 -6.375000
v -0.250000 2.375000 -5.125000
v 0.250000 2.375000 -5.125000
v 0.250000 2.375000 -6.375000
v -0.375000 0.375000 -6.500000
v -0.375000 0.375000 -4.500000
v 0.375000 0.375000 -4.500000
v 0.375000 0.375000 -6.500000
v -0.375000 0.250000 -6.500000
v -0.375000 0.250000 -4.500000
v 0.375000 0.250000 -4.500000
v 0.375000 0.250000 -6.500000
v -0.031250 0.562500 -6.375000
v -0.031250 2.187500 -6.375000
v -0.031250 0.625000 -6.437500
v -0.031250 2.125000 -6.437500
v 0.031250 0.562500 -6.375000
v 0.031250 2.187500 -6.375000
v 0.031250 0.625000 -6.437500
v 0.031250 2.125000 -6.437500
v 0.093750 0.562500 -6.375000
v 0.093750 2.187500 -6.375000
v 0.093750 0.625000 -6.437500
v 0.093750 2.125000 -6.437500
v 0.156250 0.562500 -6.375000
v 0.156250 2.187500 -6.375000
v 0.156250 0.625000 -6.437500
v 0.156250 2.125000 -6.437500
v -0.156250 0.562500 -6.375000
v -0.156250 2.187500 -6.375000
v -0.156250 0.625000 -6.437500
v -0.156250 2.125000 -6.437500
v -0.093750 0.562500 -6.375000
v -0.093750 2.187500 -6.375000
v -0.093750 0.625000 -6.437500
v -0.093750 2.125000 -6.437500
v -0.125000 0.437500 -2.875000
v 0.125000 0.437500 -3.125000
v -0.187500 0.375000 -2.812500
v 0.187500 0.375000 -3.187500
v -0.187500 0.250000 -2.812500
v 0.187500 0.250000 -3.187500
v 0.625000 0.375000 -2.812500
v 0.625000 0.375000 -3.187500
v 0.625000 0.250000 -2.812500
v 0.625000 0.250000 -3.187500
v 0.625000 0.437500 -2.875000
v 0.625000 0.437500 -3.125000
v 0.125000 0.437500 -4.625000
v -0.125000 0.437500 -4.625000
v 0.187500 0.375000 -4.625000
v -0.187500 0.375000 -4.625000
v 0.187500 0.250000 -4.625000
v -0.187500 0.250000 -4.625000
v 0.093750 0.437500 -4.625000
v -0.093750 0.437500 -4.625000
v 0.031250 0.437500 -4.625000
v -0.031250 0.437500 -4.625000
v 0.093750 0.437500 -4.568750
v -0.093750 0.437500 -4.568750
v 0.031250 0.437500 -4.568750
v -0.031250 0.437500 -4.568750
v -0.031250 1.687500 -4.625000
v -0.093750 1.687500 -4.625000
v 0.093750 1.687500 -4.625000
v 0.031250 1.687500 -4.625000
v -0.031250 1.625000 -4.568750
v -0.093750 1.625000 -4.568750
v 0.093750 1.625000 -4.568750
v 0.031250 1.625000 -4.568750
v -0.125000 0.250000 -1.875000
v -0.390165 0.250000 -1.765165
v -0.500000 0.250000 -1.500000
v -0.390165 0.250000 -1.234835
v -0.125000 0.250000 -1.125000
v 0.140165 0.250000 -1.234835
v 0.250000 0.250000 -1.500000
v 0.140165 0.250000 -1.765165
v -0.390165 1.250000 -1.765165
v -0.125000 1.250000 -1.875000
v -0.500000 1.250000 -1.500000
v -0.390165 1.250000 -1.234835
v -0.125000 1.250000 -1.125000
v 0.140165 1.250000 -1.234835
v 0.250000 1.250000 -1.500000
v 0.140165 1.250000 -1.765165
v -0.357019 1.250000 -1.732019
v -0.125000 1.250000 -1.828125
v -0.453125 1.250000 -1.500000
v -0.357019 1.250000 -1.267981
v -0.125000 1.250000 -1.171875
v 0.107019 1.250000 -1.267981
v 0.203125 1.250000 -1.500000
v 0.107019 1.250000 -1.732019
v -0.357019 1.312500 -1.732019
v -0.125000 1.312500 -1.828125
v -0.453125 1.312500 -1.500000
v -0.357019 1.312500 -1.267981
v -0.125000 1.312500 -1.171875
v 0.107019 1.312500 -1.267981
v 0.203125 1.312500 -1.500000
v 0.107019 1.312500 -1.732019
v 0.250000 0.294194 -0.044194
v 0.250000 0.250000 -0.062500
v 0.250000 0.312500 0.000000
v 0.250000 0.294194 0.044194
v 0.250000 0.250000 0.062500
v 0.250000 0.205806 0.044194
v 0.250000 0.187500 0.000000
v 0.250000 0.205806 -0.044194
v -0.250000 0.500000 -0.062500
v -0.250000 0.544194 -0.044194
v -0.250000 0.562500 0.000000
v -0.250000 0.544194 0.044194
v -0.250000 0.500000 0.062500
v -0.250000 0.455806 0.044194
v -0.250000 0.437500 0.000000
v -0.250000 0.455806 -0.044194
v -0.867417 0.632583 -2.750000
v -1.000000 0.687500 -2.750000
v -1.000000 0.875000 -2.500000
v -1.000000 0.875000 -1.000000
v -0.734835 0.765165 -2.500000
v -0.734835 0.765165 -1.000000
v -0.625000 0.500000 -2.500000
v -0.625000 0.500000 -1.000000
v -0.734835 0.234835 -2.500000
v -0.734835 0.234835 -1.000000
v -1.000000 0.125000 -2.500000
v -1.000000 0.125000 -1.000000
v -1.265165 0.234835 -2.500000
v -1.265165 0.234835 -1.000000
v -1.375000 0.500000 -2.500000
v -1.375000 0.500000 -1.000000
v -1.265165 0.765165 -2.500000
v -1.265165 0.765165 -1.000000
v -0.812500 0.500000 -2.750000
v -0.867417 0.367418 -2.750000
v -1.000000 0.312500 -2.750000
v -1.132583 0.367418 -2.750000
v -1.187500 0.500000 -2.750000
v -1.132583 0.632583 -2.750000
v -0.867417 0.632582 -0.750000
v -1.000000 0.687500 -0.750000
v -0.812500 0.500000 -0.750000
v -0.867417 0.367417 -0.750000
v -1.000000 0.312500 -0.750000
v -1.132583 0.367417 -0.750000
v -1.187500 0.500000 -0.750000
v -1.132583 0.632582 -0.750000
v -0.867417 0.632583 -5.250000
v -1.000000 0.687500 -5.250000
v -1.000000 0.875000 -5.000000
v -1.000000 0.875000 -3.500000
v -0.734835 0.765165 -5.000000
v -0.734835 0.765165 -3.500000
v -0.625000 0.500000 -5.000000
v -0.625000 0.500000 -3.500000
v -0.734835 0.234835 -5.000000
v -0.734835 0.234835 -3.500000
v -1.000000 0.125000 -5.000000
v -1.000000 0.125000 -3.500000
v -1.265165 0.234835 -5.000000
v -1.265165 0.234835 -3.500000
v -1.375000 0.500000 -5.000000
v -1.375000 0.500000 -3.500000
v -1.265165 0.765165 -5.000000
v -1.265165 0.765165 -3.500000
v -0.812500 0.500000 -5.250000
v -0.867417 0.367418 -5.250000
v -1.000000 0.312500 -5.250000
v -1.132583 0.367418 -5.250000
v -1.187500 0.500000 -5.250000
v -1.132583 0.632583 -5.250000
v -0.867417 0.632582 -3.250000
v -1.000000 0.687500 -3.250000
v -0.812500 0.500000 -3.250000
v -0.867417 0.367417 -3.250000
v -1.000000 0.312500 -3.250000
v -1.132583 0.367417 -3.250000
v -1.187500 0.500000 -3.250000
v -1.132583 0.632582 -3.250000
vt 0.079812 0.000000
vt 0.004695 0.106667
vt 0.004695 0.000000
vt 0.004695 0.113333
vt 0.079812 0.220000
vt 0.004695 0.220000
vt 0.004695 0.226667
vt 0.079812 0.226667
vt 0.549296 -0.000000
vt 0.098592 0.133333
vt 0.098592 -0.000000
vt -0.000000 0.113333
vt -0.000000 0.220000
vt 0.079812 0.106667
vt 0.849765 0.373333
vt 0.868545 0.400000
vt 0.849765 0.400000
vt 0.906103 0.373333
vt 0.924883 0.333333
vt 0.924883 0.373333
vt 0.868545 0.333333
vt 0.849765 0.306667
vt 0.868545 0.306667
vt 0.868545 0.306667
vt 0.849765 0.333333
vt 0.849765 0.306667
vt 0.868545 0.333333
vt 0.868545 0.373333
vt 0.887324 0.333333
vt 0.887324 0.373333
vt 0.906103 0.333333
vt 0.849765 0.400000
vt 0.868545 0.373333
vt 0.868545 0.400000
vt 0.849765 0.373333
vt 0.849765 0.333333
vt 0.887324 0.333333
vt 0.924883 0.333333
vt 0.906103 0.373333
vt 0.906103 0.333333
vt 0.887324 0.373333
vt 0.098592 0.160000
vt 0.549296 0.293333
vt 0.098592 0.293333
vt 0.079812 0.160000
vt 0.079812 0.293333
vt 0.549296 0.133333
vt 0.098592 0.320000
vt 0.549296 0.320000
vt 0.568075 0.293333
vt 0.549296 0.160000
vt 0.568075 0.160000
vt 0.943662 -0.000000
vt 0.962441 0.333333
vt 0.943662 0.333333
vt 0.934272 0.333333
vt 0.934272 -0.000000
vt 0.943662 -0.000000
vt 0.962441 0.333333
vt 0.943662 0.333333
vt 0.934272 0.333333
vt 0.934272 -0.000000
vt 0.915493 -0.000000
vt 0.906103 0.333333
vt 0.906103 -0.000000
vt 0.915493 0.333333
vt 0.915493 -0.000000
vt 0.906103 0.333333
vt 0.906103 -0.000000
vt 0.915493 0.333333
vt 0.962441 -0.000000
vt 0.943662 0.333333
vt 0.943662 -0.000000
vt 0.934272 0.333333
vt 0.934272 -0.000000
vt 0.915493 -0.000000
vt 0.906103 0.333333
vt 0.906103 -0.000000
vt 0.915493 0.333333
vt 0.962441 -0.000000
vt 0.943662 0.333333
vt 0.943662 -0.000000
vt 0.934272 0.333333
vt 0.934272 -0.000000
vt 0.915493 -0.000000
vt 0.906103 0.333333
vt 0.906103 -0.000000
vt 0.915493 0.333333
vt 0.413146 0.466667
vt 0.488263 0.453333
vt 0.488263 0.466667
vt 0.699531 0.280000
vt 0.624413 0.173333
vt 0.699531 0.173333
vt 0.624413 0.333333
vt 0.624413 0.280000
vt 0.624413 0.360000
vt 0.849765 0.333333
vt 0.849765 0.360000
vt 0.568075 0.253333
vt 0.568075 0.173333
vt 0.488263 0.320000
vt 0.413146 0.333333
vt 0.413146 0.320000
vt 0.624413 0.086667
vt 0.849765 -0.000000
vt 0.849765 0.086667
vt 0.849765 0.280000
vt 0.774648 0.173333
vt 0.849765 0.173333
vt 0.399061 0.340000
vt 0.408451 0.446667
vt 0.399061 0.446667
vt 0.502347 0.446667
vt 0.492958 0.340000
vt 0.502347 0.340000
vt 0.417840 0.353333
vt 0.422535 0.433333
vt 0.417840 0.433333
vt 0.389671 0.386667
vt 0.361502 0.426667
vt 0.361502 0.386667
vt 0.389671 0.426667
vt 0.361502 0.386667
vt 0.389671 0.386667
vt 0.352113 0.386667
vt 0.361502 0.426667
vt 0.352113 0.426667
vt 0.389671 0.373333
vt 0.361502 0.373333
vt 0.361502 0.440000
vt 0.389671 0.440000
vt 0.399061 0.426667
vt 0.399061 0.386667
vt 0.361502 0.440000
vt 0.389671 0.426667
vt 0.389671 0.440000
vt 0.352113 0.386667
vt 0.352113 0.426667
vt 0.399061 0.426667
vt 0.399061 0.386667
vt 0.389671 0.373333
vt 0.361502 0.373333
vt 0.478873 0.346667
vt 0.422535 0.353333
vt 0.422535 0.346667
vt 0.422535 0.440000
vt 0.478873 0.433333
vt 0.478873 0.440000
vt 0.478873 0.353333
vt 0.413146 0.453333
vt 0.492958 0.446667
vt 0.483568 0.353333
vt 0.488263 0.333333
vt 0.483568 0.433333
vt 0.408451 0.340000
vt 0.887324 0.280000
vt 0.333333 0.400000
vt 0.305164 0.440000
vt 0.305164 0.400000
vt 0.333333 0.400000
vt 0.305164 0.440000
vt 0.305164 0.400000
vt 0.112676 0.633333
vt 0.098592 0.646667
vt 0.098592 0.633333
vt 0.098592 0.666667
vt 0.079812 0.646667
vt 0.065728 0.646667
vt 0.079812 0.633333
vt 0.079812 0.613333
vt 0.112676 0.633333
vt 0.098592 0.646667
vt 0.098592 0.633333
vt 0.098592 0.666667
vt 0.079812 0.646667
vt 0.065728 0.646667
vt 0.079812 0.633333
vt 0.079812 0.613333
vt 0.079812 0.646667
vt 0.098592 0.633333
vt 0.098592 0.646667
vt 0.079812 0.613333
vt 0.079812 0.633333
vt 0.065728 0.646667
vt 0.098592 0.666667
vt 0.112676 0.633333
vt 0.079812 0.646667
vt 0.098592 0.633333
vt 0.098592 0.646667
vt 0.079812 0.613333
vt 0.079812 0.633333
vt 0.065728 0.646667
vt 0.098592 0.666667
vt 0.112676 0.633333
vt 0.230047 0.433333
vt 0.248826 0.426667
vt 0.248826 0.433333
vt 0.286385 0.400000
vt 0.352113 0.440000
vt 0.333333 0.440000
vt 0.333333 0.373333
vt 0.352113 0.440000
vt 0.333333 0.440000
vt 0.333333 0.373333
vt 0.305164 0.466667
vt 0.286385 0.400000
vt 0.305164 0.466667
vt 0.169256 0.506352
vt 0.149993 0.506352
vt 0.169256 0.440314
vt 0.063803 0.320069
vt 0.067652 0.320070
vt 0.063803 0.333264
vt 0.067652 0.333264
vt 0.061082 0.329399
vt 0.063803 0.320070
vt 0.010411 0.325927
vt 0.005216 0.308117
vt 0.017758 0.300740
vt 0.267606 0.433333
vt 0.267606 0.426667
vt 0.286385 0.433333
vt 0.286385 0.426667
vt 0.154930 0.433333
vt 0.136150 0.426667
vt 0.154930 0.426667
vt 0.173709 0.433333
vt 0.173709 0.426667
vt 0.192488 0.433333
vt 0.192488 0.426667
vt 0.211268 0.433333
vt 0.211268 0.426667
vt 0.230047 0.426667
vt 0.051643 0.533333
vt 0.192488 0.520000
vt 0.183099 0.533333
vt 0.502347 0.680000
vt 0.464789 0.466667
vt 0.502347 0.466667
vt 0.352113 0.626667
vt 0.389671 0.680000
vt 0.352113 0.466667
vt 0.314554 0.626667
vt 0.314554 0.466667
vt 0.464789 0.733333
vt 0.389671 0.733333
vt 0.352113 0.680000
vt 0.352113 0.733333
vt 0.276995 0.680000
vt 0.201878 0.680000
vt 0.201878 0.466667
vt 0.042254 0.520000
vt 0.192488 0.506667
vt 0.183099 0.586667
vt 0.042254 0.600000
vt 0.051643 0.586667
vt 0.192488 0.600000
vt 0.098592 0.493333
vt 0.093897 0.326667
vt 0.098592 0.320000
vt 0.042254 0.613333
vt 0.201878 0.600000
vt 0.032864 0.520000
vt 0.093897 0.486667
vt 0.089202 0.326667
vt 0.089202 0.486667
vt 0.084507 0.320000
vt 0.098592 0.493333
vt 0.093897 0.326667
vt 0.098592 0.320000
vt 0.093897 0.320000
vt 0.089202 0.493333
vt 0.093897 0.486667
vt 0.089202 0.326667
vt 0.089202 0.486667
vt 0.084507 0.320000
vt 0.093897 0.320000
vt 0.089202 0.493333
vt 0.098592 0.493333
vt 0.093897 0.326667
vt 0.098592 0.320000
vt 0.093897 0.486667
vt 0.089202 0.326667
vt 0.089202 0.486667
vt 0.084507 0.320000
vt 0.093897 0.320000
vt 0.089202 0.493333
vt 0.525822 0.780000
vt 0.413146 0.753333
vt 0.544601 0.753333
vt 0.610329 0.733333
vt 0.549296 0.746667
vt 0.549296 0.733333
vt 0.521127 0.800000
vt 0.413146 0.786667
vt 0.521127 0.786667
vt 0.413146 0.746667
vt 0.577465 0.786667
vt 0.610329 0.780000
vt 0.610329 0.786667
vt 0.610329 0.746667
vt 0.553991 0.753333
vt 0.610329 0.800000
vt 0.577465 0.800000
vt 0.572770 0.780000
vt 0.610329 0.753333
vt 0.413146 0.780000
vt 0.075117 0.446667
vt 0.079812 0.453333
vt 0.075117 0.453333
vt 0.075117 0.446667
vt 0.079812 0.453333
vt 0.075117 0.453333
vt 0.070423 0.320000
vt 0.070423 0.453333
vt 0.070423 0.320000
vt 0.070423 0.453333
vt 0.079812 0.320000
vt 0.075117 0.320000
vt 0.084507 0.320000
vt 0.079812 0.446667
vt 0.084507 0.320000
vt 0.079812 0.446667
vt 0.079812 0.320000
vt 0.075117 0.320000
vt 0.079812 0.113333
vt 0.924883 0.373333
vt 0.962441 0.000000
vt 0.962441 0.000000
vt 0.962441 0.333333
vt 0.962441 0.333333
vt 0.774648 0.280000
vt 0.586854 0.280000
vt 0.624413 -0.000000
vt 0.906103 0.173333
vt 0.906103 0.253333
vt 0.112676 0.646667
vt 0.079812 0.666667
vt 0.065728 0.633333
vt 0.098592 0.613333
vt 0.112676 0.646667
vt 0.079812 0.666667
vt 0.065728 0.633333
vt 0.098592 0.613333
vt 0.098592 0.613333
vt 0.065728 0.633333
vt 0.079812 0.666667
vt 0.112676 0.646667
vt 0.098592 0.613333
vt 0.065728 0.633333
vt 0.079812 0.666667
vt 0.112676 0.646667
vt 0.286385 0.440000
vt 0.352113 0.400000
vt 0.305164 0.373333
vt 0.352113 0.400000
vt 0.305164 0.373333
vt 0.333333 0.466667
vt 0.286385 0.440000
vt 0.333333 0.466667
vt 0.136372 0.487010
vt 0.136372 0.459656
vt 0.149993 0.440314
vt 0.182877 0.459656
vt 0.182877 0.487010
vt 0.070374 0.323934
vt 0.070374 0.329399
vt 0.067652 0.333264
vt 0.061082 0.329399
vt 0.061082 0.323934
vt 0.070374 0.323934
vt 0.070374 0.329399
vt 0.063803 0.333264
vt 0.061082 0.323934
vt 0.067652 0.320069
vt 0.005216 0.318550
vt 0.010411 0.300740
vt 0.022953 0.308117
vt 0.022953 0.318550
vt 0.017758 0.325927
vt 0.136150 0.433333
vt 0.464789 0.680000
vt 0.042254 0.506667
vt 0.192488 0.613333
vt 0.201878 0.520000
vt 0.032864 0.600000
vt 0.084507 0.493333
vt 0.089202 0.320000
vt 0.093897 0.493333
vt 0.084507 0.493333
vt 0.089202 0.320000
vt 0.093897 0.493333
vt 0.084507 0.493333
vt 0.089202 0.320000
vt 0.093897 0.493333
vt 0.413146 0.800000
vt 0.413146 0.733333
vt 0.084507 0.453333
vt 0.084507 0.453333
vt 0.685446 0.440000
vt 0.661972 0.420000
vt 0.685446 0.413333
vt 0.070423 0.226667
vt 0.061033 0.300000
vt 0.061033 0.226667
vt 0.051643 0.226667
vt 0.042254 0.300000
vt 0.042254 0.226667
vt 0.032864 0.226667
vt 0.023474 0.300000
vt 0.023474 0.226667
vt 0.014085 0.226667
vt 0.004695 0.300000
vt 0.004695 0.226667
vt 0.079812 0.226667
vt 0.070423 0.300000
vt 0.051643 0.300000
vt 0.032864 0.300000
vt 0.014085 0.300000
vt 0.798122 0.466667
vt 0.821596 0.446667
vt 0.821596 0.460000
vt 0.093897 0.320000
vt 0.098592 0.300000
vt 0.098592 0.320000
vt 0.065728 0.320000
vt 0.070423 0.300000
vt 0.070423 0.320000
vt 0.075117 0.320000
vt 0.079812 0.300000
vt 0.079812 0.320000
vt 0.084507 0.320000
vt 0.089202 0.300000
vt 0.089202 0.320000
vt 0.093897 0.300000
vt 0.061033 0.320000
vt 0.065728 0.300000
vt 0.075117 0.300000
vt 0.084507 0.300000
vt 0.075117 0.320000
vt 0.070423 0.300000
vt 0.075117 0.300000
vt 0.084507 0.320000
vt 0.079812 0.300000
vt 0.084507 0.300000
vt 0.098592 0.320000
vt 0.093897 0.300000
vt 0.098592 0.300000
vt 0.070423 0.320000
vt 0.065728 0.300000
vt 0.079812 0.320000
vt 0.089202 0.320000
vt 0.089202 0.300000
vt 0.093897 0.320000
vt 0.065728 0.320000
vt 0.061033 0.300000
vt 0.685446 0.546667
vt 0.661972 0.566667
vt 0.661972 0.553333
vt 0.042254 0.346667
vt 0.046948 0.360000
vt 0.042254 0.360000
vt 0.051643 0.346667
vt 0.051643 0.360000
vt 0.056338 0.360000
vt 0.061033 0.346667
vt 0.061033 0.360000
vt 0.023474 0.360000
vt 0.028169 0.346667
vt 0.028169 0.360000
vt 0.032864 0.360000
vt 0.032864 0.346667
vt 0.037559 0.360000
vt 0.037559 0.346667
vt 0.042254 0.333333
vt 0.046948 0.346667
vt 0.051643 0.333333
vt 0.056338 0.333333
vt 0.056338 0.346667
vt 0.061033 0.333333
vt 0.023474 0.333333
vt 0.023474 0.346667
vt 0.028169 0.333333
vt 0.032864 0.333333
vt 0.037559 0.333333
vt 0.028169 0.300000
vt 0.061033 0.300000
vt 0.032864 0.300000
vt 0.037559 0.300000
vt 0.046948 0.333333
vt 0.051643 0.300000
vt 0.046948 0.300000
vt 0.056338 0.300000
vt 0.042254 0.300000
vt 0.042254 0.373333
vt 0.037559 0.373333
vt 0.028169 0.373333
vt 0.046948 0.373333
vt 0.056338 0.373333
vt 0.051643 0.373333
vt 0.032864 0.373333
vt 0.023474 0.373333
vt 0.685446 0.466667
vt 0.798122 0.440000
vt 0.798122 0.466667
vt 0.685446 0.440000
vt 0.798122 0.413333
vt 0.685446 0.413333
vt 0.798122 0.386667
vt 0.685446 0.386667
vt 0.798122 0.360000
vt 0.685446 0.573333
vt 0.798122 0.546667
vt 0.798122 0.573333
vt 0.795190 0.600581
vt 0.802408 0.575836
vt 0.819834 0.586086
vt 0.685446 0.546667
vt 0.798122 0.520000
vt 0.681306 0.611330
vt 0.663382 0.600788
vt 0.670807 0.575336
vt 0.685446 0.520000
vt 0.798122 0.493333
vt 0.685446 0.493333
vt 0.525822 0.466667
vt 0.638498 0.440000
vt 0.638498 0.466667
vt 0.525822 0.440000
vt 0.638498 0.413333
vt 0.525822 0.413333
vt 0.638498 0.386667
vt 0.525822 0.386667
vt 0.638498 0.360000
vt 0.525822 0.573333
vt 0.638498 0.546667
vt 0.638498 0.573333
vt 0.635565 0.586086
vt 0.652991 0.575836
vt 0.660209 0.600581
vt 0.525822 0.546667
vt 0.638498 0.520000
vt 0.504110 0.586086
vt 0.511328 0.575836
vt 0.521536 0.610830
vt 0.525822 0.520000
vt 0.638498 0.493333
vt 0.525822 0.493333
vt 0.661972 0.526667
vt 0.685446 0.520000
vt 0.798122 0.520000
vt 0.821596 0.540000
vt 0.798122 0.546667
vt 0.798122 0.440000
vt 0.821596 0.420000
vt 0.821596 0.433333
vt 0.685446 0.493333
vt 0.661972 0.473333
vt 0.685446 0.466667
vt 0.661972 0.460000
vt 0.661972 0.446667
vt 0.821596 0.486667
vt 0.798122 0.493333
vt 0.798122 0.386667
vt 0.821596 0.406667
vt 0.798122 0.413333
vt 0.685446 0.386667
vt 0.661972 0.406667
vt 0.661972 0.393333
vt 0.131455 0.440000
vt 0.136150 0.320000
vt 0.136150 0.440000
vt 0.103286 0.440000
vt 0.107981 0.320000
vt 0.107981 0.440000
vt 0.112676 0.440000
vt 0.117371 0.320000
vt 0.117371 0.440000
vt 0.122066 0.440000
vt 0.126761 0.320000
vt 0.126761 0.440000
vt 0.131455 0.320000
vt 0.098592 0.440000
vt 0.103286 0.320000
vt 0.112676 0.320000
vt 0.122066 0.320000
vt 0.352113 0.333333
vt 0.361502 0.340000
vt 0.352113 0.340000
vt 0.361502 0.346667
vt 0.352113 0.346667
vt 0.352113 0.353333
vt 0.361502 0.360000
vt 0.352113 0.360000
vt 0.352113 0.366667
vt 0.361502 0.366667
vt 0.352113 0.373333
vt 0.361502 0.320000
vt 0.352113 0.326667
vt 0.352113 0.320000
vt 0.361502 0.326667
vt 0.610329 0.733333
vt 0.615023 0.786667
vt 0.610329 0.786667
vt 0.615023 0.733333
vt 0.619718 0.786667
vt 0.643192 0.733333
vt 0.647887 0.786667
vt 0.643192 0.786667
vt 0.619718 0.733333
vt 0.624413 0.786667
vt 0.633803 0.733333
vt 0.638498 0.786667
vt 0.633803 0.786667
vt 0.624413 0.733333
vt 0.629108 0.786667
vt 0.629108 0.733333
vt 0.361502 0.326667
vt 0.352113 0.333333
vt 0.352113 0.326667
vt 0.352113 0.320000
vt 0.361502 0.366667
vt 0.352113 0.373333
vt 0.352113 0.366667
vt 0.361502 0.360000
vt 0.352113 0.360000
vt 0.352113 0.353333
vt 0.361502 0.346667
vt 0.352113 0.346667
vt 0.361502 0.340000
vt 0.352113 0.340000
vt 0.361502 0.333333
vt 0.342723 0.326667
vt 0.342723 0.333333
vt 0.342723 0.320000
vt 0.342723 0.373333
vt 0.342723 0.366667
vt 0.342723 0.360000
vt 0.342723 0.353333
vt 0.342723 0.346667
vt 0.342723 0.340000
vt 0.295775 0.333333
vt 0.286385 0.340000
vt 0.286385 0.333333
vt 0.295775 0.340000
vt 0.286385 0.346667
vt 0.295775 0.346667
vt 0.286385 0.353333
vt 0.295775 0.360000
vt 0.286385 0.360000
vt 0.286385 0.366667
vt 0.295775 0.366667
vt 0.286385 0.373333
vt 0.286385 0.320000
vt 0.295775 0.326667
vt 0.286385 0.326667
vt 0.305164 0.333333
vt 0.305164 0.346667
vt 0.295775 0.353333
vt 0.305164 0.353333
vt 0.305164 0.360000
vt 0.305164 0.373333
vt 0.295775 0.373333
vt 0.305164 0.320000
vt 0.295775 0.320000
vt 0.305164 0.326667
vt 0.399061 0.373333
vt 0.361502 0.373333
vt 0.399061 0.340000
vt 0.361502 0.353333
vt 0.399061 0.360000
vt 0.399061 0.333333
vt 0.399061 0.366667
vt 0.399061 0.346667
vt 0.399061 0.353333
vt 0.361502 0.320000
vt 0.399061 0.326667
vt 0.305164 0.340000
vt 0.305164 0.366667
vt 0.342723 0.326667
vt 0.342723 0.333333
vt 0.342723 0.320000
vt 0.342723 0.373333
vt 0.342723 0.366667
vt 0.342723 0.360000
vt 0.342723 0.353333
vt 0.342723 0.346667
vt 0.342723 0.340000
vt 0.295775 0.333333
vt 0.286385 0.340000
vt 0.286385 0.333333
vt 0.295775 0.340000
vt 0.286385 0.346667
vt 0.295775 0.346667
vt 0.286385 0.353333
vt 0.295775 0.360000
vt 0.286385 0.360000
vt 0.286385 0.366667
vt 0.295775 0.366667
vt 0.286385 0.373333
vt 0.286385 0.320000
vt 0.295775 0.326667
vt 0.286385 0.326667
vt 0.305164 0.333333
vt 0.305164 0.346667
vt 0.295775 0.353333
vt 0.305164 0.353333
vt 0.305164 0.360000
vt 0.305164 0.366667
vt 0.295775 0.373333
vt 0.305164 0.320000
vt 0.295775 0.320000
vt 0.305164 0.326667
vt 0.399061 0.373333
vt 0.361502 0.373333
vt 0.361502 0.333333
vt 0.399061 0.340000
vt 0.361502 0.353333
vt 0.399061 0.360000
vt 0.399061 0.333333
vt 0.399061 0.366667
vt 0.399061 0.346667
vt 0.399061 0.353333
vt 0.399061 0.326667
vt 0.305164 0.340000
vt 0.305164 0.373333
vt 0.615023 0.733333
vt 0.619718 0.786667
vt 0.615023 0.786667
vt 0.610329 0.733333
vt 0.610329 0.786667
vt 0.643192 0.733333
vt 0.647887 0.786667
vt 0.643192 0.786667
vt 0.619718 0.733333
vt 0.624413 0.786667
vt 0.633803 0.733333
vt 0.638498 0.786667
vt 0.633803 0.786667
vt 0.624413 0.733333
vt 0.629108 0.786667
vt 0.629108 0.733333
vt 0.821596 0.513333
vt 0.661972 0.513333
vt 0.661972 0.500000
vt 0.821596 0.366667
vt 0.821596 0.380000
vt 0.685446 0.360000
vt 0.661972 0.380000
vt 0.661972 0.366667
vt 0.821596 0.566667
vt 0.798122 0.573333
vt 0.267606 0.320000
vt 0.248826 0.426667
vt 0.248826 0.320000
vt 0.230047 0.320000
vt 0.211268 0.426667
vt 0.211268 0.320000
vt 0.192488 0.320000
vt 0.173709 0.426667
vt 0.173709 0.320000
vt 0.154930 0.320000
vt 0.136150 0.426667
vt 0.136150 0.320000
vt 0.286385 0.320000
vt 0.267606 0.426667
vt 0.230047 0.426667
vt 0.192488 0.426667
vt 0.154930 0.426667
vt 0.286385 0.433333
vt 0.267606 0.440000
vt 0.267606 0.433333
vt 0.248826 0.433333
vt 0.230047 0.440000
vt 0.230047 0.433333
vt 0.211268 0.433333
vt 0.192488 0.440000
vt 0.192488 0.433333
vt 0.173709 0.433333
vt 0.154930 0.440000
vt 0.154930 0.433333
vt 0.248826 0.440000
vt 0.211268 0.440000
vt 0.173709 0.440000
vt 0.136150 0.440000
vt 0.136150 0.433333
vt 0.525822 0.573333
vt 0.502347 0.553333
vt 0.525822 0.546667
vt 0.638498 0.440000
vt 0.661972 0.460000
vt 0.638498 0.466667
vt 0.525822 0.413333
vt 0.502347 0.433333
vt 0.502347 0.420000
vt 0.638498 0.573333
vt 0.661972 0.553333
vt 0.661972 0.566667
vt 0.525822 0.386667
vt 0.502347 0.366667
vt 0.525822 0.360000
vt 0.638498 0.360000
vt 0.661972 0.380000
vt 0.638498 0.386667
vt 0.525822 0.520000
vt 0.502347 0.500000
vt 0.525822 0.493333
vt 0.638498 0.520000
vt 0.661972 0.500000
vt 0.661972 0.513333
vt 0.502347 0.406667
vt 0.502347 0.393333
vt 0.638498 0.413333
vt 0.661972 0.393333
vt 0.661972 0.406667
vt 0.638498 0.493333
vt 0.661972 0.473333
vt 0.661972 0.486667
vt 0.525822 0.440000
vt 0.502347 0.460000
vt 0.502347 0.446667
vt 0.502347 0.473333
vt 0.525822 0.466667
vt 0.661972 0.433333
vt 0.661972 0.540000
vt 0.638498 0.546667
vt 0.502347 0.526667
vt 0.661972 0.433333
vt 0.079812 0.300000
vt 0.061033 0.300000
vt 0.061033 0.320000
vt 0.685446 0.573333
vt 0.023474 0.300000
vt 0.061033 0.373333
vt 0.685446 0.360000
vt 0.819834 0.600581
vt 0.812616 0.610830
vt 0.802408 0.610830
vt 0.795190 0.586086
vt 0.812616 0.575836
vt 0.681306 0.575336
vt 0.688730 0.585879
vt 0.688730 0.600788
vt 0.670807 0.611330
vt 0.663382 0.585879
vt 0.525822 0.360000
vt 0.652991 0.610830
vt 0.642783 0.610830
vt 0.635565 0.600581
vt 0.642783 0.575836
vt 0.660209 0.586086
vt 0.521536 0.575836
vt 0.528754 0.586086
vt 0.528754 0.600581
vt 0.511328 0.610830
vt 0.504110 0.600581
vt 0.661972 0.540000
vt 0.821596 0.526667
vt 0.661972 0.486667
vt 0.821596 0.473333
vt 0.821596 0.393333
vt 0.098592 0.320000
vt 0.647887 0.733333
vt 0.638498 0.733333
vt 0.399061 0.320000
vt 0.399061 0.320000
vt 0.647887 0.733333
vt 0.638498 0.733333
vt 0.821596 0.500000
vt 0.798122 0.360000
vt 0.821596 0.553333
vt 0.286385 0.426667
vt 0.286385 0.440000
vt 0.502347 0.566667
vt 0.661972 0.446667
vt 0.502347 0.380000
vt 0.661972 0.366667
vt 0.502347 0.513333
vt 0.502347 0.486667
vt 0.661972 0.420000
vt 0.661972 0.526667
vt 0.502347 0.540000
vn 0.0000 -1.0000 0.0000
vn 0.0000 1.0000 0.0000
vn -1.0000 0.0000 0.0000
vn 0.0000 0.0000 1.0000
vn 1.0000 0.0000 0.0000
vn 0.0000 0.0000 -1.0000
vn 0.0000 -0.3048 -0.9524
vn 0.0000 0.3048 0.9524
vn 0.0000 0.3048 -0.9524
vn 0.0000 -0.3048 0.9524
vn -0.7071 0.7071 0.0000
vn 0.0000 0.7071 0.7071
vn 0.0000 -0.7071 -0.7071
vn 0.0000 0.7071 -0.7071
vn 0.7071 0.7071 0.0000
vn 0.0000 0.6690 0.7433
vn 0.5657 0.5657 0.6000
vn 0.8000 0.0000 0.6000
vn 0.7071 0.0000 -0.7071
vn 0.7071 0.0000 0.7071
vn -0.7071 0.0000 0.7071
vn -0.7071 0.0000 -0.7071
vn 0.0000 0.8000 -0.6000
vn 0.5657 0.5657 -0.6000
vn 0.0000 -0.7071 0.7071
vn -0.5657 -0.5657 0.6000
vn 0.0000 -0.8000 0.6000
vn 0.6794 0.7194 0.1447
vn 0.0000 0.9824 0.1866
vn 0.9955 0.0670 0.0670
vn 0.9987 0.0473 0.0196
vn 0.7263 -0.6737 -0.1363
vn 0.0000 -0.9788 -0.2048
vn -0.7573 -0.4617 -0.4617
vn -0.7263 -0.6737 -0.1363
vn -0.9987 0.0473 0.0196
vn -0.9955 0.0670 0.0670
vn -0.6794 0.7194 0.1447
vn -0.6630 0.5293 0.5293
vn 0.0000 0.1866 0.9824
vn 0.6630 0.5293 0.5293
vn 0.9987 0.0196 0.0473
vn 0.7263 -0.1363 -0.6737
vn 0.7573 -0.4617 -0.4617
vn 0.0000 -0.2048 -0.9788
vn -0.7263 -0.1363 -0.6737
vn -0.9987 0.0196 0.0473
vn -0.6794 0.1447 0.7194
vn 0.6794 0.1447 0.7194
vn -0.7071 -0.7071 0.0000
vn 0.7071 -0.7071 0.0000
vn -0.8000 0.0000 0.6000
vn -0.8000 0.0000 -0.6000
vn -0.5657 -0.5657 -0.6000
vn 0.8000 0.0000 -0.6000
vn -0.5657 0.5657 0.6000
vn 0.0000 0.8000 0.6000
vn -0.5657 0.5657 -0.6000
vn 0.5657 -0.5657 -0.6000
vn 0.5657 -0.5657 0.6000
vn 0.7194 0.6794 0.1447
vn 0.5293 0.6630 0.5293
vn 0.0473 0.9987 0.0196
vn 0.0670 0.9955 0.0670
vn -0.4617 0.7573 -0.4617
vn -0.9788 0.0000 -0.2048
vn -0.4617 -0.7573 -0.4617
vn -0.6737 -0.7263 -0.1363
vn 0.0670 -0.9955 0.0670
vn 0.0473 -0.9987 0.0196
vn 0.5293 -0.6630 0.5293
vn 0.7194 -0.6794 0.1447
vn 0.9824 0.0000 0.1866
vn 0.1447 -0.6794 0.7194
vn 0.1866 0.0000 0.9824
vn 0.0196 -0.9987 0.0473
vn -0.1363 -0.7263 -0.6737
vn -0.2048 0.0000 -0.9788
vn -0.1363 0.7263 -0.6737
vn 0.0196 0.9987 0.0473
vn 0.1447 0.6794 0.7194
vn -0.7150 0.6332 0.2962
vn -0.9239 0.0000 0.3827
vn -0.5293 0.6630 0.5293
vn -0.0948 0.9947 0.0392
vn -0.0670 0.9955 0.0670
vn 0.6303 0.7311 -0.2611
vn 0.9239 0.0000 -0.3827
vn 0.6303 -0.7311 -0.2611
vn 0.4617 -0.7573 -0.4617
vn -0.0948 -0.9947 0.0392
vn -0.5293 -0.6630 0.5293
vn -0.7150 -0.6332 0.2962
vn -0.1866 0.0000 0.9824
vn -0.0196 0.9987 0.0473
vn 0.4617 0.7573 -0.4617
vn 0.1363 0.7263 -0.6737
vn 0.2048 0.0000 -0.9788
vn -0.0196 -0.9987 0.0473
vn -0.0670 -0.9955 0.0670
vn -0.1447 -0.6794 0.7194
vn -0.6737 0.7263 -0.1363
vn -0.1447 0.6794 0.7194
vn 0.1363 -0.7263 -0.6737
vn 0.0000 -0.8000 -0.6000
s 1
f 3/1/1 2/2/1 1/3/1
f 7/4/2 5/5/2 6/6/2
f 1/7/3 5/5/3 3/8/3
f 115/9/1 114/10/1 113/11/1
f 2/12/4 6/6/4 1/13/4
f 4/14/5 7/4/5 2/2/5
f 98/15/3 99/16/3 97/17/3
f 97/18/4 107/19/4 98/20/4
f 104/21/5 101/22/5 103/23/5
f 105/24/5 107/25/5 106/26/5
f 98/15/2 108/27/2 100/28/2
f 100/28/6 105/29/6 99/30/6
f 99/30/1 106/31/1 97/18/1
f 111/32/3 109/33/3 110/34/3
f 104/21/2 112/35/2 102/36/2
f 103/37/6 109/33/6 104/21/6
f 102/38/4 111/39/4 101/40/4
f 101/40/1 110/41/1 103/37/1
f 119/42/2 117/43/2 118/44/2
f 114/45/4 118/44/4 113/46/4
f 116/47/5 119/42/5 114/10/5
f 113/48/3 117/43/3 115/49/3
f 115/50/6 120/51/6 116/52/6
f 131/53/3 134/54/3 133/55/3
f 131/53/7 136/56/7 132/57/7
f 123/58/3 126/59/3 125/60/3
f 123/58/7 128/61/7 124/62/7
f 122/63/8 126/64/8 121/65/8
f 124/62/5 127/66/5 122/63/5
f 130/67/8 134/68/8 129/69/8
f 132/57/5 135/70/5 130/67/5
f 137/71/3 141/72/3 139/73/3
f 139/73/9 144/74/9 140/75/9
f 138/76/10 142/77/10 137/78/10
f 138/76/5 144/74/5 143/79/5
f 145/80/3 149/81/3 147/82/3
f 147/82/9 152/83/9 148/84/9
f 146/85/10 150/86/10 145/87/10
f 146/85/5 152/83/5 151/88/5
f 160/89/2 161/90/2 166/91/2
f 160/92/5 157/93/5 159/94/5
f 194/95/2 158/96/2 160/92/2
f 164/97/11 193/98/11 154/99/11
f 164/100/4 153/101/4 157/93/4
f 165/102/1 156/103/1 159/104/1
f 153/105/3 154/106/3 163/107/3
f 168/108/5 165/109/5 167/110/5
f 159/111/4 162/112/4 160/113/4
f 166/114/6 155/115/6 165/116/6
f 192/117/6 188/118/6 189/119/6
f 181/120/5 183/121/5 182/122/5
f 173/123/5 175/124/5 174/125/5
f 169/126/4 176/127/4 170/128/4
f 171/129/1 175/124/1 169/130/1
f 170/131/2 173/123/2 172/132/2
f 172/133/6 174/125/6 171/134/6
f 177/135/4 184/136/4 178/137/4
f 179/138/1 183/121/1 177/139/1
f 178/140/2 181/120/2 180/141/2
f 180/142/6 182/122/6 179/143/6
f 153/105/1 163/107/1 165/109/1
f 191/144/2 186/145/2 192/146/2
f 189/147/1 187/148/1 190/149/1
f 187/148/5 186/145/5 185/150/5
f 162/151/5 190/149/5 161/90/5
f 161/152/5 191/153/5 155/115/5
f 155/154/5 192/146/5 156/103/5
f 190/155/4 185/150/4 191/153/4
f 156/156/5 189/119/5 162/112/5
f 193/157/6 168/108/6 167/110/6
f 201/158/3 199/159/3 200/160/3
f 197/161/3 195/162/3 196/163/3
f 268/164/3 269/165/3 267/166/3
f 270/167/6 273/168/6 269/165/6
f 274/169/5 271/170/5 273/168/5
f 272/171/4 267/166/4 271/170/4
f 273/168/1 267/166/1 269/165/1
f 276/172/3 277/173/3 275/174/3
f 278/175/6 281/176/6 277/173/6
f 282/177/5 279/178/5 281/176/5
f 280/179/4 275/174/4 279/178/4
f 281/176/1 275/174/1 277/173/1
f 284/180/1 290/181/1 288/182/1
f 285/183/4 290/181/4 286/184/4
f 283/185/5 286/184/5 284/180/5
f 287/186/6 284/180/6 288/182/6
f 289/187/3 288/182/3 290/181/3
f 292/188/1 298/189/1 296/190/1
f 293/191/4 298/189/4 294/192/4
f 291/193/5 294/192/5 292/188/5
f 295/194/6 292/188/6 296/190/6
f 297/195/3 296/190/3 298/189/3
f 488/196/2 313/197/2 489/198/2
f 195/162/6 460/199/6 196/163/6
f 201/158/4 466/200/4 202/201/4
f 200/160/1 465/202/1 201/158/1
f 197/161/4 462/203/4 198/204/4
f 196/163/1 461/205/1 197/161/1
f 202/201/2 463/206/2 199/159/2
f 199/159/6 464/207/6 200/160/6
f 198/204/2 459/208/2 195/162/2
f 498/209/2 492/210/2 495/211/2
f 618/212/3 617/213/3 621/214/3
f 609/215/5 611/216/5 613/217/5
f 305/218/2 304/219/2 302/220/2
f 490/221/2 313/197/2 314/222/2
f 484/223/2 314/222/2 308/224/2
f 483/225/2 308/226/2 307/227/2
f 485/228/2 307/227/2 309/229/2
f 486/230/2 309/229/2 310/231/2
f 487/232/2 310/231/2 311/233/2
f 312/234/2 487/232/2 311/233/2
f 500/235/2 512/236/2 502/237/2
f 505/238/6 502/239/6 501/240/6
f 504/241/5 502/239/5 507/242/5
f 500/243/4 503/244/4 499/245/4
f 507/242/2 505/246/2 506/247/2
f 504/248/12 506/247/12 503/249/12
f 506/250/3 505/251/3 501/252/3
f 511/253/5 516/254/5 512/236/5
f 501/255/2 510/256/2 499/257/2
f 502/237/2 509/258/2 501/255/2
f 499/257/2 511/253/2 500/235/2
f 518/259/3 519/260/3 517/261/3
f 509/258/3 514/262/3 510/256/3
f 512/236/6 513/263/6 509/258/6
f 510/256/4 515/264/4 511/253/4
f 520/265/6 523/266/6 519/260/6
f 524/267/5 521/268/5 523/266/5
f 526/269/3 527/270/3 525/271/3
f 523/266/13 517/272/13 519/260/13
f 520/265/14 522/273/14 524/267/14
f 528/274/6 531/275/6 527/270/6
f 532/276/5 529/277/5 531/275/5
f 531/275/13 525/278/13 527/270/13
f 528/274/14 530/279/14 532/276/14
f 534/280/3 535/281/3 533/282/3
f 536/283/6 539/284/6 535/281/6
f 540/285/5 537/286/5 539/284/5
f 539/284/13 533/287/13 535/281/13
f 536/283/14 538/288/14 540/285/14
f 542/289/2 554/290/2 541/291/2
f 549/292/4 543/293/4 545/294/4
f 546/295/5 555/296/5 544/297/5
f 556/298/3 545/294/3 543/293/3
f 544/299/14 552/300/14 548/301/14
f 547/302/12 541/303/12 543/293/12
f 544/299/6 550/304/6 546/305/6
f 542/306/2 551/307/2 552/300/2
f 544/297/15 553/308/15 542/289/15
f 541/291/11 556/298/11 543/293/11
f 574/309/16 569/310/16 570/311/16
f 572/312/16 567/313/16 568/314/16
f 560/315/3 572/312/3 568/316/3
f 561/317/3 574/309/3 570/318/3
f 566/319/4 572/312/4 564/320/4
f 562/321/5 571/322/5 566/319/5
f 559/323/5 573/324/5 563/325/5
f 563/325/4 574/309/4 565/326/4
f 3/1/1 4/14/1 2/2/1
f 7/4/2 8/327/2 5/5/2
f 1/7/3 6/6/3 5/5/3
f 115/9/1 116/47/1 114/10/1
f 2/12/4 7/4/4 6/6/4
f 4/14/5 8/327/5 7/4/5
f 98/15/3 100/28/3 99/16/3
f 97/18/4 106/31/4 107/19/4
f 104/21/5 102/36/5 101/22/5
f 105/24/5 108/27/5 107/25/5
f 98/15/2 107/25/2 108/27/2
f 100/28/6 108/27/6 105/29/6
f 99/30/1 105/29/1 106/31/1
f 111/32/3 112/35/3 109/33/3
f 104/21/2 109/33/2 112/35/2
f 103/37/6 110/41/6 109/33/6
f 102/38/4 112/328/4 111/39/4
f 101/40/1 111/39/1 110/41/1
f 119/42/2 120/51/2 117/43/2
f 114/45/4 119/42/4 118/44/4
f 116/47/5 120/51/5 119/42/5
f 113/48/3 118/44/3 117/43/3
f 115/50/6 117/43/6 120/51/6
f 131/53/3 129/329/3 134/54/3
f 131/53/7 133/55/7 136/56/7
f 123/58/3 121/330/3 126/59/3
f 123/58/7 125/60/7 128/61/7
f 122/63/8 127/66/8 126/64/8
f 124/62/5 128/61/5 127/66/5
f 130/67/8 135/70/8 134/68/8
f 132/57/5 136/56/5 135/70/5
f 137/71/3 142/331/3 141/72/3
f 139/73/9 141/72/9 144/74/9
f 138/76/10 143/79/10 142/77/10
f 138/76/5 140/75/5 144/74/5
f 145/80/3 150/332/3 149/81/3
f 147/82/9 149/81/9 152/83/9
f 146/85/10 151/88/10 150/86/10
f 146/85/5 148/84/5 152/83/5
f 160/89/2 162/151/2 161/90/2
f 160/92/5 158/96/5 157/93/5
f 160/92/2 166/333/2 194/95/2
f 166/333/2 168/108/2 193/98/2
f 194/95/2 166/333/2 193/98/2
f 164/97/11 194/95/11 193/98/11
f 157/93/4 158/96/4 194/334/4
f 194/334/4 164/100/4 157/93/4
f 165/102/1 155/154/1 156/103/1
f 153/105/3 164/335/3 154/106/3
f 168/108/5 166/333/5 165/109/5
f 159/111/4 156/156/4 162/112/4
f 166/114/6 161/152/6 155/115/6
f 192/117/6 186/145/6 188/118/6
f 181/120/5 184/136/5 183/121/5
f 173/123/5 176/127/5 175/124/5
f 169/126/4 175/124/4 176/127/4
f 171/129/1 174/125/1 175/124/1
f 170/131/2 176/127/2 173/123/2
f 172/133/6 173/123/6 174/125/6
f 177/135/4 183/121/4 184/136/4
f 179/138/1 182/122/1 183/121/1
f 178/140/2 184/136/2 181/120/2
f 180/142/6 181/120/6 182/122/6
f 167/110/1 165/109/1 163/107/1
f 165/109/1 159/94/1 153/105/1
f 159/94/1 157/93/1 153/105/1
f 191/144/2 185/150/2 186/145/2
f 189/147/1 188/118/1 187/148/1
f 187/148/5 188/118/5 186/145/5
f 162/151/5 189/147/5 190/149/5
f 161/152/5 190/155/5 191/153/5
f 155/154/5 191/144/5 192/146/5
f 190/155/4 187/148/4 185/150/4
f 156/156/5 192/117/5 189/119/5
f 163/336/6 154/337/6 167/110/6
f 154/337/6 193/157/6 167/110/6
f 201/158/3 202/201/3 199/159/3
f 197/161/3 198/204/3 195/162/3
f 268/164/3 270/338/3 269/165/3
f 270/167/6 274/339/6 273/168/6
f 274/169/5 272/340/5 271/170/5
f 272/171/4 268/341/4 267/166/4
f 273/168/1 271/170/1 267/166/1
f 276/172/3 278/342/3 277/173/3
f 278/175/6 282/343/6 281/176/6
f 282/177/5 280/344/5 279/178/5
f 280/179/4 276/345/4 275/174/4
f 281/176/1 279/178/1 275/174/1
f 284/180/1 286/184/1 290/181/1
f 285/183/4 289/346/4 290/181/4
f 283/185/5 285/347/5 286/184/5
f 287/186/6 283/348/6 284/180/6
f 289/187/3 287/349/3 288/182/3
f 292/188/1 294/192/1 298/189/1
f 293/191/4 297/350/4 298/189/4
f 291/193/5 293/351/5 294/192/5
f 295/194/6 291/352/6 292/188/6
f 297/195/3 295/353/3 296/190/3
f 488/196/2 312/234/2 313/197/2
f 195/162/6 459/354/6 460/199/6
f 201/158/4 465/355/4 466/200/4
f 200/160/1 464/356/1 465/202/1
f 197/161/4 461/357/4 462/203/4
f 196/163/1 460/358/1 461/205/1
f 202/201/2 466/359/2 463/206/2
f 199/159/6 463/360/6 464/207/6
f 198/204/2 462/361/2 459/208/2
f 492/210/2 491/362/2 493/363/2
f 493/363/2 494/364/2 492/210/2
f 494/364/2 495/211/2 492/210/2
f 495/211/2 496/365/2 497/366/2
f 497/366/2 498/209/2 495/211/2
f 617/213/3 616/367/3 615/368/3
f 615/368/3 622/369/3 617/213/3
f 622/369/3 621/214/3 617/213/3
f 621/214/3 620/370/3 619/371/3
f 619/371/3 618/212/3 621/214/3
f 608/372/5 607/373/5 609/215/5
f 609/215/5 610/374/5 611/216/5
f 611/216/5 612/375/5 613/217/5
f 613/217/5 614/376/5 608/372/5
f 608/372/5 609/215/5 613/217/5
f 305/218/2 306/377/2 304/219/2
f 304/219/2 303/378/2 302/220/2
f 302/220/2 301/379/2 305/218/2
f 301/379/2 300/380/2 305/218/2
f 300/380/2 299/381/2 305/218/2
f 490/221/2 489/198/2 313/197/2
f 484/223/2 490/221/2 314/222/2
f 483/225/2 484/382/2 308/226/2
f 485/228/2 483/225/2 307/227/2
f 486/230/2 485/228/2 309/229/2
f 487/232/2 486/230/2 310/231/2
f 312/234/2 488/196/2 487/232/2
f 500/235/2 511/253/2 512/236/2
f 505/238/6 508/383/6 502/239/6
f 500/243/5 502/239/5 504/241/5
f 502/239/5 508/383/5 507/242/5
f 500/243/4 504/241/4 503/244/4
f 507/242/2 508/383/2 505/246/2
f 504/248/12 507/242/12 506/247/12
f 499/245/3 503/244/3 501/252/3
f 503/244/3 506/250/3 501/252/3
f 511/253/5 515/384/5 516/254/5
f 501/255/2 509/258/2 510/256/2
f 502/237/2 512/236/2 509/258/2
f 499/257/2 510/256/2 511/253/2
f 518/259/3 520/265/3 519/260/3
f 509/258/3 513/385/3 514/262/3
f 512/236/6 516/386/6 513/263/6
f 510/256/4 514/387/4 515/264/4
f 520/265/6 524/267/6 523/266/6
f 524/267/5 522/388/5 521/268/5
f 526/269/3 528/274/3 527/270/3
f 523/266/13 521/389/13 517/272/13
f 520/265/14 518/390/14 522/273/14
f 528/274/6 532/276/6 531/275/6
f 532/276/5 530/391/5 529/277/5
f 531/275/13 529/392/13 525/278/13
f 528/274/14 526/393/14 530/279/14
f 534/280/3 536/283/3 535/281/3
f 536/283/6 540/285/6 539/284/6
f 540/285/5 538/394/5 537/286/5
f 539/284/13 537/395/13 533/287/13
f 536/283/14 534/396/14 538/288/14
f 542/289/2 553/308/2 554/290/2
f 549/292/4 547/302/4 543/293/4
f 546/295/5 557/397/5 555/296/5
f 556/298/3 558/398/3 545/294/3
f 544/299/14 542/306/14 552/300/14
f 547/302/12 551/307/12 541/303/12
f 544/299/6 548/301/6 550/304/6
f 542/306/2 541/303/2 551/307/2
f 544/297/15 555/296/15 553/308/15
f 541/291/11 554/290/11 556/298/11
f 574/309/16 573/324/16 569/310/16
f 572/312/16 571/322/16 567/313/16
f 560/315/3 564/320/3 572/312/3
f 561/317/3 565/326/3 574/309/3
f 566/319/4 571/322/4 572/312/4
f 562/321/5 567/399/5 571/322/5
f 559/323/5 569/400/5 573/324/5
f 563/325/4 573/324/4 574/309/4
f 628/401/17 649/402/18 630/403/18
f 16/404/19 23/405/5 15/406/5
f 14/407/20 21/408/4 13/409/4
f 12/410/21 19/411/3 11/412/3
f 10/413/22 18/414/6 9/415/6
f 9/416/6 24/417/19 16/404/19
f 15/406/5 22/418/20 14/407/20
f 13/409/4 20/419/21 12/410/21
f 11/412/3 17/420/22 10/413/22
f 625/421/23 623/422/24 624/423/23
f 32/424/13 39/425/1 31/426/1
f 30/427/25 37/428/4 29/429/4
f 28/430/12 35/431/2 27/432/2
f 26/433/14 34/434/6 25/435/6
f 25/435/6 40/436/13 32/424/13
f 31/437/1 38/438/25 30/427/25
f 29/429/4 36/439/12 28/430/12
f 27/432/2 33/440/14 26/433/14
f 52/441/12 45/442/4 44/443/12
f 50/444/14 43/445/2 42/446/14
f 55/447/1 48/448/13 47/449/1
f 53/450/4 46/451/25 45/442/4
f 51/452/2 44/443/12 43/445/2
f 49/453/6 42/446/14 41/454/6
f 56/455/13 41/454/6 48/448/13
f 54/456/25 47/457/1 46/451/25
f 636/458/26 651/459/27 652/460/26
f 73/461/12 66/462/28 65/463/29
f 66/462/28 75/464/30 67/465/31
f 75/464/30 68/466/32 67/465/31
f 68/466/32 77/467/13 69/468/33
f 69/469/33 78/470/34 70/471/35
f 78/470/34 71/472/36 70/471/35
f 79/473/37 72/474/38 71/472/36
f 80/475/39 65/463/29 72/474/38
f 81/476/40 74/477/41 73/461/12
f 74/477/41 83/478/42 75/464/30
f 75/464/30 84/479/43 76/480/44
f 76/480/44 85/481/45 77/467/13
f 85/482/45 78/470/34 77/483/13
f 86/484/46 79/473/37 78/470/34
f 87/485/47 80/475/39 79/473/37
f 88/486/48 73/461/12 80/475/39
f 85/482/45 59/487/22 86/484/46
f 84/479/43 60/488/6 85/481/45
f 86/484/46 58/489/3 87/485/47
f 87/485/47 57/490/21 88/486/48
f 82/491/49 62/492/5 83/478/42
f 81/476/40 63/493/20 82/491/49
f 83/478/42 61/494/19 84/479/43
f 81/476/40 57/490/21 64/495/4
f 66/462/28 96/496/2 65/463/29
f 65/463/29 89/497/11 72/474/38
f 71/472/36 91/498/50 70/471/35
f 67/465/31 95/499/15 66/462/28
f 67/465/31 93/500/51 94/501/5
f 69/468/33 93/500/51 68/466/32
f 72/474/38 90/502/3 71/472/36
f 70/471/35 92/503/1 69/469/33
f 206/504/2 207/505/15 205/506/2
f 208/507/15 209/508/5 207/505/15
f 210/509/5 211/510/51 209/508/5
f 212/511/51 213/512/1 211/510/51
f 214/513/1 215/514/50 213/515/1
f 233/516/4 231/517/4 229/518/4
f 216/519/50 217/520/3 215/514/50
f 222/521/6 224/522/6 226/523/6
f 218/524/3 219/525/11 217/520/3
f 220/526/11 205/506/2 219/525/11
f 238/527/2 239/528/15 237/529/2
f 240/530/15 241/531/5 239/528/15
f 242/532/5 243/533/51 241/531/5
f 244/534/51 245/535/1 243/533/51
f 246/536/1 247/537/50 245/538/1
f 265/539/4 263/540/4 261/541/4
f 248/542/50 249/543/3 247/537/50
f 257/544/6 258/545/6 254/546/6
f 250/547/3 251/548/11 249/543/3
f 252/549/11 237/529/2 251/548/11
f 636/458/26 653/550/52 638/551/52
f 637/552/53 644/553/54 635/554/54
f 627/555/24 641/556/55 623/557/24
f 640/558/56 648/559/57 626/560/57
f 628/401/17 648/561/57 647/562/17
f 625/421/23 646/563/58 639/564/58
f 631/565/59 641/566/55 629/567/55
f 632/568/60 649/569/18 650/570/60
f 322/571/50 329/572/1 321/573/1
f 320/574/51 327/575/5 319/576/5
f 318/577/15 325/578/2 317/579/2
f 316/580/11 324/581/3 315/582/3
f 315/582/3 330/583/50 322/571/50
f 321/584/1 328/585/51 320/574/51
f 319/576/5 326/586/15 318/577/15
f 317/579/2 323/587/11 316/580/11
f 410/588/20 425/589/61 409/590/62
f 409/590/62 424/591/63 408/592/64
f 424/591/63 407/593/65 408/592/64
f 407/593/65 422/594/66 406/595/22
f 422/594/66 405/596/67 406/595/22
f 421/597/68 404/598/69 405/596/67
f 420/599/70 403/600/71 404/601/69
f 419/602/72 410/588/20 403/600/71
f 396/603/1 333/604/51 332/605/1
f 397/606/51 334/607/5 333/604/51
f 395/608/50 332/609/1 331/610/50
f 398/611/5 335/612/15 334/607/5
f 401/613/11 338/614/3 337/615/11
f 399/616/15 336/617/2 335/612/15
f 400/618/2 337/615/11 336/617/2
f 338/614/3 395/608/50 331/610/50
f 355/619/72 346/620/20 339/621/71
f 340/622/69 355/619/72 339/621/71
f 357/623/68 340/624/69 341/625/67
f 358/626/66 341/625/67 342/627/22
f 343/628/65 358/626/66 342/627/22
f 360/629/63 343/628/65 344/630/64
f 361/631/61 344/630/64 345/632/62
f 362/633/73 345/632/62 346/620/20
f 347/634/74 346/620/20 354/635/75
f 340/622/69 347/634/74 348/636/76
f 341/625/67 348/637/76 349/638/77
f 342/627/22 349/638/77 350/639/78
f 351/640/79 342/627/22 350/639/78
f 352/641/80 343/628/65 351/640/79
f 353/642/81 344/630/64 352/641/80
f 346/620/20 353/642/81 354/635/75
f 371/643/21 364/644/82 363/645/83
f 372/646/84 365/647/85 364/644/82
f 373/648/86 366/649/87 365/647/85
f 366/649/87 375/650/19 367/651/88
f 375/650/19 368/652/89 367/651/88
f 376/653/90 369/654/91 368/652/89
f 369/655/91 378/656/92 370/657/93
f 378/656/92 363/645/83 370/657/93
f 379/658/94 372/646/84 371/643/21
f 372/646/84 381/659/95 373/648/86
f 381/659/95 374/660/96 373/648/86
f 382/661/97 375/650/19 374/660/96
f 383/662/98 376/653/90 375/650/19
f 376/653/90 385/663/99 377/664/100
f 385/665/99 378/656/92 377/666/100
f 386/667/101 371/643/21 378/656/92
f 357/623/68 393/668/1 356/669/70
f 362/633/73 388/670/15 361/631/61
f 359/671/102 391/672/3 358/626/66
f 355/619/72 387/673/5 362/633/73
f 358/626/66 392/674/50 357/623/68
f 361/631/61 389/675/2 360/629/63
f 360/629/63 390/676/11 359/671/102
f 356/677/70 394/678/51 355/619/72
f 382/661/97 350/639/78 383/662/98
f 382/661/97 352/641/80 351/640/79
f 380/679/103 352/641/80 381/659/95
f 380/679/103 354/635/75 353/642/81
f 347/634/74 379/658/94 386/667/101
f 385/665/99 347/634/74 386/667/101
f 385/663/99 349/638/77 348/637/76
f 383/662/98 349/638/77 384/680/104
f 411/681/74 410/588/20 418/682/75
f 404/601/69 411/681/74 412/683/76
f 405/596/67 412/684/76 413/685/77
f 406/595/22 413/685/77 414/686/78
f 415/687/79 406/595/22 414/686/78
f 416/688/80 407/593/65 415/687/79
f 417/689/81 408/592/64 416/688/80
f 410/588/20 417/689/81 418/682/75
f 435/690/21 428/691/82 427/692/83
f 436/693/84 429/694/85 428/691/82
f 437/695/86 430/696/87 429/694/85
f 430/696/87 439/697/19 431/698/88
f 439/697/19 432/699/89 431/698/88
f 440/700/90 433/701/91 432/699/89
f 433/702/91 442/703/92 434/704/93
f 442/703/92 427/692/83 434/704/93
f 443/705/94 436/693/84 435/690/21
f 436/693/84 445/706/95 437/695/86
f 445/706/95 438/707/96 437/695/86
f 446/708/97 439/697/19 438/707/96
f 447/709/98 440/700/90 439/697/19
f 448/710/104 441/711/100 440/700/90
f 449/712/99 442/703/92 441/713/100
f 450/714/101 435/690/21 442/703/92
f 421/597/68 457/715/1 420/716/70
f 426/717/73 452/718/15 425/589/61
f 423/719/102 455/720/3 422/594/66
f 419/602/72 451/721/5 426/717/73
f 422/594/66 456/722/50 421/597/68
f 425/589/61 453/723/2 424/591/63
f 424/591/63 454/724/11 423/719/102
f 420/599/70 458/725/51 419/602/72
f 446/708/97 414/686/78 447/709/98
f 446/708/97 416/688/80 415/687/79
f 444/726/103 416/688/80 445/706/95
f 444/726/103 418/682/75 417/689/81
f 411/681/74 443/705/94 450/714/101
f 449/712/99 411/681/74 450/714/101
f 449/727/99 413/685/77 412/684/76
f 447/709/98 413/685/77 448/710/104
f 477/728/51 470/729/5 469/730/51
f 476/731/1 469/730/51 468/732/1
f 475/733/50 468/734/1 467/735/50
f 478/736/5 471/737/15 470/729/5
f 481/738/11 474/739/3 473/740/11
f 479/741/15 472/742/2 471/737/15
f 480/743/2 473/740/11 472/742/2
f 474/739/3 475/733/50 467/735/50
f 639/564/58 645/744/53 637/552/53
f 640/558/56 653/745/52 654/746/56
f 631/565/59 643/747/105 642/748/59
f 634/749/27 650/750/60 651/751/27
f 635/554/54 643/752/105 633/753/105
f 582/754/19 589/755/5 581/756/5
f 580/757/20 587/758/4 579/759/4
f 578/760/21 585/761/3 577/762/3
f 576/763/22 584/764/6 575/765/6
f 575/766/6 590/767/19 582/754/19
f 581/756/5 588/768/20 580/757/20
f 579/759/4 586/769/21 578/760/21
f 577/762/3 583/770/22 576/763/22
f 592/771/6 606/772/19 598/773/19
f 597/774/5 604/775/20 596/776/20
f 595/777/4 602/778/21 594/779/21
f 593/780/3 599/781/22 591/782/22
f 598/773/19 605/783/5 597/774/5
f 596/776/20 603/784/4 595/777/4
f 594/779/21 601/785/3 593/780/3
f 591/782/22 600/786/6 592/787/6
f 666/788/27 684/789/26 668/790/26
f 659/791/24 656/792/23 657/793/23
f 662/794/18 679/795/17 681/796/18
f 665/797/105 676/798/54 675/799/105
f 664/800/60 683/801/27 666/802/27
f 665/803/105 674/804/59 663/805/59
f 670/806/52 686/807/56 672/808/56
f 669/809/53 678/810/58 677/811/53
f 664/800/60 681/812/18 682/813/60
f 661/814/55 674/815/59 673/816/55
f 671/817/58 656/818/23 678/819/58
f 660/820/17 680/821/57 679/822/17
f 672/808/56 680/823/57 658/824/57
f 661/814/55 655/825/24 659/791/24
f 669/809/53 676/826/54 667/827/54
f 668/790/26 685/828/52 670/806/52
f 628/401/17 647/829/17 649/402/18
f 16/404/19 24/417/19 23/405/5
f 14/407/20 22/418/20 21/408/4
f 12/410/21 20/419/21 19/411/3
f 10/413/22 17/420/22 18/414/6
f 9/416/6 18/830/6 24/417/19
f 15/406/5 23/405/5 22/418/20
f 13/409/4 21/408/4 20/419/21
f 11/412/3 19/411/3 17/420/22
f 625/421/23 627/555/24 623/422/24
f 32/424/13 40/436/13 39/425/1
f 30/427/25 38/438/25 37/428/4
f 28/430/12 36/439/12 35/431/2
f 26/433/14 33/440/14 34/434/6
f 25/435/6 34/434/6 40/436/13
f 31/437/1 39/831/1 38/438/25
f 29/429/4 37/428/4 36/439/12
f 27/432/2 35/431/2 33/440/14
f 52/441/12 53/450/4 45/442/4
f 50/444/14 51/452/2 43/445/2
f 55/447/1 56/455/13 48/448/13
f 53/450/4 54/456/25 46/451/25
f 51/452/2 52/441/12 44/443/12
f 49/453/6 50/444/14 42/446/14
f 56/455/13 49/453/6 41/454/6
f 54/456/25 55/832/1 47/457/1
f 636/458/26 634/833/27 651/459/27
f 73/461/12 74/477/41 66/462/28
f 66/462/28 74/477/41 75/464/30
f 75/464/30 76/480/44 68/466/32
f 68/466/32 76/480/44 77/467/13
f 69/469/33 77/483/13 78/470/34
f 78/470/34 79/473/37 71/472/36
f 79/473/37 80/475/39 72/474/38
f 80/475/39 73/461/12 65/463/29
f 81/476/40 82/491/49 74/477/41
f 74/477/41 82/491/49 83/478/42
f 75/464/30 83/478/42 84/479/43
f 76/480/44 84/479/43 85/481/45
f 85/482/45 86/484/46 78/470/34
f 86/484/46 87/485/47 79/473/37
f 87/485/47 88/486/48 80/475/39
f 88/486/48 81/476/40 73/461/12
f 85/482/45 60/834/6 59/487/22
f 84/479/43 61/494/19 60/488/6
f 86/484/46 59/487/22 58/489/3
f 87/485/47 58/489/3 57/490/21
f 82/491/49 63/493/20 62/492/5
f 81/476/40 64/495/4 63/493/20
f 83/478/42 62/492/5 61/494/19
f 81/476/40 88/486/48 57/490/21
f 66/462/28 95/499/15 96/496/2
f 65/463/29 96/496/2 89/497/11
f 71/472/36 90/502/3 91/498/50
f 67/465/31 94/501/5 95/499/15
f 67/465/31 68/466/32 93/500/51
f 69/468/33 92/835/1 93/500/51
f 72/474/38 89/497/11 90/502/3
f 70/471/35 91/498/50 92/503/1
f 206/504/2 208/507/15 207/505/15
f 208/507/15 210/509/5 209/508/5
f 210/509/5 212/511/51 211/510/51
f 212/511/51 214/836/1 213/512/1
f 214/513/1 216/519/50 215/514/50
f 229/518/4 227/837/4 228/838/4
f 228/838/4 234/839/4 229/518/4
f 234/839/4 233/516/4 229/518/4
f 233/516/4 232/840/4 231/517/4
f 231/517/4 230/841/4 229/518/4
f 216/519/50 218/524/3 217/520/3
f 226/523/6 204/842/6 222/521/6
f 204/842/6 203/843/6 222/521/6
f 203/843/6 221/844/6 222/521/6
f 222/521/6 223/845/6 224/522/6
f 224/522/6 225/846/6 226/523/6
f 218/524/3 220/526/11 219/525/11
f 220/526/11 206/504/2 205/506/2
f 238/527/2 240/530/15 239/528/15
f 240/530/15 242/532/5 241/531/5
f 242/532/5 244/534/51 243/533/51
f 244/534/51 246/847/1 245/535/1
f 246/536/1 248/542/50 247/537/50
f 261/541/4 259/848/4 260/849/4
f 260/849/4 266/850/4 261/541/4
f 266/850/4 265/539/4 261/541/4
f 265/539/4 264/851/4 263/540/4
f 263/540/4 262/852/4 261/541/4
f 248/542/50 250/547/3 249/543/3
f 258/545/6 236/853/6 254/546/6
f 236/853/6 235/854/6 254/546/6
f 235/854/6 253/855/6 254/546/6
f 254/546/6 255/856/6 256/857/6
f 256/857/6 257/544/6 254/546/6
f 250/547/3 252/549/11 251/548/11
f 252/549/11 238/527/2 237/529/2
f 636/458/26 652/858/26 653/550/52
f 637/552/53 645/859/53 644/553/54
f 627/555/24 629/567/55 641/556/55
f 640/558/56 654/860/56 648/559/57
f 628/401/17 626/560/57 648/561/57
f 625/421/23 624/861/23 646/563/58
f 631/565/59 642/862/59 641/566/55
f 632/568/60 630/403/18 649/569/18
f 322/571/50 330/583/50 329/572/1
f 320/574/51 328/585/51 327/575/5
f 318/577/15 326/586/15 325/578/2
f 316/580/11 323/587/11 324/581/3
f 315/582/3 324/581/3 330/583/50
f 321/584/1 329/863/1 328/585/51
f 319/576/5 327/575/5 326/586/15
f 317/579/2 325/578/2 323/587/11
f 410/588/20 426/717/73 425/589/61
f 409/590/62 425/589/61 424/591/63
f 424/591/63 423/719/102 407/593/65
f 407/593/65 423/719/102 422/594/66
f 422/594/66 421/597/68 405/596/67
f 421/597/68 420/716/70 404/598/69
f 420/599/70 419/602/72 403/600/71
f 419/602/72 426/717/73 410/588/20
f 396/603/1 397/606/51 333/604/51
f 397/606/51 398/611/5 334/607/5
f 395/608/50 396/864/1 332/609/1
f 398/611/5 399/616/15 335/612/15
f 401/613/11 402/865/3 338/614/3
f 399/616/15 400/618/2 336/617/2
f 400/618/2 401/613/11 337/615/11
f 338/614/3 402/865/3 395/608/50
f 355/619/72 362/633/73 346/620/20
f 340/622/69 356/677/70 355/619/72
f 357/623/68 356/669/70 340/624/69
f 358/626/66 357/623/68 341/625/67
f 343/628/65 359/671/102 358/626/66
f 360/629/63 359/671/102 343/628/65
f 361/631/61 360/629/63 344/630/64
f 362/633/73 361/631/61 345/632/62
f 347/634/74 339/621/71 346/620/20
f 340/622/69 339/621/71 347/634/74
f 341/625/67 340/624/69 348/637/76
f 342/627/22 341/625/67 349/638/77
f 351/640/79 343/628/65 342/627/22
f 352/641/80 344/630/64 343/628/65
f 353/642/81 345/632/62 344/630/64
f 346/620/20 345/632/62 353/642/81
f 371/643/21 372/646/84 364/644/82
f 372/646/84 373/648/86 365/647/85
f 373/648/86 374/660/96 366/649/87
f 366/649/87 374/660/96 375/650/19
f 375/650/19 376/653/90 368/652/89
f 376/653/90 377/664/100 369/654/91
f 369/655/91 377/666/100 378/656/92
f 378/656/92 371/643/21 363/645/83
f 379/658/94 380/679/103 372/646/84
f 372/646/84 380/679/103 381/659/95
f 381/659/95 382/661/97 374/660/96
f 382/661/97 383/662/98 375/650/19
f 383/662/98 384/680/104 376/653/90
f 376/653/90 384/680/104 385/663/99
f 385/665/99 386/667/101 378/656/92
f 386/667/101 379/658/94 371/643/21
f 357/623/68 392/674/50 393/668/1
f 362/633/73 387/673/5 388/670/15
f 359/671/102 390/676/11 391/672/3
f 355/619/72 394/678/51 387/673/5
f 358/626/66 391/672/3 392/674/50
f 361/631/61 388/670/15 389/675/2
f 360/629/63 389/675/2 390/676/11
f 356/677/70 393/866/1 394/678/51
f 382/661/97 351/640/79 350/639/78
f 382/661/97 381/659/95 352/641/80
f 380/679/103 353/642/81 352/641/80
f 380/679/103 379/658/94 354/635/75
f 347/634/74 354/635/75 379/658/94
f 385/665/99 348/636/76 347/634/74
f 385/663/99 384/680/104 349/638/77
f 383/662/98 350/639/78 349/638/77
f 411/681/74 403/600/71 410/588/20
f 404/601/69 403/600/71 411/681/74
f 405/596/67 404/598/69 412/684/76
f 406/595/22 405/596/67 413/685/77
f 415/687/79 407/593/65 406/595/22
f 416/688/80 408/592/64 407/593/65
f 417/689/81 409/590/62 408/592/64
f 410/588/20 409/590/62 417/689/81
f 435/690/21 436/693/84 428/691/82
f 436/693/84 437/695/86 429/694/85
f 437/695/86 438/707/96 430/696/87
f 430/696/87 438/707/96 439/697/19
f 439/697/19 440/700/90 432/699/89
f 440/700/90 441/711/100 433/701/91
f 433/702/91 441/713/100 442/703/92
f 442/703/92 435/690/21 427/692/83
f 443/705/94 444/726/103 436/693/84
f 436/693/84 444/726/103 445/706/95
f 445/706/95 446/708/97 438/707/96
f 446/708/97 447/709/98 439/697/19
f 447/709/98 448/710/104 440/700/90
f 448/710/104 449/727/99 441/711/100
f 449/712/99 450/714/101 442/703/92
f 450/714/101 443/705/94 435/690/21
f 421/597/68 456/722/50 457/715/1
f 426/717/73 451/721/5 452/718/15
f 423/719/102 454/724/11 455/720/3
f 419/602/72 458/725/51 451/721/5
f 422/594/66 455/720/3 456/722/50
f 425/589/61 452/718/15 453/723/2
f 424/591/63 453/723/2 454/724/11
f 420/599/70 457/867/1 458/725/51
f 446/708/97 415/687/79 414/686/78
f 446/708/97 445/706/95 416/688/80
f 444/726/103 417/689/81 416/688/80
f 444/726/103 443/705/94 418/682/75
f 411/681/74 418/682/75 443/705/94
f 449/712/99 412/683/76 411/681/74
f 449/727/99 448/710/104 413/685/77
f 447/709/98 414/686/78 413/685/77
f 477/728/51 478/736/5 470/729/5
f 476/731/1 477/728/51 469/730/51
f 475/733/50 476/868/1 468/734/1
f 478/736/5 479/741/15 471/737/15
f 481/738/11 482/869/3 474/739/3
f 479/741/15 480/743/2 472/742/2
f 480/743/2 481/738/11 473/740/11
f 474/739/3 482/869/3 475/733/50
f 639/564/58 646/870/58 645/744/53
f 640/558/56 638/551/52 653/745/52
f 631/565/59 633/871/105 643/747/105
f 634/749/27 632/568/60 650/750/60
f 635/554/54 644/872/54 643/752/105
f 582/754/19 590/767/19 589/755/5
f 580/757/20 588/768/20 587/758/4
f 578/760/21 586/769/21 585/761/3
f 576/763/22 583/770/22 584/764/6
f 575/766/6 584/873/6 590/767/19
f 581/756/5 589/755/5 588/768/20
f 579/759/4 587/758/4 586/769/21
f 577/762/3 585/761/3 583/770/22
f 592/771/6 600/874/6 606/772/19
f 597/774/5 605/783/5 604/775/20
f 595/777/4 603/784/4 602/778/21
f 593/780/3 601/785/3 599/781/22
f 598/773/19 606/772/19 605/783/5
f 596/776/20 604/775/20 603/784/4
f 594/779/21 602/778/21 601/785/3
f 591/782/22 599/781/22 600/786/6
f 666/788/27 683/875/27 684/789/26
f 659/791/24 655/876/24 656/792/23
f 662/794/18 660/820/17 679/795/17
f 665/797/105 667/827/54 676/798/54
f 664/800/60 682/877/60 683/801/27
f 665/803/105 675/878/105 674/804/59
f 670/806/52 685/879/52 686/807/56
f 669/809/53 671/817/58 678/810/58
f 664/800/60 662/794/18 681/812/18
f 661/814/55 663/805/59 674/815/59
f 671/817/58 657/793/23 656/818/23
f 660/820/17 658/824/57 680/821/57
f 672/808/56 686/880/56 680/823/57
f 661/814/55 673/881/55 655/825/24
f 669/809/53 677/882/53 676/826/54
f 668/790/26 684/883/26 685/828/52
