mtllib pumpjack_rotor.mtl
usemtl material
o Rotor
v -0.437500 1.500000 -5.625000
v 0.437500 1.500000 -5.625000
v -0.437500 1.411612 -5.588388
v 0.437500 1.411612 -5.588388
v -0.437500 1.375000 -5.500000
v 0.437500 1.375000 -5.500000
v -0.437500 1.411612 -5.411612
v 0.437500 1.411612 -5.411612
v -0.437500 1.500000 -5.375000
v 0.437500 1.500000 -5.375000
v -0.437500 1.588388 -5.411612
v 0.437500 1.588388 -5.411612
v -0.437500 1.625000 -5.500000
v 0.437500 1.625000 -5.500000
v -0.437500 1.588388 -5.588388
v 0.437500 1.588388 -5.588388
v -0.375000 1.500000 -5.625000
v -0.375000 1.411612 -5.588388
v -0.375000 1.375000 -5.500000
v -0.375000 1.411612 -5.411612
v -0.375000 1.500000 -5.375000
v -0.375000 1.588388 -5.411612
v -0.375000 1.625000 -5.500000
v -0.375000 1.588388 -5.588388
v 0.375000 1.411612 -5.588388
v 0.375000 1.500000 -5.625000
v 0.375000 1.375000 -5.500000
v 0.375000 1.411612 -5.411612
v 0.375000 1.500000 -5.375000
v 0.375000 1.588388 -5.411612
v 0.375000 1.625000 -5.500000
v 0.375000 1.588388 -5.588388
v 0.250000 2.250000 -5.375000
v 0.250000 0.625000 -5.375000
v 0.250000 2.250000 -5.625000
v 0.250000 0.625000 -5.625000
v 0.375000 1.625000 -5.625000
v 0.375000 1.625000 -5.375000
v 0.375000 0.750000 -5.375000
v 0.375000 0.750000 -5.625000
v 0.500000 2.250000 -5.375000
v 0.500000 2.250000 -5.625000
v 0.500000 1.750000 -5.375000
v 0.500000 1.750000 -5.625000
v -0.500000 2.250000 -5.375000
v -0.500000 2.250000 -5.625000
v -0.250000 2.250000 -5.375000
v -0.250000 2.250000 -5.625000
v -0.500000 1.750000 -5.375000
v -0.500000 1.750000 -5.625000
v -0.375000 1.625000 -5.375000
v -0.375000 1.625000 -5.625000
v -0.375000 0.750000 -5.375000
v -0.375000 0.750000 -5.625000
v -0.250000 0.625000 -5.375000
v -0.250000 0.625000 -5.625000
v 0.312500 2.042893 -4.792893
v 0.312500 1.826120 -5.117317
v 0.312500 1.750000 -5.500000
v 0.312500 1.826120 -5.882684
v 0.312500 2.042893 -6.207107
v 0.312500 2.207107 -6.207107
v 0.312500 2.423880 -5.882684
v 0.312500 2.500000 -5.500000
v 0.312500 2.423879 -5.117316
v 0.312500 2.207107 -4.792893
v 0.437500 1.826120 -5.117317
v 0.437500 2.042893 -4.792893
v 0.437500 1.750000 -5.500000
v 0.437500 1.826120 -5.882684
v 0.437500 2.042893 -6.207107
v 0.437500 2.423880 -5.882684
v 0.437500 2.207107 -6.207107
v 0.437500 2.500000 -5.500000
v 0.437500 2.423879 -5.117316
v 0.437500 2.207107 -4.792893
v 0.500000 2.000000 -5.562500
v 0.500000 1.955806 -5.544194
v 0.500000 1.937500 -5.500000
v 0.500000 1.955806 -5.455806
v 0.500000 2.000000 -5.437500
v 0.500000 2.044194 -5.455806
v 0.500000 2.062500 -5.500000
v 0.500000 2.044194 -5.544194
v 0.562500 1.955806 -5.544194
v 0.562500 2.000000 -5.562500
v 0.562500 1.937500 -5.500000
v 0.562500 1.955806 -5.455806
v 0.562500 2.000000 -5.437500
v 0.562500 2.044194 -5.455806
v 0.562500 2.062500 -5.500000
v 0.562500 2.044194 -5.544194
v -0.437500 2.042893 -4.792893
v -0.437500 1.826120 -5.117317
v -0.437500 1.750000 -5.500000
v -0.437500 1.826120 -5.882684
v -0.437500 2.042893 -6.207107
v -0.437500 2.207107 -6.207107
v -0.437500 2.423880 -5.882684
v -0.437500 2.500000 -5.500000
v -0.437500 2.423879 -5.117316
v -0.437500 2.207107 -4.792893
v -0.312500 1.826120 -5.117317
v -0.312500 2.042893 -4.792893
v -0.312500 1.750000 -5.500000
v -0.312500 1.826120 -5.882684
v -0.312500 2.042893 -6.207107
v -0.312500 2.423880 -5.882684
v -0.312500 2.207107 -6.207107
v -0.312500 2.500000 -5.500000
v -0.312500 2.423879 -5.117316
v -0.312500 2.207107 -4.792893
v -0.562500 2.000000 -5.562500
v -0.562500 1.955806 -5.544194
v -0.562500 1.937500 -5.500000
v -0.562500 1.955806 -5.455806
v -0.562500 2.000000 -5.437500
v -0.562500 2.044194 -5.455806
v -0.562500 2.062500 -5.500000
v -0.562500 2.044194 -5.544194
v -0.500000 1.955806 -5.544194
v -0.500000 2.000000 -5.562500
v -0.500000 1.937500 -5.500000
v -0.500000 1.955806 -5.455806
v -0.500000 2.000000 -5.437500
v -0.500000 2.044194 -5.455806
v -0.500000 2.062500 -5.500000
v -0.500000 2.044194 -5.544194
v 0.312500 2.042893 -4.792893
v 0.312500 1.826120 -5.117317
v 0.312500 1.750000 -5.500000
v 0.312500 1.826120 -5.882684
v 0.312500 2.042893 -6.207107
v 0.312500 2.207107 -6.207107
v 0.312500 2.423880 -5.882684
v 0.312500 2.500000 -5.500000
v 0.312500 2.423879 -5.117316
v 0.312500 2.207107 -4.792893
v 0.437500 1.826120 -5.117317
v 0.437500 2.042893 -4.792893
v 0.437500 1.750000 -5.500000
v 0.437500 1.826120 -5.882684
v 0.437500 2.042893 -6.207107
v 0.437500 2.423880 -5.882684
v 0.437500 2.207107 -6.207107
v 0.437500 2.500000 -5.500000
v 0.437500 2.423879 -5.117316
v 0.437500 2.207107 -4.792893
v -0.437500 2.042893 -4.792893
v -0.437500 1.826120 -5.117317
v -0.437500 1.750000 -5.500000
v -0.437500 1.826120 -5.882684
v -0.437500 2.042893 -6.207107
v -0.437500 2.207107 -6.207107
v -0.437500 2.423880 -5.882684
v -0.437500 2.500000 -5.500000
v -0.437500 2.423879 -5.117316
v -0.437500 2.207107 -4.792893
v -0.312500 1.826120 -5.117317
v -0.312500 2.042893 -4.792893
v -0.312500 1.750000 -5.500000
v -0.312500 1.826120 -5.882684
v -0.312500 2.042893 -6.207107
v -0.312500 2.423880 -5.882684
v -0.312500 2.207107 -6.207107
v -0.312500 2.500000 -5.500000
v -0.312500 2.423879 -5.117316
v -0.312500 2.207107 -4.792893
v -0.437500 1.500000 -5.625000
v 0.437500 1.500000 -5.625000
v -0.437500 1.411612 -5.588388
v 0.437500 1.411612 -5.588388
v -0.437500 1.375000 -5.500000
v 0.437500 1.375000 -5.500000
v -0.437500 1.411612 -5.411612
v 0.437500 1.411612 -5.411612
v -0.437500 1.500000 -5.375000
v 0.437500 1.500000 -5.375000
v -0.437500 1.588388 -5.411612
v 0.437500 1.588388 -5.411612
v -0.437500 1.625000 -5.500000
v 0.437500 1.625000 -5.500000
v -0.437500 1.588388 -5.588388
v 0.437500 1.588388 -5.588388
v 0.562500 1.955806 -5.544194
v 0.562500 2.000000 -5.562500
v 0.562500 1.937500 -5.500000
v 0.562500 1.955806 -5.455806
v 0.562500 2.000000 -5.437500
v 0.562500 2.044194 -5.455806
v 0.562500 2.062500 -5.500000
v 0.562500 2.044194 -5.544194
v -0.562500 2.000000 -5.562500
v -0.562500 1.955806 -5.544194
v -0.562500 1.937500 -5.500000
v -0.562500 1.955806 -5.455806
v -0.562500 2.000000 -5.437500
v -0.562500 2.044194 -5.455806
v -0.562500 2.062500 -5.500000
v -0.562500 2.044194 -5.544194
vt 0.840376 0.520000
vt 0.821596 0.573333
vt 0.830986 0.506667
vt 0.840376 0.413333
vt 0.859155 0.506667
vt 0.840376 0.506667
vt 0.859155 0.400000
vt 0.840376 0.400000
vt 0.840376 0.573333
vt 0.859155 0.520000
vt 0.859155 0.573333
vt 0.840376 0.600000
vt 0.859155 0.600000
vt 0.840376 0.413333
vt 0.859155 0.400000
vt 0.859155 0.413333
vt 0.840376 0.506667
vt 0.859155 0.506667
vt 0.840376 0.520000
vt 0.859155 0.520000
vt 0.840376 0.573333
vt 0.859155 0.573333
vt 0.840376 0.600000
vt 0.868545 0.506667
vt 0.877934 0.400000
vt 0.877934 0.573333
vt 0.821596 0.400000
vt 0.821596 0.573333
vt 0.877934 0.573333
vt 0.868545 0.506667
vt 0.877934 0.400000
vt 0.830986 0.506667
vt 0.821596 0.400000
vt 0.830986 0.413333
vt 0.910798 0.566667
vt 0.938967 0.493333
vt 0.938967 0.573333
vt 0.990610 0.546667
vt 0.967136 0.506667
vt 0.990610 0.526667
vt 0.887324 0.546667
vt 0.910798 0.506667
vt 0.967136 0.566667
vt 0.884515 0.453133
vt 0.878075 0.449345
vt 0.880743 0.440200
vt 0.880743 0.453133
vt 0.878075 0.443988
vt 0.884515 0.440200
vt 0.890948 0.407574
vt 0.896075 0.414853
vt 0.878573 0.425147
vt 0.890948 0.432426
vt 0.878573 0.425147
vt 0.883699 0.407574
vt 0.910798 0.566667
vt 0.887324 0.526667
vt 0.910798 0.506667
vt 0.938967 0.573333
vt 0.938967 0.493333
vt 0.967136 0.566667
vt 0.967136 0.506667
vt 0.990610 0.526667
vt 0.887324 0.546667
vt 0.910798 0.506667
vt 0.910798 0.566667
vt 0.938967 0.493333
vt 0.938967 0.573333
vt 0.967136 0.506667
vt 0.967136 0.566667
vt 0.990610 0.546667
vt 0.990610 0.526667
vt 0.910798 0.566667
vt 0.887324 0.526667
vt 0.910798 0.506667
vt 0.938967 0.573333
vt 0.938967 0.493333
vt 0.967136 0.566667
vt 0.967136 0.506667
vt 0.990610 0.526667
vt 0.859155 0.413333
vt 0.840376 0.400000
vt 0.859155 0.600000
vt 0.868545 0.413333
vt 0.830986 0.413333
vt 0.868545 0.413333
vt 0.887324 0.526667
vt 0.887183 0.443988
vt 0.887183 0.449345
vt 0.880743 0.453133
vt 0.878075 0.443988
vt 0.884515 0.440200
vt 0.887183 0.443988
vt 0.887183 0.449345
vt 0.884515 0.453133
vt 0.878075 0.449345
vt 0.880743 0.440200
vt 0.896075 0.425147
vt 0.890949 0.432426
vt 0.883699 0.432426
vt 0.878573 0.414853
vt 0.883699 0.407574
vt 0.890949 0.407574
vt 0.896075 0.414853
vt 0.896075 0.425147
vt 0.883699 0.432426
vt 0.878573 0.414853
vt 0.887324 0.546667
vt 0.990610 0.546667
vt 0.887324 0.526667
vt 0.887324 0.546667
vt 0.990610 0.546667
vt 0.896714 0.406667
vt 0.901408 0.400000
vt 0.901408 0.406667
vt 0.892019 0.406667
vt 0.896714 0.400000
vt 0.887324 0.406667
vt 0.892019 0.400000
vt 0.882629 0.406667
vt 0.887324 0.400000
vt 0.877934 0.406667
vt 0.882629 0.400000
vt 0.910798 0.406667
vt 0.915493 0.400000
vt 0.915493 0.406667
vt 0.906103 0.406667
vt 0.910798 0.400000
vt 0.906103 0.400000
vt 0.910798 0.400000
vt 0.906103 0.406667
vt 0.906103 0.400000
vt 0.901408 0.400000
vt 0.901408 0.406667
vt 0.896714 0.406667
vt 0.896714 0.400000
vt 0.892019 0.400000
vt 0.892019 0.406667
vt 0.887324 0.406667
vt 0.887324 0.400000
vt 0.882629 0.406667
vt 0.882629 0.400000
vt 0.877934 0.406667
vt 0.877934 0.400000
vt 0.915493 0.400000
vt 0.910798 0.406667
vt 0.887324 0.440000
vt 0.892019 0.433333
vt 0.892019 0.440000
vt 0.877934 0.440000
vt 0.882629 0.433333
vt 0.882629 0.440000
vt 0.906103 0.440000
vt 0.910798 0.433333
vt 0.910798 0.440000
vt 0.901408 0.433333
vt 0.906103 0.433333
vt 0.896714 0.440000
vt 0.896714 0.433333
vt 0.887324 0.433333
vt 0.915493 0.433333
vt 0.915493 0.440000
vt 0.901408 0.440000
vt 0.887324 0.440000
vt 0.892019 0.433333
vt 0.892019 0.440000
vt 0.877934 0.440000
vt 0.882629 0.433333
vt 0.882629 0.440000
vt 0.906103 0.440000
vt 0.910798 0.433333
vt 0.910798 0.440000
vt 0.901408 0.440000
vt 0.906103 0.433333
vt 0.896714 0.433333
vt 0.896714 0.440000
vt 0.887324 0.433333
vt 0.915493 0.433333
vt 0.915493 0.440000
vt 0.901408 0.433333
vt 1.000000 0.493333
vt 0.990610 0.453333
vt 1.000000 0.453333
vt 0.877934 0.526667
vt 0.887324 0.546667
vt 0.877934 0.546667
vt 0.877934 0.580000
vt 0.887324 0.620000
vt 0.877934 0.620000
vt 1.000000 0.526667
vt 0.990610 0.493333
vt 0.887324 0.493333
vt 0.887324 0.526667
vt 0.887324 0.580000
vt 1.000000 0.580000
vt 0.990610 0.546667
vt 1.000000 0.546667
vt 0.877934 0.453333
vt 0.877934 0.493333
vt 0.990610 0.526667
vt 1.000000 0.620000
vt 0.990610 0.580000
vt 1.000000 0.493333
vt 0.990610 0.453333
vt 1.000000 0.453333
vt 0.877934 0.526667
vt 0.887324 0.546667
vt 0.877934 0.546667
vt 0.877934 0.580000
vt 0.887324 0.620000
vt 0.877934 0.620000
vt 1.000000 0.526667
vt 0.990610 0.493333
vt 0.887324 0.493333
vt 0.887324 0.526667
vt 0.887324 0.580000
vt 1.000000 0.580000
vt 0.990610 0.546667
vt 1.000000 0.546667
vt 0.877934 0.453333
vt 0.877934 0.493333
vt 0.990610 0.526667
vt 1.000000 0.620000
vt 0.990610 0.580000
vt 0.877934 0.400000
vt 0.915493 0.406667
vt 0.877934 0.433333
vt 0.877934 0.433333
vt 0.887324 0.453333
vt 0.990610 0.620000
vt 0.887324 0.453333
vt 0.990610 0.620000
vn 0.0000 0.0000 1.0000
vn 1.0000 0.0000 0.0000
vn 0.7071 -0.7071 0.0000
vn 0.0000 1.0000 0.0000
vn -0.7071 -0.7071 0.0000
vn -1.0000 0.0000 0.0000
vn 0.0000 0.0000 -1.0000
vn 0.0000 0.7071 -0.7071
vn 0.0000 0.7071 0.7071
vn 0.0000 -0.7071 0.7071
vn 0.0000 -1.0000 0.0000
vn 0.0000 -0.7071 -0.7071
vn 0.0000 -0.9239 -0.3827
vn 0.0000 -0.4714 0.8819
vn 0.0000 0.4714 0.8819
vn 0.0000 0.9239 0.3827
vn 0.0000 -0.4714 -0.8819
vn 0.0000 -0.9239 0.3827
vn 0.0000 0.9239 -0.3827
vn 0.0000 0.4714 -0.8819
s 1
f 43/1/1 33/2/1 38/3/1
f 39/4/2 37/5/2 38/6/2
f 36/7/3 39/4/3 34/8/3
f 41/9/2 44/10/2 42/11/2
f 33/12/4 42/11/4 35/13/4
f 37/5/3 43/1/3 38/6/3
f 54/14/5 55/15/5 53/16/5
f 52/17/6 53/16/6 51/18/6
f 50/19/5 51/18/5 49/20/5
f 46/21/6 49/20/6 45/22/6
f 45/22/4 48/23/4 46/21/4
f 37/24/7 36/25/7 35/26/7
f 44/10/7 35/26/7 42/11/7
f 34/27/1 38/3/1 33/2/1
f 48/28/7 50/19/7 46/21/7
f 49/20/1 47/29/1 45/22/1
f 51/30/1 55/31/1 47/29/1
f 52/32/7 56/33/7 54/34/7
f 94/35/6 100/36/6 95/37/6
f 97/38/6 99/39/6 98/40/6
f 93/41/6 101/42/6 94/35/6
f 95/37/6 99/39/6 96/43/6
f 195/44/6 197/45/6 199/46/6
f 191/47/2 189/48/2 187/49/2
f 181/50/6 183/51/6 175/52/6
f 182/53/2 178/54/2 174/55/2
f 111/56/2 104/57/2 103/58/2
f 110/59/2 103/58/2 105/60/2
f 108/61/2 105/60/2 106/62/2
f 107/63/2 108/61/2 106/62/2
f 57/64/6 65/65/6 58/66/6
f 58/66/6 64/67/6 59/68/6
f 59/68/6 63/69/6 60/70/6
f 61/71/6 63/69/6 62/72/6
f 75/73/2 68/74/2 67/75/2
f 74/76/2 67/75/2 69/77/2
f 72/78/2 69/77/2 70/79/2
f 71/80/2 72/78/2 70/79/2
f 43/1/1 41/9/1 33/2/1
f 39/4/2 40/81/2 37/5/2
f 36/7/3 40/81/3 39/4/3
f 41/9/2 43/1/2 44/10/2
f 33/12/4 41/9/4 42/11/4
f 37/5/3 44/10/3 43/1/3
f 54/14/5 56/82/5 55/15/5
f 52/17/6 54/14/6 53/16/6
f 50/19/5 52/17/5 51/18/5
f 46/21/6 50/19/6 49/20/6
f 45/22/4 47/83/4 48/23/4
f 37/24/7 40/84/7 36/25/7
f 44/10/7 37/24/7 35/26/7
f 34/27/1 39/85/1 38/3/1
f 48/28/7 52/32/7 50/19/7
f 49/20/1 51/30/1 47/29/1
f 51/30/1 53/86/1 55/31/1
f 52/32/7 48/28/7 56/33/7
f 94/35/6 101/42/6 100/36/6
f 97/38/6 96/43/6 99/39/6
f 93/41/6 102/87/6 101/42/6
f 95/37/6 100/36/6 99/39/6
f 193/88/6 194/89/6 195/44/6
f 195/44/6 196/90/6 197/45/6
f 197/45/6 198/91/6 199/46/6
f 199/46/6 200/92/6 193/88/6
f 193/88/6 195/44/6 199/46/6
f 187/49/2 185/93/2 186/94/2
f 186/94/2 192/95/2 191/47/2
f 191/47/2 190/96/2 189/48/2
f 189/48/2 188/97/2 187/49/2
f 187/49/2 186/94/2 191/47/2
f 183/51/6 169/98/6 175/52/6
f 169/98/6 171/99/6 175/52/6
f 171/99/6 173/100/6 175/52/6
f 175/52/6 177/101/6 179/102/6
f 179/102/6 181/50/6 175/52/6
f 174/55/2 172/103/2 170/104/2
f 170/104/2 184/105/2 182/53/2
f 182/53/2 180/106/2 178/54/2
f 178/54/2 176/107/2 174/55/2
f 174/55/2 170/104/2 182/53/2
f 111/56/2 112/108/2 104/57/2
f 110/59/2 111/56/2 103/58/2
f 108/61/2 110/59/2 105/60/2
f 107/63/2 109/109/2 108/61/2
f 57/64/6 66/110/6 65/65/6
f 58/66/6 65/65/6 64/67/6
f 59/68/6 64/67/6 63/69/6
f 61/71/6 60/70/6 63/69/6
f 75/73/2 76/111/2 68/74/2
f 74/76/2 75/73/2 67/75/2
f 72/78/2 74/76/2 69/77/2
f 71/80/2 73/112/2 72/78/2
f 13/113/4 24/114/8 15/115/8
f 11/116/9 23/117/4 13/113/4
f 9/118/1 22/119/9 11/116/9
f 7/120/10 21/121/1 9/118/1
f 5/122/11 20/123/10 7/120/10
f 3/124/12 19/125/11 5/126/11
f 1/127/7 18/128/12 3/124/12
f 15/115/8 17/129/7 1/127/7
f 4/130/12 26/131/7 2/132/7
f 16/133/8 26/131/7 32/134/8
f 16/133/8 31/135/4 14/136/4
f 12/137/9 31/135/4 30/138/9
f 12/137/9 29/139/1 10/140/1
f 10/140/1 28/141/10 8/142/10
f 8/142/10 27/143/11 6/144/11
f 6/145/11 25/146/12 4/130/12
f 81/147/1 90/148/9 82/149/9
f 79/150/11 88/151/10 80/152/10
f 77/153/7 85/154/12 78/155/12
f 77/153/7 92/156/8 86/157/7
f 83/158/4 90/148/9 91/159/4
f 80/152/10 89/160/1 81/147/1
f 78/155/12 87/161/11 79/162/11
f 83/158/4 92/156/8 84/163/8
f 117/164/1 126/165/9 118/166/9
f 115/167/11 124/168/10 116/169/10
f 113/170/7 121/171/12 114/172/12
f 120/173/8 122/174/7 113/170/7
f 118/166/9 127/175/4 119/176/4
f 116/169/10 125/177/1 117/164/1
f 114/172/12 123/178/11 115/179/11
f 119/176/4 128/180/8 120/173/8
f 132/181/13 141/182/11 131/183/11
f 129/184/14 148/185/15 138/186/15
f 137/187/16 146/188/4 136/189/4
f 133/190/17 142/191/13 132/181/13
f 129/184/14 139/192/18 140/193/14
f 138/186/15 147/194/16 137/187/16
f 135/195/19 145/196/20 134/197/20
f 131/198/11 139/192/18 130/199/18
f 133/190/17 145/196/20 143/200/17
f 136/201/4 144/202/19 135/195/19
f 152/203/13 161/204/11 151/205/11
f 149/206/14 168/207/15 158/208/15
f 157/209/16 166/210/4 156/211/4
f 153/212/17 162/213/13 152/203/13
f 149/206/14 159/214/18 160/215/14
f 158/208/15 167/216/16 157/209/16
f 155/217/19 165/218/20 154/219/20
f 151/220/11 159/214/18 150/221/18
f 153/212/17 165/218/20 163/222/17
f 156/223/4 164/224/19 155/217/19
f 13/113/4 23/117/4 24/114/8
f 11/116/9 22/119/9 23/117/4
f 9/118/1 21/121/1 22/119/9
f 7/120/10 20/123/10 21/121/1
f 5/122/11 19/225/11 20/123/10
f 3/124/12 18/128/12 19/125/11
f 1/127/7 17/129/7 18/128/12
f 15/115/8 24/114/8 17/129/7
f 4/130/12 25/146/12 26/131/7
f 16/133/8 2/132/7 26/131/7
f 16/133/8 32/134/8 31/135/4
f 12/137/9 14/136/4 31/135/4
f 12/137/9 30/138/9 29/139/1
f 10/140/1 29/139/1 28/141/10
f 8/142/10 28/141/10 27/143/11
f 6/145/11 27/226/11 25/146/12
f 81/147/1 89/160/1 90/148/9
f 79/150/11 87/227/11 88/151/10
f 77/153/7 86/157/7 85/154/12
f 77/153/7 84/163/8 92/156/8
f 83/158/4 82/149/9 90/148/9
f 80/152/10 88/151/10 89/160/1
f 78/155/12 85/154/12 87/161/11
f 83/158/4 91/159/4 92/156/8
f 117/164/1 125/177/1 126/165/9
f 115/167/11 123/228/11 124/168/10
f 113/170/7 122/174/7 121/171/12
f 120/173/8 128/180/8 122/174/7
f 118/166/9 126/165/9 127/175/4
f 116/169/10 124/168/10 125/177/1
f 114/172/12 121/171/12 123/178/11
f 119/176/4 127/175/4 128/180/8
f 132/181/13 142/191/13 141/182/11
f 129/184/14 140/193/14 148/185/15
f 137/187/16 147/194/16 146/188/4
f 133/190/17 143/200/17 142/191/13
f 129/184/14 130/199/18 139/192/18
f 138/186/15 148/185/15 147/194/16
f 135/195/19 144/202/19 145/196/20
f 131/198/11 141/229/11 139/192/18
f 133/190/17 134/197/20 145/196/20
f 136/201/4 146/230/4 144/202/19
f 152/203/13 162/213/13 161/204/11
f 149/206/14 160/215/14 168/207/15
f 157/209/16 167/216/16 166/210/4
f 153/212/17 163/222/17 162/213/13
f 149/206/14 150/221/18 159/214/18
f 158/208/15 168/207/15 167/216/16
f 155/217/19 164/224/19 165/218/20
f 151/220/11 161/231/11 159/214/18
f 153/212/17 154/219/20 165/218/20
f 156/223/4 166/232/4 164/224/19
