mtllib pumpjack_carriage.mtl
usemtl material
o Carriage
v -0.375000 1.875000 0.125000
v -0.375000 2.125000 0.125000
v -0.375000 1.875000 -0.125000
v -0.375000 2.125000 -0.125000
v 0.375000 1.875000 0.125000
v 0.375000 2.125000 0.125000
v 0.375000 1.875000 -0.125000
v 0.375000 2.125000 -0.125000
v 0.125000 1.875000 -0.125000
v -0.125000 1.875000 -0.125000
v -0.125000 1.875000 0.125000
v 0.125000 1.875000 0.125000
v 0.125000 1.750000 -0.125000
v -0.125000 1.750000 -0.125000
v -0.125000 1.750000 0.125000
v 0.125000 1.750000 0.125000
v 0.250000 2.125000 -0.125000
v 0.161612 2.125000 -0.088388
v 0.125000 2.125000 0.000000
v 0.161612 2.125000 0.088388
v 0.250000 2.125000 0.125000
v 0.338388 2.125000 0.088388
v 0.375000 2.125000 -0.000000
v 0.338388 2.125000 -0.088388
v 0.250000 2.250000 -0.125000
v 0.161612 2.250000 -0.088388
v 0.125000 2.250000 0.000000
v 0.161612 2.250000 0.088388
v 0.250000 2.250000 0.125000
v 0.338388 2.250000 0.088388
v 0.375000 2.250000 -0.000000
v 0.338388 2.250000 -0.088388
v -0.250000 2.125000 -0.125000
v -0.338388 2.125000 -0.088388
v -0.375000 2.125000 0.000000
v -0.338388 2.125000 0.088388
v -0.250000 2.125000 0.125000
v -0.161612 2.125000 0.088388
v -0.125000 2.125000 -0.000000
v -0.161612 2.125000 -0.088388
v -0.250000 2.250000 -0.125000
v -0.338388 2.250000 -0.088388
v -0.375000 2.250000 0.000000
v -0.338388 2.250000 0.088388
v -0.250000 2.250000 0.125000
v -0.161612 2.250000 0.088388
v -0.125000 2.250000 -0.000000
v -0.161612 2.250000 -0.088388
v -0.250000 1.750000 -0.062500
v -0.294194 1.750000 -0.044194
v -0.312500 1.750000 0.000000
v -0.294194 1.750000 0.044194
v -0.250000 1.750000 0.062500
v -0.205806 1.750000 0.044194
v -0.187500 1.750000 -0.000000
v -0.205806 1.750000 -0.044194
v 0.250000 1.750000 -0.062500
v 0.205806 1.750000 -0.044194
v 0.187500 1.750000 0.000000
v 0.205806 1.750000 0.044194
v 0.250000 1.750000 0.062500
v 0.294194 1.750000 0.044194
v 0.312500 1.750000 -0.000000
v 0.294194 1.750000 -0.044194
v 0.000000 2.250000 -0.062500
v -0.044194 2.250000 -0.044194
v -0.062500 2.250000 0.000000
v -0.044194 2.250000 0.044194
v 0.000000 2.250000 0.062500
v 0.044194 2.250000 0.044194
v 0.062500 2.250000 -0.000000
v 0.044194 2.250000 -0.044194
v -0.044194 2.125000 -0.044194
v 0.000000 2.125000 -0.062500
v -0.062500 2.125000 0.000000
v -0.044194 2.125000 0.044194
v 0.000000 2.125000 0.062500
v 0.044194 2.125000 0.044194
v 0.062500 2.125000 -0.000000
v 0.044194 2.125000 -0.044194
v 0.000000 1.500000 -0.062500
v -0.044194 1.500000 -0.044194
v -0.062500 1.500000 0.000000
v -0.044194 1.500000 0.044194
v 0.000000 1.500000 0.062500
v 0.044194 1.500000 0.044194
v 0.062500 1.500000 -0.000000
v 0.044194 1.500000 -0.044194
v 0.250000 2.250000 -0.125000
v 0.161612 2.250000 -0.088388
v 0.125000 2.250000 0.000000
v 0.161612 2.250000 0.088388
v 0.250000 2.250000 0.125000
v 0.338388 2.250000 0.088388
v 0.375000 2.250000 -0.000000
v 0.338388 2.250000 -0.088388
v -0.250000 2.250000 -0.125000
v -0.338388 2.250000 -0.088388
v -0.375000 2.250000 0.000000
v -0.338388 2.250000 0.088388
v -0.250000 2.250000 0.125000
v -0.161612 2.250000 0.088388
v -0.125000 2.250000 -0.000000
v -0.161612 2.250000 -0.088388
v -0.250000 1.750000 -0.062500
v -0.294194 1.750000 -0.044194
v -0.312500 1.750000 0.000000
v -0.294194 1.750000 0.044194
v -0.250000 1.750000 0.062500
v -0.205806 1.750000 0.044194
v -0.187500 1.750000 -0.000000
v -0.205806 1.750000 -0.044194
v -0.294194 1.875000 -0.044194
v -0.250000 1.875000 -0.062500
v -0.312500 1.875000 0.000000
v -0.294194 1.875000 0.044194
v -0.250000 1.875000 0.062500
v -0.205806 1.875000 0.044194
v -0.187500 1.875000 -0.000000
v -0.205806 1.875000 -0.044194
v 0.250000 1.750000 -0.062500
v 0.205806 1.750000 -0.044194
v 0.187500 1.750000 0.000000
v 0.205806 1.750000 0.044194
v 0.250000 1.750000 0.062500
v 0.294194 1.750000 0.044194
v 0.312500 1.750000 -0.000000
v 0.294194 1.750000 -0.044194
v 0.205806 1.875000 -0.044194
v 0.250000 1.875000 -0.062500
v 0.187500 1.875000 0.000000
v 0.205806 1.875000 0.044194
v 0.250000 1.875000 0.062500
v 0.294194 1.875000 0.044194
v 0.312500 1.875000 -0.000000
v 0.294194 1.875000 -0.044194
v 0.000000 1.500000 -0.062500
v -0.044194 1.500000 -0.044194
v -0.062500 1.500000 0.000000
v -0.044194 1.500000 0.044194
v 0.000000 1.500000 0.062500
v 0.044194 1.500000 0.044194
v 0.062500 1.500000 -0.000000
v 0.044194 1.500000 -0.044194
v -0.044194 1.750000 -0.044194
v 0.000000 1.750000 -0.062500
v -0.062500 1.750000 0.000000
v -0.044194 1.750000 0.044194
v 0.000000 1.750000 0.062500
v 0.044194 1.750000 0.044194
v 0.062500 1.750000 -0.000000
v 0.044194 1.750000 -0.044194
vt 0.549296 0.640000
vt 0.530516 0.666667
vt 0.530516 0.640000
vt 0.568075 0.613333
vt 0.586854 0.613333
vt 0.605634 0.666667
vt 0.624413 0.640000
vt 0.624413 0.666667
vt 0.605634 0.693333
vt 0.586854 0.720000
vt 0.586854 0.693333
vt 0.549296 0.666667
vt 0.605634 0.640000
vt 0.568075 0.693333
vt 0.549296 0.720000
vt 0.549296 0.693333
vt 0.596244 0.600000
vt 0.586854 0.573333
vt 0.596244 0.573333
vt 0.568075 0.600000
vt 0.568075 0.573333
vt 0.558685 0.573333
vt 0.558685 0.600000
vt 0.643262 0.662721
vt 0.643262 0.657279
vt 0.652513 0.662721
vt 0.645972 0.666568
vt 0.643262 0.662721
vt 0.643262 0.657279
vt 0.649803 0.666568
vt 0.643262 0.662721
vt 0.645972 0.653432
vt 0.649803 0.666568
vt 0.645972 0.666568
vt 0.643262 0.662721
vt 0.630115 0.652642
vt 0.624900 0.634763
vt 0.637491 0.627358
vt 0.630115 0.652642
vt 0.624900 0.634763
vt 0.637491 0.627358
vt 0.586854 0.600000
vt 0.605634 0.613333
vt 0.549296 0.613333
vt 0.605634 0.720000
vt 0.568075 0.720000
vt 0.586854 0.706667
vt 0.568075 0.706667
vt 0.645972 0.653432
vt 0.649803 0.653432
vt 0.652513 0.657280
vt 0.649803 0.666568
vt 0.645972 0.666568
vt 0.645972 0.653432
vt 0.649803 0.653432
vt 0.652513 0.657279
vt 0.652513 0.662721
vt 0.649803 0.666568
vt 0.645971 0.666568
vt 0.643262 0.657279
vt 0.649803 0.653432
vt 0.652513 0.657280
vt 0.652513 0.662721
vt 0.643262 0.657279
vt 0.645972 0.653432
vt 0.649803 0.653432
vt 0.652513 0.657280
vt 0.652513 0.662721
vt 0.624900 0.645237
vt 0.630115 0.627358
vt 0.642706 0.634763
vt 0.642706 0.645237
vt 0.637491 0.652642
vt 0.624900 0.645237
vt 0.630115 0.627358
vt 0.642706 0.634763
vt 0.642706 0.645237
vt 0.637491 0.652642
vt 0.690141 0.613333
vt 0.680751 0.626667
vt 0.680751 0.613333
vt 0.671362 0.613333
vt 0.661972 0.626667
vt 0.661972 0.613333
vt 0.652582 0.613333
vt 0.643192 0.626667
vt 0.643192 0.613333
vt 0.633803 0.613333
vt 0.624413 0.626667
vt 0.624413 0.613333
vt 0.699531 0.613333
vt 0.690141 0.626667
vt 0.671362 0.626667
vt 0.652582 0.626667
vt 0.633803 0.626667
vt 0.690141 0.613333
vt 0.680751 0.626667
vt 0.680751 0.613333
vt 0.671362 0.613333
vt 0.661972 0.626667
vt 0.661972 0.613333
vt 0.652582 0.613333
vt 0.643192 0.626667
vt 0.643192 0.613333
vt 0.633803 0.613333
vt 0.624413 0.626667
vt 0.624413 0.613333
vt 0.699531 0.613333
vt 0.690141 0.626667
vt 0.671362 0.626667
vt 0.652582 0.626667
vt 0.633803 0.626667
vt 0.643192 0.653333
vt 0.647887 0.640000
vt 0.647887 0.653333
vt 0.676056 0.653333
vt 0.680751 0.640000
vt 0.680751 0.653333
vt 0.671362 0.653333
vt 0.666667 0.640000
vt 0.671362 0.640000
vt 0.661972 0.653333
vt 0.657277 0.640000
vt 0.661972 0.640000
vt 0.652582 0.640000
vt 0.652582 0.653333
vt 0.676056 0.640000
vt 0.666667 0.653333
vt 0.657277 0.653333
vt 0.666667 0.640000
vt 0.661972 0.653333
vt 0.661972 0.640000
vt 0.657277 0.640000
vt 0.652582 0.653333
vt 0.652582 0.640000
vt 0.643192 0.640000
vt 0.647887 0.653333
vt 0.643192 0.653333
vt 0.676056 0.640000
vt 0.680751 0.653333
vt 0.676056 0.653333
vt 0.671362 0.640000
vt 0.666667 0.653333
vt 0.657277 0.653333
vt 0.647887 0.640000
vt 0.671362 0.653333
vt 0.666667 0.640000
vt 0.661972 0.653333
vt 0.661972 0.640000
vt 0.657277 0.640000
vt 0.652582 0.653333
vt 0.652582 0.640000
vt 0.643192 0.640000
vt 0.647887 0.653333
vt 0.643192 0.653333
vt 0.676056 0.640000
vt 0.680751 0.653333
vt 0.676056 0.653333
vt 0.671362 0.640000
vt 0.666667 0.653333
vt 0.657277 0.653333
vt 0.647887 0.640000
vt 0.671362 0.653333
vt 0.666667 0.626667
vt 0.661972 0.653333
vt 0.661972 0.626667
vt 0.657277 0.626667
vt 0.652582 0.653333
vt 0.652582 0.626667
vt 0.643192 0.626667
vt 0.647887 0.653333
vt 0.643192 0.653333
vt 0.676056 0.626667
vt 0.680751 0.653333
vt 0.676056 0.653333
vt 0.671362 0.626667
vt 0.666667 0.653333
vt 0.657277 0.653333
vt 0.647887 0.626667
vt 0.671362 0.653333
vt 0.699531 0.626667
vt 0.699531 0.626667
vt 0.643192 0.640000
vt 0.680751 0.640000
vt 0.680751 0.640000
vt 0.680751 0.626667
vn -1.0000 0.0000 0.0000
vn 0.0000 0.0000 1.0000
vn 1.0000 0.0000 0.0000
vn 0.0000 -1.0000 0.0000
vn 0.0000 1.0000 0.0000
vn 0.0000 0.0000 -1.0000
vn 0.7071 0.0000 -0.7071
vn 0.7071 0.0000 0.7071
vn -0.7071 0.0000 0.7071
vn -0.7071 0.0000 -0.7071
vn 0.0000 0.6302 -0.7764
vn -0.5490 0.6302 -0.5490
vn 0.5490 0.6302 -0.5490
vn 0.7764 0.6302 0.0000
vn 0.0000 0.6302 0.7764
vn -0.7764 0.6302 0.0000
vn 0.5490 0.6302 0.5490
vn -0.5490 0.6302 0.5490
s 1
f 2/1/1 3/2/1 1/3/1
f 11/4/2 12/5/2 2/1/2
f 8/6/3 5/7/3 7/8/3
f 7/9/4 12/10/4 9/11/4
f 4/12/5 6/13/5 8/6/5
f 10/14/4 1/15/4 3/16/4
f 12/17/3 13/18/3 9/19/3
f 13/18/4 15/20/4 14/21/4
f 10/22/1 15/20/1 11/23/1
f 9/11/6 10/14/6 8/6/6
f 52/24/4 51/25/4 55/26/4
f 61/27/4 60/28/4 59/29/4
f 65/30/5 67/31/5 69/32/5
f 85/33/4 84/34/4 83/35/4
f 89/36/5 91/37/5 93/38/5
f 97/39/5 99/40/5 101/41/5
f 2/1/1 4/12/1 3/2/1
f 11/4/2 15/20/2 16/42/2
f 12/5/2 5/43/2 6/13/2
f 11/4/2 16/42/2 12/5/2
f 2/1/2 1/44/2 11/4/2
f 12/5/2 6/13/2 2/1/2
f 8/6/3 6/13/3 5/7/3
f 7/9/4 5/45/4 12/10/4
f 4/12/5 2/1/5 6/13/5
f 10/14/4 11/46/4 1/15/4
f 12/17/3 16/42/3 13/18/3
f 13/18/4 16/42/4 15/20/4
f 10/22/1 14/21/1 15/20/1
f 9/11/6 13/47/6 14/48/6
f 10/14/6 3/16/6 4/12/6
f 9/11/6 14/48/6 10/14/6
f 8/6/6 7/9/6 9/11/6
f 10/14/6 4/12/6 8/6/6
f 51/25/4 50/49/4 49/50/4
f 49/50/4 56/51/4 51/25/4
f 56/51/4 55/26/4 51/25/4
f 55/26/4 54/52/4 53/53/4
f 53/53/4 52/24/4 55/26/4
f 59/29/4 58/54/4 57/55/4
f 57/55/4 64/56/4 59/29/4
f 64/56/4 63/57/4 59/29/4
f 63/57/4 62/58/4 59/29/4
f 62/58/4 61/27/4 59/29/4
f 65/30/5 66/59/5 67/31/5
f 67/31/5 68/60/5 69/32/5
f 69/32/5 70/61/5 71/62/5
f 71/62/5 72/63/5 69/32/5
f 72/63/5 65/30/5 69/32/5
f 83/35/4 82/64/4 81/65/4
f 81/65/4 88/66/4 83/35/4
f 88/66/4 87/67/4 83/35/4
f 87/67/4 86/68/4 83/35/4
f 86/68/4 85/33/4 83/35/4
f 89/36/5 90/69/5 91/37/5
f 91/37/5 92/70/5 93/38/5
f 93/38/5 94/71/5 95/72/5
f 95/72/5 96/73/5 93/38/5
f 96/73/5 89/36/5 93/38/5
f 97/39/5 98/74/5 99/40/5
f 99/40/5 100/75/5 101/41/5
f 101/41/5 102/76/5 103/77/5
f 103/77/5 104/78/5 101/41/5
f 104/78/5 97/39/5 101/41/5
f 24/79/7 31/80/3 23/81/3
f 22/82/8 29/83/2 21/84/2
f 20/85/9 27/86/1 19/87/1
f 18/88/10 25/89/6 17/90/6
f 17/91/6 32/92/7 24/79/7
f 23/81/3 30/93/8 22/82/8
f 21/84/2 28/94/9 20/85/9
f 19/87/1 26/95/10 18/88/10
f 40/96/7 47/97/3 39/98/3
f 38/99/8 45/100/2 37/101/2
f 36/102/9 43/103/1 35/104/1
f 34/105/10 41/106/6 33/107/6
f 33/108/6 48/109/7 40/96/7
f 39/98/3 46/110/8 38/99/8
f 37/101/2 44/111/9 36/102/9
f 35/104/1 42/112/10 34/105/10
f 65/113/11 73/114/10 66/115/12
f 72/116/13 74/117/6 65/118/11
f 71/119/14 78/120/8 79/121/3
f 69/122/15 76/123/9 77/124/2
f 66/115/12 75/125/1 67/126/16
f 71/119/14 80/127/7 72/116/13
f 70/128/17 77/124/2 78/120/8
f 67/126/16 76/123/9 68/129/18
f 110/130/8 117/131/2 109/132/2
f 108/133/9 115/134/1 107/135/1
f 105/136/6 113/137/10 114/138/6
f 112/139/7 114/140/6 120/141/7
f 111/142/3 118/143/8 110/130/8
f 109/132/2 116/144/9 108/133/9
f 106/145/10 115/134/1 113/137/10
f 111/142/3 120/141/7 119/146/3
f 126/147/8 133/148/2 125/149/2
f 124/150/9 131/151/1 123/152/1
f 121/153/6 129/154/10 130/155/6
f 128/156/7 130/157/6 136/158/7
f 127/159/3 134/160/8 126/147/8
f 125/149/2 132/161/9 124/150/9
f 122/162/10 131/151/1 129/154/10
f 128/156/7 135/163/3 127/159/3
f 142/164/8 149/165/2 141/166/2
f 140/167/9 147/168/1 139/169/1
f 137/170/6 145/171/10 146/172/6
f 144/173/7 146/174/6 152/175/7
f 143/176/3 150/177/8 142/164/8
f 141/166/2 148/178/9 140/167/9
f 139/169/1 145/171/10 138/179/10
f 144/173/7 151/180/3 143/176/3
f 24/79/7 32/92/7 31/80/3
f 22/82/8 30/93/8 29/83/2
f 20/85/9 28/94/9 27/86/1
f 18/88/10 26/95/10 25/89/6
f 17/91/6 25/181/6 32/92/7
f 23/81/3 31/80/3 30/93/8
f 21/84/2 29/83/2 28/94/9
f 19/87/1 27/86/1 26/95/10
f 40/96/7 48/109/7 47/97/3
f 38/99/8 46/110/8 45/100/2
f 36/102/9 44/111/9 43/103/1
f 34/105/10 42/112/10 41/106/6
f 33/108/6 41/182/6 48/109/7
f 39/98/3 47/97/3 46/110/8
f 37/101/2 45/100/2 44/111/9
f 35/104/1 43/103/1 42/112/10
f 65/113/11 74/183/6 73/114/10
f 72/116/13 80/127/7 74/117/6
f 71/119/14 70/128/17 78/120/8
f 69/122/15 68/129/18 76/123/9
f 66/115/12 73/114/10 75/125/1
f 71/119/14 79/121/3 80/127/7
f 70/128/17 69/122/15 77/124/2
f 67/126/16 75/125/1 76/123/9
f 110/130/8 118/143/8 117/131/2
f 108/133/9 116/144/9 115/134/1
f 105/136/6 106/145/10 113/137/10
f 112/139/7 105/184/6 114/140/6
f 111/142/3 119/146/3 118/143/8
f 109/132/2 117/131/2 116/144/9
f 106/145/10 107/135/1 115/134/1
f 111/142/3 112/139/7 120/141/7
f 126/147/8 134/160/8 133/148/2
f 124/150/9 132/161/9 131/151/1
f 121/153/6 122/162/10 129/154/10
f 128/156/7 121/185/6 130/157/6
f 127/159/3 135/163/3 134/160/8
f 125/149/2 133/148/2 132/161/9
f 122/162/10 123/152/1 131/151/1
f 128/156/7 136/158/7 135/163/3
f 142/164/8 150/177/8 149/165/2
f 140/167/9 148/178/9 147/168/1
f 137/170/6 138/179/10 145/171/10
f 144/173/7 137/186/6 146/174/6
f 143/176/3 151/180/3 150/177/8
f 141/166/2 149/165/2 148/178/9
f 139/169/1 147/168/1 145/171/10
f 144/173/7 152/175/7 151/180/3
