mtllib pumpjack_head.mtl
usemtl material
o Head
v -0.250000 3.406250 -3.593750
v -0.250000 3.406250 -3.406250
v -0.250000 3.593750 -3.406250
v -0.250000 3.593750 -3.593750
v 0.250000 3.593750 -3.593750
v 0.250000 3.406250 -3.593750
v 0.250000 3.593750 -3.406250
v 0.250000 3.406250 -3.406250
v 0.309783 4.888926 -0.421326
v -0.315218 2.543290 -0.190302
v -0.315218 3.012273 -0.048037
v 0.309783 2.111075 -0.421326
v -0.315217 4.888926 -0.421326
v -0.315218 3.499999 -0.000000
v -0.315217 2.111075 -0.421326
v 0.309783 2.111075 -0.421326
v 0.309783 4.888926 -0.546326
v 0.309783 2.111075 -0.546326
v -0.315217 4.888926 -0.546326
v -0.315217 2.111075 -0.546326
v -0.250000 3.593750 -0.781250
v 0.250000 3.593750 -0.781250
v -0.250000 4.218750 -0.781250
v 0.250000 4.218750 -0.781250
v -0.250000 4.156250 -0.781250
v 0.250000 4.156250 -0.781250
v 0.187500 4.156250 -0.781250
v -0.187500 4.156250 -0.781250
v 0.187500 3.656250 -0.781250
v -0.187500 3.656250 -0.781250
v -0.250000 3.656250 -0.781250
v 0.250000 3.656250 -0.781250
v -0.187500 3.656250 -6.281250
v -0.250000 3.593750 -6.281250
v 0.250000 3.593750 -6.281250
v -0.187500 4.156250 -6.281250
v 0.187500 4.156250 -6.281250
v -0.250000 4.218750 -6.281250
v 0.250000 4.218750 -6.281250
v 0.187500 3.656250 -6.281250
v 0.250000 4.156250 -6.281250
v -0.250000 4.156250 -6.281250
v -0.250000 3.656250 -6.281250
v 0.250000 3.656250 -6.281250
v -0.315217 4.281250 -0.781250
v 0.309783 4.281250 -0.781250
v -0.315217 3.531250 -0.781250
v 0.309783 3.531250 -0.781250
v -0.315218 3.987725 -0.048037
v 0.309782 4.456708 -0.190301
v 0.309782 3.987725 -0.048037
v 0.309782 3.499999 -0.000000
v 0.309782 3.012273 -0.048037
v 0.309782 2.543290 -0.190302
v -0.315218 4.456708 -0.190301
v -0.315217 4.013926 -0.546326
v -0.315217 4.013926 -0.296326
v 0.309783 4.013926 -0.546326
v 0.309783 4.013926 -0.296326
v -0.315217 4.513926 -0.546326
v 0.309783 4.513926 -0.546326
v -0.315217 4.513926 -0.421326
v 0.309783 4.513926 -0.421326
v 0.309783 2.486075 -0.421326
v -0.315217 2.486075 -0.421326
v 0.309783 2.486075 -0.546326
v -0.315217 2.486075 -0.546326
v 0.309783 2.986075 -0.296326
v -0.315217 2.986075 -0.296326
v 0.309783 2.986075 -0.546326
v -0.315217 2.986075 -0.546326
v -0.315218 3.468749 0.375000
v -0.315218 3.531249 0.375000
v 0.309782 3.468749 -0.125000
v 0.309782 3.531249 -0.125000
v 0.372282 3.468749 -0.062500
v 0.372282 3.531249 -0.062500
v -0.377718 3.468749 -0.062500
v -0.377718 3.531249 -0.062500
v 0.309782 3.531249 0.375000
v 0.309782 3.468749 0.375000
v -0.315218 3.468749 -0.125000
v -0.315218 3.531249 -0.125000
v 0.309782 3.468749 0.312500
v 0.309782 3.531249 0.312500
v 0.372282 3.531249 0.312500
v 0.372282 3.468749 0.312500
v -0.377718 3.468749 0.312500
v -0.377718 3.531249 0.312500
v -0.315218 3.531249 0.312500
v -0.315218 3.468749 0.312500
v -0.500000 3.406250 -5.406250
v -0.500000 3.593750 -5.406250
v -0.500000 3.406250 -5.593750
v -0.500000 3.593750 -5.593750
v 0.500000 3.406250 -5.406250
v 0.500000 3.593750 -5.406250
v 0.500000 3.406250 -5.593750
v 0.500000 3.593750 -5.593750
v 0.500000 3.562500 -5.437500
v 0.500000 3.437500 -5.437500
v 0.500000 3.562500 -5.562500
v 0.500000 3.437500 -5.562500
v 0.562500 3.562500 -5.562500
v 0.562500 3.562500 -5.437500
v 0.562500 3.437500 -5.437500
v 0.562500 3.437500 -5.562500
v -0.562500 3.562500 -5.562500
v -0.562500 3.562500 -5.437500
v -0.562500 3.437500 -5.437500
v -0.562500 3.437500 -5.562500
v -0.500000 3.562500 -5.562500
v -0.500000 3.562500 -5.437500
v -0.500000 3.437500 -5.437500
v -0.500000 3.437500 -5.562500
v 0.250000 3.593750 -5.437500
v 0.375000 3.593750 -5.437500
v 0.250000 3.593750 -5.562500
v 0.375000 3.593750 -5.562500
v 0.250000 4.218750 -5.562500
v 0.250000 4.218750 -5.437500
v 0.375000 4.218750 -5.437500
v 0.375000 4.218750 -5.562500
v -0.375000 3.593750 -5.437500
v -0.250000 3.593750 -5.437500
v -0.375000 3.593750 -5.562500
v -0.250000 3.593750 -5.562500
v -0.375000 4.218750 -5.562500
v -0.375000 4.218750 -5.437500
v -0.250000 4.218750 -5.437500
v -0.250000 4.218750 -5.562500
v 0.250000 4.343750 -5.562500
v 0.250000 4.343750 -5.437500
v -0.250000 4.343750 -5.437500
v -0.250000 4.343750 -5.562500
v 0.309783 4.888926 -0.421326
v -0.315218 2.543290 -0.190302
v -0.315218 3.012273 -0.048037
v 0.309783 2.111075 -0.421326
v -0.315217 4.888926 -0.421326
v -0.315218 3.499999 -0.000000
v -0.315217 2.111075 -0.421326
v -0.315218 3.987725 -0.048037
v 0.309782 4.456708 -0.190301
v 0.309782 3.987725 -0.048037
v 0.309782 3.499999 -0.000000
v 0.309782 3.012273 -0.048037
v 0.309782 2.543290 -0.190302
v -0.315218 4.456708 -0.190301
vt 0.784038 0.660000
vt 0.821596 0.680000
vt 0.784038 0.680000
vt 0.821596 0.700000
vt 0.784038 0.700000
vt 0.784038 0.640000
vt 0.821596 0.660000
vt 0.896714 0.673333
vt 0.849765 0.686667
vt 0.849765 0.673333
vt 0.896714 0.686667
vt 0.849765 0.840000
vt 0.896714 0.920000
vt 0.849765 0.986667
vt 0.849765 0.920000
vt 0.896714 0.840000
vt 0.460094 1.000000
vt 0.455399 1.000000
vt 0.455399 0.993333
vt 0.460094 0.946667
vt 0.455399 0.953333
vt 0.455399 0.946667
vt 0.417840 0.953333
vt 0.413146 0.946667
vt 0.417840 0.946667
vt 0.413146 1.000000
vt 0.417840 0.993333
vt 0.417840 1.000000
vt -0.000000 0.880000
vt 0.413146 0.933333
vt -0.000000 0.933333
vt -0.000000 0.733333
vt 0.413146 0.740000
vt -0.000000 0.740000
vt -0.000000 0.873333
vt 0.413146 0.880000
vt -0.000000 0.746667
vt 0.413146 0.800000
vt 0.000000 0.800000
vt 0.000000 0.813333
vt 0.413146 0.866667
vt -0.000000 0.866667
vt 0.413146 0.940000
vt -0.000000 0.940000
vt 0.413146 0.873333
vt -0.000000 0.946667
vt -0.000000 1.000000
vt 0.413146 0.806667
vt 0.000000 0.806667
vt 0.413146 0.746667
vt 0.413146 0.813333
vt 0.896714 1.000000
vt 0.849765 1.000000
vt 0.802817 0.920000
vt 0.849765 0.866667
vt 0.849765 0.920000
vt 0.802817 0.840000
vt 0.849765 0.840000
vt 0.849765 0.933333
vt 0.802817 1.000000
vt 0.802817 0.933333
vt 0.849765 0.866667
vt 0.802817 0.840000
vt 0.849765 0.840000
vt 0.982869 0.752252
vt 0.974023 0.714569
vt 0.982869 0.714569
vt 0.802817 0.920000
vt 0.849765 0.920000
vt 0.849765 0.933333
vt 0.802817 1.000000
vt 0.802817 0.933333
vt 0.974023 0.714569
vt 0.982869 0.752252
vt 0.982869 0.714569
vt 0.982869 0.802495
vt 0.965177 0.905781
vt 0.982869 0.905781
vt 0.965177 0.905781
vt 0.982869 0.802495
vt 0.982869 0.905781
vt 0.974023 0.993707
vt 0.982869 0.956024
vt 0.982869 0.993707
vt 0.982869 0.956024
vt 0.974023 0.993707
vt 0.982869 0.993707
vt 0.999493 0.932643
vt 0.999493 0.857278
vt 0.974023 0.956024
vt 0.957674 0.950275
vt 0.947607 0.903148
vt 0.957674 0.950275
vt 0.974023 0.752252
vt 0.957674 0.758001
vt 0.965177 0.802495
vt 0.957674 0.758001
vt 0.974023 0.714569
vt 0.974023 0.752252
vt 0.944208 0.854138
vt 0.965177 0.802495
vt 0.944208 0.854138
vt 0.732394 0.613333
vt 0.704225 0.620000
vt 0.699531 0.613333
vt 0.788732 0.613333
vt 0.784038 0.620000
vt 0.784038 0.613333
vt 0.737089 0.626667
vt 0.737089 0.633333
vt 0.732394 0.633333
vt 0.737089 0.620000
vt 0.784038 0.626667
vt 0.737089 0.613333
vt 0.732394 0.613333
vt 0.732394 0.626667
vt 0.816901 0.620000
vt 0.788732 0.613333
vt 0.821596 0.613333
vt 0.784038 0.633333
vt 0.737089 0.640000
vt 0.704225 0.626667
vt 0.732394 0.633333
vt 0.699531 0.633333
vt 0.699531 0.620000
vt 0.821596 0.626667
vt 0.821596 0.620000
vt 0.788732 0.633333
vt 0.788732 0.620000
vt 0.788732 0.626667
vt 0.821596 0.640000
vt 0.788732 0.633333
vt 0.821596 0.633333
vt 0.732394 0.640000
vt 0.699531 0.640000
vt 0.816901 0.626667
vt 0.187793 0.693333
vt 0.201878 0.673333
vt 0.201878 0.693333
vt 0.187793 0.673333
vt 0.112676 0.653333
vt 0.187793 0.653333
vt 0.112676 0.673333
vt 0.098592 0.693333
vt 0.098592 0.673333
vt 0.112676 0.613333
vt 0.187793 0.633333
vt 0.112676 0.633333
vt 0.112676 0.693333
vt 0.507042 0.620000
vt 0.516432 0.633333
vt 0.507042 0.633333
vt 0.507042 0.620000
vt 0.516432 0.633333
vt 0.507042 0.633333
vt 0.516432 0.613333
vt 0.507042 0.613333
vt 0.507042 0.640000
vt 0.516432 0.640000
vt 0.521127 0.633333
vt 0.516432 0.620000
vt 0.521127 0.620000
vt 0.502347 0.620000
vt 0.502347 0.633333
vt 0.990610 0.066667
vt 0.990610 0.080000
vt 0.981221 0.066667
vt 0.516432 0.613333
vt 0.516432 0.620000
vt 0.507042 0.640000
vt 0.521127 0.633333
vt 0.502347 0.620000
vt 0.971831 0.066667
vt 0.981221 0.080000
vt 0.971831 0.080000
vt 0.981221 -0.000000
vt 0.971831 -0.000000
vt 1.000000 -0.000000
vt 0.990610 -0.000000
vt 0.962441 0.066667
vt 0.962441 -0.000000
vt 0.990610 0.213333
vt 1.000000 0.146667
vt 1.000000 0.213333
vt 0.971831 0.213333
vt 0.981221 0.146667
vt 0.981221 0.213333
vt 0.990610 0.146667
vt 0.962441 0.213333
vt 0.971831 0.146667
vt 0.962441 0.080000
vt 0.971831 0.133333
vt 0.981221 0.133333
vt 0.990610 0.133333
vt 0.962441 0.146667
vt 0.962441 0.133333
vt 0.962441 0.080000
vt 0.990610 0.080000
vt 0.821596 0.640000
vt 0.849765 0.673333
vt 0.896714 0.986667
vt 0.413146 0.733333
vt 0.802817 0.866667
vt 0.849765 1.000000
vt 0.802817 0.866667
vt 0.849765 1.000000
vt 0.974023 0.956024
vt 0.999493 0.857278
vt 0.999493 0.932643
vt 0.947607 0.903148
vt 0.947607 0.805128
vt 0.947607 0.805128
vt 0.732394 0.620000
vt 0.784038 0.640000
vt 0.699531 0.626667
vt 0.788732 0.640000
vt 0.187793 0.613333
vt 0.507042 0.613333
vt 0.516432 0.640000
vt 0.521127 0.620000
vt 0.502347 0.633333
vt 1.000000 0.066667
vt 0.962441 0.133333
vt 0.990610 0.133333
vt 0.896714 0.893333
vt 0.943662 0.840000
vt 0.943662 0.893333
vt 0.896714 0.840000
vt 0.943662 0.786667
vt 0.896714 0.946667
vt 0.943662 0.946667
vt 0.896714 0.786667
vt 0.943662 0.733333
vt 0.896714 1.000000
vt 0.943662 1.000000
vt 0.896714 0.680000
vt 0.896714 0.733333
vt 0.943662 0.680000
vn 0.0000 -1.0000 0.0000
vn 0.0000 0.0000 1.0000
vn 0.0000 0.0000 -1.0000
vn 0.0000 -0.1632 -0.9866
vn 0.0000 0.3606 -0.9327
vn 1.0000 0.0000 0.0000
vn -1.0000 0.0000 0.0000
vn 0.0000 1.0000 0.0000
vn 0.0000 -0.2425 -0.9701
vn 0.0000 0.2425 -0.9701
vn -0.7071 0.0000 0.7071
vn -0.7071 0.0000 -0.7071
vn 0.7071 0.0000 -0.7071
vn 0.7071 0.0000 0.7071
vn 0.7071 0.7071 0.0000
vn -0.7071 0.7071 0.0000
vn 0.0000 0.1951 0.9808
vn 0.0000 -0.1951 0.9808
vn 0.0000 0.3827 0.9239
vn 0.0000 -0.3827 0.9239
vn 0.0000 0.4714 0.8819
vn 0.0000 -0.4714 0.8819
s 1
f 1/1/1 8/2/1 2/3/1
f 2/3/2 7/4/2 3/5/2
f 4/6/3 6/7/3 1/1/3
f 15/8/1 18/9/1 16/10/1
f 20/11/4 48/12/4 18/9/4
f 45/13/5 17/14/5 46/15/5
f 47/16/3 46/15/3 48/12/3
f 34/17/3 43/18/3 33/19/3
f 35/20/3 40/21/3 44/22/3
f 37/23/3 39/24/3 41/25/3
f 38/26/3 36/27/3 42/28/3
f 36/27/3 39/24/3 37/23/3
f 33/19/3 35/20/3 34/17/3
f 40/21/3 36/27/3 37/23/3
f 29/29/6 37/30/6 27/31/6
f 23/32/7 42/33/7 25/34/7
f 32/35/8 40/36/8 29/29/8
f 28/37/7 33/38/7 30/39/7
f 21/40/1 35/41/1 22/42/1
f 27/31/1 41/43/1 26/44/1
f 22/42/6 44/45/6 32/35/6
f 24/46/8 38/26/8 23/47/8
f 30/39/8 43/48/8 31/49/8
f 25/34/1 36/50/1 28/37/1
f 26/44/6 39/24/6 24/46/6
f 31/49/7 34/51/7 21/40/7
f 17/14/8 13/52/8 9/53/8
f 60/54/2 58/55/2 61/56/2
f 58/55/8 57/57/8 59/58/8
f 63/59/9 57/60/9 62/61/9
f 62/61/1 61/56/1 63/59/1
f 71/62/1 68/63/1 69/64/1
f 66/65/6 16/66/6 18/67/6
f 66/68/2 71/62/2 67/69/2
f 65/70/10 68/71/10 64/72/10
f 64/72/8 67/69/8 65/70/8
f 15/73/7 67/74/7 20/75/7
f 71/76/7 57/77/7 56/78/7
f 59/79/6 70/80/6 58/81/6
f 9/82/6 61/83/6 17/84/6
f 60/85/7 13/86/7 19/87/7
f 56/78/7 60/85/7 45/88/7
f 70/80/6 66/65/6 48/89/6
f 63/90/6 9/82/6 50/91/6
f 57/77/7 49/92/7 55/93/7
f 65/94/7 10/95/7 69/96/7
f 54/97/6 12/98/6 64/99/6
f 59/79/6 52/100/6 68/101/6
f 14/102/7 57/77/7 69/96/7
f 91/103/1 78/104/1 82/105/1
f 87/106/1 81/107/1 84/108/1
f 73/109/8 90/110/8 89/111/8
f 72/112/2 80/113/2 73/109/2
f 91/114/1 72/112/1 88/115/1
f 89/116/11 72/112/11 73/109/11
f 84/108/1 72/112/1 91/114/1
f 76/117/1 84/118/1 74/119/1
f 85/120/3 91/121/3 90/110/3
f 79/122/8 90/123/8 83/124/8
f 79/122/12 82/125/12 78/104/12
f 75/126/13 76/117/13 74/127/13
f 85/120/8 80/113/8 86/128/8
f 80/113/14 87/129/14 86/130/14
f 85/120/8 73/109/8 80/113/8
f 74/131/7 85/132/7 75/133/7
f 78/104/7 89/116/7 79/122/7
f 83/124/6 91/134/6 82/135/6
f 85/132/8 77/136/8 75/133/8
f 77/136/6 87/129/6 76/117/6
f 93/137/7 94/138/7 92/139/7
f 95/140/3 98/141/3 94/142/3
f 99/143/6 96/144/6 98/145/6
f 97/146/2 92/147/2 96/148/2
f 98/141/1 92/147/1 94/142/1
f 95/140/8 97/149/8 99/143/8
f 108/150/7 110/151/7 109/152/7
f 106/153/6 104/154/6 105/155/6
f 103/156/1 106/153/1 101/157/1
f 100/158/8 104/154/8 102/159/8
f 102/160/3 107/161/3 103/162/3
f 101/163/2 105/155/2 100/164/2
f 120/165/3 132/166/3 123/167/3
f 108/150/3 115/168/3 111/169/3
f 110/151/2 113/170/2 109/152/2
f 111/169/1 114/171/1 110/151/1
f 109/152/8 112/172/8 108/150/8
f 122/173/15 132/174/15 133/175/15
f 119/176/6 122/173/6 117/177/6
f 116/178/7 120/165/7 118/179/7
f 118/179/3 123/167/3 119/176/3
f 117/177/2 121/180/2 116/181/2
f 127/182/6 130/183/6 125/184/6
f 124/185/7 128/186/7 126/187/7
f 126/187/3 131/188/3 127/182/3
f 125/189/2 129/190/2 124/185/2
f 122/173/2 133/191/2 121/180/2
f 128/186/16 134/192/16 135/193/16
f 128/186/3 135/194/3 131/188/3
f 130/195/2 134/196/2 129/190/2
f 134/192/2 121/197/2 133/175/2
f 135/193/8 133/175/8 132/174/8
f 120/198/3 135/193/3 132/174/3
f 1/1/1 6/7/1 8/2/1
f 2/3/2 8/2/2 7/4/2
f 4/6/3 5/199/3 6/7/3
f 15/8/1 20/11/1 18/9/1
f 16/10/2 12/200/2 15/8/2
f 20/11/4 47/16/4 48/12/4
f 45/13/5 19/201/5 17/14/5
f 47/16/3 45/13/3 46/15/3
f 36/27/3 38/26/3 39/24/3
f 33/19/3 40/21/3 35/20/3
f 40/21/3 33/19/3 36/27/3
f 29/29/6 40/36/6 37/30/6
f 23/32/7 38/202/7 42/33/7
f 32/35/8 44/45/8 40/36/8
f 28/37/7 36/50/7 33/38/7
f 21/40/1 34/51/1 35/41/1
f 27/31/1 37/30/1 41/43/1
f 22/42/6 35/41/6 44/45/6
f 24/46/8 39/24/8 38/26/8
f 30/39/8 33/38/8 43/48/8
f 25/34/1 42/33/1 36/50/1
f 26/44/6 41/43/6 39/24/6
f 31/49/7 43/48/7 34/51/7
f 17/14/8 19/201/8 13/52/8
f 60/54/2 56/203/2 58/55/2
f 58/55/8 56/203/8 57/57/8
f 63/59/9 59/204/9 57/60/9
f 62/61/1 60/54/1 61/56/1
f 71/62/1 70/205/1 68/63/1
f 66/65/6 64/99/6 16/66/6
f 66/68/2 70/205/2 71/62/2
f 65/70/10 69/206/10 68/71/10
f 64/72/8 66/68/8 67/69/8
f 15/73/7 65/94/7 67/74/7
f 71/76/7 69/96/7 57/77/7
f 59/79/6 68/101/6 70/80/6
f 9/82/6 63/90/6 61/83/6
f 60/85/7 62/207/7 13/86/7
f 60/85/7 19/87/7 45/88/7
f 45/88/7 47/208/7 56/78/7
f 47/208/7 20/75/7 67/74/7
f 67/74/7 71/76/7 47/208/7
f 71/76/7 56/78/7 47/208/7
f 48/89/6 46/209/6 58/81/6
f 46/209/6 17/84/6 61/83/6
f 61/83/6 58/81/6 46/209/6
f 58/81/6 70/80/6 48/89/6
f 66/65/6 18/67/6 48/89/6
f 50/91/6 51/210/6 59/79/6
f 59/79/6 63/90/6 50/91/6
f 55/93/7 13/86/7 62/207/7
f 62/207/7 57/77/7 55/93/7
f 15/73/7 10/95/7 65/94/7
f 10/95/7 11/211/7 69/96/7
f 12/98/2 16/66/2 64/99/2
f 64/99/6 68/101/6 54/97/6
f 68/101/6 53/212/6 54/97/6
f 51/210/6 52/100/6 59/79/6
f 52/100/6 53/212/6 68/101/6
f 69/96/7 11/211/7 14/102/7
f 14/102/7 49/92/7 57/77/7
f 91/103/1 88/213/1 78/104/1
f 72/112/2 81/107/2 80/113/2
f 89/116/11 88/213/11 72/112/11
f 84/108/1 81/107/1 72/112/1
f 76/117/1 87/129/1 84/118/1
f 85/120/3 84/214/3 91/121/3
f 79/122/8 89/116/8 90/123/8
f 79/122/12 83/215/12 82/125/12
f 75/126/13 77/136/13 76/117/13
f 80/113/14 81/107/14 87/129/14
f 85/120/8 90/110/8 73/109/8
f 74/131/7 84/216/7 85/132/7
f 78/104/7 88/213/7 89/116/7
f 83/124/6 90/123/6 91/134/6
f 85/132/8 86/130/8 77/136/8
f 77/136/6 86/130/6 87/129/6
f 93/137/7 95/140/7 94/138/7
f 95/140/3 99/143/3 98/141/3
f 99/143/6 97/149/6 96/144/6
f 97/146/2 93/217/2 92/147/2
f 98/141/1 96/148/1 92/147/1
f 95/140/8 93/137/8 97/149/8
f 108/150/7 111/169/7 110/151/7
f 106/153/6 107/161/6 104/154/6
f 103/156/1 107/161/1 106/153/1
f 100/158/8 105/155/8 104/154/8
f 102/160/3 104/154/3 107/161/3
f 101/163/2 106/153/2 105/155/2
f 108/150/3 112/218/3 115/168/3
f 110/151/2 114/219/2 113/170/2
f 111/169/1 115/220/1 114/171/1
f 109/152/8 113/221/8 112/172/8
f 122/173/15 123/167/15 132/174/15
f 119/176/6 123/167/6 122/173/6
f 116/178/7 121/222/7 120/165/7
f 118/179/3 120/165/3 123/167/3
f 117/177/2 122/173/2 121/180/2
f 127/182/6 131/188/6 130/183/6
f 124/185/7 129/190/7 128/186/7
f 126/187/3 128/186/3 131/188/3
f 125/189/2 130/195/2 129/190/2
f 128/186/16 129/190/16 134/192/16
f 134/192/2 130/223/2 121/197/2
f 135/193/8 134/192/8 133/175/8
f 120/198/3 131/224/3 135/193/3
f 143/225/17 146/226/2 145/227/17
f 141/228/2 147/229/18 146/226/2
f 149/230/19 145/227/17 144/231/19
f 138/232/18 148/233/20 147/229/18
f 140/234/21 144/231/19 136/235/21
f 142/236/22 148/233/20 137/237/20
f 143/225/17 141/228/2 146/226/2
f 141/228/2 138/232/18 147/229/18
f 149/230/19 143/225/17 145/227/17
f 138/232/18 137/237/20 148/233/20
f 140/234/21 149/230/19 144/231/19
f 142/236/22 139/238/22 148/233/20
