mtllib purex_pump.mtl
usemtl material
v -0.250000 1.875000 -1.500000
v -0.250000 1.941987 -1.250000
v -0.250000 2.125000 -1.066987
v -0.250000 2.375000 -1.000000
v -0.250000 2.625000 -1.066987
v -0.250000 2.808013 -1.250000
v -0.250000 2.875000 -1.500000
v -0.250000 2.808013 -1.750000
v -0.250000 2.625000 -1.933012
v -0.250000 2.375000 -2.000000
v -0.250000 1.941987 -1.750000
v -0.250000 2.125000 -1.933012
v -0.250000 1.625000 -1.500000
v -0.250000 1.725481 -1.125000
v -0.250000 2.000000 -0.850481
v -0.250000 2.375000 -0.750000
v -0.250000 2.750000 -0.850481
v -0.250000 3.024519 -1.125000
v -0.250000 3.125000 -1.500000
v -0.250000 3.024519 -1.875000
v -0.250000 2.750000 -2.149519
v -0.250000 2.375000 -2.250000
v -0.250000 1.725481 -1.875000
v -0.250000 2.000000 -2.149519
v 0.250000 2.000000 -2.149519
v 0.250000 1.725481 -1.875000
v 0.250000 2.375000 -2.250000
v 0.250000 2.750000 -2.149519
v 0.250000 3.024519 -1.875000
v 0.250000 3.125000 -1.500000
v 0.250000 3.024519 -1.125000
v 0.250000 2.750000 -0.850481
v 0.250000 2.375000 -0.750000
v 0.250000 2.000000 -0.850481
v 0.250000 1.725481 -1.125000
v 0.250000 1.625000 -1.500000
v 0.250000 2.125000 -1.933012
v 0.250000 1.941987 -1.750000
v 0.250000 2.375000 -2.000000
v 0.250000 2.625000 -1.933012
v 0.250000 2.808013 -1.750000
v 0.250000 2.875000 -1.500000
v 0.250000 2.808013 -1.250000
v 0.250000 2.625000 -1.066987
v 0.250000 2.375000 -1.000000
v 0.250000 2.125000 -1.066987
v 0.250000 1.941987 -1.250000
v 0.250000 1.875000 -1.500000
vt 0.452381 0.578652
vt 0.440476 0.606742
vt 0.440476 0.573034
vt 0.452381 0.544944
vt 0.440476 0.539326
vt 0.452381 0.915730
vt 0.440476 0.943820
vt 0.440476 0.910112
vt 0.452381 0.882023
vt 0.440476 0.876405
vt 0.440476 0.842697
vt 0.452381 0.870786
vt 0.416667 0.606742
vt 0.404762 0.634831
vt 0.404762 0.612360
vt 0.416667 0.674157
vt 0.404762 0.646067
vt 0.416667 0.640449
vt 0.416667 0.707865
vt 0.404762 0.679775
vt 0.416667 0.741573
vt 0.404762 0.713483
vt 0.416667 0.775281
vt 0.404762 0.747191
vt 0.404762 0.803371
vt 0.404762 0.780899
vt 0.416667 0.808989
vt 0.404762 0.837079
vt 0.404762 0.814607
vt 0.416667 0.842697
vt 0.404762 0.870786
vt 0.404762 0.848315
vt 0.416667 0.876405
vt 0.404762 0.904494
vt 0.404762 0.882023
vt 0.416667 0.943820
vt 0.404762 0.915730
vt 0.416667 0.910112
vt 0.416667 0.573034
vt 0.404762 0.544944
vt 0.416667 0.539326
vt 0.404762 0.578652
vt 0.440476 0.808989
vt 0.452381 0.837079
vt 0.440476 0.775281
vt 0.452381 0.803371
vt 0.452381 0.747191
vt 0.440476 0.741573
vt 0.452381 0.713483
vt 0.440476 0.707865
vt 0.452381 0.679775
vt 0.440476 0.674157
vt 0.452381 0.646067
vt 0.440476 0.640449
vt 0.452381 0.634831
vt 0.452381 0.601124
vt 0.452381 0.567416
vt 0.452381 0.938202
vt 0.452381 0.904494
vt 0.452381 0.848315
vt 0.404762 0.668539
vt 0.404762 0.702247
vt 0.404762 0.735955
vt 0.404762 0.769663
vt 0.404762 0.938202
vt 0.404762 0.567416
vt 0.404762 0.601124
vt 0.452381 0.814607
vt 0.452381 0.780899
vt 0.452381 0.769663
vt 0.452381 0.735955
vt 0.452381 0.702247
vt 0.452381 0.668539
vt 0.452381 0.612360
vn -1.0000 0.0000 0.0000
vn 1.0000 0.0000 0.0000
vn 0.0000 -0.5000 -0.8660
vn 0.0000 0.0000 -1.0000
vn 0.0000 0.0000 1.0000
vn 0.0000 -0.5000 0.8660
vn 0.0000 -0.8660 -0.5000
vn 0.0000 0.5000 0.8660
vn 0.0000 0.8660 0.5000
vn 0.0000 1.0000 -0.0000
vn 0.0000 0.8660 -0.5000
vn 0.0000 -1.0000 0.0000
vn 0.0000 0.5000 -0.8660
vn 0.0000 -0.8660 0.5000
o Pump
s 1
f 11/1/1 24/2/1 23/3/1
f 1/4/1 23/3/1 13/5/1
f 2/6/1 13/7/1 14/8/1
f 3/9/1 14/8/1 15/10/1
f 16/11/1 3/12/1 15/10/1
f 25/13/2 39/14/2 37/15/2
f 28/16/2 39/17/2 27/18/2
f 29/19/2 40/20/2 28/16/2
f 30/21/2 41/22/2 29/19/2
f 31/23/2 42/24/2 30/21/2
f 31/23/2 44/25/2 43/26/2
f 32/27/2 45/28/2 44/29/2
f 33/30/2 46/31/2 45/32/2
f 34/33/2 47/34/2 46/35/2
f 36/36/2 47/37/2 35/38/2
f 26/39/2 48/40/2 36/41/2
f 25/13/2 38/42/2 26/39/2
f 17/43/1 4/44/1 16/11/1
f 18/45/1 5/46/1 17/43/1
f 7/47/1 18/45/1 19/48/1
f 8/49/1 19/48/1 20/50/1
f 9/51/1 20/50/1 21/52/1
f 10/53/1 21/52/1 22/54/1
f 24/2/1 10/55/1 22/54/1
f 11/1/1 12/56/1 24/2/1
f 1/4/1 11/57/1 23/3/1
f 2/6/1 1/58/1 13/7/1
f 3/9/1 2/59/1 14/8/1
f 16/11/1 4/60/1 3/12/1
f 25/13/2 27/18/2 39/14/2
f 28/16/2 40/61/2 39/17/2
f 29/19/2 41/62/2 40/20/2
f 30/21/2 42/63/2 41/22/2
f 31/23/2 43/64/2 42/24/2
f 31/23/2 32/27/2 44/25/2
f 32/27/2 33/30/2 45/28/2
f 33/30/2 34/33/2 46/31/2
f 34/33/2 35/38/2 47/34/2
f 36/36/2 48/65/2 47/37/2
f 26/39/2 38/66/2 48/40/2
f 25/13/2 37/67/2 38/42/2
f 17/43/1 5/68/1 4/44/1
f 18/45/1 6/69/1 5/46/1
f 7/47/1 6/70/1 18/45/1
f 8/49/1 7/71/1 19/48/1
f 9/51/1 8/72/1 20/50/1
f 10/53/1 9/73/1 21/52/1
f 24/2/1 12/74/1 10/55/1
f 25/13/3 22/54/4 27/18/4
f 33/30/5 15/10/6 34/33/6
f 26/39/7 24/2/3 25/13/3
f 32/27/8 16/11/5 33/30/5
f 31/23/9 17/43/8 32/27/8
f 30/21/10 18/45/9 31/23/9
f 29/19/11 19/48/10 30/21/10
f 36/41/12 23/3/7 26/39/7
f 28/16/13 20/50/11 29/19/11
f 35/38/14 13/7/12 36/36/12
f 27/18/4 21/52/13 28/16/13
f 34/33/6 14/8/14 35/38/14
f 25/13/3 24/2/3 22/54/4
f 33/30/5 16/11/5 15/10/6
f 26/39/7 23/3/7 24/2/3
f 32/27/8 17/43/8 16/11/5
f 31/23/9 18/45/9 17/43/8
f 30/21/10 19/48/10 18/45/9
f 29/19/11 20/50/11 19/48/10
f 36/41/12 13/5/12 23/3/7
f 28/16/13 21/52/13 20/50/11
f 35/38/14 14/8/14 13/7/12
f 27/18/4 22/54/4 21/52/13
f 34/33/6 15/10/6 14/8/14
