mtllib purex_fan.mtl
usemtl material
v 1.500000 1.312500 2.250000
v 1.445873 1.281250 2.250000
v 1.445873 1.218750 2.250000
v 1.500000 1.187500 2.250000
v 1.554127 1.218750 2.250000
v 1.554127 1.281250 2.250000
v 1.500000 1.312500 2.374999
v 1.445873 1.281250 2.374999
v 1.445873 1.218750 2.374999
v 1.500000 1.187500 2.374999
v 1.554127 1.218750 2.374999
v 1.554127 1.281250 2.374999
v 1.499078 1.311968 2.305412
v 1.446796 1.281783 2.321589
v 1.462713 1.540972 2.283170
v 1.266654 1.427778 2.343830
v 1.554127 1.219815 2.305412
v 1.554127 1.280185 2.321589
v 1.462713 0.959028 2.343830
v 1.266654 1.072222 2.283170
v 1.499078 1.188032 2.321589
v 1.446795 1.218218 2.305412
v 1.770633 1.136806 2.283170
v 1.770633 1.363194 2.343830
vt 0.309524 0.910112
vt 0.306548 0.921348
vt 0.306548 0.910112
vt 0.321429 0.910112
vt 0.318452 0.921348
vt 0.318452 0.910112
vt 0.315476 0.910112
vt 0.312500 0.921348
vt 0.312500 0.910112
vt 0.309524 0.921348
vt 0.303571 0.921348
vt 0.303571 0.910112
vt 0.315476 0.921348
vt 0.309083 0.929729
vt 0.306548 0.932492
vt 0.304012 0.924203
vt 0.291667 0.915730
vt 0.303571 0.932584
vt 0.291667 0.926966
vt 0.291667 0.915730
vt 0.303571 0.932584
vt 0.291667 0.926966
vt 0.303571 0.910112
vt 0.291667 0.926966
vt 0.291667 0.915730
vt 0.321429 0.921348
vt 0.304012 0.929729
vt 0.306548 0.921440
vt 0.309083 0.924203
vt 0.303571 0.910112
vt 0.303571 0.910112
vt 0.303571 0.932584
vn 1.0000 0.0000 0.0000
vn -0.5000 -0.8660 0.0000
vn -0.5000 0.8660 0.0000
vn 0.5000 0.8660 0.0000
vn 0.5000 -0.8660 0.0000
vn -1.0000 -0.0000 0.0000
vn 0.0000 0.0000 1.0000
vn 0.0000 -0.2588 0.9659
vn -0.2241 0.1294 0.9659
vn 0.2241 0.1294 0.9659
o Fan
s off
f 6/1/1 11/2/1 5/3/1
f 4/4/2 9/5/2 3/6/2
f 2/7/3 7/8/3 1/9/3
f 1/9/4 12/10/4 6/1/4
f 5/3/5 10/11/5 4/12/5
f 3/6/6 8/13/6 2/7/6
f 12/14/7 7/15/7 9/16/7
f 17/17/8 24/18/8 18/19/8
f 22/20/9 19/21/9 21/22/9
f 15/23/10 14/24/10 13/25/10
f 6/1/1 12/10/1 11/2/1
f 4/4/2 10/26/2 9/5/2
f 2/7/3 8/13/3 7/8/3
f 1/9/4 7/8/4 12/10/4
f 5/3/5 11/2/5 10/11/5
f 3/6/6 9/5/6 8/13/6
f 7/15/7 8/27/7 9/16/7
f 9/16/7 10/28/7 11/29/7
f 11/29/7 12/14/7 9/16/7
f 17/17/8 23/30/8 24/18/8
f 22/20/9 20/31/9 19/21/9
f 15/23/10 16/32/10 14/24/10
