mtllib purex_frame.mtl
usemtl material
v 2.375000 5.000000 -2.250000
v 2.375000 5.000000 2.250000
v 2.500000 5.000000 -2.250000
v 2.500000 5.000000 2.250000
v 2.375000 4.875000 -2.250000
v 2.375000 4.875000 2.250000
v 2.500000 4.875000 -2.250000
v 2.500000 4.875000 2.250000
v 2.500000 4.750000 2.500000
v 2.500000 4.750000 2.250000
v 2.250000 4.750000 2.500000
v 2.250000 4.750000 2.250000
v 2.500000 5.000000 2.500000
v 2.500000 5.000000 2.250000
v 2.250000 5.000000 2.500000
v 2.250000 5.000000 2.250000
v 2.500000 4.750000 -2.250000
v 2.500000 4.750000 -2.500000
v 2.250000 4.750000 -2.250000
v 2.250000 4.750000 -2.500000
v 2.500000 5.000000 -2.250000
v 2.500000 5.000000 -2.500000
v 2.250000 5.000000 -2.250000
v 2.250000 5.000000 -2.500000
v -2.250000 4.750000 2.500000
v -2.250000 4.750000 2.250000
v -2.500000 4.750000 2.500000
v -2.500000 4.750000 2.250000
v -2.250000 5.000000 2.500000
v -2.250000 5.000000 2.250000
v -2.500000 5.000000 2.500000
v -2.500000 5.000000 2.250000
v -2.250000 4.750000 -2.250000
v -2.250000 4.750000 -2.500000
v -2.500000 4.750000 -2.250000
v -2.500000 4.750000 -2.500000
v -2.250000 5.000000 -2.250000
v -2.250000 5.000000 -2.500000
v -2.500000 5.000000 -2.250000
v -2.500000 5.000000 -2.500000
v -2.500000 4.875000 -2.250000
v -2.500000 4.875000 2.250000
v -2.375000 4.875000 -2.250000
v -2.375000 4.875000 2.250000
v -2.500000 5.000000 -2.250000
v -2.500000 5.000000 2.250000
v -2.375000 5.000000 -2.250000
v -2.375000 5.000000 2.250000
v 2.250000 4.875000 -2.500000
v -2.250000 4.875000 -2.500000
v 2.250000 4.875000 -2.375000
v -2.250000 4.875000 -2.375000
v 2.250000 5.000000 -2.500000
v -2.250000 5.000000 -2.500000
v 2.250000 5.000000 -2.375000
v -2.250000 5.000000 -2.375000
v -2.250000 4.875000 2.500000
v 2.250000 4.875000 2.500000
v -2.250000 4.875000 2.375000
v 2.250000 4.875000 2.375000
v -2.250000 5.000000 2.500000
v 2.250000 5.000000 2.500000
v -2.250000 5.000000 2.375000
v 2.250000 5.000000 2.375000
v 2.375000 4.750000 2.500000
v 2.375000 0.250000 2.500000
v 2.500000 4.750000 2.500000
v 2.500000 0.250000 2.500000
v 2.375000 4.750000 2.375000
v 2.375000 0.250000 2.375000
v 2.500000 4.750000 2.375000
v 2.500000 0.250000 2.375000
v -2.500000 4.750000 2.375000
v -2.500000 0.250000 2.375000
v -2.375000 4.750000 2.375000
v -2.375000 0.250000 2.375000
v -2.500000 4.750000 2.500000
v -2.500000 0.250000 2.500000
v -2.375000 4.750000 2.500000
v -2.375000 0.250000 2.500000
v 2.375000 0.250000 -2.500000
v 2.375000 4.750000 -2.500000
v 2.500000 0.250000 -2.500000
v 2.500000 4.750000 -2.500000
v 2.375000 0.250000 -2.375000
v 2.375000 4.750000 -2.375000
v 2.500000 0.250000 -2.375000
v 2.500000 4.750000 -2.375000
v -2.500000 0.250000 -2.375000
v -2.500000 4.750000 -2.375000
v -2.375000 0.250000 -2.375000
v -2.375000 4.750000 -2.375000
v -2.500000 0.250000 -2.500000
v -2.500000 4.750000 -2.500000
v -2.375000 0.250000 -2.500000
v -2.375000 4.750000 -2.500000
vt 0.142857 0.247191
vt 0.154762 0.269663
vt 0.142857 0.269663
vt 0.154762 0.292135
vt 0.142857 0.314607
vt 0.142857 0.292135
vt 0.166667 0.269663
vt 0.190476 0.269663
vt 0.178571 0.292135
vt 0.178571 0.269663
vt 0.166667 0.292135
vt 0.142857 0.247191
vt 0.154762 0.269663
vt 0.142857 0.269663
vt 0.154762 0.292135
vt 0.142857 0.314607
vt 0.142857 0.292135
vt 0.166667 0.269663
vt 0.190476 0.269663
vt 0.178571 0.292135
vt 0.178571 0.269663
vt 0.166667 0.292135
vt 0.142857 0.247191
vt 0.154762 0.269663
vt 0.142857 0.269663
vt 0.154762 0.292135
vt 0.142857 0.314607
vt 0.142857 0.292135
vt 0.166667 0.269663
vt 0.190476 0.269663
vt 0.178571 0.292135
vt 0.178571 0.269663
vt 0.166667 0.292135
vt 0.142857 0.247191
vt 0.154762 0.269663
vt 0.142857 0.269663
vt 0.154762 0.292135
vt 0.142857 0.314607
vt 0.142857 0.292135
vt 0.166667 0.269663
vt 0.190476 0.269663
vt 0.178571 0.292135
vt 0.178571 0.269663
vt 0.166667 0.292135
vt 0.309524 0.494382
vt 0.523810 0.505618
vt 0.309524 0.505618
vt 0.309524 0.528090
vt 0.523810 0.539326
vt 0.309524 0.539326
vt 0.523810 0.516854
vt 0.523810 0.528090
vt 0.309524 0.516854
vt 0.309524 0.494382
vt 0.523810 0.505618
vt 0.309524 0.505618
vt 0.309524 0.528090
vt 0.523810 0.539326
vt 0.309524 0.539326
vt 0.523810 0.516854
vt 0.523810 0.528090
vt 0.309524 0.516854
vt 0.309524 0.494382
vt 0.523810 0.505618
vt 0.309524 0.505618
vt 0.309524 0.528090
vt 0.523810 0.539326
vt 0.309524 0.539326
vt 0.523810 0.516854
vt 0.523810 0.528090
vt 0.309524 0.516854
vt 0.309524 0.494382
vt 0.523810 0.505618
vt 0.309524 0.505618
vt 0.309524 0.528090
vt 0.523810 0.539326
vt 0.309524 0.539326
vt 0.523810 0.516854
vt 0.523810 0.528090
vt 0.309524 0.516854
vt 0.523810 0.539326
vt 0.309524 0.528090
vt 0.523810 0.528090
vt 0.523810 0.505618
vt 0.309524 0.494382
vt 0.523810 0.494382
vt 0.309524 0.516854
vt 0.309524 0.505618
vt 0.523810 0.516854
vt 0.309524 0.494382
vt 0.523810 0.505618
vt 0.309524 0.505618
vt 0.309524 0.528090
vt 0.523810 0.539326
vt 0.309524 0.539326
vt 0.523810 0.516854
vt 0.523810 0.528090
vt 0.309524 0.516854
vt 0.309524 0.494382
vt 0.523810 0.505618
vt 0.309524 0.505618
vt 0.309524 0.528090
vt 0.523810 0.539326
vt 0.309524 0.539326
vt 0.523810 0.516854
vt 0.523810 0.528090
vt 0.309524 0.516854
vt 0.523810 0.539326
vt 0.309524 0.528090
vt 0.523810 0.528090
vt 0.523810 0.505618
vt 0.309524 0.494382
vt 0.523810 0.494382
vt 0.309524 0.516854
vt 0.309524 0.505618
vt 0.523810 0.516854
vt 0.154762 0.247191
vt 0.154762 0.314607
vt 0.190476 0.292135
vt 0.154762 0.247191
vt 0.154762 0.314607
vt 0.190476 0.292135
vt 0.154762 0.247191
vt 0.154762 0.314607
vt 0.190476 0.292135
vt 0.154762 0.247191
vt 0.154762 0.314607
vt 0.190476 0.292135
vt 0.523810 0.494382
vt 0.523810 0.494382
vt 0.523810 0.494382
vt 0.523810 0.494382
vt 0.309524 0.539326
vt 0.523810 0.494382
vt 0.523810 0.494382
vt 0.309524 0.539326
vn 0.0000 -1.0000 0.0000
vn 0.0000 1.0000 0.0000
vn 0.0000 0.0000 -1.0000
vn 1.0000 0.0000 0.0000
vn 0.0000 0.0000 1.0000
vn -1.0000 0.0000 0.0000
o Frame
s off
f 11/1/1 10/2/1 9/3/1
f 14/4/2 15/5/2 13/6/2
f 12/7/3 14/4/3 10/2/3
f 10/2/4 13/6/4 9/3/4
f 9/8/5 15/9/5 11/10/5
f 11/10/6 16/11/6 12/7/6
f 19/12/1 18/13/1 17/14/1
f 22/15/2 23/16/2 21/17/2
f 20/18/3 22/15/3 18/13/3
f 18/13/4 21/17/4 17/14/4
f 17/19/5 23/20/5 19/21/5
f 19/21/6 24/22/6 20/18/6
f 27/23/1 26/24/1 25/25/1
f 30/26/2 31/27/2 29/28/2
f 28/29/3 30/26/3 26/24/3
f 26/24/4 29/28/4 25/25/4
f 25/30/5 31/31/5 27/32/5
f 27/32/6 32/33/6 28/29/6
f 35/34/1 34/35/1 33/36/1
f 38/37/2 39/38/2 37/39/2
f 36/40/3 38/37/3 34/35/3
f 34/35/4 37/39/4 33/36/4
f 33/41/5 39/42/5 35/43/5
f 35/43/6 40/44/6 36/40/6
f 6/45/1 7/46/1 8/47/1
f 2/48/6 5/49/6 6/50/6
f 3/51/4 8/47/4 7/46/4
f 1/52/2 4/53/2 3/51/2
f 43/54/1 42/55/1 41/56/1
f 47/57/4 44/58/4 43/59/4
f 46/60/6 41/56/6 42/55/6
f 48/61/2 45/62/2 46/60/2
f 51/63/1 50/64/1 49/65/1
f 55/66/5 52/67/5 51/68/5
f 54/69/3 49/65/3 50/64/3
f 56/70/2 53/71/2 54/69/2
f 59/72/1 58/73/1 57/74/1
f 63/75/3 60/76/3 59/77/3
f 62/78/5 57/74/5 58/73/5
f 64/79/2 61/80/2 62/78/2
f 70/81/3 71/82/3 72/83/3
f 66/84/6 69/85/6 70/86/6
f 67/87/4 72/83/4 71/82/4
f 65/88/5 68/89/5 67/87/5
f 75/90/3 74/91/3 73/92/3
f 79/93/4 76/94/4 75/95/4
f 78/96/6 73/92/6 74/91/6
f 80/97/5 77/98/5 78/96/5
f 86/99/5 87/100/5 88/101/5
f 82/102/6 85/103/6 86/104/6
f 83/105/4 88/101/4 87/100/4
f 81/106/3 84/107/3 83/105/3
f 91/108/5 90/109/5 89/110/5
f 95/111/4 92/112/4 91/113/4
f 94/114/6 89/110/6 90/109/6
f 96/115/3 93/116/3 94/114/3
f 11/1/1 12/117/1 10/2/1
f 14/4/2 16/118/2 15/5/2
f 12/7/3 16/11/3 14/4/3
f 10/2/4 14/4/4 13/6/4
f 9/8/5 13/119/5 15/9/5
f 11/10/6 15/9/6 16/11/6
f 19/12/1 20/120/1 18/13/1
f 22/15/2 24/121/2 23/16/2
f 20/18/3 24/22/3 22/15/3
f 18/13/4 22/15/4 21/17/4
f 17/19/5 21/122/5 23/20/5
f 19/21/6 23/20/6 24/22/6
f 27/23/1 28/123/1 26/24/1
f 30/26/2 32/124/2 31/27/2
f 28/29/3 32/33/3 30/26/3
f 26/24/4 30/26/4 29/28/4
f 25/30/5 29/125/5 31/31/5
f 27/32/6 31/31/6 32/33/6
f 35/34/1 36/126/1 34/35/1
f 38/37/2 40/127/2 39/38/2
f 36/40/3 40/44/3 38/37/3
f 34/35/4 38/37/4 37/39/4
f 33/41/5 37/128/5 39/42/5
f 35/43/6 39/42/6 40/44/6
f 6/45/1 5/129/1 7/46/1
f 2/48/6 1/52/6 5/49/6
f 3/51/4 4/53/4 8/47/4
f 1/52/2 2/48/2 4/53/2
f 43/54/1 44/130/1 42/55/1
f 47/57/4 48/61/4 44/58/4
f 46/60/6 45/62/6 41/56/6
f 48/61/2 47/57/2 45/62/2
f 51/63/1 52/131/1 50/64/1
f 55/66/5 56/70/5 52/67/5
f 54/69/3 53/71/3 49/65/3
f 56/70/2 55/66/2 53/71/2
f 59/72/1 60/132/1 58/73/1
f 63/75/3 64/79/3 60/76/3
f 62/78/5 61/80/5 57/74/5
f 64/79/2 63/75/2 61/80/2
f 70/81/3 69/133/3 71/82/3
f 66/84/6 65/88/6 69/85/6
f 67/87/4 68/89/4 72/83/4
f 65/88/5 66/84/5 68/89/5
f 75/90/3 76/134/3 74/91/3
f 79/93/4 80/97/4 76/94/4
f 78/96/6 77/98/6 73/92/6
f 80/97/5 79/93/5 77/98/5
f 86/99/5 85/135/5 87/100/5
f 82/102/6 81/106/6 85/103/6
f 83/105/4 84/107/4 88/101/4
f 81/106/3 82/102/3 84/107/3
f 91/108/5 92/136/5 90/109/5
f 95/111/4 96/115/4 92/112/4
f 94/114/6 93/116/6 89/110/6
f 96/115/3 95/111/3 93/116/3
