mtllib silex.mtl
usemtl material
v -1.500000 0.000000 1.500000
v -1.500000 0.500000 1.500000
v -1.500000 0.000000 -1.500000
v -1.500000 0.500000 -1.500000
v 1.500000 0.000000 1.500000
v 1.500000 0.500000 1.500000
v 1.500000 0.000000 -1.500000
v 1.500000 0.500000 -1.500000
v 1.500000 0.500000 1.375000
v 1.375000 0.500000 1.375000
v 1.500000 0.500000 1.500000
v 1.375000 0.500000 1.500000
v 1.500000 2.875000 1.375000
v 1.375000 2.875000 1.375000
v 1.375000 2.875000 1.500000
v 1.500000 0.500000 -1.500000
v 1.375000 0.500000 -1.500000
v 1.500000 0.500000 -1.375000
v 1.375000 0.500000 -1.375000
v 1.375000 2.875000 -1.500000
v 1.500000 2.875000 -1.375000
v 1.375000 2.875000 -1.375000
v -1.375000 0.500000 1.375000
v -1.500000 0.500000 1.375000
v -1.375000 0.500000 1.500000
v -1.500000 0.500000 1.500000
v -1.375000 2.875000 1.375000
v -1.500000 2.875000 1.375000
v -1.375000 2.875000 1.500000
v -1.375000 0.500000 -1.500000
v -1.500000 0.500000 -1.500000
v -1.375000 0.500000 -1.375000
v -1.500000 0.500000 -1.375000
v -1.375000 2.875000 -1.500000
v -1.375000 2.875000 -1.375000
v -1.500000 2.875000 -1.375000
v 1.500000 3.000000 1.500000
v 1.500000 3.000000 -1.500000
v -1.500000 3.000000 1.500000
v -1.500000 3.000000 -1.500000
v 1.375000 3.000000 1.375000
v 1.375000 3.000000 -1.375000
v -1.375000 3.000000 1.375000
v -1.375000 3.000000 -1.375000
v -0.000000 2.000000 -1.375000
v -0.000000 2.000000 -1.500000
v -0.000000 2.000000 1.375000
v -0.000000 2.000000 1.500000
v 0.353553 1.853553 1.375000
v 0.353553 1.853553 1.500000
v 0.500000 1.500000 1.375000
v 0.500000 1.500000 1.500000
v 0.353553 1.146447 1.375000
v 0.353553 1.146447 1.500000
v -0.000000 1.000000 1.375000
v -0.000000 1.000000 1.500000
v -0.353553 1.146447 1.375000
v -0.353553 1.146447 1.500000
v -0.500000 1.500000 1.375000
v -0.500000 1.500000 1.500000
v -0.353553 1.853553 1.375000
v -0.353553 1.853553 1.500000
v 0.353553 1.853553 -1.500000
v 0.353553 1.853553 -1.375000
v 0.500000 1.500000 -1.500000
v 0.500000 1.500000 -1.375000
v 0.353553 1.146447 -1.500000
v 0.353553 1.146447 -1.375000
v -0.000000 1.000000 -1.500000
v -0.000000 1.000000 -1.375000
v -0.353553 1.146447 -1.500000
v -0.353553 1.146447 -1.375000
v -0.500000 1.500000 -1.500000
v -0.500000 1.500000 -1.375000
v -0.353553 1.853553 -1.500000
v -0.353553 1.853553 -1.375000
v -0.000000 1.875000 1.000000
v 0.265165 1.765165 1.000000
v 0.375000 1.500000 1.000000
v 0.265165 1.234835 1.000000
v -0.000000 1.125000 1.000000
v -0.265165 1.234835 1.000000
v -0.375000 1.500000 1.000000
v -0.265165 1.765165 1.000000
v -0.265165 1.234835 -1.000000
v -0.000000 1.125000 -1.000000
v 0.375000 1.500000 -1.000000
v 0.265165 1.765165 -1.000000
v 0.265165 1.234835 -1.000000
v -0.000000 1.875000 -1.000000
v -0.375000 1.500000 -1.000000
v -0.265165 1.765165 -1.000000
v -0.000000 1.750000 -0.250000
v 0.176777 1.676777 -0.250000
v 0.250000 1.500000 -0.250000
v 0.176777 1.323223 -0.250000
v -0.000000 1.250000 -0.250000
v -0.176777 1.323223 -0.250000
v -0.250000 1.500000 -0.250000
v -0.176777 1.676777 -0.250000
v -0.000000 1.750000 0.250000
v 0.176777 1.676777 0.250000
v 0.250000 1.500000 0.250000
v 0.176777 1.323223 0.250000
v -0.000000 1.250000 0.250000
v -0.176777 1.323223 0.250000
v -0.250000 1.500000 0.250000
v -0.176777 1.676777 0.250000
v 1.500000 1.875000 0.375000
v 1.500000 1.125000 0.375000
v 1.500000 1.125000 -0.375000
v 1.500000 1.875000 -0.375000
v 1.250000 1.750000 -0.250000
v 1.250000 1.250000 -0.250000
v 1.250000 1.750000 0.250000
v 1.250000 1.250000 0.250000
v 1.375000 1.125000 0.375000
v 1.375000 1.875000 0.375000
v 1.375000 1.125000 -0.375000
v 1.375000 1.875000 -0.375000
v 1.375000 1.750000 -0.250000
v 1.375000 1.250000 -0.250000
v 1.375000 1.750000 0.250000
v 1.375000 1.250000 0.250000
v -1.500000 1.875000 -0.375000
v -1.500000 1.125000 -0.375000
v -1.500000 1.125000 0.375000
v -1.500000 1.875000 0.375000
v -1.250000 1.750000 0.250000
v -1.250000 1.250000 0.250000
v -1.250000 1.750000 -0.250000
v -1.250000 1.250000 -0.250000
v -1.375000 1.125000 -0.375000
v -1.375000 1.875000 -0.375000
v -1.375000 1.125000 0.375000
v -1.375000 1.875000 0.375000
v -1.375000 1.750000 0.250000
v -1.375000 1.250000 0.250000
v -1.375000 1.750000 -0.250000
v -1.375000 1.250000 -0.250000
v -0.379442 1.411612 -0.504442
v -0.353553 1.500000 -0.530330
v -0.698223 1.000000 0.448223
v -0.044194 1.500000 -0.132583
v -0.625000 1.000000 0.625000
v -0.057138 1.455806 -0.119638
v -0.698223 1.000000 0.801777
v -0.088388 1.437500 -0.088388
v -0.875000 1.000000 0.875000
v -0.119638 1.455806 -0.057138
v -1.051777 1.000000 0.801777
v -0.132583 1.500000 -0.044194
v -1.125000 1.000000 0.625000
v -0.119638 1.544194 -0.057138
v -0.875000 1.000000 0.375000
v -0.088388 1.562500 -0.088388
v -1.051777 1.000000 0.448223
v -0.057138 1.544194 -0.119638
v -0.441942 1.375000 -0.441942
v -0.504442 1.411612 -0.379442
v -0.530330 1.500000 -0.353553
v -0.504442 1.588388 -0.379442
v -0.441942 1.625000 -0.441942
v -0.379442 1.588388 -0.504442
v -0.732995 1.588388 -0.857995
v -0.707107 1.500000 -0.883883
v -0.795495 1.625000 -0.795495
v -0.857995 1.588388 -0.732995
v -0.883883 1.500000 -0.707107
v -0.857995 1.411612 -0.732995
v -0.795495 1.375000 -0.795495
v -0.732995 1.411612 -0.857995
v -0.795495 1.562500 -0.795495
v -0.826745 1.544194 -0.764245
v -0.839689 1.500000 -0.751301
v -0.826745 1.455806 -0.764245
v -0.795495 1.437500 -0.795495
v -0.764245 1.455806 -0.826745
v -0.751301 1.500000 -0.839689
v -0.764245 1.544194 -0.826745
v -0.905981 1.520633 -0.905981
v -0.930758 1.504780 -0.868258
v -0.928078 1.466506 -0.839689
v -0.899508 1.428233 -0.837008
v -0.861786 1.412380 -0.861786
v -0.837008 1.428233 -0.899508
v -0.839689 1.466506 -0.928078
v -0.868258 1.504780 -0.930758
v -0.986861 1.406250 -0.986861
v -1.006902 1.397097 -0.944401
v -0.992782 1.375000 -0.904394
v -0.952775 1.352903 -0.890275
v -0.910315 1.343750 -0.910315
v -0.890275 1.352903 -0.952775
v -0.904394 1.375000 -0.992782
v -0.944401 1.397097 -1.006902
v -1.016466 1.250000 -1.016466
v -1.034772 1.250000 -0.972272
v -1.016466 1.250000 -0.928078
v -0.972272 1.250000 -0.909772
v -0.928078 1.250000 -0.928078
v -0.909772 1.250000 -0.972272
v -0.928078 1.250000 -1.016466
v -0.972272 1.250000 -1.034772
v -0.928078 1.125000 -1.016466
v -0.972272 1.125000 -1.034772
v -1.016466 1.125000 -1.016466
v -0.909772 1.125000 -0.972272
v -1.016466 1.125000 -0.928078
v -1.034772 1.125000 -0.972272
v -0.928078 1.125000 -0.928078
v -0.972272 1.125000 -0.909772
v -0.000000 1.687500 0.187500
v 0.132582 1.632582 0.187500
v 0.187500 1.500000 0.187500
v 0.132582 1.367418 0.187500
v -0.000000 1.312500 0.187500
v -0.132583 1.367418 0.187500
v -0.187500 1.500000 0.187500
v -0.132583 1.632582 0.187500
v -0.000000 1.687500 -0.187500
v 0.132582 1.632582 -0.187500
v 0.187500 1.500000 -0.187500
v 0.132582 1.367417 -0.187500
v -0.000000 1.312500 -0.187500
v -0.132583 1.367417 -0.187500
v -0.187500 1.500000 -0.187500
v -0.132583 1.632582 -0.187500
v -0.883883 1.125000 -1.060660
v -0.972272 1.125000 -1.097272
v -1.060660 1.125000 -1.060660
v -0.847272 1.125000 -0.972272
v -1.060660 1.125000 -0.883883
v -1.097272 1.125000 -0.972272
v -0.883883 1.125000 -0.883883
v -0.972272 1.125000 -0.847272
v -0.972272 0.875000 -0.784772
v -0.839689 0.875000 -0.839689
v -1.159772 0.875000 -0.972272
v -1.104854 0.875000 -0.839689
v -0.784772 0.875000 -0.972272
v -1.104854 0.875000 -1.104854
v -0.972272 0.875000 -1.159772
v -0.839689 0.875000 -1.104854
v -0.972272 1.125000 -0.847272
v -0.883883 1.125000 -0.883883
v -1.097272 1.125000 -0.972272
v -1.060660 1.125000 -0.883883
v -0.847272 1.125000 -0.972272
v -1.060660 1.125000 -1.060660
v -0.972272 1.125000 -1.097272
v -0.883883 1.125000 -1.060660
v 0.750000 1.625000 -0.125000
v 0.750000 1.375000 -0.125000
v 0.750000 1.625000 0.125000
v 0.750000 1.375000 0.125000
v -0.750000 1.625000 0.125000
v -0.750000 1.375000 0.125000
v -0.750000 1.625000 -0.125000
v -0.750000 1.375000 -0.125000
v 0.812500 1.625000 -0.125000
v 0.812500 1.375000 -0.125000
v 0.812500 1.625000 0.125000
v 0.812500 1.375000 0.125000
v 0.687500 1.625000 -0.125000
v 0.687500 1.375000 -0.125000
v 0.687500 1.625000 0.125000
v 0.687500 1.375000 0.125000
v 0.812500 1.687500 -0.125000
v 0.812500 1.687500 0.125000
v 0.687500 1.687500 -0.125000
v 0.687500 1.687500 0.125000
v 0.812500 1.625000 0.187500
v 0.687500 1.625000 0.187500
v 0.812500 1.625000 -0.187500
v 0.687500 1.625000 -0.187500
v 0.812500 1.250000 0.187500
v 0.687500 1.250000 0.187500
v 0.812500 1.250000 -0.187500
v 0.687500 1.250000 -0.187500
v 1.000000 1.251000 0.375000
v 1.000000 1.251000 -0.375000
v 0.500000 1.251000 0.375000
v 0.500000 1.251000 -0.375000
v 1.000000 0.501000 0.375000
v 1.000000 0.501000 -0.375000
v 0.500000 0.501000 0.375000
v 0.500000 0.501000 -0.375000
v -0.687500 1.625000 -0.125000
v -0.687500 1.375000 -0.125000
v -0.687500 1.625000 0.125000
v -0.687500 1.375000 0.125000
v -0.812500 1.625000 -0.125000
v -0.812500 1.375000 -0.125000
v -0.812500 1.625000 0.125000
v -0.812500 1.375000 0.125000
v -0.687500 1.687500 -0.125000
v -0.687500 1.687500 0.125000
v -0.812500 1.687500 -0.125000
v -0.812500 1.687500 0.125000
v -0.687500 1.625000 0.187500
v -0.812500 1.625000 0.187500
v -0.687500 1.625000 -0.187500
v -0.812500 1.625000 -0.187500
v -0.687500 1.250000 0.187500
v -0.812500 1.250000 0.187500
v -0.687500 1.250000 -0.187500
v -0.812500 1.250000 -0.187500
v -0.500000 1.251000 0.375000
v -0.500000 1.251000 -0.375000
v -1.000000 1.251000 0.375000
v -1.000000 1.251000 -0.375000
v -0.500000 0.501000 0.375000
v -0.500000 0.501000 -0.375000
v -1.000000 0.501000 0.375000
v -1.000000 0.501000 -0.375000
v -0.062500 0.500000 -0.937500
v -0.062500 1.312500 -0.937500
v -0.062500 0.500000 -1.062500
v -0.062500 1.312500 -1.062500
v 0.062500 0.500000 -0.937500
v 0.062500 1.312500 -0.937500
v 0.062500 0.500000 -1.062500
v 0.062500 1.312500 -1.062500
v -0.062500 0.500000 1.062500
v -0.062500 1.312500 1.062500
v -0.062500 0.500000 0.937500
v -0.062500 1.312500 0.937500
v 0.062500 0.500000 1.062500
v 0.062500 1.312500 1.062500
v 0.062500 0.500000 0.937500
v 0.062500 1.312500 0.937500
v 0.750000 1.001000 0.375000
v 0.573223 0.927777 0.375000
v 0.500000 0.751000 0.375000
v 0.573223 0.574223 0.375000
v 0.750000 0.501000 0.375000
v 0.926777 0.574223 0.375000
v 1.000000 0.751000 0.375000
v 0.926777 0.927777 0.375000
v 0.573223 0.927777 1.000000
v 0.750000 1.001000 1.000000
v 0.500000 0.751000 1.000000
v 0.573223 0.574223 1.000000
v 0.750000 0.501000 1.000000
v 0.926777 0.574223 1.000000
v 1.000000 0.751000 1.000000
v 0.926777 0.927777 1.000000
v 0.448223 1.000000 -1.051777
v 0.926777 0.927777 -0.500000
v 1.000000 0.751000 -0.500000
v 0.926777 0.574223 -0.500000
v 0.750000 0.501000 -0.500000
v 0.573223 0.574223 -0.500000
v 0.500000 0.751000 -0.500000
v 0.750000 1.001000 -0.500000
v 0.573223 0.927777 -0.500000
v 0.687500 0.938500 0.937500
v 0.687500 1.438500 0.937500
v 0.687500 0.938500 0.812500
v 0.687500 1.438500 0.812500
v 0.812500 0.938500 0.937500
v 0.812500 1.438500 0.937500
v 0.812500 0.938500 0.812500
v 0.812500 1.438500 0.812500
v 0.687500 1.563500 0.937500
v 0.687500 1.563500 0.812500
v 0.187500 1.438500 0.937500
v 0.187500 1.438500 0.812500
v 0.187500 1.563500 0.937500
v 0.187500 1.563500 0.812500
v 0.687500 0.938500 0.687500
v 0.687500 1.438500 0.687500
v 0.687500 0.938500 0.562500
v 0.687500 1.438500 0.562500
v 0.812500 0.938500 0.687500
v 0.812500 1.438500 0.687500
v 0.812500 0.938500 0.562500
v 0.812500 1.438500 0.562500
v 0.687500 1.563500 0.687500
v 0.687500 1.563500 0.562500
v 0.187500 1.438500 0.687500
v 0.187500 1.438500 0.562500
v 0.187500 1.563500 0.687500
v 0.187500 1.563500 0.562500
v -1.312500 0.500000 -0.375000
v -1.312500 0.625000 -0.375000
v -1.312500 0.500000 -1.375000
v -1.312500 0.625000 -1.375000
v -0.562500 0.500000 -0.375000
v -0.562500 0.625000 -0.375000
v -0.562500 0.500000 -1.375000
v -0.562500 0.625000 -1.375000
v -0.875000 0.500000 0.375000
v -1.051777 0.500000 0.448223
v -1.125000 0.500000 0.625000
v -1.051777 0.500000 0.801777
v -0.875000 0.500000 0.875000
v -0.698223 0.500000 0.801777
v -0.625000 0.500000 0.625000
v -0.698223 0.500000 0.448223
v -1.051777 1.000000 0.448223
v -0.875000 1.000000 0.375000
v -1.125000 1.000000 0.625000
v -1.051777 1.000000 0.801777
v -0.875000 1.000000 0.875000
v -0.698223 1.000000 0.801777
v -0.625000 1.000000 0.625000
v -0.698223 1.000000 0.448223
v -0.698223 0.500000 0.948223
v -0.625000 0.500000 1.125000
v -0.698223 0.500000 1.301777
v -0.875000 0.500000 1.375000
v -1.051777 0.500000 1.301777
v -1.125000 0.500000 1.125000
v -1.051777 0.500000 0.948223
v -0.875000 0.500000 0.875000
v -0.742417 1.125000 0.492418
v -0.687500 1.125000 0.625000
v -0.742417 1.125000 0.757582
v -0.875000 1.125000 0.812500
v -1.007582 1.125000 0.757582
v -1.062500 1.125000 0.625000
v -0.875000 1.125000 0.437500
v -1.007582 1.125000 0.492417
v -1.007582 1.000000 0.492417
v -0.875000 1.000000 0.437500
v -1.062500 1.000000 0.625000
v -1.007582 1.000000 0.757582
v -0.875000 1.000000 0.812500
v -0.742417 1.000000 0.757582
v -0.687500 1.000000 0.625000
v -0.742417 1.000000 0.492418
v -1.051777 1.000000 0.948223
v -0.875000 1.000000 0.875000
v -1.125000 1.000000 1.125000
v -1.051777 1.000000 1.301777
v -0.875000 1.000000 1.375000
v -0.698223 1.000000 1.301777
v -0.625000 1.000000 1.125000
v -0.698223 1.000000 0.948223
v -0.742417 1.125000 0.992418
v -0.687500 1.125000 1.125000
v -0.742417 1.125000 1.257582
v -0.875000 1.125000 1.312500
v -1.007582 1.125000 1.257582
v -1.062500 1.125000 1.125000
v -0.875000 1.125000 0.937500
v -1.007582 1.125000 0.992417
v -1.007582 1.000000 0.992417
v -0.875000 1.000000 0.937500
v -1.062500 1.000000 1.125000
v -1.007582 1.000000 1.257582
v -0.875000 1.000000 1.312500
v -0.742417 1.000000 1.257582
v -0.687500 1.000000 1.125000
v -0.742417 1.000000 0.992418
v -0.937500 1.125000 0.687500
v -0.812500 1.125000 0.687500
v -0.937500 1.125000 0.562500
v -0.812500 1.125000 0.562500
v -0.937500 1.187500 0.562500
v -0.937500 1.187500 0.687500
v -0.812500 1.187500 0.687500
v -0.812500 1.187500 0.562500
v -0.937500 1.125000 1.187500
v -0.812500 1.125000 1.187500
v -0.937500 1.125000 1.062500
v -0.812500 1.125000 1.062500
v -0.937500 1.187500 1.062500
v -0.937500 1.187500 1.187500
v -0.812500 1.187500 1.187500
v -0.812500 1.187500 1.062500
v -0.906250 1.187500 1.093750
v -0.906250 1.187500 1.156250
v -0.843750 1.187500 1.156250
v -0.843750 1.187500 1.093750
v -0.906250 1.187500 0.593750
v -0.906250 1.187500 0.656250
v -0.843750 1.187500 0.656250
v -0.843750 1.187500 0.593750
v -0.906250 1.312500 1.093750
v -0.906250 1.312500 1.156250
v -0.843750 1.312500 1.156250
v -0.843750 1.312500 1.093750
v -0.906250 1.312500 0.593750
v -0.906250 1.312500 0.656250
v -0.843750 1.312500 0.656250
v -0.843750 1.312500 0.593750
v -0.906250 1.375000 1.093750
v -0.843750 1.375000 1.093750
v -0.906250 1.375000 0.656250
v -0.843750 1.375000 0.656250
v -0.906250 1.500000 0.593750
v -0.906250 1.500000 0.656250
v -0.843750 1.500000 0.656250
v -0.843750 1.500000 0.593750
v -0.843750 1.562500 0.656250
v -0.843750 1.562500 0.593750
v -0.218750 1.500000 0.593750
v -0.218750 1.500000 0.656250
v -0.218750 1.562500 0.593750
v -0.218750 1.562500 0.656250
v 0.750000 1.001000 -0.375000
v 0.573223 0.927777 -0.375000
v 0.500000 0.751000 -0.375000
v 0.573223 0.574223 -0.375000
v 0.750000 0.501000 -0.375000
v 0.926777 0.574223 -0.375000
v 1.000000 0.751000 -0.375000
v 0.926777 0.927777 -0.375000
v 0.573223 0.927777 -0.500000
v 0.750000 1.001000 -0.500000
v 0.500000 0.751000 -0.500000
v 0.573223 0.574223 -0.500000
v 0.750000 0.501000 -0.500000
v 0.926777 0.574223 -0.500000
v 1.000000 0.751000 -0.500000
v 0.926777 0.927777 -0.500000
v 0.625000 0.500000 -1.125000
v 0.448223 0.500000 -1.051777
v 0.375000 0.500000 -0.875000
v 0.448223 0.500000 -0.698223
v 0.625000 0.500000 -0.625000
v 0.801777 0.500000 -0.698223
v 0.875000 0.500000 -0.875000
v 0.801777 0.500000 -1.051777
v 0.448223 1.000000 -1.051777
v 0.625000 1.000000 -1.125000
v 0.375000 1.000000 -0.875000
v 0.448223 1.000000 -0.698223
v 0.625000 1.000000 -0.625000
v 0.801777 1.000000 -0.698223
v 0.875000 1.000000 -0.875000
v 0.801777 1.000000 -1.051777
v 0.757583 1.125000 -1.007582
v 0.812500 1.125000 -0.875000
v 0.757583 1.125000 -0.742418
v 0.625000 1.125000 -0.687500
v 0.492418 1.125000 -0.742418
v 0.437500 1.125000 -0.875000
v 0.625000 1.125000 -1.062500
v 0.492418 1.125000 -1.007583
v 0.492418 1.000000 -1.007583
v 0.625000 1.000000 -1.062500
v 0.437500 1.000000 -0.875000
v 0.492418 1.000000 -0.742418
v 0.625000 1.000000 -0.687500
v 0.757583 1.000000 -0.742418
v 0.812500 1.000000 -0.875000
v 0.757583 1.000000 -1.007582
v 0.562500 1.125000 -0.812500
v 0.687500 1.125000 -0.812500
v 0.562500 1.125000 -0.937500
v 0.687500 1.125000 -0.937500
v 0.562500 1.187500 -0.937500
v 0.562500 1.187500 -0.812500
v 0.687500 1.187500 -0.812500
v 0.687500 1.187500 -0.937500
v 0.593750 1.187500 -0.906250
v 0.593750 1.187500 -0.843750
v 0.656250 1.187500 -0.843750
v 0.656250 1.187500 -0.906250
v 0.593750 1.500000 -0.906250
v 0.593750 1.500000 -0.843750
v 0.656250 1.500000 -0.843750
v 0.656250 1.500000 -0.906250
v 0.593750 1.562500 -0.906250
v 0.593750 1.562500 -0.843750
v 0.218750 1.500000 -0.906250
v 0.218750 1.500000 -0.843750
v 0.218750 1.562500 -0.906250
v 0.218750 1.562500 -0.843750
v 1.437500 0.500000 1.375000
v 1.437500 2.875000 1.375000
v 1.437500 0.500000 -1.375000
v 1.437500 2.875000 -1.375000
v -1.375000 2.875000 -1.437500
v -1.375000 0.500000 -1.437500
v 1.375000 2.875000 -1.437500
v 1.375000 0.500000 -1.437500
v -1.437500 2.875000 -1.375000
v -1.437500 0.500000 -1.375000
v -1.437500 2.875000 1.375000
v -1.437500 0.500000 1.375000
v -1.375000 2.875000 1.437500
v -1.375000 0.500000 1.437500
v 1.375000 2.875000 1.437500
v 1.375000 0.500000 1.437500
v 1.375000 2.937500 1.375000
v 1.375000 2.937500 -1.375000
v -1.375000 2.937500 1.375000
v -1.375000 2.937500 -1.375000
v -0.379442 1.588388 -0.504442
v -0.441942 1.625000 -0.441942
v -0.504442 1.588388 -0.379442
v -0.530330 1.500000 -0.353553
v -0.504442 1.411612 -0.379442
v -0.441942 1.375000 -0.441942
v -0.353553 1.500000 -0.530330
v -0.379442 1.411612 -0.504442
v -0.839689 0.875000 -1.104854
v -0.972272 0.875000 -1.159772
v -1.104854 0.875000 -1.104854
v -0.784772 0.875000 -0.972272
v -1.104854 0.875000 -0.839689
v -1.159772 0.875000 -0.972272
v -0.839689 0.875000 -0.839689
v -0.972272 0.875000 -0.784772
v -0.839689 0.625000 -1.104854
v -0.972272 0.625000 -1.159772
v -1.104854 0.625000 -1.104854
v -0.784772 0.625000 -0.972272
v -1.104854 0.625000 -0.839689
v -1.159772 0.625000 -0.972272
v -0.839689 0.625000 -0.839689
v -0.972272 0.625000 -0.784772
v -0.732995 1.588388 -0.857995
v -0.707107 1.500000 -0.883883
v -0.795495 1.625000 -0.795495
v -0.857995 1.588388 -0.732995
v -0.883883 1.500000 -0.707107
v -0.857995 1.411612 -0.732995
v -0.795495 1.375000 -0.795495
v -0.732995 1.411612 -0.857995
v -0.397748 1.500000 -0.486136
v -0.044194 1.500000 -0.132583
v -0.410692 1.455806 -0.473192
v -0.057138 1.455806 -0.119638
v -0.441942 1.437500 -0.441942
v -0.088388 1.437500 -0.088388
v -0.473192 1.455806 -0.410692
v -0.119638 1.455806 -0.057138
v -0.486136 1.500000 -0.397748
v -0.132583 1.500000 -0.044194
v -0.473192 1.544194 -0.410692
v -0.119638 1.544194 -0.057138
v -0.441942 1.562500 -0.441942
v -0.088388 1.562500 -0.088388
v -0.410692 1.544194 -0.473192
v -0.057138 1.544194 -0.119638
v -0.742417 1.125000 0.492418
v -0.687500 1.125000 0.625000
v -0.742417 1.125000 0.757582
v -0.875000 1.125000 0.812500
v -1.007582 1.125000 0.757582
v -1.062500 1.125000 0.625000
v -0.875000 1.125000 0.437500
v -1.007582 1.125000 0.492417
v -1.007582 1.000000 0.492417
v -0.875000 1.000000 0.437500
v -1.062500 1.000000 0.625000
v -1.007582 1.000000 0.757582
v -0.875000 1.000000 0.812500
v -0.742417 1.000000 0.757582
v -0.687500 1.000000 0.625000
v -0.742417 1.000000 0.492418
v -1.051777 1.000000 0.948223
v -0.875000 1.000000 0.875000
v -1.125000 1.000000 1.125000
v -1.051777 1.000000 1.301777
v -0.875000 1.000000 1.375000
v -0.698223 1.000000 1.301777
v -0.625000 1.000000 1.125000
v -0.698223 1.000000 0.948223
v -0.742417 1.125000 0.992418
v -0.687500 1.125000 1.125000
v -0.742417 1.125000 1.257582
v -0.875000 1.125000 1.312500
v -1.007582 1.125000 1.257582
v -1.062500 1.125000 1.125000
v -0.875000 1.125000 0.937500
v -1.007582 1.125000 0.992417
v -1.007582 1.000000 0.992417
v -0.875000 1.000000 0.937500
v -1.062500 1.000000 1.125000
v -1.007582 1.000000 1.257582
v -0.875000 1.000000 1.312500
v -0.742417 1.000000 1.257582
v -0.687500 1.000000 1.125000
v -0.742417 1.000000 0.992418
v 0.573223 0.927777 1.000000
v 0.750000 1.001000 1.000000
v 0.500000 0.751000 1.000000
v 0.573223 0.574223 1.000000
v 0.750000 0.501000 1.000000
v 0.926777 0.574223 1.000000
v 1.000000 0.751000 1.000000
v 0.926777 0.927777 1.000000
v 0.750000 0.927777 1.176777
v 0.625000 0.876000 1.176777
v 0.750000 0.751000 1.250000
v 0.750000 0.574223 1.176777
v 0.625000 0.626000 1.176777
v 0.875000 0.876000 1.176777
v 0.573223 0.751000 1.176777
v 0.926777 0.751000 1.176777
v 0.875000 0.626000 1.176777
v 0.625000 1.000000 -1.125000
v 0.375000 1.000000 -0.875000
v 0.448223 1.000000 -0.698223
v 0.625000 1.000000 -0.625000
v 0.801777 1.000000 -0.698223
v 0.875000 1.000000 -0.875000
v 0.801777 1.000000 -1.051777
v 0.492418 1.000000 -1.007583
v 0.625000 1.000000 -1.062500
v 0.437500 1.000000 -0.875000
v 0.492418 1.000000 -0.742418
v 0.625000 1.000000 -0.687500
v 0.757583 1.000000 -0.742418
v 0.812500 1.000000 -0.875000
v 0.757583 1.000000 -1.007582
v 0.757583 1.125000 -1.007582
v 0.812500 1.125000 -0.875000
v 0.757583 1.125000 -0.742418
v 0.625000 1.125000 -0.687500
v 0.492418 1.125000 -0.742418
v 0.437500 1.125000 -0.875000
v 0.625000 1.125000 -1.062500
v 0.492418 1.125000 -1.007583
v -0.000000 2.000000 -1.375000
v -0.000000 2.000000 -1.500000
v -0.000000 2.000000 1.375000
v -0.000000 2.000000 1.500000
v 0.353553 1.853553 1.375000
v 0.353553 1.853553 1.500000
v 0.500000 1.500000 1.375000
v 0.500000 1.500000 1.500000
v 0.353553 1.146447 1.375000
v 0.353553 1.146447 1.500000
v -0.000000 1.000000 1.375000
v -0.000000 1.000000 1.500000
v -0.353553 1.146447 1.375000
v -0.353553 1.146447 1.500000
v -0.500000 1.500000 1.375000
v -0.500000 1.500000 1.500000
v -0.353553 1.853553 1.375000
v -0.353553 1.853553 1.500000
v 0.353553 1.853553 -1.500000
v 0.353553 1.853553 -1.375000
v 0.500000 1.500000 -1.500000
v 0.500000 1.500000 -1.375000
v 0.353553 1.146447 -1.500000
v 0.353553 1.146447 -1.375000
v -0.000000 1.000000 -1.500000
v -0.000000 1.000000 -1.375000
v -0.353553 1.146447 -1.500000
v -0.353553 1.146447 -1.375000
v -0.500000 1.500000 -1.500000
v -0.500000 1.500000 -1.375000
v -0.353553 1.853553 -1.500000
v -0.353553 1.853553 -1.375000
v -0.000000 1.875000 1.375000
v 0.265165 1.765165 1.375000
v 0.375000 1.500000 1.375000
v 0.265165 1.234835 1.375000
v -0.000000 1.125000 1.375000
v -0.265165 1.234835 1.375000
v -0.375000 1.500000 1.375000
v -0.265165 1.765165 1.375000
v -0.000000 1.875000 1.000000
v 0.265165 1.765165 1.000000
v 0.375000 1.500000 1.000000
v 0.265165 1.234835 1.000000
v -0.000000 1.125000 1.000000
v -0.265165 1.234835 1.000000
v -0.375000 1.500000 1.000000
v -0.265165 1.765165 1.000000
v -0.000000 1.875000 -1.375000
v 0.265165 1.765165 -1.375000
v 0.375000 1.500000 -1.375000
v 0.265165 1.234835 -1.375000
v -0.000000 1.125000 -1.375000
v -0.265165 1.234835 -1.375000
v -0.375000 1.500000 -1.375000
v -0.265165 1.765165 -1.375000
v -0.265165 1.234835 -1.000000
v -0.000000 1.125000 -1.000000
v 0.375000 1.500000 -1.000000
v 0.265165 1.765165 -1.000000
v 0.265165 1.234835 -1.000000
v -0.000000 1.875000 -1.000000
v -0.375000 1.500000 -1.000000
v -0.265165 1.765165 -1.000000
v -0.000000 1.750000 1.000000
v 0.176777 1.676777 1.000000
v 0.250000 1.500000 1.000000
v 0.176777 1.323223 1.000000
v -0.000000 1.250000 1.000000
v -0.176777 1.323223 1.000000
v -0.250000 1.500000 1.000000
v -0.176777 1.676777 1.000000
v -0.000000 1.750000 -1.000000
v 0.176777 1.676777 -1.000000
v 0.250000 1.500000 -1.000000
v 0.176777 1.323223 -1.000000
v -0.000000 1.250000 -1.000000
v -0.176777 1.323223 -1.000000
v -0.250000 1.500000 -1.000000
v -0.176777 1.676777 -1.000000
v -0.000000 1.750000 -0.250000
v 0.176777 1.676777 -0.250000
v 0.250000 1.500000 -0.250000
v 0.176777 1.323223 -0.250000
v -0.000000 1.250000 -0.250000
v -0.176777 1.323223 -0.250000
v -0.250000 1.500000 -0.250000
v -0.176777 1.676777 -0.250000
v -0.000000 1.750000 0.250000
v 0.176777 1.676777 0.250000
v 0.250000 1.500000 0.250000
v 0.176777 1.323223 0.250000
v -0.000000 1.250000 0.250000
v -0.176777 1.323223 0.250000
v -0.250000 1.500000 0.250000
v -0.176777 1.676777 0.250000
v -0.000000 1.687500 0.250000
v 0.132582 1.632582 0.250000
v 0.187500 1.500000 0.250000
v 0.132582 1.367418 0.250000
v -0.000000 1.312500 0.250000
v -0.132583 1.367418 0.250000
v -0.187500 1.500000 0.250000
v -0.132583 1.632582 0.250000
v -0.000000 1.687500 0.187500
v 0.132582 1.632582 0.187500
v 0.187500 1.500000 0.187500
v 0.132582 1.367418 0.187500
v -0.000000 1.312500 0.187500
v -0.132583 1.367418 0.187500
v -0.187500 1.500000 0.187500
v -0.132583 1.632582 0.187500
v -0.000000 1.687500 -0.250000
v 0.132582 1.632582 -0.250000
v 0.187500 1.500000 -0.250000
v 0.132582 1.367417 -0.250000
v -0.000000 1.312500 -0.250000
v -0.132583 1.367417 -0.250000
v -0.187500 1.500000 -0.250000
v -0.132583 1.632582 -0.250000
v -0.000000 1.687500 -0.187500
v 0.132582 1.632582 -0.187500
v 0.187500 1.500000 -0.187500
v 0.132582 1.367417 -0.187500
v -0.000000 1.312500 -0.187500
v -0.132583 1.367417 -0.187500
v -0.187500 1.500000 -0.187500
v -0.132583 1.632582 -0.187500
v 0.750000 1.625000 -0.125000
v 0.750000 1.375000 -0.125000
v 0.750000 1.625000 0.125000
v 0.750000 1.375000 0.125000
v -0.750000 1.625000 0.125000
v -0.750000 1.375000 0.125000
v -0.750000 1.625000 -0.125000
v -0.750000 1.375000 -0.125000
v 1.437500 0.500000 1.375000
v 1.437500 2.875000 1.375000
v 1.437500 0.500000 -1.375000
v 1.437500 2.875000 -1.375000
v -1.375000 2.875000 -1.437500
v -1.375000 0.500000 -1.437500
v 1.375000 2.875000 -1.437500
v 1.375000 0.500000 -1.437500
v -1.437500 2.875000 -1.375000
v -1.437500 0.500000 -1.375000
v -1.437500 2.875000 1.375000
v -1.437500 0.500000 1.375000
v -1.375000 2.875000 1.437500
v -1.375000 0.500000 1.437500
v 1.375000 2.875000 1.437500
v 1.375000 0.500000 1.437500
v 1.375000 2.937500 1.375000
v 1.375000 2.937500 -1.375000
v -1.375000 2.937500 1.375000
v -1.375000 2.937500 -1.375000
vt 0.307692 0.078431
vt 0.000000 0.000000
vt 0.307692 -0.000000
vt 0.307692 0.078431
vt 0.000000 0.000000
vt 0.307692 -0.000000
vt 0.307692 0.078431
vt -0.000000 0.000000
vt 0.307692 -0.000000
vt 0.307692 0.078431
vt 0.000000 0.000000
vt 0.307692 0.000000
vt 0.307692 0.549020
vt 0.000000 0.078431
vt 0.307692 0.078431
vt 0.307692 0.549020
vt -0.000000 0.078431
vt 0.294872 0.921569
vt 0.282051 0.549020
vt 0.294872 0.549020
vt 0.307692 0.549020
vt 0.294872 0.921569
vt 0.294872 0.549020
vt -0.000000 0.549020
vt 0.012821 0.921569
vt 0.000000 0.941176
vt 0.025641 0.921569
vt 0.012821 0.549020
vt 0.025641 0.549020
vt 0.294872 0.921569
vt 0.282051 0.549020
vt 0.294872 0.549020
vt 0.025641 0.921569
vt 0.012821 0.549020
vt 0.025641 0.549020
vt -0.000000 0.549020
vt 0.012821 0.921569
vt 0.000000 0.941176
vt 0.025641 0.921569
vt 0.012821 0.549020
vt 0.025641 0.549020
vt -0.000000 0.549020
vt 0.012821 0.921569
vt 0.000000 0.941176
vt -0.000000 0.549020
vt 0.012821 0.921569
vt 0.000000 0.941176
vt 0.282051 0.549020
vt 0.307692 0.549020
vt 0.294872 0.921569
vt 0.294872 0.549020
vt 0.025641 0.921569
vt 0.012821 0.549020
vt 0.025641 0.549020
vt 0.307692 0.549020
vt 0.282051 0.549020
vt 0.294872 0.980392
vt 0.012821 1.000000
vt 0.012821 0.980392
vt 0.012821 1.000000
vt 0.294872 0.980392
vt 0.294872 1.000000
vt 0.012821 1.000000
vt 0.294872 0.980392
vt 0.294872 1.000000
vt 0.294872 0.980392
vt 0.012821 1.000000
vt 0.012821 0.980392
vt 0.307692 0.549020
vt 0.307692 0.941176
vt 0.307692 0.941176
vt 0.307692 0.941176
vt 0.294872 0.960784
vt 0.012821 0.960784
vt 0.012821 0.980392
vt 0.294872 0.960784
vt 0.012821 0.960784
vt 0.012821 0.980392
vt 0.294872 0.960784
vt 0.294872 0.960784
vt 0.012821 0.960784
vt 0.012821 0.960784
vt 0.308665 0.745098
vt 0.358974 0.668154
vt 0.409284 0.745098
vt 0.405289 0.649265
vt 0.351121 0.649265
vt 0.351121 0.566421
vt 0.394572 0.867126
vt 0.409316 0.921569
vt 0.394572 0.976011
vt 0.308632 0.921569
vt 0.358974 0.844575
vt 0.409316 0.921569
vt 0.394549 0.690690
vt 0.409284 0.745098
vt 0.394549 0.799506
vt 0.378205 0.549263
vt 0.405289 0.566421
vt 0.416508 0.607843
vt 0.564693 0.156863
vt 0.589744 0.118549
vt 0.614795 0.156863
vt 0.572030 0.129771
vt 0.607457 0.129771
vt 0.607457 0.183954
vt 0.141026 0.588235
vt 0.064103 0.607843
vt 0.064103 0.588235
vt 0.076923 0.784314
vt 0.128205 0.862745
vt 0.076923 0.862745
vt 0.051282 0.607843
vt 0.064103 0.725490
vt 0.051282 0.725490
vt 0.153846 0.725490
vt 0.141026 0.607843
vt 0.153846 0.607843
vt 0.064103 0.745098
vt 0.141026 0.725490
vt 0.141026 0.745098
vt 0.166667 0.627451
vt 0.128205 0.784314
vt 0.076923 0.764706
vt 0.128205 0.764706
vt 0.128205 0.568627
vt 0.076923 0.549020
vt 0.128205 0.549020
vt 0.038462 0.705882
vt 0.025641 0.627451
vt 0.038462 0.627451
vt 0.179487 0.705882
vt 0.179487 0.627451
vt 0.141026 0.588235
vt 0.064103 0.607843
vt 0.064103 0.588235
vt 0.076923 0.784314
vt 0.128205 0.862745
vt 0.076923 0.862745
vt 0.051282 0.607843
vt 0.064103 0.725490
vt 0.051282 0.725490
vt 0.153846 0.725490
vt 0.141026 0.607843
vt 0.153846 0.607843
vt 0.064103 0.745098
vt 0.141026 0.725490
vt 0.141026 0.745098
vt 0.166667 0.627451
vt 0.128205 0.784314
vt 0.076923 0.764706
vt 0.128205 0.764706
vt 0.128205 0.568627
vt 0.076923 0.549020
vt 0.128205 0.549020
vt 0.038462 0.705882
vt 0.025641 0.627451
vt 0.038462 0.627451
vt 0.179487 0.705882
vt 0.179487 0.627451
vt 0.442308 0.450980
vt 0.429487 0.460784
vt 0.423077 0.450980
vt 0.461538 0.450980
vt 0.448718 0.460784
vt 0.326923 0.450980
vt 0.314103 0.460784
vt 0.307692 0.450980
vt 0.346154 0.450980
vt 0.333333 0.460784
vt 0.365385 0.450980
vt 0.352564 0.460784
vt 0.432082 0.876517
vt 0.423077 0.882222
vt 0.414072 0.876517
vt 0.339345 0.504852
vt 0.323718 0.528752
vt 0.308092 0.504852
vt 0.523600 0.879231
vt 0.514862 0.879231
vt 0.514862 0.865867
vt 0.423077 0.961250
vt 0.431927 0.966856
vt 0.414226 0.993928
vt 0.403846 0.450980
vt 0.391026 0.460784
vt 0.384615 0.450980
vt 0.384615 0.460784
vt 0.371795 0.460784
vt 0.417292 0.647027
vt 0.420879 0.633848
vt 0.429508 0.628408
vt 0.441878 0.136598
vt 0.468378 0.136598
vt 0.468378 0.177127
vt 0.441878 0.136598
vt 0.468378 0.136598
vt 0.468378 0.177127
vt 0.461538 0.450980
vt 0.448718 0.460784
vt 0.442308 0.450980
vt 0.326923 0.450980
vt 0.314103 0.460784
vt 0.307692 0.450980
vt 0.346154 0.450980
vt 0.333333 0.460784
vt 0.365385 0.450980
vt 0.352564 0.460784
vt 0.323718 0.528752
vt 0.312669 0.521752
vt 0.308092 0.504852
vt 0.403846 0.450980
vt 0.391026 0.460784
vt 0.384615 0.450980
vt 0.384615 0.460784
vt 0.371795 0.460784
vt 0.410256 0.460784
vt 0.282051 0.921569
vt 0.256410 0.882353
vt 0.282051 0.882353
vt 0.282051 0.921569
vt 0.256410 0.882353
vt 0.282051 0.882353
vt 0.237179 0.666667
vt 0.262821 0.647059
vt 0.262821 0.666667
vt 0.237179 0.568627
vt 0.250000 0.607843
vt 0.237179 0.607843
vt 0.262821 0.666667
vt 0.237179 0.686275
vt 0.237179 0.666667
vt 0.262821 0.607843
vt 0.250000 0.568627
vt 0.262821 0.568627
vt 0.262821 0.617647
vt 0.269231 0.637255
vt 0.262821 0.637255
vt 0.237179 0.617647
vt 0.237179 0.637255
vt 0.230769 0.637255
vt 0.269231 0.607843
vt 0.282051 0.549020
vt 0.282051 0.607843
vt 0.217949 0.607843
vt 0.230769 0.549020
vt 0.230769 0.607843
vt 0.237179 0.647059
vt 0.230769 0.647059
vt 0.269231 0.647059
vt 0.262821 0.686275
vt 0.230769 0.705882
vt 0.269231 0.549020
vt 0.435897 0.196078
vt 0.358974 0.117647
vt 0.435897 0.117647
vt 0.262821 0.647059
vt 0.237179 0.666667
vt 0.237179 0.647059
vt 0.307692 0.117647
vt 0.358974 0.000000
vt 0.487179 0.117647
vt 0.564103 0.000000
vt 0.564103 0.117647
vt 0.487179 0.000000
vt 0.435897 0.000000
vt 0.250000 0.568627
vt 0.262821 0.607843
vt 0.250000 0.607843
vt 0.237179 0.686275
vt 0.262821 0.666667
vt 0.262821 0.686275
vt 0.250000 0.607843
vt 0.237179 0.568627
vt 0.250000 0.568627
vt 0.237179 0.637255
vt 0.230769 0.617647
vt 0.237179 0.617647
vt 0.262821 0.637255
vt 0.262821 0.617647
vt 0.269231 0.617647
vt 0.217949 0.607843
vt 0.230769 0.549020
vt 0.230769 0.607843
vt 0.269231 0.607843
vt 0.282051 0.549020
vt 0.282051 0.607843
vt 0.237179 0.607843
vt 0.269231 0.647059
vt 0.230769 0.647059
vt 0.262821 0.568627
vt 0.269231 0.549020
vt 0.230769 0.705882
vt 0.358974 0.117647
vt 0.435897 0.196078
vt 0.358974 0.196078
vt 0.435897 0.117647
vt 0.487179 0.000000
vt 0.487179 0.117647
vt 0.435897 0.000000
vt 0.307692 0.117647
vt 0.358974 0.000000
vt 0.564103 0.000000
vt 0.564103 0.117647
vt 0.602564 0.323529
vt 0.589744 0.196078
vt 0.602564 0.196078
vt 0.589744 0.323529
vt 0.576923 0.196078
vt 0.576923 0.323529
vt 0.564103 0.196078
vt 0.615385 0.323529
vt 0.615385 0.196078
vt 0.615385 0.323529
vt 0.602564 0.196078
vt 0.615385 0.196078
vt 0.576923 0.323529
vt 0.564103 0.196078
vt 0.576923 0.196078
vt 0.602564 0.323529
vt 0.589744 0.196078
vt 0.589744 0.323529
vt 0.346154 0.450980
vt 0.333333 0.460784
vt 0.326923 0.450980
vt 0.365385 0.450980
vt 0.352564 0.460784
vt 0.384615 0.450980
vt 0.371795 0.460784
vt 0.403846 0.460784
vt 0.391026 0.460784
vt 0.403846 0.450980
vt 0.423077 0.460784
vt 0.410256 0.460784
vt 0.423077 0.450980
vt 0.442308 0.460784
vt 0.429487 0.460784
vt 0.314103 0.460784
vt 0.307692 0.450980
vt 0.333577 0.195549
vt 0.308366 0.156991
vt 0.333577 0.118433
vt 0.666667 0.196078
vt 0.653846 0.117647
vt 0.666667 0.117647
vt 0.653846 0.196078
vt 0.641026 0.117647
vt 0.641026 0.196078
vt 0.628205 0.117647
vt 0.628205 0.196078
vt 0.615385 0.117647
vt 0.615385 0.196078
vt 0.615385 0.215686
vt 0.666667 0.215686
vt 0.653846 0.294118
vt 0.653846 0.215686
vt 0.653846 0.215686
vt 0.641026 0.215686
vt 0.666667 0.196078
vt 0.653846 0.117647
vt 0.666667 0.117647
vt 0.641026 0.294118
vt 0.628205 0.215686
vt 0.615385 0.294118
vt 0.615385 0.215686
vt 0.628205 0.294118
vt 0.653846 0.196078
vt 0.641026 0.117647
vt 0.641026 0.196078
vt 0.628205 0.117647
vt 0.628205 0.196078
vt 0.615385 0.117647
vt 0.615385 0.196078
vt 0.615385 0.215686
vt 0.666667 0.215686
vt 0.653846 0.294118
vt 0.653846 0.215686
vt 0.653846 0.215686
vt 0.641026 0.215686
vt 0.641026 0.294118
vt 0.628205 0.215686
vt 0.615385 0.294118
vt 0.615385 0.215686
vt 0.628205 0.294118
vt 0.576923 0.343137
vt 0.474359 0.323529
vt 0.576923 0.323529
vt 0.474359 0.343137
vt 0.461538 0.460784
vt 0.461538 0.343137
vt 0.474359 0.460784
vt 0.576923 0.480392
vt 0.474359 0.480392
vt 0.576923 0.460784
vt 0.589744 0.343137
vt 0.589744 0.460784
vt 0.326923 0.558824
vt 0.314103 0.539216
vt 0.326923 0.539216
vt 0.326923 0.558824
vt 0.314103 0.539216
vt 0.326923 0.539216
vt 0.314103 0.568627
vt 0.326923 0.568627
vt 0.326923 0.529412
vt 0.314103 0.529412
vt 0.307692 0.539216
vt 0.314103 0.558824
vt 0.307692 0.558824
vt 0.333333 0.558824
vt 0.333333 0.539216
vt 0.314103 0.568627
vt 0.326923 0.568627
vt 0.326923 0.529412
vt 0.314103 0.529412
vt 0.307692 0.539216
vt 0.314103 0.558824
vt 0.307692 0.558824
vt 0.333333 0.558824
vt 0.333333 0.539216
vt 0.544872 0.137255
vt 0.551282 0.147059
vt 0.544872 0.147059
vt 0.564103 0.147059
vt 0.557692 0.215686
vt 0.557692 0.147059
vt 0.519231 0.176471
vt 0.512821 0.147059
vt 0.519231 0.147059
vt 0.544872 0.215686
vt 0.551282 0.215686
vt 0.538462 0.127451
vt 0.532051 0.147059
vt 0.532051 0.127451
vt 0.525641 0.127451
vt 0.519231 0.127451
vt 0.557692 0.117647
vt 0.551282 0.137255
vt 0.551282 0.117647
vt 0.544872 0.117647
vt 0.538462 0.137255
vt 0.538462 0.117647
vt 0.512821 0.127451
vt 0.525641 0.147059
vt 0.564103 0.117647
vt 0.557692 0.137255
vt 0.532051 0.176471
vt 0.525641 0.156863
vt 0.532051 0.156863
vt 0.538462 0.215686
vt 0.538462 0.147059
vt 0.557692 0.147059
vt 0.525641 0.176471
vt 0.538462 0.176471
vt 0.532051 0.186275
vt 0.525641 0.284314
vt 0.525641 0.186275
vt 0.512821 0.186275
vt 0.512821 0.176471
vt 0.532051 0.186275
vt 0.519231 0.284314
vt 0.519231 0.186275
vt 0.512821 0.284314
vt 0.512821 0.186275
vt 0.538462 0.186275
vt 0.532051 0.284314
vt 0.442308 0.450980
vt 0.461538 0.460784
vt 0.448718 0.460784
vt 0.334768 0.487953
vt 0.339345 0.504852
vt 0.308092 0.504852
vt 0.314103 0.539216
vt 0.326923 0.558824
vt 0.314103 0.558824
vt 0.326923 0.529412
vt 0.314103 0.529412
vt 0.314103 0.568627
vt 0.326923 0.568627
vt 0.333333 0.558824
vt 0.326923 0.539216
vt 0.333333 0.539216
vt 0.307692 0.539216
vt 0.307692 0.558824
vt 0.493590 0.186275
vt 0.487179 0.245098
vt 0.487179 0.186275
vt 0.480769 0.176471
vt 0.474359 0.186275
vt 0.474359 0.176471
vt 0.487179 0.127451
vt 0.480769 0.127451
vt 0.500000 0.127451
vt 0.493590 0.176471
vt 0.493590 0.127451
vt 0.487179 0.176471
vt 0.474359 0.127451
vt 0.493590 0.186275
vt 0.480769 0.186275
vt 0.474359 0.245098
vt 0.474359 0.186275
vt 0.480769 0.245098
vt 0.500000 0.186275
vt 0.493590 0.245098
vt 1.000000 0.000000
vt 0.717949 0.372549
vt 0.717949 -0.000000
vt 1.000000 0.000000
vt 0.717949 0.372549
vt 0.717949 -0.000000
vt 0.717949 0.000000
vt 1.000000 0.372549
vt 0.717949 0.372549
vt 0.717949 0.372549
vt 1.000000 0.000000
vt 1.000000 0.372549
vt 0.717949 0.372549
vt 1.000000 0.803922
vt 0.717949 0.803922
vt 0.538462 0.147059
vt 0.429487 0.460784
vt 0.423077 0.450980
vt 0.423077 0.460784
vt 0.410256 0.460784
vt 0.256410 0.882353
vt 0.282051 0.921569
vt 0.282051 0.882353
vt 0.256410 0.882353
vt 0.282051 0.921569
vt 0.282051 0.882353
vt 0.717949 0.372549
vt 1.000000 0.000000
vt 0.717949 -0.000000
vt 0.717949 0.372549
vt 1.000000 0.000000
vt 0.717949 -0.000000
vt 1.000000 0.372549
vt 0.717949 0.000000
vt 0.717949 0.372549
vt 1.000000 0.000000
vt 0.717949 0.372549
vt 1.000000 0.372549
vt 1.000000 0.803922
vt 0.717949 0.372549
vt 0.717949 0.803922
vt 0.000000 0.078431
vt 0.000000 0.078431
vt 0.000000 0.078431
vt 0.000000 0.549020
vt -0.000000 0.549020
vt 0.282051 0.921569
vt 0.282051 0.921569
vt 0.282051 0.921569
vt 0.307692 0.941176
vt 0.282051 0.921569
vt 0.294872 1.000000
vt 0.294872 1.000000
vt 0.394549 0.799506
vt 0.358974 0.822042
vt 0.323400 0.799506
vt 0.323400 0.690690
vt 0.394549 0.690690
vt 0.378205 0.666423
vt 0.339903 0.607843
vt 0.378205 0.549263
vt 0.405289 0.566421
vt 0.416508 0.607843
vt 0.358974 0.998562
vt 0.323377 0.867126
vt 0.323377 0.976011
vt 0.308632 0.921569
vt 0.358974 0.844575
vt 0.394572 0.976011
vt 0.358974 0.998562
vt 0.323377 0.976011
vt 0.323377 0.867126
vt 0.394572 0.867126
vt 0.358974 0.822042
vt 0.323400 0.690690
vt 0.323400 0.799506
vt 0.308665 0.745098
vt 0.358974 0.668154
vt 0.405289 0.649265
vt 0.378205 0.666423
vt 0.351121 0.649265
vt 0.339903 0.607843
vt 0.351121 0.566421
vt 0.607457 0.183954
vt 0.589744 0.195176
vt 0.572030 0.183954
vt 0.572030 0.129771
vt 0.607457 0.129771
vt 0.589744 0.195176
vt 0.572030 0.183954
vt 0.564693 0.156863
vt 0.589744 0.118549
vt 0.614795 0.156863
vt 0.166667 0.705882
vt 0.076923 0.568627
vt 0.025641 0.705882
vt 0.166667 0.705882
vt 0.076923 0.568627
vt 0.025641 0.705882
vt 0.442308 0.460784
vt 0.461538 0.460784
vt 0.326923 0.460784
vt 0.346154 0.460784
vt 0.365385 0.460784
vt 0.410342 0.862745
vt 0.432082 0.848973
vt 0.414072 0.848973
vt 0.423077 0.843268
vt 0.435812 0.862745
vt 0.312669 0.487953
vt 0.323718 0.480953
vt 0.334768 0.487953
vt 0.334768 0.521752
vt 0.312669 0.521752
vt 0.519231 0.863100
vt 0.523600 0.865867
vt 0.525409 0.872549
vt 0.519231 0.881998
vt 0.513053 0.872549
vt 0.435593 0.980392
vt 0.431927 0.993928
vt 0.423077 0.999535
vt 0.410560 0.980392
vt 0.414226 0.966856
vt 0.403846 0.460784
vt 0.438125 0.633894
vt 0.441682 0.647092
vt 0.438095 0.660271
vt 0.429466 0.665710
vt 0.420849 0.660224
vt 0.455128 0.185521
vt 0.441878 0.177127
vt 0.436390 0.156863
vt 0.455128 0.128204
vt 0.473866 0.156863
vt 0.455128 0.185521
vt 0.441878 0.177127
vt 0.436390 0.156863
vt 0.455128 0.128204
vt 0.473866 0.156863
vt 0.461538 0.460784
vt 0.326923 0.460784
vt 0.346154 0.460784
vt 0.365385 0.460784
vt 0.312669 0.487953
vt 0.323718 0.480953
vt 0.334768 0.487953
vt 0.339345 0.504852
vt 0.334768 0.521752
vt 0.403846 0.460784
vt 0.423077 0.460784
vt 0.256410 0.921569
vt 0.256410 0.921569
vt 0.250000 0.568627
vt 0.250000 0.607843
vt 0.269231 0.617647
vt 0.230769 0.617647
vt 0.217949 0.549020
vt 0.269231 0.705882
vt 0.358974 0.196078
vt 0.262821 0.666667
vt 0.307692 0.000000
vt 0.237179 0.666667
vt 0.230769 0.637255
vt 0.269231 0.637255
vt 0.217949 0.549020
vt 0.269231 0.705882
vt 0.307692 0.000000
vt 0.564103 0.323529
vt 0.564103 0.323529
vt 0.346154 0.460784
vt 0.365385 0.460784
vt 0.384615 0.460784
vt 0.326923 0.460784
vt 0.358788 0.156991
vt 0.351404 0.184256
vt 0.315750 0.184256
vt 0.315750 0.129726
vt 0.351404 0.129726
vt 0.666667 0.294118
vt 0.666667 0.294118
vt 0.564103 0.215686
vt 0.538462 0.147059
vt 0.564103 0.137255
vt 0.538462 0.284314
vt 0.461538 0.450980
vt 0.334768 0.521752
vt 0.323718 0.528752
vt 0.312669 0.521752
vt 0.312669 0.487953
vt 0.323718 0.480953
vt 0.500000 0.176471
vt 0.500000 0.245098
vt 1.000000 0.372549
vt 1.000000 0.372549
vt 1.000000 -0.000000
vt 0.717949 -0.000000
vt 1.000000 0.372549
vt 0.442308 0.460784
vt 0.256410 0.921569
vt 0.256410 0.921569
vt 1.000000 0.372549
vt 1.000000 0.372549
vt 1.000000 -0.000000
vt 0.717949 -0.000000
vt 1.000000 0.372549
vt 0.544872 0.882353
vt 0.551282 0.960784
vt 0.544872 0.960784
vt 0.538462 0.882353
vt 0.538462 0.960784
vt 0.532051 0.882353
vt 0.532051 0.960784
vt 0.525641 0.882353
vt 0.525641 0.960784
vt 0.519231 0.882353
vt 0.519231 0.960784
vt 0.512821 0.882353
vt 0.512821 0.960784
vt 0.557692 0.882353
vt 0.564103 0.960784
vt 0.557692 0.960784
vt 0.551282 0.882353
vt 0.467949 0.686275
vt 0.474359 0.705882
vt 0.467949 0.705882
vt 0.474359 0.686275
vt 0.480769 0.705882
vt 0.487179 0.686275
vt 0.487179 0.705882
vt 0.493590 0.705882
vt 0.442308 0.705882
vt 0.448718 0.686275
vt 0.448718 0.705882
vt 0.455128 0.705882
vt 0.461538 0.686275
vt 0.461538 0.705882
vt 0.467949 0.666667
vt 0.474359 0.666667
vt 0.480769 0.686275
vt 0.487179 0.666667
vt 0.493590 0.686275
vt 0.442308 0.686275
vt 0.448718 0.666667
vt 0.455128 0.686275
vt 0.461538 0.666667
vt 0.474359 0.647059
vt 0.480769 0.647059
vt 0.480769 0.666667
vt 0.487179 0.647059
vt 0.493590 0.666667
vt 0.442308 0.666667
vt 0.448718 0.647059
vt 0.455128 0.666667
vt 0.461538 0.647059
vt 0.467949 0.647059
vt 0.474359 0.627451
vt 0.480769 0.627451
vt 0.493590 0.627451
vt 0.493590 0.647059
vt 0.487179 0.627451
vt 0.467949 0.627451
vt 0.442308 0.647059
vt 0.448718 0.627451
vt 0.455128 0.647059
vt 0.461538 0.627451
vt 0.455128 0.627451
vt 0.506410 0.627451
vt 0.519231 0.588235
vt 0.519231 0.627451
vt 0.429487 0.588235
vt 0.442308 0.627451
vt 0.429487 0.627451
vt 0.493590 0.627451
vt 0.506410 0.588235
vt 0.455128 0.588235
vt 0.467949 0.627451
vt 0.455128 0.627451
vt 0.480769 0.588235
vt 0.480769 0.627451
vt 0.467949 0.588235
vt 0.442308 0.588235
vt 0.416667 0.588235
vt 0.416667 0.627451
vt 0.371795 0.823529
vt 0.403846 0.843137
vt 0.371795 0.843137
vt 0.435898 0.843137
vt 0.403846 0.823529
vt 0.435898 0.823529
vt 0.365385 0.215686
vt 0.346154 0.313726
vt 0.346154 0.215686
vt 0.326923 0.215686
vt 0.307692 0.313726
vt 0.307692 0.215686
vt 0.442308 0.215686
vt 0.423077 0.313726
vt 0.423077 0.215686
vt 0.403846 0.215686
vt 0.384615 0.313726
vt 0.384615 0.215686
vt 0.365385 0.313726
vt 0.326923 0.313726
vt 0.461538 0.215686
vt 0.442308 0.313726
vt 0.403846 0.313726
vt 0.339744 0.823529
vt 0.339744 0.843137
vt 0.403846 0.843137
vt 0.371795 0.823529
vt 0.467949 0.843137
vt 0.467949 0.823529
vt 0.307692 0.823529
vt 0.307692 0.843137
vt 0.371795 0.843137
vt 0.339744 0.823529
vt 0.532051 0.823529
vt 0.564103 0.843137
vt 0.532051 0.843137
vt 0.500000 0.843137
vt 0.500000 0.823529
vt 0.467949 0.549020
vt 0.493590 0.500000
vt 0.493590 0.549020
vt 0.326923 0.372549
vt 0.307692 0.450980
vt 0.307692 0.372549
vt 0.442308 0.372549
vt 0.423077 0.450980
vt 0.423077 0.372549
vt 0.403846 0.372549
vt 0.384615 0.450980
vt 0.384615 0.372549
vt 0.365385 0.372549
vt 0.346154 0.450980
vt 0.346154 0.372549
vt 0.326923 0.450980
vt 0.461538 0.372549
vt 0.442308 0.450980
vt 0.403846 0.450980
vt 0.365385 0.450980
vt 0.365385 0.460784
vt 0.352564 0.480392
vt 0.352564 0.460784
vt 0.403846 0.460784
vt 0.391026 0.480392
vt 0.391026 0.460784
vt 0.442308 0.460784
vt 0.429487 0.480392
vt 0.429487 0.460784
vt 0.423077 0.343137
vt 0.442308 0.343137
vt 0.429487 0.372549
vt 0.442308 0.313726
vt 0.423077 0.313726
vt 0.410256 0.372549
vt 0.403846 0.343137
vt 0.403846 0.313726
vt 0.391026 0.372549
vt 0.384615 0.343137
vt 0.384615 0.313726
vt 0.371795 0.372549
vt 0.365385 0.343137
vt 0.326923 0.460784
vt 0.314103 0.480392
vt 0.314103 0.460784
vt 0.346154 0.460784
vt 0.333333 0.480392
vt 0.333333 0.460784
vt 0.461538 0.460784
vt 0.448718 0.480392
vt 0.448718 0.460784
vt 0.423077 0.460784
vt 0.410256 0.480392
vt 0.410256 0.460784
vt 0.384615 0.460784
vt 0.371795 0.480392
vt 0.371795 0.460784
vt 0.365385 0.313726
vt 0.352564 0.372549
vt 0.346154 0.343137
vt 0.326923 0.372549
vt 0.307692 0.450980
vt 0.307692 0.372549
vt 0.442308 0.372549
vt 0.423077 0.450980
vt 0.423077 0.372549
vt 0.403846 0.372549
vt 0.384615 0.450980
vt 0.384615 0.372549
vt 0.365385 0.372549
vt 0.346154 0.450980
vt 0.346154 0.372549
vt 0.326923 0.450980
vt 0.461538 0.372549
vt 0.442308 0.450980
vt 0.403846 0.450980
vt 0.365385 0.450980
vt 0.365385 0.460784
vt 0.352564 0.480392
vt 0.352564 0.460784
vt 0.403846 0.460784
vt 0.391026 0.480392
vt 0.391026 0.460784
vt 0.442308 0.460784
vt 0.429487 0.480392
vt 0.429487 0.460784
vt 0.346154 0.313726
vt 0.333333 0.372549
vt 0.326923 0.343137
vt 0.326923 0.313726
vt 0.314103 0.372549
vt 0.307692 0.343137
vt 0.307692 0.313726
vt 0.461538 0.343137
vt 0.448718 0.372549
vt 0.461538 0.313726
vt 0.326923 0.460784
vt 0.314103 0.480392
vt 0.314103 0.460784
vt 0.346154 0.460784
vt 0.333333 0.480392
vt 0.333333 0.460784
vt 0.461538 0.460784
vt 0.448718 0.480392
vt 0.448718 0.460784
vt 0.423077 0.460784
vt 0.410256 0.480392
vt 0.410256 0.460784
vt 0.384615 0.460784
vt 0.371795 0.480392
vt 0.371795 0.460784
vt 0.339744 0.843137
vt 0.307692 0.823529
vt 0.346154 0.215686
vt 0.365385 0.196078
vt 0.365385 0.215686
vt 0.307692 0.215686
vt 0.326923 0.196078
vt 0.326923 0.215686
vt 0.423077 0.215686
vt 0.442308 0.196078
vt 0.442308 0.215686
vt 0.384615 0.215686
vt 0.403846 0.196078
vt 0.403846 0.215686
vt 0.384615 0.196078
vt 0.346154 0.196078
vt 0.461538 0.196078
vt 0.461538 0.215686
vt 0.423077 0.196078
vt 0.500000 0.823529
vt 0.500000 0.843137
vt 0.403846 0.372549
vt 0.384615 0.450980
vt 0.384615 0.372549
vt 0.365385 0.372549
vt 0.346154 0.450980
vt 0.346154 0.372549
vt 0.326923 0.372549
vt 0.307692 0.450980
vt 0.307692 0.372549
vt 0.442308 0.372549
vt 0.423077 0.450980
vt 0.423077 0.372549
vt 0.403846 0.450980
vt 0.365385 0.450980
vt 0.326923 0.450980
vt 0.461538 0.372549
vt 0.442308 0.450980
vt 0.442308 0.460784
vt 0.429487 0.480392
vt 0.429487 0.460784
vt 0.326923 0.460784
vt 0.314103 0.480392
vt 0.314103 0.460784
vt 0.365385 0.460784
vt 0.352564 0.480392
vt 0.352564 0.460784
vt 0.519231 0.549020
vt 0.544872 0.500000
vt 0.544872 0.549020
vt 0.564103 0.843137
vt 0.532051 0.823529
vt 0.564103 0.823529
vt 0.467949 0.823529
vt 0.467949 0.843137
vt 0.532051 0.843137
vt 0.365385 0.549020
vt 0.391026 0.500000
vt 0.391026 0.549020
vt 0.435897 0.823529
vt 0.435897 0.843137
vt 0.403846 0.460784
vt 0.391026 0.480392
vt 0.391026 0.460784
vt 0.423077 0.460784
vt 0.410256 0.480392
vt 0.410256 0.460784
vt 0.384615 0.460784
vt 0.371795 0.480392
vt 0.371795 0.460784
vt 0.346154 0.460784
vt 0.333333 0.480392
vt 0.333333 0.460784
vt 0.461538 0.460784
vt 0.448718 0.480392
vt 0.448718 0.460784
vt 0.480769 0.549020
vt 0.493590 0.588235
vt 0.480769 0.588235
vt 0.474359 0.882353
vt 0.487179 0.960784
vt 0.474359 0.960784
vt 0.461538 0.882353
vt 0.448718 0.960784
vt 0.448718 0.882353
vt 0.461538 0.960784
vt 0.500000 0.882353
vt 0.512821 0.960784
vt 0.500000 0.960784
vt 0.435897 0.960784
vt 0.435897 0.882353
vt 0.487179 0.882353
vt 0.423077 0.882353
vt 0.423077 0.960784
vt 0.410256 0.960784
vt 0.410256 0.882353
vt 0.455128 0.549020
vt 0.467949 0.588235
vt 0.455128 0.588235
vt 0.493590 0.549020
vt 0.506410 0.588235
vt 0.429487 0.549020
vt 0.442308 0.588235
vt 0.429487 0.588235
vt 0.506410 0.549020
vt 0.519231 0.588235
vt 0.416667 0.549020
vt 0.416667 0.588235
vt 0.442308 0.549020
vt 0.467949 0.549020
vt 0.403846 0.823529
vt 0.416667 0.549020
vt 0.442308 0.500000
vt 0.442308 0.549020
vt 0.467949 0.500000
vt 0.519231 0.500000
vt 0.339744 0.549020
vt 0.365385 0.500000
vt 0.416667 0.500000
vt 0.391026 0.500000
vt 0.365385 0.549020
vt 0.365385 0.500000
vt 0.339744 0.549020
vt 0.339744 0.500000
vt 0.544872 0.500000
vt 0.519231 0.549020
vt 0.519231 0.500000
vt 0.467949 0.500000
vt 0.442308 0.549020
vt 0.442308 0.500000
vt 0.493590 0.549020
vt 0.493590 0.500000
vt 0.416667 0.549020
vt 0.416667 0.500000
vt 0.391026 0.549020
vt 0.467949 0.549020
vt 0.698718 -0.000000
vt 0.679487 0.117647
vt 0.679487 -0.000000
vt 0.583333 -0.000000
vt 0.564103 0.117647
vt 0.564103 -0.000000
vt 0.621795 -0.000000
vt 0.602564 0.117647
vt 0.602564 -0.000000
vt 0.660256 0.117647
vt 0.660256 -0.000000
vt 0.717949 -0.000000
vt 0.698718 0.117647
vt 0.583333 0.117647
vt 0.641026 -0.000000
vt 0.621795 0.117647
vt 0.641026 0.117647
vt 0.583333 0.117647
vt 0.602564 -0.000000
vt 0.602564 0.117647
vt 0.621795 0.117647
vt 0.641026 -0.000000
vt 0.641026 0.117647
vt 0.660256 -0.000000
vt 0.660256 0.117647
vt 0.679487 0.117647
vt 0.698718 -0.000000
vt 0.698718 0.117647
vt 0.564103 0.117647
vt 0.583333 -0.000000
vt 0.621795 -0.000000
vt 0.679487 -0.000000
vt 0.717949 -0.000000
vt 0.717949 0.117647
vt 0.487179 0.117647
vt 0.474359 0.127451
vt 0.474359 0.117647
vt 0.461538 0.117647
vt 0.448718 0.127451
vt 0.448718 0.117647
vt 0.538462 0.117647
vt 0.525641 0.127451
vt 0.525641 0.117647
vt 0.512821 0.117647
vt 0.500000 0.127451
vt 0.500000 0.117647
vt 0.461538 0.127451
vt 0.435897 0.127451
vt 0.435897 0.117647
vt 0.512821 0.127451
vt 0.487179 0.127451
vt 0.474359 0.127451
vt 0.487179 0.117647
vt 0.487179 0.127451
vt 0.448718 0.127451
vt 0.461538 0.117647
vt 0.461538 0.127451
vt 0.525641 0.127451
vt 0.538462 0.117647
vt 0.538462 0.127451
vt 0.500000 0.127451
vt 0.512821 0.117647
vt 0.512821 0.127451
vt 0.474359 0.117647
vt 0.435897 0.127451
vt 0.448718 0.117647
vt 0.525641 0.117647
vt 0.500000 0.117647
vt 0.564103 0.882353
vt 0.442308 0.627451
vt 0.493590 0.588235
vt 0.461538 0.313726
vt 0.564103 0.823529
vt 0.461538 0.450980
vt 0.365385 0.480392
vt 0.403846 0.480392
vt 0.442308 0.480392
vt 0.326923 0.480392
vt 0.346154 0.480392
vt 0.461538 0.480392
vt 0.423077 0.480392
vt 0.384615 0.480392
vt 0.461538 0.450980
vt 0.365385 0.480392
vt 0.403846 0.480392
vt 0.442308 0.480392
vt 0.326923 0.480392
vt 0.346154 0.480392
vt 0.461538 0.480392
vt 0.423077 0.480392
vt 0.384615 0.480392
vt 0.307692 0.843137
vt 0.307692 0.196078
vt 0.461538 0.450980
vt 0.442308 0.480392
vt 0.326923 0.480392
vt 0.365385 0.480392
vt 0.403846 0.480392
vt 0.423077 0.480392
vt 0.384615 0.480392
vt 0.346154 0.480392
vt 0.461538 0.480392
vt 0.512821 0.882353
vt 0.519231 0.549020
vt 0.339744 0.500000
vt 0.544872 0.549020
vt 0.717949 0.117647
vt 0.564103 -0.000000
vt 0.538462 0.127451
vt 0.435897 0.117647
vn -1.0000 0.0000 0.0000
vn 0.0000 0.0000 -1.0000
vn 1.0000 0.0000 0.0000
vn 0.0000 0.0000 1.0000
vn 0.0000 -1.0000 0.0000
vn 0.0000 1.0000 0.0000
vn -0.7071 0.0000 -0.7071
vn 0.7071 -0.0000 0.7071
vn 0.0000 0.7071 -0.7071
vn 0.0000 0.7071 0.7071
vn 0.7071 0.7071 0.0000
vn -0.7071 0.7071 0.0000
vn 0.5000 0.7071 -0.5000
vn 0.7071 0.0000 -0.7071
vn -0.5000 0.7071 0.5000
vn -0.7071 0.0000 0.7071
vn -0.5000 -0.7071 0.5000
vn 0.5000 -0.7071 -0.5000
vn -0.3535 0.8660 -0.3535
vn -0.6063 0.7223 0.3327
vn -0.1830 0.9659 -0.1830
vn -0.7388 0.6375 0.2183
vn -0.7176 0.0635 0.6935
vn -0.2857 -0.5823 0.7611
vn -0.3897 -0.6617 0.6405
vn 0.1830 -0.9659 0.1830
vn 0.7611 -0.5823 -0.2857
vn 0.6405 -0.6617 -0.3897
vn 0.6935 0.0635 -0.7176
vn 0.2183 0.6375 -0.7388
vn 0.3327 0.7223 -0.6063
vn -0.6124 0.5000 -0.6124
vn -0.9293 0.3681 0.0277
vn -0.7281 0.0550 0.6832
vn -0.1116 -0.3362 0.9351
vn 0.3535 -0.8660 0.3535
vn 0.9351 -0.3362 -0.1116
vn 0.6832 0.0550 -0.7281
vn 0.0277 0.3681 -0.9293
vn -0.9952 0.0950 -0.0202
vn -0.7291 0.0085 0.6843
vn -0.7446 0.0318 0.6667
vn -0.0242 -0.0910 0.9955
vn 0.6124 -0.5000 0.6124
vn 0.9955 -0.0910 -0.0242
vn 0.6667 0.0318 -0.7446
vn -0.0202 0.0950 -0.9952
vn -0.7014 0.1266 -0.7014
vn 0.7006 -0.1348 0.7006
vn 0.6843 0.0085 -0.7291
vn 0.0000 0.2425 0.9701
vn 0.6860 0.2425 0.6860
vn 0.9701 0.2425 0.0000
vn 0.6860 0.2425 -0.6860
vn -0.6860 0.2425 0.6860
vn 0.0000 0.2425 -0.9701
vn -0.6860 0.2425 -0.6860
vn -0.9701 0.2425 0.0000
vn 0.7071 -0.7071 0.0000
vn -0.7071 -0.7071 0.0000
vn -0.7486 0.0000 0.6630
vn -0.5293 -0.5293 0.6630
vn -0.6533 -0.6533 0.3827
vn -0.9239 0.0000 0.3827
vn -0.5293 0.5293 0.6630
vn -0.6533 0.6533 0.3827
vn 0.0000 0.7486 0.6630
vn 0.0000 0.9239 0.3827
vn 0.5293 0.5293 0.6630
vn 0.6533 0.6533 0.3827
vn 0.7486 0.0000 0.6630
vn 0.9239 0.0000 0.3827
vn 0.5293 -0.5293 0.6630
vn 0.6533 -0.6533 0.3827
vn 0.0000 -0.7486 0.6630
vn 0.0000 -0.9239 0.3827
o Cube_Cube.001
s 1
f 2/1/1 3/2/1 1/3/1
f 4/4/2 7/5/2 3/6/2
f 8/7/3 5/8/3 7/9/3
f 6/10/4 1/11/4 5/12/4
f 7/13/5 1/14/5 3/15/5
f 4/16/6 6/17/6 8/7/6
f 21/18/4 19/19/4 18/20/4
f 26/21/1 28/22/1 24/23/1
f 11/24/3 13/25/3 37/26/3
f 14/27/2 9/28/2 10/29/2
f 15/30/1 10/31/1 12/32/1
f 22/33/1 17/34/1 19/35/1
f 26/36/4 29/37/4 39/38/4
f 35/39/4 33/40/4 32/41/4
f 16/42/2 20/43/2 38/44/2
f 31/45/1 36/46/1 40/47/1
f 28/22/2 23/48/2 24/23/2
f 31/49/2 34/50/2 30/51/2
f 27/52/3 25/53/3 23/54/3
f 16/55/3 21/18/3 18/20/3
f 34/50/3 32/56/3 30/51/3
f 35/57/5 20/58/5 22/59/5
f 29/60/5 14/61/5 15/62/5
f 36/63/5 27/64/5 28/65/5
f 22/66/5 13/67/5 14/68/5
f 11/69/4 15/30/4 12/32/4
f 37/70/4 29/37/4 15/30/4
f 34/50/2 38/44/2 20/43/2
f 39/71/1 36/46/1 28/22/1
f 38/72/3 13/25/3 21/18/3
f 14/68/1 42/73/1 22/66/1
f 44/74/3 27/64/3 35/75/3
f 22/59/4 44/76/4 35/57/4
f 43/77/2 14/61/2 27/78/2
f 43/77/6 37/70/6 41/79/6
f 44/74/6 39/71/6 43/80/6
f 38/44/6 44/76/6 42/81/6
f 41/82/6 38/72/6 42/73/6
f 74/83/4 70/84/4 66/85/4
f 84/86/2 78/87/2 80/88/2
f 71/89/2 73/90/2 75/91/2
f 60/92/4 56/93/4 52/94/4
f 57/95/2 59/96/2 61/97/2
f 86/98/4 89/99/4 87/100/4
f 98/101/4 96/102/4 94/103/4
f 104/104/2 106/105/2 108/106/2
f 119/107/5 110/108/5 117/109/5
f 115/110/1 114/111/1 116/112/1
f 117/113/4 109/114/4 118/115/4
f 120/116/2 111/117/2 119/118/2
f 118/119/6 112/120/6 120/121/6
f 112/120/3 110/108/3 111/117/3
f 122/122/1 120/116/1 119/118/1
f 113/123/6 123/124/6 121/125/6
f 122/126/5 116/127/5 114/128/5
f 123/129/4 116/130/4 124/131/4
f 120/121/1 123/124/1 118/119/1
f 113/132/2 122/122/2 114/133/2
f 118/115/1 124/131/1 117/113/1
f 117/109/1 122/126/1 119/107/1
f 135/134/5 126/135/5 133/136/5
f 131/137/3 130/138/3 132/139/3
f 133/140/2 125/141/2 134/142/2
f 136/143/4 127/144/4 135/145/4
f 134/146/6 128/147/6 136/148/6
f 128/147/1 126/135/1 127/144/1
f 138/149/3 136/143/3 135/145/3
f 129/150/6 139/151/6 137/152/6
f 138/153/5 132/154/5 130/155/5
f 139/156/2 132/157/2 140/158/2
f 136/148/3 139/151/3 134/146/3
f 129/159/4 138/149/4 130/160/4
f 134/142/3 140/158/3 133/140/3
f 133/136/3 138/153/3 135/134/3
f 147/161/6 654/162/6 149/163/6
f 145/164/6 655/165/6 147/161/6
f 143/166/6 656/167/6 145/168/6
f 155/169/6 657/170/6 143/166/6
f 157/171/6 651/172/6 155/169/6
f 168/173/7 167/174/7 165/175/7
f 645/176/6 643/177/6 648/178/6
f 156/179/8 152/180/8 148/181/8
f 159/182/8 141/183/8 162/184/8
f 151/185/6 652/186/6 153/187/6
f 157/171/6 652/188/6 650/189/6
f 233/190/6 236/191/6 235/192/6
f 216/193/2 218/194/2 220/195/2
f 226/196/4 224/197/4 222/198/4
f 664/199/6 679/200/6 663/201/6
f 665/202/6 680/203/6 664/204/6
f 659/205/6 681/206/6 665/202/6
f 658/207/6 675/208/6 659/205/6
f 667/209/6 666/210/6 672/211/6
f 661/212/6 676/213/6 660/214/6
f 658/207/6 676/215/6 674/216/6
f 149/163/6 653/217/6 151/185/6
f 255/218/1 254/219/1 256/220/1
f 259/221/3 258/222/3 260/223/3
f 263/224/5 265/225/5 261/226/5
f 264/227/2 267/228/2 263/229/2
f 262/230/6 268/231/6 264/232/6
f 261/233/4 266/234/4 262/235/4
f 269/236/9 276/237/9 271/238/9
f 270/239/6 271/238/6 272/240/6
f 274/241/10 270/239/10 272/240/10
f 275/242/2 280/243/2 276/244/2
f 274/245/4 277/246/4 273/247/4
f 269/236/3 263/229/3 261/233/3
f 267/248/1 271/238/1 265/225/1
f 272/240/1 267/248/1 274/249/1
f 271/238/1 276/250/1 265/225/1
f 270/239/3 273/247/3 263/229/3
f 269/236/3 261/233/3 275/242/3
f 273/247/3 264/227/3 263/229/3
f 262/235/3 275/242/3 261/233/3
f 276/250/1 266/251/1 265/225/1
f 268/231/1 274/249/1 267/248/1
f 266/251/1 278/252/1 268/231/1
f 264/227/3 279/253/3 262/235/3
f 284/254/6 281/255/6 282/256/6
f 291/257/5 293/258/5 289/259/5
f 283/260/4 285/261/4 281/255/4
f 284/262/1 287/263/1 283/264/1
f 282/256/2 288/265/2 284/262/2
f 281/255/3 286/266/3 282/256/3
f 292/267/2 295/268/2 291/269/2
f 290/270/6 296/271/6 292/272/6
f 289/273/4 294/274/4 290/275/4
f 297/276/9 304/277/9 299/278/9
f 298/279/6 299/278/6 300/280/6
f 302/281/10 298/279/10 300/280/10
f 303/282/2 308/283/2 304/284/2
f 302/285/4 305/286/4 301/287/4
f 297/276/3 291/257/3 289/259/3
f 295/268/1 299/278/1 293/288/1
f 300/280/1 295/268/1 302/285/1
f 299/278/1 304/284/1 293/288/1
f 298/279/3 301/289/3 291/257/3
f 297/276/3 289/259/3 303/290/3
f 301/289/3 292/272/3 291/257/3
f 290/270/3 303/290/3 289/259/3
f 304/284/1 294/274/1 293/288/1
f 296/291/1 302/285/1 295/268/1
f 294/274/1 306/292/1 296/291/1
f 292/272/3 307/293/3 290/270/3
f 312/294/6 309/295/6 310/296/6
f 311/297/4 313/298/4 309/299/4
f 312/294/1 315/300/1 311/297/1
f 310/301/2 316/302/2 312/294/2
f 309/299/3 314/303/3 310/304/3
f 318/305/1 319/306/1 317/307/1
f 320/308/2 323/309/2 319/306/2
f 324/310/3 321/311/3 323/309/3
f 322/312/4 317/307/4 321/313/4
f 328/314/2 331/315/2 327/316/2
f 326/317/1 327/318/1 325/319/1
f 332/320/3 329/321/3 331/315/3
f 330/322/4 325/319/4 329/321/4
f 702/323/6 709/324/6 701/325/6
f 703/326/6 710/327/6 702/323/6
f 704/328/6 711/329/6 703/326/6
f 704/328/6 713/330/6 712/331/6
f 705/332/6 707/333/6 713/334/6
f 699/335/6 706/336/6 707/337/6
f 701/325/6 708/338/6 700/339/6
f 356/340/2 351/341/2 353/342/2
f 359/343/1 360/344/1 358/345/1
f 361/346/2 364/347/2 360/344/2
f 365/348/3 362/349/3 364/347/3
f 363/350/4 358/351/4 362/349/4
f 359/352/4 363/350/4 366/353/4
f 359/354/5 369/355/5 361/356/5
f 361/346/2 367/357/2 365/348/2
f 367/358/11 363/350/11 365/348/11
f 373/359/1 374/360/1 372/361/1
f 361/356/2 371/362/2 367/358/2
f 366/363/4 368/364/4 359/365/4
f 367/358/6 370/366/6 366/363/6
f 375/367/2 378/368/2 374/360/2
f 379/369/3 376/370/3 378/368/3
f 377/371/4 372/372/4 376/370/4
f 373/373/4 377/371/4 380/374/4
f 373/375/5 383/376/5 375/377/5
f 375/367/2 381/378/2 379/369/2
f 381/379/11 377/371/11 379/369/11
f 375/377/2 385/380/2 381/379/2
f 380/381/4 382/382/4 373/383/4
f 381/379/6 384/384/6 380/381/6
f 387/385/1 388/386/1 386/387/1
f 389/388/2 392/389/2 388/390/2
f 393/391/3 390/392/3 392/393/3
f 391/394/4 386/395/4 390/396/4
f 389/388/6 391/394/6 393/391/6
f 472/397/6 470/398/6 471/399/6
f 464/400/6 462/401/6 463/402/6
f 461/403/3 464/400/3 459/404/3
f 458/405/1 462/401/1 460/406/1
f 460/407/2 465/408/2 461/409/2
f 459/410/4 463/402/4 458/411/4
f 469/412/3 472/397/3 467/413/3
f 466/414/1 470/398/1 468/415/1
f 468/416/2 473/417/2 469/418/2
f 467/419/4 471/399/4 466/420/4
f 483/421/10 491/422/10 490/423/10
f 482/424/5 488/425/5 485/426/5
f 494/427/2 489/428/2 486/429/2
f 492/430/6 491/422/6 493/431/6
f 481/432/3 488/433/3 480/434/3
f 479/435/1 486/429/1 478/436/1
f 477/437/3 484/438/3 476/439/3
f 475/440/1 482/441/1 474/442/1
f 478/436/2 489/428/2 481/443/2
f 480/434/4 487/444/4 479/435/4
f 474/445/2 485/446/2 477/437/2
f 476/439/4 483/421/4 475/440/4
f 496/447/4 492/448/4 493/449/4
f 490/423/1 487/450/1 482/451/1
f 484/438/3 485/446/3 491/452/3
f 492/448/1 495/453/1 494/427/1
f 497/454/3 496/447/3 493/449/3
f 496/455/4 503/456/4 498/457/4
f 494/427/2 499/458/2 497/459/2
f 496/447/4 498/460/4 495/453/4
f 498/457/12 494/427/12 495/453/12
f 498/457/6 502/461/6 499/462/6
f 499/462/2 500/463/2 497/464/2
f 497/465/5 501/466/5 496/455/5
f 349/467/6 708/468/6 706/469/6
f 714/470/6 720/471/6 717/472/6
f 558/473/6 556/474/6 557/475/6
f 555/476/3 558/473/3 553/477/3
f 552/478/1 556/474/1 554/479/1
f 554/480/2 559/481/2 555/482/2
f 553/483/4 557/475/4 552/484/4
f 564/485/2 572/486/2 568/487/2
f 566/488/4 569/489/4 565/490/4
f 563/491/3 566/488/3 562/492/3
f 561/493/1 564/494/1 560/495/1
f 560/495/2 567/496/2 563/491/2
f 562/492/4 565/490/4 561/497/4
f 564/494/2 568/498/2 567/496/2
f 567/496/11 569/499/11 566/488/11
f 569/499/4 571/500/4 565/501/4
f 568/487/6 573/502/6 569/499/6
f 565/503/5 570/504/5 564/485/5
f 576/505/3 575/506/3 574/507/3
f 585/508/1 582/509/1 583/510/1
f 581/511/2 578/512/2 580/513/2
f 586/514/4 589/515/4 588/516/4
f 593/517/6 590/518/6 591/519/6
f 490/520/1 482/441/1 483/421/1
f 485/426/3 493/431/3 491/422/3
f 663/201/6 678/521/6 662/522/6
f 661/212/6 678/523/6 677/524/6
f 851/525/3 852/526/3 853/527/3
f 855/528/1 856/529/1 857/530/1
f 859/531/1 860/532/1 858/533/1
f 866/534/3 869/535/3 867/536/3
f 862/537/4 865/538/4 864/539/4
f 873/540/2 870/541/2 872/542/2
f 874/543/5 877/544/5 875/545/5
f 2/1/1 4/546/1 3/2/1
f 4/4/2 8/547/2 7/5/2
f 8/7/3 6/17/3 5/8/3
f 6/10/4 2/548/4 1/11/4
f 7/13/5 5/549/5 1/14/5
f 4/16/6 2/550/6 6/17/6
f 21/18/4 22/551/4 19/19/4
f 26/21/1 39/71/1 28/22/1
f 11/24/3 9/28/3 13/25/3
f 14/27/2 13/25/2 9/28/2
f 15/30/1 14/552/1 10/31/1
f 22/33/1 20/43/1 17/34/1
f 26/36/4 25/53/4 29/37/4
f 35/39/4 36/46/4 33/40/4
f 16/42/2 17/34/2 20/43/2
f 31/45/1 33/40/1 36/46/1
f 28/22/2 27/553/2 23/48/2
f 31/49/2 40/554/2 34/50/2
f 27/52/3 29/37/3 25/53/3
f 16/55/3 38/72/3 21/18/3
f 34/50/3 35/555/3 32/56/3
f 35/57/5 34/556/5 20/58/5
f 29/60/5 27/78/5 14/61/5
f 36/63/5 35/75/5 27/64/5
f 22/66/5 21/557/5 13/67/5
f 11/69/4 37/70/4 15/30/4
f 37/70/4 39/38/4 29/37/4
f 34/50/2 40/554/2 38/44/2
f 39/71/1 40/47/1 36/46/1
f 38/72/3 37/26/3 13/25/3
f 14/68/1 41/82/1 42/73/1
f 44/74/3 43/80/3 27/64/3
f 22/59/4 42/81/4 44/76/4
f 43/77/2 41/79/2 14/61/2
f 43/77/6 39/38/6 37/70/6
f 44/74/6 40/47/6 39/71/6
f 38/44/6 40/554/6 44/76/6
f 41/82/6 37/26/6 38/72/6
f 66/85/4 64/558/4 45/559/4
f 45/559/4 76/560/4 74/83/4
f 74/83/4 72/561/4 70/84/4
f 70/84/4 68/562/4 66/85/4
f 66/85/4 45/559/4 74/83/4
f 84/86/2 77/563/2 78/87/2
f 78/87/2 79/564/2 80/88/2
f 80/88/2 81/565/2 82/566/2
f 82/566/2 83/567/2 80/88/2
f 83/567/2 84/86/2 80/88/2
f 75/91/2 46/568/2 67/569/2
f 46/568/2 63/570/2 67/569/2
f 63/570/2 65/571/2 67/569/2
f 67/569/2 69/572/2 75/91/2
f 69/572/2 71/89/2 75/91/2
f 52/94/4 50/573/4 48/574/4
f 48/574/4 62/575/4 60/92/4
f 60/92/4 58/576/4 56/93/4
f 56/93/4 54/577/4 52/94/4
f 52/94/4 48/574/4 60/92/4
f 61/97/2 47/578/2 53/579/2
f 47/578/2 49/580/2 53/579/2
f 49/580/2 51/581/2 53/579/2
f 53/579/2 55/582/2 61/97/2
f 55/582/2 57/95/2 61/97/2
f 87/100/4 88/583/4 90/584/4
f 90/584/4 92/585/4 87/100/4
f 92/585/4 91/586/4 87/100/4
f 91/586/4 85/587/4 87/100/4
f 85/587/4 86/98/4 87/100/4
f 94/103/4 93/588/4 100/589/4
f 100/589/4 99/590/4 98/101/4
f 98/101/4 97/591/4 96/102/4
f 96/102/4 95/592/4 94/103/4
f 94/103/4 100/589/4 98/101/4
f 108/106/2 101/593/2 102/594/2
f 102/594/2 103/595/2 104/104/2
f 104/104/2 105/596/2 106/105/2
f 106/105/2 107/597/2 108/106/2
f 108/106/2 102/594/2 104/104/2
f 119/107/5 111/117/5 110/108/5
f 115/110/1 113/123/1 114/111/1
f 117/113/4 110/108/4 109/114/4
f 120/116/2 112/120/2 111/117/2
f 118/119/6 109/114/6 112/120/6
f 112/120/3 109/114/3 110/108/3
f 122/122/1 121/598/1 120/116/1
f 113/123/6 115/110/6 123/124/6
f 122/126/5 124/599/5 116/127/5
f 123/129/4 115/600/4 116/130/4
f 120/121/1 121/125/1 123/124/1
f 113/132/2 121/598/2 122/122/2
f 118/115/1 123/129/1 124/131/1
f 117/109/1 124/599/1 122/126/1
f 135/134/5 127/144/5 126/135/5
f 131/137/3 129/150/3 130/138/3
f 133/140/2 126/135/2 125/141/2
f 136/143/4 128/147/4 127/144/4
f 134/146/6 125/141/6 128/147/6
f 128/147/1 125/141/1 126/135/1
f 138/149/3 137/601/3 136/143/3
f 129/150/6 131/137/6 139/151/6
f 138/153/5 140/602/5 132/154/5
f 139/156/2 131/603/2 132/157/2
f 136/148/3 137/152/3 139/151/3
f 129/159/4 137/601/4 138/149/4
f 134/142/3 139/156/3 140/158/3
f 133/136/3 140/602/3 138/153/3
f 147/161/6 655/604/6 654/162/6
f 145/164/6 656/605/6 655/165/6
f 143/166/6 657/606/6 656/167/6
f 155/169/6 651/607/6 657/170/6
f 157/171/6 650/608/6 651/172/6
f 165/175/7 166/609/7 170/610/7
f 166/609/7 172/611/7 170/610/7
f 172/611/7 171/612/7 170/610/7
f 170/610/7 169/613/7 165/175/7
f 169/613/7 168/173/7 165/175/7
f 648/178/6 649/614/6 647/615/6
f 647/615/6 646/616/6 648/178/6
f 646/616/6 645/176/6 648/178/6
f 645/176/6 644/617/6 643/177/6
f 643/177/6 642/618/6 648/178/6
f 148/181/8 146/619/8 144/620/8
f 144/620/8 158/621/8 156/179/8
f 156/179/8 154/622/8 152/180/8
f 152/180/8 150/623/8 148/181/8
f 148/181/8 144/620/8 156/179/8
f 141/183/8 142/624/8 162/184/8
f 142/624/8 164/625/8 162/184/8
f 164/625/8 163/626/8 162/184/8
f 162/184/8 161/627/8 160/628/8
f 160/628/8 159/182/8 162/184/8
f 151/185/6 653/629/6 652/186/6
f 157/171/6 153/187/6 652/188/6
f 235/192/6 232/630/6 229/631/6
f 229/631/6 230/632/6 235/192/6
f 230/632/6 231/633/6 235/192/6
f 231/633/6 234/634/6 235/192/6
f 234/634/6 233/190/6 235/192/6
f 220/195/2 213/635/2 214/636/2
f 214/636/2 215/637/2 216/193/2
f 216/193/2 217/638/2 218/194/2
f 218/194/2 219/639/2 220/195/2
f 220/195/2 214/636/2 216/193/2
f 222/198/4 221/640/4 228/641/4
f 228/641/4 227/642/4 226/196/4
f 226/196/4 225/643/4 224/197/4
f 224/197/4 223/644/4 222/198/4
f 222/198/4 228/641/4 226/196/4
f 664/199/6 680/645/6 679/200/6
f 665/202/6 681/646/6 680/203/6
f 659/205/6 675/647/6 681/206/6
f 658/207/6 674/648/6 675/208/6
f 672/211/6 673/649/6 671/650/6
f 671/650/6 670/651/6 672/211/6
f 670/651/6 669/652/6 672/211/6
f 669/652/6 668/653/6 672/211/6
f 668/653/6 667/209/6 672/211/6
f 661/212/6 677/654/6 676/213/6
f 658/207/6 660/214/6 676/215/6
f 149/163/6 654/655/6 653/217/6
f 255/218/1 253/656/1 254/219/1
f 259/221/3 257/657/3 258/222/3
f 263/224/5 267/248/5 265/225/5
f 264/227/2 268/658/2 267/228/2
f 262/230/6 266/251/6 268/231/6
f 261/233/4 265/659/4 266/234/4
f 269/236/9 275/660/9 276/237/9
f 270/239/6 269/236/6 271/238/6
f 274/241/10 273/661/10 270/239/10
f 275/242/2 279/253/2 280/243/2
f 274/245/4 278/662/4 277/246/4
f 269/236/3 270/239/3 263/229/3
f 267/248/1 272/240/1 271/238/1
f 273/247/3 277/246/3 264/227/3
f 262/235/3 279/253/3 275/242/3
f 276/250/1 280/663/1 266/251/1
f 268/231/1 278/252/1 274/249/1
f 266/251/1 280/663/1 278/252/1
f 264/227/3 277/246/3 279/253/3
f 284/254/6 283/664/6 281/255/6
f 291/257/5 295/665/5 293/258/5
f 283/260/4 287/666/4 285/261/4
f 284/262/1 288/265/1 287/263/1
f 282/256/2 286/266/2 288/265/2
f 281/255/3 285/261/3 286/266/3
f 292/267/2 296/291/2 295/268/2
f 290/270/6 294/667/6 296/271/6
f 289/273/4 293/288/4 294/274/4
f 297/276/9 303/668/9 304/277/9
f 298/279/6 297/276/6 299/278/6
f 302/281/10 301/669/10 298/279/10
f 303/282/2 307/670/2 308/283/2
f 302/285/4 306/292/4 305/286/4
f 297/276/3 298/279/3 291/257/3
f 295/268/1 300/280/1 299/278/1
f 301/289/3 305/671/3 292/272/3
f 290/270/3 307/293/3 303/290/3
f 304/284/1 308/283/1 294/274/1
f 296/291/1 306/292/1 302/285/1
f 294/274/1 308/283/1 306/292/1
f 292/272/3 305/671/3 307/293/3
f 312/294/6 311/297/6 309/295/6
f 311/297/4 315/300/4 313/298/4
f 312/294/1 316/302/1 315/300/1
f 310/301/2 314/672/2 316/302/2
f 309/299/3 313/298/3 314/303/3
f 318/305/1 320/308/1 319/306/1
f 320/308/2 324/310/2 323/309/2
f 324/310/3 322/673/3 321/311/3
f 322/312/4 318/305/4 317/307/4
f 328/314/2 332/320/2 331/315/2
f 326/317/1 328/674/1 327/318/1
f 332/320/3 330/322/3 329/321/3
f 330/322/4 326/317/4 325/319/4
f 702/323/6 710/675/6 709/324/6
f 703/326/6 711/676/6 710/327/6
f 704/328/6 712/677/6 711/329/6
f 704/328/6 705/332/6 713/330/6
f 705/332/6 699/335/6 707/333/6
f 699/335/6 349/467/6 706/336/6
f 701/325/6 709/678/6 708/338/6
f 355/679/2 357/680/2 356/340/2
f 356/340/2 350/681/2 351/341/2
f 351/341/2 352/682/2 353/342/2
f 353/342/2 354/683/2 355/679/2
f 355/679/2 356/340/2 353/342/2
f 359/343/1 361/346/1 360/344/1
f 361/346/2 365/348/2 364/347/2
f 365/348/3 363/350/3 362/349/3
f 363/350/4 359/352/4 358/351/4
f 359/354/5 368/684/5 369/355/5
f 367/358/11 366/363/11 363/350/11
f 373/359/1 375/367/1 374/360/1
f 361/356/2 369/355/2 371/362/2
f 366/363/4 370/366/4 368/364/4
f 367/358/6 371/362/6 370/366/6
f 375/367/2 379/369/2 378/368/2
f 379/369/3 377/371/3 376/370/3
f 377/371/4 373/373/4 372/372/4
f 373/375/5 382/685/5 383/376/5
f 381/379/11 380/381/11 377/371/11
f 375/377/2 383/376/2 385/380/2
f 380/381/4 384/384/4 382/382/4
f 381/379/6 385/380/6 384/384/6
f 387/385/1 389/388/1 388/386/1
f 389/388/2 393/391/2 392/389/2
f 393/391/3 391/394/3 390/392/3
f 391/394/4 387/385/4 386/395/4
f 389/388/6 387/385/6 391/394/6
f 472/397/6 473/417/6 470/398/6
f 464/400/6 465/408/6 462/401/6
f 461/403/3 465/408/3 464/400/3
f 458/405/1 463/402/1 462/401/1
f 460/407/2 462/401/2 465/408/2
f 459/410/4 464/400/4 463/402/4
f 469/412/3 473/417/3 472/397/3
f 466/414/1 471/399/1 470/398/1
f 468/416/2 470/398/2 473/417/2
f 467/419/4 472/397/4 471/399/4
f 483/421/10 484/438/10 491/422/10
f 482/424/5 487/686/5 488/425/5
f 494/427/2 497/459/2 489/428/2
f 492/430/6 490/423/6 491/422/6
f 481/432/3 489/687/3 488/433/3
f 479/435/1 487/444/1 486/429/1
f 477/437/3 485/446/3 484/438/3
f 475/440/1 483/421/1 482/441/1
f 478/436/2 486/429/2 489/428/2
f 480/434/4 488/433/4 487/444/4
f 474/445/2 482/688/2 485/446/2
f 476/439/4 484/438/4 483/421/4
f 496/447/4 495/453/4 492/448/4
f 490/423/1 492/430/1 487/450/1
f 494/427/1 486/429/1 492/448/1
f 486/429/1 487/444/1 492/448/1
f 493/449/3 488/433/3 489/687/3
f 489/687/3 497/454/3 493/449/3
f 496/455/4 501/466/4 503/456/4
f 498/457/12 499/462/12 494/427/12
f 498/457/6 503/456/6 502/461/6
f 499/462/2 502/461/2 500/463/2
f 497/465/5 500/689/5 501/466/5
f 349/467/6 700/690/6 708/468/6
f 720/471/6 721/691/6 719/692/6
f 719/692/6 718/693/6 720/471/6
f 718/693/6 717/472/6 720/471/6
f 717/472/6 716/694/6 715/695/6
f 715/695/6 714/470/6 717/472/6
f 558/473/6 559/481/6 556/474/6
f 555/476/3 559/481/3 558/473/3
f 552/478/1 557/475/1 556/474/1
f 554/480/2 556/474/2 559/481/2
f 553/483/4 558/473/4 557/475/4
f 564/485/2 570/504/2 572/486/2
f 563/491/3 567/496/3 566/488/3
f 561/493/1 565/696/1 564/494/1
f 560/495/2 564/494/2 567/496/2
f 562/492/4 566/488/4 565/490/4
f 567/496/11 568/487/11 569/499/11
f 569/499/4 573/502/4 571/500/4
f 568/487/6 572/486/6 573/502/6
f 565/503/5 571/697/5 570/504/5
f 576/505/3 577/698/3 575/506/3
f 585/508/1 584/699/1 582/509/1
f 581/511/2 579/700/2 578/512/2
f 586/514/4 587/701/4 589/515/4
f 593/517/6 592/702/6 590/518/6
f 485/426/3 488/425/3 493/431/3
f 663/201/6 679/703/6 678/521/6
f 661/212/6 662/522/6 678/523/6
f 851/525/3 850/704/3 852/526/3
f 855/528/1 854/705/1 856/529/1
f 859/531/1 861/706/1 860/532/1
f 866/534/3 868/707/3 869/535/3
f 862/537/4 863/708/4 865/538/4
f 873/540/2 871/709/2 870/541/2
f 874/543/5 876/710/5 877/544/5
f 641/711/13 626/712/14 640/713/13
f 639/714/6 640/713/13 638/715/6
f 637/716/15 638/715/6 636/717/15
f 635/718/16 636/717/15 634/719/16
f 633/720/17 634/719/16 632/721/17
f 631/722/5 632/721/17 630/723/5
f 629/724/18 630/725/5 628/726/18
f 627/727/14 628/726/18 626/712/14
f 181/728/19 174/729/20 173/730/21
f 182/731/22 175/732/23 174/729/20
f 175/732/23 184/733/24 176/734/25
f 184/733/24 177/735/26 176/734/25
f 177/736/26 186/737/27 178/738/28
f 186/737/27 179/739/29 178/738/28
f 179/739/29 188/740/30 180/741/31
f 188/740/30 173/730/21 180/741/31
f 189/742/32 182/731/22 181/728/19
f 190/743/33 183/744/34 182/731/22
f 183/744/34 192/745/35 184/733/24
f 192/745/35 185/746/36 184/733/24
f 185/747/36 194/748/37 186/737/27
f 194/748/37 187/749/38 186/737/27
f 187/749/38 196/750/39 188/740/30
f 196/750/39 181/728/19 188/740/30
f 189/742/32 198/751/40 190/743/33
f 190/743/33 199/752/41 191/753/42
f 191/753/42 200/754/43 192/745/35
f 200/754/43 193/755/44 192/745/35
f 193/756/44 202/757/45 194/748/37
f 202/757/45 195/758/46 194/748/37
f 195/758/46 204/759/47 196/750/39
f 196/750/39 197/760/48 189/742/32
f 197/760/48 210/761/1 198/751/40
f 198/751/40 209/762/16 199/752/41
f 200/754/43 211/763/8 201/764/49
f 199/752/41 212/765/4 200/754/43
f 204/759/47 207/766/7 197/760/48
f 201/767/49 208/768/3 202/757/45
f 203/769/50 206/770/2 204/759/47
f 202/757/45 205/771/14 203/769/50
f 245/772/51 238/773/52 246/774/52
f 241/775/53 252/776/54 249/777/53
f 248/778/55 237/779/51 245/772/51
f 243/780/56 250/781/57 251/782/56
f 239/783/58 248/778/55 247/784/58
f 242/785/57 247/784/58 250/781/57
f 244/786/54 251/782/56 252/776/54
f 238/787/52 249/777/53 246/788/52
f 737/789/1 738/790/12 736/791/1
f 722/792/6 740/793/11 723/794/6
f 340/795/11 347/796/3 339/797/3
f 338/798/59 345/799/5 337/800/5
f 336/801/60 343/802/1 335/803/1
f 334/804/12 342/805/6 333/806/6
f 333/806/6 348/807/11 340/795/11
f 339/797/3 346/808/59 338/798/59
f 337/809/5 344/810/60 336/801/60
f 335/803/1 341/811/12 334/804/12
f 735/812/60 736/791/1 734/813/60
f 741/814/11 742/815/3 740/793/11
f 753/816/12 723/794/6 752/817/12
f 733/818/5 734/813/60 732/819/5
f 743/820/3 744/821/59 742/815/3
f 731/822/59 732/823/5 730/824/59
f 751/825/1 752/817/12 750/826/1
f 761/827/12 768/828/1 760/829/1
f 401/830/14 408/831/3 400/832/3
f 399/833/8 406/834/4 398/835/4
f 397/836/16 404/837/1 396/838/1
f 395/839/7 403/840/2 394/841/2
f 394/841/2 409/842/14 401/830/14
f 400/843/3 407/844/8 399/833/8
f 398/835/4 405/845/16 397/836/16
f 396/838/1 402/846/7 395/839/7
f 426/847/7 424/848/2 427/849/2
f 429/850/16 423/851/1 428/852/1
f 431/853/8 421/854/4 430/855/4
f 696/856/61 694/857/62 692/858/4
f 685/859/63 696/856/61 684/860/64
f 692/861/4 691/862/65 696/856/61
f 684/860/64 691/862/65 682/863/66
f 692/864/4 690/865/67 691/862/65
f 682/863/66 690/865/67 683/866/68
f 690/865/67 692/867/4 695/868/69
f 433/869/14 419/870/3 432/871/3
f 427/872/2 418/873/14 433/874/14
f 432/875/3 420/876/8 431/877/8
f 430/878/4 422/879/16 429/880/16
f 428/881/1 425/882/7 426/883/7
f 683/866/68 695/868/69 689/884/70
f 695/868/69 692/885/4 697/886/71
f 410/887/14 440/888/3 411/889/3
f 412/890/8 438/891/4 413/892/4
f 414/893/16 436/894/1 415/895/1
f 416/896/7 435/897/2 417/898/2
f 417/898/2 441/899/14 410/887/14
f 411/900/3 439/901/8 412/890/8
f 413/892/4 437/902/16 414/893/16
f 415/895/1 434/903/7 416/896/7
f 450/904/7 448/905/2 451/906/2
f 453/907/16 447/908/1 452/909/1
f 455/910/8 445/911/4 454/912/4
f 688/913/72 695/868/69 697/886/71
f 697/886/71 692/914/4 698/915/73
f 688/913/72 698/915/73 687/916/74
f 692/917/4 693/918/75 698/915/73
f 687/916/74 693/918/75 686/919/76
f 693/920/75 692/921/4 694/857/62
f 686/922/76 694/857/62 685/859/63
f 457/923/14 443/924/3 456/925/3
f 451/926/2 442/927/14 457/928/14
f 456/929/3 444/930/8 455/931/8
f 454/932/4 446/933/16 453/934/16
f 452/935/1 449/936/7 450/937/7
f 745/938/59 746/939/5 744/821/59
f 510/940/3 519/941/11 511/942/11
f 508/943/5 517/944/59 509/945/59
f 506/946/1 515/947/60 507/948/60
f 504/949/6 512/950/12 505/951/12
f 511/942/11 513/952/6 504/949/6
f 509/945/59 518/953/3 510/940/3
f 507/948/60 516/954/5 508/955/5
f 505/951/12 514/956/1 506/946/1
f 729/957/3 730/824/59 728/958/3
f 527/959/14 534/960/3 526/961/3
f 525/962/8 532/963/4 524/964/4
f 523/965/16 530/966/1 522/967/1
f 521/968/7 529/969/2 520/970/2
f 520/970/2 535/971/14 527/959/14
f 526/961/3 533/972/8 525/962/8
f 524/964/4 531/973/16 523/965/16
f 522/974/1 528/975/7 521/968/7
f 544/976/7 542/977/2 545/978/2
f 547/979/16 541/980/1 546/981/1
f 549/982/8 539/983/4 548/984/4
f 759/985/60 766/986/5 758/987/5
f 747/988/5 748/989/60 746/990/5
f 727/991/11 728/958/3 726/992/11
f 749/993/60 750/826/1 748/989/60
f 757/994/59 764/995/3 756/996/3
f 725/997/6 726/992/11 724/998/6
f 551/999/14 537/1000/3 550/1001/3
f 545/1002/2 536/1003/14 551/1004/14
f 550/1005/3 538/1006/8 549/1007/8
f 548/1008/4 540/1009/16 547/1010/16
f 546/1011/1 543/1012/7 544/1013/7
f 615/1014/1 606/1015/16 607/1016/1
f 594/1017/13 619/1018/14 618/1019/13
f 595/1020/6 621/1021/15 596/1022/15
f 594/1017/13 620/1023/6 595/1020/6
f 601/1024/18 624/1025/5 625/1026/18
f 596/1022/15 622/1027/16 597/1028/16
f 601/1024/18 619/1018/14 600/1029/14
f 598/1030/17 622/1027/16 623/1031/17
f 598/1030/17 624/1032/5 599/1033/5
f 611/1034/2 604/1035/7 603/1036/2
f 614/1037/16 609/1038/4 606/1015/16
f 613/1039/3 602/1040/14 605/1041/3
f 617/1042/4 608/1043/8 609/1038/4
f 616/1044/8 605/1041/3 608/1045/8
f 610/1046/14 603/1036/2 602/1040/14
f 612/1047/7 607/1016/1 604/1035/7
f 739/1048/12 724/998/6 738/790/12
f 755/1049/11 762/1050/6 754/1051/6
f 754/1051/6 769/1052/12 761/827/12
f 760/829/1 767/1053/60 759/985/60
f 758/1054/5 765/1055/59 757/994/59
f 756/996/3 763/1056/11 755/1049/11
f 772/1057/3 782/1058/59 773/1059/59
f 773/1059/59 779/1060/5 774/1061/5
f 774/1062/5 778/1063/60 775/1064/60
f 777/1065/12 783/1066/6 770/1067/6
f 775/1064/60 784/1068/1 776/1069/1
f 770/1067/6 781/1070/11 771/1071/11
f 771/1071/11 780/1072/3 772/1057/3
f 776/1069/1 785/1073/12 777/1065/12
f 799/1074/60 808/1075/1 800/1076/1
f 797/1077/59 806/1078/5 798/1079/5
f 795/1080/11 804/1081/3 796/1082/3
f 800/1076/1 809/1083/12 801/1084/12
f 798/1085/5 807/1086/60 799/1074/60
f 796/1082/3 805/1087/59 797/1077/59
f 794/1088/6 803/1089/11 795/1080/11
f 801/1084/12 802/1090/6 794/1088/6
f 789/1091/59 812/1092/3 788/1093/3
f 787/1094/11 810/1095/6 786/1096/6
f 786/1096/6 817/1097/12 793/1098/12
f 792/1099/1 815/1100/60 791/1101/60
f 790/1102/5 813/1103/59 789/1091/59
f 788/1093/3 811/1104/11 787/1094/11
f 793/1098/12 816/1105/1 792/1099/1
f 791/1101/60 814/1106/5 790/1107/5
f 818/1108/6 833/1109/12 825/1110/12
f 824/1111/1 831/1112/60 823/1113/60
f 822/1114/5 829/1115/59 821/1116/59
f 820/1117/3 827/1118/11 819/1119/11
f 825/1110/12 832/1120/1 824/1111/1
f 823/1113/60 830/1121/5 822/1122/5
f 821/1116/59 828/1123/3 820/1117/3
f 819/1119/11 826/1124/6 818/1108/6
f 841/1125/12 842/1126/6 834/1127/6
f 839/1128/60 848/1129/1 840/1130/1
f 837/1131/59 846/1132/5 838/1133/5
f 835/1134/11 844/1135/3 836/1136/3
f 840/1130/1 849/1137/12 841/1125/12
f 838/1138/5 847/1139/60 839/1128/60
f 836/1136/3 845/1140/59 837/1131/59
f 834/1127/6 843/1141/11 835/1134/11
f 641/711/13 627/727/14 626/712/14
f 639/714/6 641/711/13 640/713/13
f 637/716/15 639/714/6 638/715/6
f 635/718/16 637/716/15 636/717/15
f 633/720/17 635/718/16 634/719/16
f 631/722/5 633/720/17 632/721/17
f 629/724/18 631/1142/5 630/725/5
f 627/727/14 629/724/18 628/726/18
f 181/728/19 182/731/22 174/729/20
f 182/731/22 183/744/34 175/732/23
f 175/732/23 183/744/34 184/733/24
f 184/733/24 185/746/36 177/735/26
f 177/736/26 185/747/36 186/737/27
f 186/737/27 187/749/38 179/739/29
f 179/739/29 187/749/38 188/740/30
f 188/740/30 181/728/19 173/730/21
f 189/742/32 190/743/33 182/731/22
f 190/743/33 191/753/42 183/744/34
f 183/744/34 191/753/42 192/745/35
f 192/745/35 193/755/44 185/746/36
f 185/747/36 193/756/44 194/748/37
f 194/748/37 195/758/46 187/749/38
f 187/749/38 195/758/46 196/750/39
f 196/750/39 189/742/32 181/728/19
f 189/742/32 197/760/48 198/751/40
f 190/743/33 198/751/40 199/752/41
f 191/753/42 199/752/41 200/754/43
f 200/754/43 201/764/49 193/755/44
f 193/756/44 201/767/49 202/757/45
f 202/757/45 203/769/50 195/758/46
f 195/758/46 203/769/50 204/759/47
f 196/750/39 204/759/47 197/760/48
f 197/760/48 207/766/7 210/761/1
f 198/751/40 210/761/1 209/762/16
f 200/754/43 212/765/4 211/763/8
f 199/752/41 209/762/16 212/765/4
f 204/759/47 206/770/2 207/766/7
f 201/767/49 211/1143/8 208/768/3
f 203/769/50 205/771/14 206/770/2
f 202/757/45 208/768/3 205/771/14
f 245/772/51 237/779/51 238/773/52
f 241/775/53 244/786/54 252/776/54
f 248/778/55 240/1144/55 237/779/51
f 243/780/56 242/785/57 250/781/57
f 239/783/58 240/1144/55 248/778/55
f 242/785/57 239/783/58 247/784/58
f 244/786/54 243/780/56 251/782/56
f 238/787/52 241/775/53 249/777/53
f 737/789/1 739/1048/12 738/790/12
f 722/792/6 741/814/11 740/793/11
f 340/795/11 348/807/11 347/796/3
f 338/798/59 346/808/59 345/799/5
f 336/801/60 344/810/60 343/802/1
f 334/804/12 341/811/12 342/805/6
f 333/806/6 342/805/6 348/807/11
f 339/797/3 347/796/3 346/808/59
f 337/809/5 345/1145/5 344/810/60
f 335/803/1 343/802/1 341/811/12
f 735/812/60 737/789/1 736/791/1
f 741/814/11 743/820/3 742/815/3
f 753/816/12 722/792/6 723/794/6
f 733/818/5 735/812/60 734/813/60
f 743/820/3 745/938/59 744/821/59
f 731/822/59 733/1146/5 732/823/5
f 751/825/1 753/816/12 752/817/12
f 761/827/12 769/1052/12 768/828/1
f 401/830/14 409/842/14 408/831/3
f 399/833/8 407/844/8 406/834/4
f 397/836/16 405/845/16 404/837/1
f 395/839/7 402/846/7 403/840/2
f 394/841/2 403/840/2 409/842/14
f 400/843/3 408/1147/3 407/844/8
f 398/835/4 406/834/4 405/845/16
f 396/838/1 404/837/1 402/846/7
f 426/847/7 425/1148/7 424/848/2
f 429/850/16 422/1149/16 423/851/1
f 431/853/8 420/1150/8 421/854/4
f 685/859/63 694/857/62 696/856/61
f 684/860/64 696/856/61 691/862/65
f 682/863/66 691/862/65 690/865/67
f 433/869/14 418/1151/14 419/870/3
f 427/872/2 424/1152/2 418/873/14
f 432/875/3 419/1153/3 420/876/8
f 430/878/4 421/1154/4 422/879/16
f 428/881/1 423/1155/1 425/882/7
f 683/866/68 690/865/67 695/868/69
f 410/887/14 441/899/14 440/888/3
f 412/890/8 439/901/8 438/891/4
f 414/893/16 437/902/16 436/894/1
f 416/896/7 434/903/7 435/897/2
f 417/898/2 435/897/2 441/899/14
f 411/900/3 440/1156/3 439/901/8
f 413/892/4 438/891/4 437/902/16
f 415/895/1 436/894/1 434/903/7
f 450/904/7 449/1157/7 448/905/2
f 453/907/16 446/1158/16 447/908/1
f 455/910/8 444/1159/8 445/911/4
f 688/913/72 689/884/70 695/868/69
f 688/913/72 697/886/71 698/915/73
f 687/916/74 698/915/73 693/918/75
f 686/922/76 693/920/75 694/857/62
f 457/923/14 442/1160/14 443/924/3
f 451/926/2 448/1161/2 442/927/14
f 456/929/3 443/1162/3 444/930/8
f 454/932/4 445/1163/4 446/933/16
f 452/935/1 447/1164/1 449/936/7
f 745/938/59 747/1165/5 746/939/5
f 510/940/3 518/953/3 519/941/11
f 508/943/5 516/1166/5 517/944/59
f 506/946/1 514/956/1 515/947/60
f 504/949/6 513/952/6 512/950/12
f 511/942/11 519/941/11 513/952/6
f 509/945/59 517/944/59 518/953/3
f 507/948/60 515/947/60 516/954/5
f 505/951/12 512/950/12 514/956/1
f 729/957/3 731/822/59 730/824/59
f 527/959/14 535/971/14 534/960/3
f 525/962/8 533/972/8 532/963/4
f 523/965/16 531/973/16 530/966/1
f 521/968/7 528/975/7 529/969/2
f 520/970/2 529/969/2 535/971/14
f 526/961/3 534/960/3 533/972/8
f 524/964/4 532/963/4 531/973/16
f 522/974/1 530/1167/1 528/975/7
f 544/976/7 543/1168/7 542/977/2
f 547/979/16 540/1169/16 541/980/1
f 549/982/8 538/1170/8 539/983/4
f 759/985/60 767/1053/60 766/986/5
f 747/988/5 749/993/60 748/989/60
f 727/991/11 729/957/3 728/958/3
f 749/993/60 751/825/1 750/826/1
f 757/994/59 765/1055/59 764/995/3
f 725/997/6 727/991/11 726/992/11
f 551/999/14 536/1171/14 537/1000/3
f 545/1002/2 542/1172/2 536/1003/14
f 550/1005/3 537/1173/3 538/1006/8
f 548/1008/4 539/1174/4 540/1009/16
f 546/1011/1 541/1175/1 543/1012/7
f 615/1014/1 614/1037/16 606/1015/16
f 594/1017/13 600/1029/14 619/1018/14
f 595/1020/6 620/1023/6 621/1021/15
f 594/1017/13 618/1019/13 620/1023/6
f 601/1024/18 599/1176/5 624/1025/5
f 596/1022/15 621/1021/15 622/1027/16
f 601/1024/18 625/1026/18 619/1018/14
f 598/1030/17 597/1028/16 622/1027/16
f 598/1030/17 623/1031/17 624/1032/5
f 611/1034/2 612/1047/7 604/1035/7
f 614/1037/16 617/1042/4 609/1038/4
f 613/1039/3 610/1046/14 602/1040/14
f 617/1042/4 616/1177/8 608/1043/8
f 616/1044/8 613/1039/3 605/1041/3
f 610/1046/14 611/1034/2 603/1036/2
f 612/1047/7 615/1014/1 607/1016/1
f 739/1048/12 725/997/6 724/998/6
f 755/1049/11 763/1056/11 762/1050/6
f 754/1051/6 762/1050/6 769/1052/12
f 760/829/1 768/828/1 767/1053/60
f 758/1054/5 766/1178/5 765/1055/59
f 756/996/3 764/995/3 763/1056/11
f 772/1057/3 780/1072/3 782/1058/59
f 773/1059/59 782/1058/59 779/1060/5
f 774/1062/5 779/1179/5 778/1063/60
f 777/1065/12 785/1073/12 783/1066/6
f 775/1064/60 778/1063/60 784/1068/1
f 770/1067/6 783/1066/6 781/1070/11
f 771/1071/11 781/1070/11 780/1072/3
f 776/1069/1 784/1068/1 785/1073/12
f 799/1074/60 807/1086/60 808/1075/1
f 797/1077/59 805/1087/59 806/1078/5
f 795/1080/11 803/1089/11 804/1081/3
f 800/1076/1 808/1075/1 809/1083/12
f 798/1085/5 806/1180/5 807/1086/60
f 796/1082/3 804/1081/3 805/1087/59
f 794/1088/6 802/1090/6 803/1089/11
f 801/1084/12 809/1083/12 802/1090/6
f 789/1091/59 813/1103/59 812/1092/3
f 787/1094/11 811/1104/11 810/1095/6
f 786/1096/6 810/1095/6 817/1097/12
f 792/1099/1 816/1105/1 815/1100/60
f 790/1102/5 814/1181/5 813/1103/59
f 788/1093/3 812/1092/3 811/1104/11
f 793/1098/12 817/1097/12 816/1105/1
f 791/1101/60 815/1100/60 814/1106/5
f 818/1108/6 826/1124/6 833/1109/12
f 824/1111/1 832/1120/1 831/1112/60
f 822/1114/5 830/1182/5 829/1115/59
f 820/1117/3 828/1123/3 827/1118/11
f 825/1110/12 833/1109/12 832/1120/1
f 823/1113/60 831/1112/60 830/1121/5
f 821/1116/59 829/1115/59 828/1123/3
f 819/1119/11 827/1118/11 826/1124/6
f 841/1125/12 849/1137/12 842/1126/6
f 839/1128/60 847/1139/60 848/1129/1
f 837/1131/59 845/1140/59 846/1132/5
f 835/1134/11 843/1141/11 844/1135/3
f 840/1130/1 848/1129/1 849/1137/12
f 838/1138/5 846/1183/5 847/1139/60
f 836/1136/3 844/1135/3 845/1140/59
f 834/1127/6 842/1126/6 843/1141/11
